<?xml version="1.0" standalone="no"?>
<!DOCTYPE svg PUBLIC "-//W3C//DTD SVG 1.1//EN" "http://www.w3.org/Graphics/SVG/1.1/DTD/svg11.dtd" >
<svg xmlns="http://www.w3.org/2000/svg" xmlns:xlink="http://www.w3.org/1999/xlink" version="1.1">
<metadata>
Created by FontForge 20170731 at Fri Nov 12 10:54:04 2021
 By Aleksey,,,
Copyright (c) 2016 by Reghardt Grobbelaar. All rights reserved.
</metadata>
<defs>
<font id="PollyRounded-Regular" horiz-adv-x="1320" >
  <font-face 
    font-family="Polly Rounded"
    font-weight="400"
    font-stretch="normal"
    units-per-em="2048"
    panose-1="0 0 5 0 0 0 0 0 0 0"
    ascent="1638"
    descent="-410"
    x-height="1004.5"
    cap-height="1393"
    bbox="-118.11 -512 2439.53 2005.79"
    underline-thickness="102"
    underline-position="-307"
    unicode-range="U+0020-2265"
  />
<missing-glyph horiz-adv-x="942" 
d="M773 1434v-1886h-598v1886h598zM628 1307h-311v-62h122v-70h-124v-62h313v62h-125v70h125v62zM503 1064h-188v-196h313v64h-125v132zM439 1000v-68h-62v68h62zM628 817h-313v-62h124v-70h-124v-62h188v132h125v62zM628 704h-62v-124h-251v-64h313v188zM628 474h-189v-106
h64v44h63v-89h-189v151h-62v-213h313v213zM628 148h-313v-213h313v213zM566 86v-89h-189v89h189zM628 -108h-313v-63h132l-132 -88v-63h313v63h-193l132 88h61v63z" />
    <glyph glyph-name=".notdef" horiz-adv-x="942" 
d="M773 1434v-1886h-598v1886h598zM628 1307h-311v-62h122v-70h-124v-62h313v62h-125v70h125v62zM503 1064h-188v-196h313v64h-125v132zM439 1000v-68h-62v68h62zM628 817h-313v-62h124v-70h-124v-62h188v132h125v62zM628 704h-62v-124h-251v-64h313v188zM628 474h-189v-106
h64v44h63v-89h-189v151h-62v-213h313v213zM628 148h-313v-213h313v213zM566 86v-89h-189v89h189zM628 -108h-313v-63h132l-132 -88v-63h313v63h-193l132 88h61v63z" />
    <glyph glyph-name=".null" horiz-adv-x="0" 
 />
    <glyph glyph-name="nonmarkingreturn" horiz-adv-x="682" 
 />
    <glyph glyph-name="space" unicode=" " horiz-adv-x="958" 
 />
    <glyph glyph-name="exclam" unicode="!" horiz-adv-x="514" 
d="M257 392q-35 0 -60.5 24.5t-27.5 59.5l-28 794q-3 50 31.5 86.5t84.5 36.5t84 -36.5t32 -86.5l-28 -794q-2 -35 -27.5 -59.5t-60.5 -24.5zM257 -25q-47 0 -80.5 33.5t-33.5 81.5t33.5 81.5t80.5 33.5t80 -33.5t33 -81.5t-33 -81.5t-80 -33.5z" />
    <glyph glyph-name="quotedbl" unicode="&#x22;" horiz-adv-x="792" 
d="M229 925q-29 0 -49.5 19.5t-22.5 48.5l-18 438q-2 38 25 66t65 28t64 -28t25 -66l-18 -438q-2 -29 -22 -48.5t-49 -19.5zM564 925q-29 0 -49.5 19.5t-22.5 48.5l-17 438q-2 38 24.5 66t64.5 28t64 -28t25 -66l-17 -438q-2 -29 -22.5 -48.5t-49.5 -19.5z" />
    <glyph glyph-name="numbersign" unicode="#" horiz-adv-x="1490" 
d="M1264 860h-162l-46 -328h139q32 0 54.5 -22.5t22.5 -54.5t-22.5 -55t-54.5 -23h-161l-44 -314q-5 -31 -28.5 -51.5t-54.5 -20.5q-38 0 -63 29t-20 67l40 290h-324l-44 -314q-5 -31 -28.5 -51.5t-55.5 -20.5q-38 0 -63 29t-20 67l41 290h-143q-32 0 -55 23t-23 55t23 54.5
t55 22.5h165l46 328h-141q-32 0 -55 23t-23 55t23 55t55 23h163l44 313q5 31 28.5 52t54.5 21q38 0 63 -29t20 -67l-40 -290h324l44 313q5 31 28.5 52t55.5 21q38 0 63 -29t20 -67l-41 -290h140q32 0 55 -23t23 -55t-23 -55t-55 -23zM886 532l46 328h-324l-46 -328h324z" />
    <glyph glyph-name="dollar" unicode="$" horiz-adv-x="1353" 
d="M1224 384q0 -81 -29.5 -148t-76.5 -110t-110.5 -74t-124.5 -46.5t-126 -21.5v-135q0 -35 -25 -60t-60 -25t-60 25t-25 60v136q-208 25 -411 138q-47 27 -47 80q0 51 43.5 78t89.5 4q236 -124 422 -124q53 0 108.5 10t113.5 32.5t94.5 68t36.5 106.5q0 24 -6.5 44.5
t-15 36t-27.5 29.5t-33.5 23.5t-44 19t-49 15t-58 13t-60.5 11t-67 10.5q-43 7 -72 12t-72.5 13.5t-73.5 18t-69.5 23t-66.5 30t-57 38t-50 48t-37 58.5t-25 71.5t-8 84.5q0 95 37 173t100.5 129.5t140 83t164.5 43.5v138q0 35 25 60t60 25t60 -25t25 -60v-134
q204 -19 405 -137q21 -11 34 -33t13 -47q0 -37 -26.5 -64t-64.5 -27q-24 0 -44 11q-199 119 -394 119q-160 0 -253.5 -71t-93.5 -176q0 -43 18 -75t45 -51.5t73 -34.5t88.5 -23.5t104.5 -18.5q9 -1 14 -2q68 -11 116.5 -21t110 -27t104 -36t86.5 -49t70.5 -66.5t43.5 -86.5
t17 -110z" />
    <glyph glyph-name="percent" unicode="%" horiz-adv-x="1708" 
d="M551 10q-15 -26 -42.5 -33.5t-53.5 7.5q-26 14 -33.5 42.5t7.5 54.5l728 1261q15 25 43.5 32.5t53.5 -6.5q25 -15 32 -43.5t-7 -53.5zM454 676q-148 0 -226 98t-78 250t78 250t226 98t226 -98t78 -250t-78 -250t-226 -98zM454 807q79 0 121 61t42 156t-42 156t-121 61
t-121 -61t-42 -156t42 -156t121 -61zM1262 -20q-144 0 -220.5 98t-76.5 250t76.5 250t220.5 98t220.5 -98t76.5 -250t-76.5 -250t-220.5 -98zM1262 111q76 0 116 61t40 156t-40 156t-116 61t-116 -61t-40 -156t40 -156t116 -61z" />
    <glyph glyph-name="ampersand" unicode="&#x26;" horiz-adv-x="1202" 
d="M965 280q39 0 64 -27t24 -64t-30 -62q-115 -116 -291 -141v-114q0 -35 -25 -60t-60 -25t-60 25t-25 60v112q-120 12 -211 57t-146 130t-55 200q0 222 193 323q-176 98 -176 304q0 163 109 257.5t286 112.5v112q0 35 25 60t60 25t60 -25t25 -60v-114q124 -16 225 -84
q40 -27 40 -73q0 -36 -25.5 -61.5t-61.5 -25.5q-25 0 -47 14q-92 62 -217 62q-129 0 -212 -53t-83 -154q0 -100 83 -153t212 -53h223q36 0 61.5 -26t25.5 -62t-25.5 -61.5t-61.5 -25.5h-223q-137 0 -224.5 -58.5t-87.5 -169.5t87.5 -169.5t224.5 -58.5q165 2 262 105
q24 21 57 21z" />
    <glyph glyph-name="quotesingle" unicode="'" horiz-adv-x="456" 
d="M229 925q-29 0 -49.5 19.5t-22.5 48.5l-18 438q-2 38 25 66t65 28t64 -28t25 -66l-18 -438q-2 -29 -22 -48.5t-49 -19.5z" />
    <glyph glyph-name="parenleft" unicode="(" horiz-adv-x="616" 
d="M464 -498q-53 0 -76 45q-260 490 -260 956t260 956q23 45 76 45q48 0 72.5 -41t2.5 -83q-240 -452 -240 -877t240 -877q22 -42 -2.5 -83t-72.5 -41z" />
    <glyph glyph-name="parenright" unicode=")" horiz-adv-x="616" 
d="M153 -498q-48 0 -73 41t-3 83q240 452 240 877t-240 877q-22 42 3 83t73 41q52 0 75 -45q260 -490 260 -956t-260 -956q-23 -45 -75 -45z" />
    <glyph glyph-name="asterisk" unicode="*" horiz-adv-x="608" 
d="M304 925q-28 0 -47.5 21t-17.5 50l4 86l-73 -46q-24 -17 -53 -10t-42 33q-13 24 -4 51t34 38l77 40l-77 40q-25 11 -34 37.5t4 50.5q13 26 42 33.5t53 -9.5l73 -46l-4 86q-2 29 17.5 50t47.5 21q29 0 48.5 -21.5t16.5 -49.5l-4 -86l73 46q24 17 53 9.5t42 -33.5
q13 -24 4 -50.5t-34 -37.5l-77 -40l77 -40q25 -11 34 -38t-4 -51q-13 -26 -42 -33t-53 10l-73 46l4 -86q2 -29 -17.5 -50t-47.5 -21z" />
    <glyph glyph-name="plus" unicode="+" horiz-adv-x="1273" 
d="M1013 761q35 0 60 -25t25 -60t-25 -60t-60 -25h-291v-291q0 -35 -25 -60t-60 -25t-60 25t-25 60v291h-291q-35 0 -60 25t-25 60t25 60t60 25h291v291q0 35 25 60t60 25t60 -25t25 -60v-291h291z" />
    <glyph glyph-name="comma" unicode="," horiz-adv-x="563" 
d="M190 -373q-44 0 -64.5 39.5t4.5 75.5q51 69 75.5 134t32.5 147q3 40 33 67.5t70 27.5q44 0 74.5 -31t29.5 -74q-3 -74 -62 -179t-143 -187q-20 -20 -50 -20z" />
    <glyph glyph-name="hyphen" unicode="-" horiz-adv-x="1173" 
d="M94 503q0 35 25 60t60 25h815q35 0 60 -25t25 -60t-25 -60t-60 -25h-815q-35 0 -60 25t-25 60z" />
    <glyph glyph-name="period" unicode="." horiz-adv-x="415" 
d="M208 -25q-47 0 -80.5 33.5t-33.5 81.5t33.5 81.5t80.5 33.5t80 -33.5t33 -81.5t-33 -81.5t-80 -33.5z" />
    <glyph glyph-name="slash" unicode="/" horiz-adv-x="770" 
d="M131 -434q-34 9 -52 39.5t-9 64.5l465 1735q9 34 39.5 51.5t64.5 8.5t52 -39.5t9 -64.5l-465 -1735q-9 -34 -39.5 -51.5t-64.5 -8.5z" />
    <glyph glyph-name="zero" unicode="0" horiz-adv-x="1353" 
d="M677 -20q-109 0 -199 35.5t-154 98.5t-108.5 150.5t-65.5 191t-21 220.5t21 220.5t65.5 191t108.5 150.5t154 98.5t199 35.5t199 -35.5t154 -98.5t108.5 -150.5t65.5 -191t21 -220.5t-21 -220.5t-65.5 -191t-108.5 -150.5t-154 -98.5t-199 -35.5zM677 154
q119 0 202.5 71.5t122 187t38.5 263.5t-38.5 263.5t-122 187t-202.5 71.5t-203 -71.5t-122.5 -187t-38.5 -263.5t38.5 -263.5t122.5 -187t203 -71.5z" />
    <glyph glyph-name="one" unicode="1" horiz-adv-x="604" 
d="M363 1352q38 0 65 -27t27 -65v-1168q0 -38 -27 -65t-65 -27t-65 27t-27 65v1085h-96q-36 0 -61.5 26t-25.5 62t25.5 61.5t61.5 25.5h188z" />
    <glyph glyph-name="two" unicode="2" horiz-adv-x="1304" 
d="M1062 173q36 0 61.5 -25.5t25.5 -61.5t-25.5 -62t-61.5 -26h-825q-36 0 -61.5 26t-25.5 62q0 27 15 49t39 32q106 46 210 105.5t204.5 135.5t176.5 156t123 172t47 179q0 128 -84.5 204.5t-241.5 76.5q-141 0 -222.5 -68t-91.5 -200q-4 -32 -28.5 -53.5t-56.5 -21.5
q-37 0 -62.5 28t-21.5 66q13 197 140 310t343 113q228 0 369.5 -123.5t141.5 -330.5q0 -398 -617 -743h529z" />
    <glyph glyph-name="three" unicode="3" horiz-adv-x="1202" 
d="M859 694q194 -102 194 -323q0 -97 -39 -172.5t-107 -123t-157.5 -71.5t-193.5 -24q-231 0 -376 147q-29 25 -30.5 62t23.5 64t64 27q33 0 57 -21q97 -103 262 -105q137 0 224.5 58.5t87.5 169.5t-87.5 169.5t-224.5 58.5h-36q-36 0 -61.5 25.5t-25.5 61.5t25.5 62
t61.5 26h36q129 0 212 53t83 153q0 101 -83 154t-212 53q-125 0 -217 -62q-22 -14 -47 -14q-36 0 -61.5 25.5t-25.5 61.5q0 46 40 73q136 90 311 90q136 0 242 -39.5t171.5 -126t65.5 -208.5q0 -206 -176 -304z" />
    <glyph glyph-name="four" unicode="4" 
d="M1104 414q36 0 61.5 -25.5t25.5 -61.5t-25.5 -61.5t-61.5 -25.5h-162v-148q0 -38 -27 -65t-65 -27t-65 27t-27 65v148h-583q-36 0 -61.5 25.5t-25.5 61.5q0 30 19 54l665 928q26 43 78 43q38 0 65 -27t27 -65v-846h162zM316 414h442v618z" />
    <glyph glyph-name="five" unicode="5" horiz-adv-x="1284" 
d="M634 -20q-146 0 -271 53t-195 149q-22 28 -17.5 63.5t32.5 57.5t63.5 17t57.5 -33q45 -63 135 -99t195 -36q145 0 230.5 66.5t85.5 195.5q0 127 -84.5 187.5t-232.5 60.5q-147 0 -302 -53q-46 -14 -83 11q-35 23 -35 74l17 573q1 36 26 60.5t60 24.5h682q36 0 61 -25.5
t25 -61.5t-25 -61t-61 -25h-589l-12 -375q121 31 249 31q219 0 354 -113.5t135 -307.5q0 -201 -139.5 -317.5t-361.5 -116.5z" />
    <glyph glyph-name="six" unicode="6" horiz-adv-x="1308" 
d="M673 910q202 0 344 -136.5t142 -329.5q0 -127 -67.5 -234.5t-176.5 -168.5t-232 -61q-103 0 -189.5 36t-149.5 99.5t-107 151t-65.5 191t-21.5 218.5q0 147 34 271.5t100 220.5t172 150t241 54q239 0 392 -178q20 -20 24.5 -46.5t-4.5 -49.5t-31 -39t-51 -16
q-35 0 -60 23q-112 132 -270 132q-113 0 -193.5 -66.5t-118.5 -171.5t-40 -237q48 84 136 135.5t192 51.5zM672 736q-125 0 -213.5 -85t-88.5 -206q0 -123 89 -206t220 -85q123 2 209 87t86 204q0 121 -88.5 206t-213.5 85z" />
    <glyph glyph-name="seven" unicode="7" horiz-adv-x="1185" 
d="M508 0q-38 0 -65.5 27.5t-27.5 65.5q0 214 99 490q106 300 296 590h-578q-34 0 -58 25.5t-24 61.5t24 61t58 25h704q57 4 86 -45t-2 -98q-103 -142 -195 -324.5t-147 -353.5q-77 -237 -77 -432q0 -38 -27.5 -65.5t-65.5 -27.5z" />
    <glyph glyph-name="eight" unicode="8" horiz-adv-x="1292" 
d="M949 694q194 -102 194 -323q0 -128 -68 -218t-178 -131.5t-251 -41.5t-251 41.5t-178 131.5t-68 218q0 221 194 323q-176 98 -176 304q0 122 65.5 208.5t171.5 126t242 39.5t242 -39.5t171.5 -126t65.5 -208.5q0 -206 -176 -304zM646 1198q-129 0 -212 -53t-83 -154
q0 -100 83 -153t212 -53t212 53t83 153q0 101 -83 154t-212 53zM646 154q137 0 224.5 58.5t87.5 169.5t-87.5 169.5t-224.5 58.5q-136 0 -224 -58.5t-88 -169.5t87.5 -169.5t224.5 -58.5z" />
    <glyph glyph-name="nine" unicode="9" horiz-adv-x="1308" 
d="M635 442q-99 0 -189 37t-155 99t-103 148.5t-38 181.5q0 127 67 234.5t176 168.5t232 61q128 0 230.5 -55t168 -150.5t100.5 -221t35 -269.5q0 -117 -21 -220.5t-65.5 -191t-108.5 -150.5t-154 -98.5t-199 -35.5q-239 0 -392 178q-20 20 -24.5 46.5t4.5 49.5t31 39.5
t51 16.5q34 0 60 -24q112 -132 270 -132q113 0 193.5 67t118.5 172t40 237q-48 -84 -136 -136t-192 -52zM636 617q125 0 213.5 85t88.5 206q0 123 -89 205.5t-220 84.5q-123 -2 -209 -86.5t-86 -203.5q0 -121 88.5 -206t213.5 -85z" />
    <glyph glyph-name="colon" unicode=":" horiz-adv-x="415" 
d="M208 759q-47 0 -80.5 33.5t-33.5 81.5t33.5 81.5t80.5 33.5t80 -33.5t33 -81.5t-33 -81.5t-80 -33.5zM208 -25q-47 0 -80.5 33.5t-33.5 81.5t33.5 81.5t80.5 33.5t80 -33.5t33 -81.5t-33 -81.5t-80 -33.5z" />
    <glyph glyph-name="semicolon" unicode=";" horiz-adv-x="563" 
d="M320 759q-47 0 -80.5 33.5t-33.5 81.5t33.5 81.5t80.5 33.5t80 -33.5t33 -81.5t-33 -81.5t-80 -33.5zM190 -373q-44 0 -64.5 39.5t4.5 75.5q51 69 75.5 134t32.5 147q3 40 33 67.5t70 27.5q44 0 74.5 -31t29.5 -74q-3 -74 -62 -179t-143 -187q-20 -20 -50 -20z" />
    <glyph glyph-name="less" unicode="&#x3c;" horiz-adv-x="1193" 
d="M974 361q31 -17 41 -50.5t-7 -64.5t-51 -40.5t-65 7.5l-672 382q-44 25 -44 75t44 75l672 383q31 17 65 7.5t51 -40.5t7 -65t-41 -51l-542 -309z" />
    <glyph glyph-name="equal" unicode="=" horiz-adv-x="1273" 
d="M261 787q-35 0 -60 25t-25 60t25 60t60 25h752q35 0 60 -25t25 -60t-25 -60t-60 -25h-752zM261 376q-35 0 -60 25t-25 60t25 60t60 25h752q35 0 60 -25t25 -60t-25 -60t-60 -25h-752z" />
    <glyph glyph-name="greater" unicode="&#x3e;" horiz-adv-x="1193" 
d="M974 745q44 -25 44 -75t-44 -75l-672 -382q-31 -17 -64.5 -7.5t-50.5 40.5t-7.5 64.5t40.5 50.5l543 309l-543 309q-31 17 -40.5 51t7.5 65t50.5 40.5t64.5 -7.5z" />
    <glyph glyph-name="question" unicode="?" horiz-adv-x="1116" 
d="M494 358q-36 0 -61 25t-27 60l-8 233q-3 92 97 103q158 13 233 69t75 162q0 111 -88 169.5t-224 58.5q-138 0 -227 -74q-23 -15 -48 -15q-36 0 -61.5 26t-25.5 62q0 48 40 73q133 103 322 103q104 0 193.5 -25t157.5 -73.5t107 -126.5t39 -177q0 -116 -53.5 -202.5
t-141.5 -133t-205 -60.5l-6 -175q-2 -34 -27.5 -58t-60.5 -24zM492 -17q-47 0 -80 33.5t-33 81.5t33 81.5t80 33.5t80.5 -33.5t33.5 -81.5t-33.5 -81.5t-80.5 -33.5z" />
    <glyph glyph-name="at" unicode="@" horiz-adv-x="1781" 
d="M891 1413q147 0 280.5 -57t230 -153t153.5 -228.5t57 -278.5q0 -115 -30.5 -211.5t-98 -161t-162.5 -64.5q-87 0 -144.5 52t-64.5 130q-99 -97 -233 -97q-139 0 -238 103t-99 249t99 249.5t238 103.5q133 0 232 -96v24q0 25 17.5 42.5t42.5 17.5t42.5 -17.5t17.5 -42.5
v-513q0 -41 23.5 -64t66.5 -23q82 0 128 94.5t46 224.5q0 123 -48 235.5t-128.5 194t-192.5 130t-235 48.5t-235 -48.5t-192.5 -130t-128.5 -194t-48 -235.5q0 -165 80.5 -304.5t220 -221t303.5 -81.5q146 0 279 76q12 5 23 5q23 0 39 -16t16 -39q0 -37 -33 -51
q-151 -84 -324 -84q-147 0 -280.5 56.5t-230 152.5t-153.5 228.5t-57 278.5t57 278.5t153.5 228.5t230 153t280.5 57zM891 457q95 0 162 70t67 169t-67.5 169.5t-161.5 70.5q-95 0 -162.5 -70.5t-67.5 -169.5t67.5 -169t162.5 -70z" />
    <glyph glyph-name="A" unicode="A" horiz-adv-x="1445" 
d="M1350 130q16 -36 1.5 -72t-50.5 -52t-72 -2t-52 50l-124 282h-660l-124 -282q-16 -36 -52.5 -50t-72.5 2t-50 52t2 72l540 1217q12 26 36 41t51 15t51 -15t36 -41zM476 524h494l-247 561z" />
    <glyph glyph-name="B" unicode="B" horiz-adv-x="1312" 
d="M989 718q86 -52 137.5 -139.5t51.5 -189.5q0 -161 -117 -275t-282 -114h-550q-39 0 -66.5 27.5t-27.5 66.5v1204q0 39 27.5 67t66.5 28h511q161 0 275 -111.5t114 -269.5q0 -87 -37 -164t-103 -130zM941 1004q0 86 -59 146.5t-142 60.5h-416v-415h416q83 0 142 61t59 147
zM779 181q87 0 148.5 63.5t61.5 153.5t-61.5 153.5t-148.5 63.5h-455v-434h455z" />
    <glyph glyph-name="C" unicode="C" horiz-adv-x="1492" 
d="M828 -20q-194 0 -358 96t-259.5 261t-95.5 359q0 146 56.5 278.5t152 228.5t227.5 153t277 57q152 0 288 -61t236 -171q26 -28 26 -65q0 -38 -27 -65t-65 -27q-41 0 -68 29q-75 85 -176 132t-214 47q-107 0 -204 -42.5t-167.5 -114t-112 -171t-41.5 -208.5
q0 -146 70.5 -269t191 -194.5t263.5 -71.5q114 0 215 46.5t175 131.5q28 30 68 30q38 0 65 -27.5t27 -65.5q0 -36 -26 -64q-100 -110 -236 -171t-288 -61z" />
    <glyph glyph-name="D" unicode="D" horiz-adv-x="1517" 
d="M688 1393q190 0 351.5 -93.5t255.5 -254t94 -349.5t-94 -349.5t-255.5 -253.5t-351.5 -93h-444q-39 0 -66.5 27.5t-27.5 66.5v1204q0 39 27.5 67t66.5 28h444zM688 181q139 0 257 69t186.5 187.5t68.5 258.5t-68.5 258.5t-186.5 187.5t-257 69h-350v-1030h350z" />
    <glyph glyph-name="E" unicode="E" horiz-adv-x="1292" 
d="M1052 181q38 0 64.5 -26.5t26.5 -63.5t-26.5 -64t-64.5 -27h-808q-39 0 -66.5 27.5t-27.5 66.5v1204q0 39 27.5 67t66.5 28h808q38 0 64.5 -26.5t26.5 -64.5t-26.5 -64.5t-64.5 -26.5h-714v-465h604q37 0 63.5 -26.5t26.5 -64.5q0 -37 -26 -63.5t-64 -26.5h-604v-384h714
z" />
    <glyph glyph-name="F" unicode="F" horiz-adv-x="1230" 
d="M1052 1393q38 0 64.5 -26.5t26.5 -64.5t-26.5 -64.5t-64.5 -26.5h-714v-465h604q37 0 63.5 -26.5t26.5 -64.5q0 -37 -26 -63.5t-64 -26.5h-604v-471q0 -39 -27.5 -66.5t-66.5 -27.5t-66.5 27.5t-27.5 66.5v1204q0 39 27.5 67t66.5 28h808z" />
    <glyph glyph-name="G" unicode="G" horiz-adv-x="1572" 
d="M1329 714q39 0 66.5 -27.5t27.5 -66.5v-271q0 -74 -43 -120q-101 -118 -243.5 -183.5t-300.5 -65.5q-144 0 -274.5 56.5t-225.5 152.5t-151 228.5t-56 278.5t56 278.5t151 228.5t225.5 153t274.5 57q152 0 287.5 -61t235.5 -171q26 -28 26 -65q0 -38 -27 -65t-65 -27
q-41 0 -68 29q-75 85 -175.5 132t-213.5 47q-105 0 -201.5 -42.5t-166 -114t-110.5 -171t-41 -208.5q0 -146 69.5 -269t189 -194.5t260.5 -71.5q118 0 222 49t177 135v187h-316q-37 0 -63.5 26.5t-26.5 64.5t26.5 64.5t63.5 26.5h410z" />
    <glyph glyph-name="H" unicode="H" horiz-adv-x="1558" 
d="M1315 1392q39 0 66.5 -27.5t27.5 -66.5v-1204q0 -39 -27.5 -66.5t-66.5 -27.5t-66.5 27.5t-27.5 66.5v487h-883v-487q0 -39 -27.5 -66.5t-66.5 -27.5t-66.5 27.5t-27.5 66.5v1204q0 39 27.5 67t66.5 28t66.5 -28t27.5 -67v-528h883v528q0 39 27.5 66.5t66.5 27.5z" />
    <glyph glyph-name="I" unicode="I" horiz-adv-x="487" 
d="M244 0q-39 0 -66.5 27.5t-27.5 66.5v1204q0 39 27.5 67t66.5 28t66.5 -28t27.5 -67v-1204q0 -39 -27.5 -66.5t-66.5 -27.5z" />
    <glyph glyph-name="J" unicode="J" horiz-adv-x="1292" 
d="M639 -20q-183 0 -322.5 113.5t-177.5 289.5q-13 45 15 82.5t75 37.5q32 0 57 -20t33 -50q21 -118 111 -195t209 -77q136 0 232.5 97.5t96.5 234.5v805q0 39 27.5 67t66.5 28t67 -28t28 -67v-805q0 -212 -152 -362.5t-366 -150.5z" />
    <glyph glyph-name="K" unicode="K" horiz-adv-x="1355" 
d="M1243 158q26 -29 23.5 -68t-31.5 -65t-68 -23.5t-65 31.5l-536 600l-228 -216v-323q0 -39 -27.5 -66.5t-66.5 -27.5t-66.5 27.5t-27.5 66.5v1204q0 39 27.5 67t66.5 28t66.5 -28t27.5 -67v-621l729 690q29 27 68 26t66 -30t26 -67.5t-30 -65.5l-494 -467z" />
    <glyph glyph-name="L" unicode="L" horiz-adv-x="1292" 
d="M1114 181q38 0 64 -26.5t26 -63.5q0 -38 -26.5 -64.5t-63.5 -26.5h-870q-39 0 -66.5 27.5t-27.5 66.5v1204q0 39 27.5 67t66.5 28t66.5 -28t27.5 -67v-1117h776z" />
    <glyph glyph-name="M" unicode="M" horiz-adv-x="1662" 
d="M1418 1393q39 0 66.5 -28t27.5 -67v-1204q0 -39 -27.5 -66.5t-66.5 -27.5t-66.5 27.5t-27.5 66.5v950l-422 -515q-27 -33 -71 -33q-45 0 -72 33l-421 515v-950q0 -39 -27.5 -66.5t-66.5 -27.5t-66.5 27.5t-27.5 66.5v1204q0 39 27.5 67t66.5 28q49 0 77 -40l510 -623
l510 623q28 40 77 40z" />
    <glyph glyph-name="N" unicode="N" horiz-adv-x="1538" 
d="M1294 1393q39 0 67 -27.5t28 -66.5v-1206q0 -39 -28 -66.5t-67 -27.5q-35 0 -60 22v-1l-2 3q-12 12 -17 19l-877 1019v-967q0 -39 -27.5 -67t-66.5 -28t-66.5 28t-27.5 67v1205q0 39 27.5 66.5t66.5 27.5q36 0 60 -21l2 2l894 -1037v962q0 39 27.5 66.5t66.5 27.5z" />
    <glyph glyph-name="O" unicode="O" horiz-adv-x="1699" 
d="M850 -20q-147 0 -280.5 56.5t-230 152.5t-153.5 228.5t-57 278.5t57 278.5t153.5 228.5t230 153t280.5 57t280.5 -57t230 -153t153.5 -228.5t57 -278.5t-57 -278.5t-153.5 -228.5t-230 -152.5t-280.5 -56.5zM850 161q108 0 206.5 42.5t170 114t113.5 170.5t42 208
t-42 208.5t-113.5 171t-170 114t-206.5 42.5t-207 -42.5t-170 -114t-113.5 -171t-42.5 -208.5q0 -146 71.5 -269t194 -194.5t267.5 -71.5z" />
    <glyph glyph-name="P" unicode="P" horiz-adv-x="1312" 
d="M709 1393q129 0 238.5 -63.5t173 -173t63.5 -238.5q0 -198 -139 -337t-336 -139h-371v-348q0 -39 -27.5 -66.5t-66.5 -27.5t-66.5 27.5t-27.5 66.5v1204q0 39 27.5 67t66.5 28h465zM709 623q119 0 202.5 86.5t83.5 208.5q0 121 -83.5 207t-202.5 86h-371v-588h371z" />
    <glyph glyph-name="Q" unicode="Q" horiz-adv-x="1699" 
d="M1383 214l111 -130q22 -27 22 -59q0 -37 -27 -64t-65 -27q-43 0 -70 32l-111 130q-180 -116 -393 -116q-147 0 -280.5 56.5t-230 152.5t-153.5 228.5t-57 278.5t57 278.5t153.5 228.5t230 153t280.5 57t280.5 -57t230 -153t153.5 -228.5t57 -278.5q0 -137 -49.5 -261
t-138.5 -221zM850 161q148 0 273 75l-105 122q-22 27 -22 59q0 38 27 65t64 27q42 0 70 -33l104 -120q121 148 121 340q0 109 -42 208.5t-113.5 171t-170 114t-206.5 42.5t-207 -42.5t-170 -114t-113.5 -171t-42.5 -208.5q0 -146 71.5 -269t194 -194.5t267.5 -71.5z" />
    <glyph glyph-name="R" unicode="R" horiz-adv-x="1333" 
d="M877 473l218 -332q21 -33 12 -71t-42 -59t-71 -12t-59 42l-261 401h-336v-348q0 -39 -27.5 -66.5t-66.5 -27.5t-66.5 27.5t-27.5 66.5v1204q0 39 27.5 67t66.5 28h465q129 0 238.5 -63.5t173 -173t63.5 -238.5q0 -151 -85.5 -272t-221.5 -173zM338 1211v-588h371
q119 0 202.5 86.5t83.5 208.5q0 121 -83.5 207t-202.5 86h-371z" />
    <glyph glyph-name="S" unicode="S" horiz-adv-x="1382" 
d="M692 -20q-244 0 -502 143q-47 27 -47 80q0 51 43.5 78t89.5 4q236 -124 422 -124q53 0 108.5 10t113.5 32.5t94.5 68t36.5 106.5q0 24 -6.5 44.5t-15 36t-27 29.5t-33.5 23.5t-44 19t-48.5 15t-57.5 13t-60.5 11l-67.5 10.5q-49 7 -80.5 12.5t-80.5 16.5t-81.5 21.5
t-75 28.5t-70.5 38t-57.5 48.5t-47 61.5t-28.5 76.5t-11 93.5q0 88 32 161.5t85.5 123.5t124.5 84.5t146.5 50.5t154.5 16q236 0 474 -140q21 -11 34 -33t13 -47q0 -37 -26.5 -64t-64.5 -27q-24 0 -44 11q-199 119 -394 119q-160 0 -253.5 -71t-93.5 -176q0 -43 18 -75
t45 -51.5t73.5 -34.5t89 -23.5t104.5 -18.5q9 -1 14 -2q68 -11 116.5 -21t110 -27t103.5 -36t86 -49t70.5 -66.5t43.5 -86.5t17 -110q0 -78 -26 -142t-71 -106.5t-100 -74t-118.5 -48.5t-120 -25t-110.5 -8z" />
    <glyph glyph-name="T" unicode="T" horiz-adv-x="1394" 
d="M1216 1393q38 0 64.5 -26.5t26.5 -64.5t-26.5 -64.5t-64.5 -26.5h-424v-1117q0 -39 -28 -66.5t-67 -27.5t-66.5 27.5t-27.5 66.5v1117h-424q-37 0 -64 26.5t-27 64.5t27 64.5t64 26.5h1037z" />
    <glyph glyph-name="U" unicode="U" horiz-adv-x="1579" 
d="M789 -20q-174 0 -321 85t-233 231t-86 319v683q0 39 28 67t67 28t66.5 -28t27.5 -67v-683q0 -188 132 -321t319 -133t319.5 133t132.5 321v683q0 39 27.5 67t66.5 28t66.5 -28t27.5 -67v-683q0 -173 -86 -319t-233 -231t-321 -85z" />
    <glyph glyph-name="V" unicode="V" horiz-adv-x="1445" 
d="M1350 1265l-540 -1217q-12 -26 -36 -41t-51 -15t-51 15t-36 41l-540 1217q-16 36 -2 72t50 52t72.5 2t52.5 -50l454 -1031l454 1031q16 36 52 50t72 -2t50.5 -52t-1.5 -72z" />
    <glyph glyph-name="W" unicode="W" horiz-adv-x="2527" 
d="M2383 1389q36 -16 50 -52t-2 -72l-540 -1217q-12 -26 -36 -41t-51 -15t-51 15t-36 41l-453 1023l-454 -1023q-12 -26 -36 -41t-51 -15t-51 15t-36 41l-540 1217q-16 36 -2 72t50 52t72.5 2t52.5 -50l454 -1031l454 1031q12 26 36 41t51 15v0q27 0 50.5 -15t35.5 -41
l454 -1031l455 1031q16 36 52 50t72 -2z" />
    <glyph glyph-name="X" unicode="X" horiz-adv-x="1429" 
d="M1318 152q26 -29 23.5 -68t-31.5 -65q-29 -25 -68 -22.5t-65 31.5l-462 526l-462 -526q-26 -29 -65 -31.5t-68 22.5q-29 26 -31.5 65t23.5 68l478 545l-478 544q-26 29 -23.5 68t31.5 65t68 23.5t65 -31.5l462 -526l462 526q26 29 65 31.5t68 -23.5t31.5 -65t-23.5 -68
l-478 -544z" />
    <glyph glyph-name="Y" unicode="Y" horiz-adv-x="1404" 
d="M1273 1379q33 -21 41 -59t-13 -71l-505 -777v-387q0 -39 -27.5 -66.5t-66.5 -27.5t-66.5 27.5t-27.5 66.5v386l-505 778q-21 33 -13 71t41 59t71.5 12.5t59.5 -41.5l440 -682l441 682q21 33 59 41.5t71 -12.5z" />
    <glyph glyph-name="Z" unicode="Z" horiz-adv-x="1456" 
d="M1217 181q37 0 63.5 -26.5t26.5 -63.5q0 -38 -26.5 -64.5t-63.5 -26.5h-977q-37 0 -63.5 26.5t-26.5 64.5q0 39 27 64l829 1056h-748q-38 0 -64.5 26.5t-26.5 64.5t26.5 64.5t64.5 26.5h944q38 0 64.5 -26.5t26.5 -64.5q0 -35 -25 -62l-831 -1059h780z" />
    <glyph glyph-name="bracketleft" unicode="[" horiz-adv-x="567" 
d="M399 -350q34 0 57.5 -23.5t23.5 -57.5t-23.5 -57.5t-57.5 -23.5h-226q-35 0 -60 25t-25 60v1837q0 35 25 60t60 25h226q34 0 57.5 -23t23.5 -57t-23.5 -57.5t-57.5 -23.5h-141v-1684h141z" />
    <glyph glyph-name="backslash" unicode="\" horiz-adv-x="770" 
d="M639 -434q-34 -9 -64.5 8.5t-39.5 51.5l-465 1735q-9 34 9 64.5t52 39.5t64.5 -8.5t39.5 -51.5l465 -1735q9 -34 -9 -64.5t-52 -39.5z" />
    <glyph glyph-name="bracketright" unicode="]" horiz-adv-x="567" 
d="M395 1495q35 0 60 -25t25 -60v-1837q0 -35 -25 -60t-60 -25h-226q-34 0 -57.5 23.5t-23.5 57.5t23.5 57.5t57.5 23.5h141v1684h-141q-34 0 -57.5 23.5t-23.5 57.5t23.5 57t57.5 23h226z" />
    <glyph glyph-name="underscore" unicode="_" horiz-adv-x="1173" 
d="M179 -252q-35 0 -60 25t-25 60t25 60t60 25h815q35 0 60 -25t25 -60t-25 -60t-60 -25h-815z" />
    <glyph glyph-name="grave" unicode="`" horiz-adv-x="579" 
d="M375 1160q-35 0 -56 27l-165 230q-19 25 -19 56q0 38 27.5 65.5t65.5 27.5q58 0 84 -53l126 -253q17 -35 -3.5 -67.5t-59.5 -32.5z" />
    <glyph glyph-name="a" unicode="a" 
d="M1079 1006q38 0 65 -27t27 -65v-822q0 -38 -27 -65t-65 -27t-65 27t-27 65v71q-68 -86 -164.5 -134.5t-206.5 -48.5q-99 0 -189 41t-155.5 111t-104 167t-38.5 203q0 143 65 263.5t177.5 190.5t244.5 70q110 0 206.5 -48.5t164.5 -134.5v71q0 38 27 65t65 27zM652 154
q140 0 239.5 102t99.5 247t-99.5 247t-239.5 102t-239.5 -102t-99.5 -247t99.5 -247t239.5 -102z" />
    <glyph glyph-name="b" unicode="b" 
d="M705 1026q132 0 244.5 -70t177.5 -190.5t65 -263.5q0 -106 -38.5 -203t-104 -167t-155.5 -111t-189 -41q-110 0 -206.5 48.5t-164.5 134.5v-71q0 -38 -27 -65t-65 -27t-65 27t-27 65v1249q0 38 27 65.5t65 27.5t65 -27.5t27 -65.5v-498q68 86 164.5 134.5t206.5 48.5z
M668 154q140 0 239.5 102t99.5 247t-99.5 247t-239.5 102t-239 -102t-99 -247t99 -247t239 -102z" />
    <glyph glyph-name="c" unicode="c" horiz-adv-x="1181" 
d="M652 155q132 0 238 95q24 19 55 19q36 0 61.5 -25.5t25.5 -61.5q0 -40 -31 -66q-151 -135 -349 -135q-142 0 -262.5 70t-190.5 190.5t-70 262.5t70 262.5t190.5 190t262.5 69.5q199 0 349 -134q31 -26 31 -67q0 -36 -25.5 -61.5t-61.5 -25.5q-31 0 -55 19
q-106 95 -238 95q-139 0 -239 -102t-100 -246t100 -246.5t239 -102.5z" />
    <glyph glyph-name="d" unicode="d" 
d="M1079 1434q38 0 65 -27.5t27 -65.5v-1249q0 -38 -27 -65t-65 -27t-65 27t-27 65v71q-68 -86 -164.5 -134.5t-206.5 -48.5q-99 0 -189 41t-155.5 111t-104 167t-38.5 203q0 143 65 263.5t177.5 190.5t244.5 70q110 0 206.5 -48.5t164.5 -134.5v498q0 38 27 65.5t65 27.5z
M652 154q140 0 239.5 102t99.5 247t-99.5 247t-239.5 102t-239.5 -102t-99.5 -247t99.5 -247t239.5 -102z" />
    <glyph glyph-name="e" unicode="e" horiz-adv-x="1263" 
d="M632 1026q137 0 252.5 -69.5t183 -190t67.5 -262.5q0 -4 -0.5 -11t-0.5 -11q-1 -37 -27.5 -63t-64.5 -26h-716q28 -115 115.5 -177t217.5 -62q149 2 302 78q11 5 30 5q36 0 61.5 -25.5t25.5 -61.5q0 -27 -16 -49.5t-41 -31.5q-185 -90 -362 -90q-238 0 -384 142t-146 382
q0 142 67.5 262.5t183 190.5t252.5 70zM632 852q-117 0 -205.5 -82.5t-108.5 -206.5h628q-20 124 -108.5 206.5t-205.5 82.5z" />
    <glyph glyph-name="f" unicode="f" horiz-adv-x="989" 
d="M844 1393q25 -9 40.5 -31.5t15.5 -50.5q0 -43 -36 -69.5t-77 -12.5q-164 54 -251 1q-64 -40 -64 -147v-94h228q36 0 61.5 -25.5t25.5 -61.5t-25.5 -61.5t-61.5 -25.5h-228v-723q0 -38 -27.5 -65t-65.5 -27t-65 27t-27 65v723h-91q-36 0 -61.5 25.5t-25.5 61.5t25.5 61.5
t61.5 25.5h91v114q0 189 141 277q82 51 194 53t222 -40z" />
    <glyph glyph-name="g" unicode="g" 
d="M1079 1015q38 0 65 -27.5t27 -65.5v-853q0 -242 -142 -380.5t-383 -140.5q-202 -2 -411 100q-25 11 -40 33.5t-15 50.5q0 50 42 77t87 7q168 -84 336 -84q160 0 251 85t91 252v94q-68 -86 -164.5 -134.5t-206.5 -48.5q-99 0 -189 41t-155.5 111t-104 167t-38.5 203
q0 143 65 263.5t177.5 190.5t244.5 70q110 0 206.5 -48.5t164.5 -134.5v79q0 38 27 65.5t65 27.5zM652 154q140 0 239.5 102t99.5 247t-99.5 247t-239.5 102t-239.5 -102t-99.5 -247t99.5 -247t239.5 -102z" />
    <glyph glyph-name="h" unicode="h" horiz-adv-x="1284" 
d="M685 1026q186 0 318 -131.5t132 -317.5v-484q0 -38 -27.5 -65.5t-65.5 -27.5t-65 27.5t-27 65.5v441q0 132 -90 225t-218 93t-218 -93t-90 -225v-442q0 -38 -27 -65t-65 -27t-65 27t-27 65v1249q0 38 27 65.5t65 27.5t65 -27.5t27 -65.5v-484q63 79 154.5 124t196.5 45z
" />
    <glyph glyph-name="i" unicode="i" horiz-adv-x="512" 
d="M256 1141q-46 0 -78 32.5t-32 79.5t32 79.5t78 32.5t78 -32.5t32 -79.5t-32 -79.5t-78 -32.5zM256 0q-38 0 -65 27t-27 65v822q0 38 27 65t65 27t65 -27t27 -65v-822q0 -38 -27 -65t-65 -27z" />
    <glyph glyph-name="j" unicode="j" horiz-adv-x="663" 
d="M422 1141q-43 0 -73.5 31t-30.5 74t30.5 74t73.5 31t73 -30.5t30 -74.5t-30 -74.5t-73 -30.5zM218 -440q-44 -21 -87 6.5t-43 77.5q0 28 15 50.5t39 33.5q76 28 120 75q67 70 67 183v928q0 38 27.5 65t65.5 27t65 -27t27 -65v-928q0 -189 -124 -315q-67 -69 -172 -111z
" />
    <glyph glyph-name="k" unicode="k" horiz-adv-x="1116" 
d="M1009 145q23 -31 17.5 -69t-36.5 -60q-31 -23 -69 -17.5t-60 36.5l-326 426l-201 -178v-191q0 -38 -27 -65t-65 -27t-65 27t-27 65v1249q0 38 27 65.5t65 27.5t65 -27.5t27 -65.5v-810l517 457q28 26 66.5 23.5t63.5 -30.5q26 -28 24 -66.5t-30 -63.5l-302 -268z" />
    <glyph glyph-name="l" unicode="l" horiz-adv-x="483" 
d="M242 0q-38 0 -65 27t-27 65v1249q0 38 27 65.5t65 27.5t65 -27.5t27 -65.5v-1249q0 -38 -27 -65t-65 -27z" />
    <glyph glyph-name="m" unicode="m" horiz-adv-x="2084" 
d="M1478 1027q194 0 325.5 -131t131.5 -318v-485q0 -38 -27 -64.5t-65 -27.5q-38 1 -65 27.5t-27 64.5v441q0 133 -90 226t-218 93t-218 -93t-90 -226v-441q0 -38 -27.5 -65.5t-65.5 -27.5t-65 27.5t-27 65.5v441q0 132 -90 225t-218 93t-218 -93t-90 -225v-442
q0 -38 -27 -65t-65 -27t-65 27t-27 65v822q0 38 27 65t65 27t65 -27t27 -65v-57q63 79 154.5 124t196.5 45q120 0 221.5 -57t161.5 -155q66 98 175 155.5t235 57.5z" />
    <glyph glyph-name="n" unicode="n" horiz-adv-x="1284" 
d="M685 1026q186 0 318 -131.5t132 -317.5v-484q0 -38 -27.5 -65.5t-65.5 -27.5t-65 27.5t-27 65.5v441q0 132 -90 225t-218 93t-218 -93t-90 -225v-442q0 -38 -27 -65t-65 -27t-65 27t-27 65v822q0 38 27 65t65 27t65 -27t27 -65v-57q63 79 154.5 124t196.5 45z" />
    <glyph glyph-name="o" unicode="o" horiz-adv-x="1304" 
d="M652 -20q-142 0 -262.5 70t-190.5 190.5t-70 263.5q0 142 70 262.5t190.5 190t262.5 69.5q107 0 203.5 -41t167 -111t112 -167t41.5 -203q0 -107 -41.5 -204t-112 -167t-167.5 -111.5t-203 -41.5zM652 154q140 0 239.5 102t99.5 247t-99.5 247t-239.5 102t-239.5 -102
t-99.5 -247t99.5 -247t239.5 -102z" />
    <glyph glyph-name="p" unicode="p" 
d="M705 1026q99 0 189 -41t155.5 -111t104 -167t38.5 -203q0 -143 -65 -263.5t-177.5 -190.5t-244.5 -70q-110 0 -206.5 48.5t-164.5 134.5v-522q0 -38 -27 -65.5t-65 -27.5t-65 27.5t-27 65.5v1273q0 38 27 65t65 27t65 -27t27 -65v-71q68 86 164.5 134.5t206.5 48.5z
M668 154q140 0 239.5 102t99.5 247t-99.5 247t-239.5 102t-239 -102t-99 -247t99 -247t239 -102z" />
    <glyph glyph-name="q" unicode="q" 
d="M1079 1006q38 0 65 -27t27 -65v-1273q0 -38 -27 -65.5t-65 -27.5t-65 27.5t-27 65.5v522q-68 -86 -164.5 -134.5t-206.5 -48.5q-132 0 -244.5 70t-177.5 190.5t-65 263.5q0 106 38.5 203t104 167t155.5 111t189 41q110 0 206.5 -48.5t164.5 -134.5v71q0 38 27 65t65 27z
M652 154q140 0 239.5 102t99.5 247t-99.5 247t-239.5 102t-239.5 -102t-99.5 -247t99.5 -247t239.5 -102z" />
    <glyph glyph-name="r" unicode="r" horiz-adv-x="874" 
d="M630 1026q39 0 66.5 -27.5t27.5 -66.5q0 -36 -23.5 -62t-57.5 -31q-131 -14 -220 -111t-89 -251v-386q0 -38 -27 -65t-65 -27t-65 27t-27 65v823q0 38 27 65.5t65 27.5t65 -27.5t27 -65.5v-44q60 71 138 113t158 43z" />
    <glyph glyph-name="s" unicode="s" horiz-adv-x="1130" 
d="M561 -17q-172 -1 -367 97q-48 22 -48 76q0 45 38 70.5t80 6.5q155 -75 293 -74q60 1 111 14t84 41t33 65q0 27 -14 47.5t-32 33t-52 23.5t-56.5 16t-64.5 12q-64 11 -113.5 24.5t-104.5 38.5t-91.5 57t-60.5 82.5t-24 114.5q0 76 36.5 135.5t96.5 94.5t128.5 53.5
t139.5 18.5q163 1 344 -100q49 -22 49 -76q0 -35 -24.5 -60t-59.5 -25q-14 0 -32 7q-140 81 -275 80q-93 -1 -149.5 -34t-55.5 -88q0 -28 13 -50t30 -35t47 -24.5t50.5 -16.5t55.5 -12q55 -11 94 -20t86 -23.5t78.5 -30t64 -38.5t52 -50t31.5 -64t12 -81q0 -64 -28 -117
t-72.5 -87t-101.5 -57.5t-112.5 -34t-108.5 -10.5z" />
    <glyph glyph-name="t" unicode="t" horiz-adv-x="966" 
d="M771 172q41 10 74.5 -16t33.5 -69q0 -30 -18 -53t-45 -31q-220 -63 -369 29q-141 88 -141 277v512h-131q-36 0 -61.5 25.5t-25.5 61.5t25.5 61.5t61.5 25.5h131v207q0 38 27 65t65 27t65 -27t27 -65v-207h238q36 0 61.5 -25.5t25.5 -61.5t-25.5 -61.5t-61.5 -25.5h-238
v-493q0 -106 64 -146q77 -47 217 -10z" />
    <glyph glyph-name="u" unicode="u" horiz-adv-x="1284" 
d="M1042 1006q38 0 65.5 -27t27.5 -65v-822q0 -38 -27.5 -65t-65.5 -27t-65 27t-27 65v57q-63 -79 -154.5 -124t-196.5 -45q-186 0 -317.5 131.5t-131.5 317.5v484q0 38 27 65.5t65 27.5t65 -27.5t27 -65.5v-441q0 -132 90 -225t218 -93t218 93t90 225v442q0 38 27 65t65 27
z" />
    <glyph glyph-name="v" unicode="v" horiz-adv-x="1193" 
d="M635 -7q-34 -16 -68.5 -3.5t-51.5 46.5l-411 841q-17 34 -4.5 70.5t46.5 52.5q34 17 70.5 4.5t52.5 -46.5l328 -673l329 673q16 34 52.5 46.5t70.5 -4.5q34 -16 46.5 -52.5t-4.5 -70.5l-409 -837q-15 -34 -47 -47z" />
    <glyph glyph-name="w" unicode="w" horiz-adv-x="2017" 
d="M635 -6q-34 -16 -68.5 -3.5t-51.5 46.5l-412 841q-17 34 -4 71t47 53q34 17 70.5 4t52.5 -47l328 -680l329 680q14 29 45 43q34 16 68.5 3.5t51.5 -46.5l329 -680l328 680q16 34 52.5 47t70.5 -4q34 -16 46.5 -53t-4.5 -71l-409 -837q-15 -34 -47 -47q-34 -16 -68.5 -3.5
t-51.5 46.5l-329 672l-326 -668q-15 -34 -47 -47z" />
    <glyph glyph-name="x" unicode="x" horiz-adv-x="1130" 
d="M690 500l331 -359q25 -29 20.5 -67.5t-34.5 -62.5t-66.5 -19.5t-62.5 33.5l-313 339l-312 -339q-26 -29 -63 -33.5t-67 19.5t-34 62.5t21 67.5l330 359l-329 357q-25 29 -22.5 66.5t31.5 63.5q29 25 66.5 23t63.5 -31l315 -343l316 343q26 29 63.5 31t66.5 -23
q29 -26 31 -63.5t-23 -66.5z" />
    <glyph glyph-name="y" unicode="y" horiz-adv-x="1292" 
d="M617 -452q-202 -2 -411 100q-25 11 -40 33.5t-15 50.5q0 50 41.5 77t86.5 7q168 -84 337 -84q160 0 251 85t91 252v91q-60 -83 -152.5 -131.5t-199.5 -48.5q-186 0 -317.5 131.5t-131.5 317.5v485q0 38 27 65t65 27t65 -27t27 -65v-442q0 -132 90.5 -225t218.5 -93
q127 0 216.5 91.5t91.5 222.5v446q0 38 27 65.5t65 27.5t65 -27.5t27 -65.5v-845q0 -242 -142 -380.5t-383 -140.5z" />
    <glyph glyph-name="z" unicode="z" 
d="M1084 174q36 0 62 -25.5t26 -61.5t-26 -61.5t-62 -25.5h-847q-36 0 -61.5 25.5t-25.5 61.5q0 39 26 63l667 682h-586q-36 0 -61.5 25.5t-25.5 61.5t25.5 61.5t61.5 25.5h807q36 0 61.5 -25.5t25.5 -61.5q0 -37 -25 -62l-669 -683h627z" />
    <glyph glyph-name="braceleft" unicode="{" horiz-adv-x="1417" 
 />
    <glyph glyph-name="bar" unicode="|" horiz-adv-x="440" 
d="M220 -452q-35 0 -60 25t-25 60v1716q0 35 25 60t60 25t60 -25t25 -60v-1716q0 -35 -25 -60t-60 -25z" />
    <glyph glyph-name="braceright" unicode="}" horiz-adv-x="1417" 
 />
    <glyph glyph-name="asciitilde" unicode="~" horiz-adv-x="1228" 
 />
    <glyph glyph-name="cent" unicode="&#xa2;" horiz-adv-x="1161" 
d="M945 269q36 0 61.5 -25.5t25.5 -61.5q0 -40 -31 -66q-115 -104 -265 -128v-140q0 -35 -25 -60t-60 -25t-60 25t-25 60v140q-187 31 -312 176.5t-125 339.5q0 193 124.5 338.5t312.5 176.5v140q0 35 25 60t60 25t60 -25t25 -60v-139q150 -24 265 -128q31 -26 31 -67
q0 -36 -25.5 -61.5t-61.5 -25.5q-31 0 -55 19q-106 95 -238 95q-139 0 -239 -102t-100 -246t100 -246.5t239 -102.5q132 0 238 95q24 19 55 19z" />
    <glyph glyph-name="sterling" unicode="&#xa3;" horiz-adv-x="1306" 
d="M1084 176q36 0 62 -26t26 -62t-26 -62t-62 -26h-837q-36 0 -62 26t-26 62q0 44 37 71q33 33 53.5 61.5t42 73.5t32 108t10.5 145v26h-119q-33 0 -56.5 23.5t-23.5 56.5t23.5 56.5t56.5 23.5h119v327q0 125 69.5 209.5t179.5 116t247 18.5t270 -72q52 -22 52 -79
q0 -44 -36.5 -69.5t-77.5 -11.5q-100 40 -192 53t-166 -2t-118 -70t-44 -145v-275h375q33 0 56.5 -23.5t23.5 -56.5t-23.5 -56.5t-56.5 -23.5h-375v-26q0 -62 -1.5 -95t-10 -87.5t-30 -100.5t-57.5 -89z" />
    <glyph glyph-name="currency" unicode="&#xa4;" horiz-adv-x="1228" 
 />
    <glyph glyph-name="yen" unicode="&#xa5;" horiz-adv-x="1372" 
d="M686 0q-39 0 -66.5 27.5t-27.5 66.5v147h-230q-32 0 -55.5 23t-23.5 55t23.5 55.5t55.5 23.5h230v120h-230q-32 0 -55.5 23.5t-23.5 55.5t23.5 55t55.5 23h133l-373 581q-20 34 -10.5 71.5t43.5 57.5t71.5 10.5t57.5 -43.5l403 -630l402 630q20 34 57.5 43t71.5 -11
t43.5 -57.5t-10.5 -71.5l-373 -580h132q32 0 55.5 -23t23.5 -55t-23.5 -55.5t-55.5 -23.5h-230v-120h230q32 0 55.5 -23.5t23.5 -55.5t-23.5 -55t-55.5 -23h-230v-147q0 -39 -27.5 -66.5t-66.5 -27.5z" />
    <glyph glyph-name="section" unicode="&#xa7;" horiz-adv-x="1228" 
 />
    <glyph glyph-name="dieresis" unicode="&#xa8;" horiz-adv-x="866" 
d="M238 1141q-43 0 -73 30.5t-30 74.5t30 74.5t73 30.5t73.5 -31t30.5 -74t-30.5 -74t-73.5 -31zM627 1141q-43 0 -73 30.5t-30 74.5t30 74.5t73 30.5t73.5 -31t30.5 -74t-30.5 -74t-73.5 -31z" />
    <glyph glyph-name="guillemotleft" unicode="&#xab;" horiz-adv-x="1101" 
d="M256 491l273 -336q17 -20 17 -49q0 -32 -23.5 -55t-55.5 -23q-37 0 -60 28l-311 366q-28 34 -28 69t28 69l311 366q24 29 60 29q32 0 55.5 -23.5t23.5 -55.5q0 -29 -17 -49zM744 491l273 -336q17 -20 17 -49q0 -32 -23.5 -55t-55.5 -23q-37 0 -60 28l-310 366
q-29 35 -29 69t29 69l310 366q24 29 60 29q32 0 55.5 -23.5t23.5 -55.5q0 -29 -17 -49z" />
    <glyph glyph-name="logicalnot" unicode="&#xac;" horiz-adv-x="1228" 
 />
    <glyph glyph-name="macron" unicode="&#xaf;" horiz-adv-x="1011" 
d="M212 1203q-32 0 -54.5 22.5t-22.5 54.5t22.5 54.5t54.5 22.5h588q32 0 54.5 -22.5t22.5 -54.5t-22.5 -54.5t-54.5 -22.5h-588z" />
    <glyph glyph-name="degree" unicode="&#xb0;" horiz-adv-x="618" 
d="M309 1059q-100 0 -170.5 70t-70.5 168t70.5 167.5t170.5 69.5t171 -69.5t71 -167.5t-71 -168t-171 -70zM309 1179q49 0 83.5 34t34.5 83t-34.5 83t-83.5 34t-83 -34t-34 -83t34 -83t83 -34z" />
    <glyph glyph-name="plusminus" unicode="&#xb1;" horiz-adv-x="1269" 
d="M261 737q-35 0 -60 25t-25 60t25 60t60 25h290v185q0 35 25 60t60 25t60 -25t25 -60v-185h291q35 0 59.5 -25t24.5 -60t-24.5 -60t-59.5 -25h-291v-179q0 -35 -25 -60t-60 -25t-60 25t-25 60v179h-290zM1012 345q35 0 59.5 -25t24.5 -60t-24.5 -60t-59.5 -25h-751
q-35 0 -60 25t-25 60t25 60t60 25h751z" />
    <glyph glyph-name="acute" unicode="&#xb4;" horiz-adv-x="579" 
d="M261 1187q-21 -27 -56 -27q-38 0 -59 32.5t-4 67.5l127 253q26 53 83 53q38 0 65.5 -27.5t27.5 -65.5q0 -31 -19 -56z" />
    <glyph glyph-name="paragraph" unicode="&#xb6;" horiz-adv-x="1228" 
 />
    <glyph glyph-name="periodcentered" unicode="&#xb7;" horiz-adv-x="415" 
d="M208 388q-47 0 -80.5 33.5t-33.5 81.5t33.5 81.5t80.5 33.5t80 -33.5t33 -81.5t-33 -81.5t-80 -33.5z" />
    <glyph glyph-name="cedilla" unicode="&#xb8;" horiz-adv-x="577" 
d="M218 -297q-35 0 -59 24t-24 58t23 57l167 185l117 -26l-153 -258q-23 -40 -71 -40z" />
    <glyph glyph-name="guillemotright" unicode="&#xbb;" horiz-adv-x="1101" 
d="M358 491l-273 336q-17 20 -17 49q0 32 23 55.5t55 23.5q37 0 61 -29l310 -366q29 -35 29 -69t-29 -69l-310 -366q-23 -28 -61 -28q-32 0 -55 23t-23 55q0 29 17 49zM846 491l-273 336q-17 20 -17 49q0 32 23.5 55.5t55.5 23.5q36 0 60 -29l310 -366q29 -35 29 -69
t-29 -69l-310 -366q-23 -28 -60 -28q-32 0 -55.5 23t-23.5 55q0 29 17 49z" />
    <glyph glyph-name="Agrave" unicode="&#xc0;" horiz-adv-x="1445" 
d="M634 1574l-165 230q-19 25 -19 56q0 38 27.5 65.5t65.5 27.5q57 0 83 -53l127 -253q17 -35 -4 -67.5t-59 -32.5q-35 0 -56 27zM1350 130q16 -36 1.5 -72t-50.5 -52t-72 -2t-52 50l-124 282h-660l-124 -282q-16 -36 -52.5 -50t-72.5 2t-50 52t2 72l540 1217q12 26 36 41
t51 15t51 -15t36 -41zM476 524h494l-247 561z" />
    <glyph glyph-name="Aacute" unicode="&#xc1;" horiz-adv-x="1445" 
d="M757 1547q-39 0 -59.5 32.5t-3.5 67.5l127 253q26 53 83 53q38 0 65.5 -27.5t27.5 -65.5q0 -31 -19 -56l-165 -230q-21 -27 -56 -27zM1350 130q16 -36 1.5 -72t-50.5 -52t-72 -2t-52 50l-124 282h-660l-124 -282q-16 -36 -52.5 -50t-72.5 2t-50 52t2 72l540 1217
q12 26 36 41t51 15t51 -15t36 -41zM476 524h494l-247 561z" />
    <glyph glyph-name="Acircumflex" unicode="&#xc2;" horiz-adv-x="1445" 
d="M521 1544q-21 -12 -44.5 -7.5t-38.5 23.5q-16 20 -13 46t23 42l225 185q21 18 53 18q31 0 52 -18l225 -185q27 -23 23.5 -58.5t-35.5 -49.5q-31 -13 -60 4l-205 126zM1350 130q16 -36 1.5 -72t-50.5 -52t-72 -2t-52 50l-124 282h-660l-124 -282q-16 -36 -52.5 -50
t-72.5 2t-50 52t2 72l540 1217q12 26 36 41t51 15t51 -15t36 -41zM476 524h494l-247 561z" />
    <glyph glyph-name="Atilde" unicode="&#xc3;" horiz-adv-x="1445" 
d="M462 1562q-32 -21 -66 -2t-32 58q1 22 18 40q142 144 333 71q7 -3 40.5 -16t42 -15.5t35 -10t39 -6.5t34 2t40 9.5t37.5 21.5q32 21 66 2.5t32 -57.5q-1 -24 -17 -41q-142 -144 -333 -71q-6 2 -40.5 15.5t-42 15.5t-35 10.5t-39.5 7t-34 -2.5t-40.5 -9.5t-37.5 -21.5z
M1350 130q16 -36 1.5 -72t-50.5 -52t-72 -2t-52 50l-124 282h-660l-124 -282q-16 -36 -52.5 -50t-72.5 2t-50 52t2 72l540 1217q12 26 36 41t51 15t51 -15t36 -41zM476 524h494l-247 561z" />
    <glyph glyph-name="Adieresis" unicode="&#xc4;" horiz-adv-x="1445" 
d="M529 1528q-43 0 -73 30.5t-30 74.5q0 43 30 73.5t73 30.5t73 -30.5t30 -73.5q0 -44 -30 -74.5t-73 -30.5zM918 1528q-43 0 -73 30.5t-30 74.5q0 43 30 73.5t73 30.5t73 -30.5t30 -73.5q0 -44 -30 -74.5t-73 -30.5zM1350 130q16 -36 1.5 -72t-50.5 -52t-72 -2t-52 50
l-124 282h-660l-124 -282q-16 -36 -52.5 -50t-72.5 2t-50 52t2 72l540 1217q12 26 36 41t51 15t51 -15t36 -41zM476 524h494l-247 561z" />
    <glyph glyph-name="Aring" unicode="&#xc5;" horiz-adv-x="1445" 
d="M724 1528q-83 0 -142 57t-59 139t59 139.5t142 57.5t141.5 -57.5t58.5 -139.5t-58.5 -139t-141.5 -57zM724 1814q-38 0 -64.5 -26.5t-26.5 -63.5q0 -38 26.5 -64.5t64.5 -26.5q37 0 63.5 26.5t26.5 64.5t-26 64t-64 26zM1350 130q16 -36 1.5 -72t-50.5 -52t-72 -2t-52 50
l-124 282h-660l-124 -282q-16 -36 -52.5 -50t-72.5 2t-50 52t2 72l540 1217q12 26 36 41t51 15t51 -15t36 -41zM476 524h494l-247 561z" />
    <glyph glyph-name="AE" unicode="&#xc6;" horiz-adv-x="2029" 
d="M1789 181q38 0 64.5 -26.5t26.5 -63.5t-27 -64t-64 -27h-747q-39 0 -66.5 27.5t-27.5 66.5v242h-556l-126 -283q-16 -35 -52 -49t-71 2t-49 51.5t2 70.5l542 1209q11 24 32.5 38.5t47.5 16.5v1h1071q37 0 64 -26.5t27 -64.5t-27 -64.5t-64 -26.5h-653v-465h543
q37 0 63.5 -26.5t26.5 -64.5q0 -37 -26.5 -63.5t-63.5 -26.5h-543v-384h653zM477 524h471v687h-163z" />
    <glyph glyph-name="Ccedilla" unicode="&#xc7;" horiz-adv-x="1492" 
d="M1286 369q38 0 65 -27.5t27 -65.5q0 -36 -26 -64q-178 -195 -437 -227l-136 -231q-23 -40 -71 -40q-34 0 -58.5 24t-24.5 59q0 34 23 57l117 128q-135 12 -255 73t-207 155.5t-137.5 221t-50.5 264.5q0 146 56.5 278.5t152 228.5t227.5 153t277 57q152 0 288 -61
t236 -171q26 -28 26 -65q0 -38 -27 -65t-65 -27q-41 0 -68 29q-75 85 -176 132t-214 47q-107 0 -204 -42.5t-167.5 -114t-112 -171t-41.5 -208.5q0 -146 70.5 -269t191 -194.5t263.5 -71.5q114 0 215 46.5t175 131.5q28 30 68 30z" />
    <glyph glyph-name="Egrave" unicode="&#xc8;" horiz-adv-x="1292" 
d="M557 1574l-165 230q-19 25 -19 56q0 38 27 65.5t65 27.5q58 0 84 -53l127 -253q17 -35 -4 -67.5t-59 -32.5q-35 0 -56 27zM1052 181q38 0 64.5 -26.5t26.5 -63.5t-26.5 -64t-64.5 -27h-808q-39 0 -66.5 27.5t-27.5 66.5v1204q0 39 27.5 67t66.5 28h808q38 0 64.5 -26.5
t26.5 -64.5t-26.5 -64.5t-64.5 -26.5h-714v-465h604q37 0 63.5 -26.5t26.5 -64.5q0 -37 -26 -63.5t-64 -26.5h-604v-384h714z" />
    <glyph glyph-name="Eacute" unicode="&#xc9;" horiz-adv-x="1292" 
d="M680 1547q-38 0 -59 33t-5 67l127 253q26 53 84 53q38 0 65.5 -27.5t27.5 -65.5q0 -31 -19 -56l-166 -230q-21 -27 -55 -27zM1052 181q38 0 64.5 -26.5t26.5 -63.5t-26.5 -64t-64.5 -27h-808q-39 0 -66.5 27.5t-27.5 66.5v1204q0 39 27.5 67t66.5 28h808q38 0 64.5 -26.5
t26.5 -64.5t-26.5 -64.5t-64.5 -26.5h-714v-465h604q37 0 63.5 -26.5t26.5 -64.5q0 -37 -26 -63.5t-64 -26.5h-604v-384h714z" />
    <glyph glyph-name="Ecircumflex" unicode="&#xca;" horiz-adv-x="1292" 
d="M444 1544q-21 -12 -45 -7.5t-39 23.5q-16 20 -12.5 45.5t23.5 42.5l225 185q21 18 52 18q32 0 53 -18l225 -185q27 -23 23 -58.5t-36 -49.5q-31 -13 -60 4l-205 126zM1052 181q38 0 64.5 -26.5t26.5 -63.5t-26.5 -64t-64.5 -27h-808q-39 0 -66.5 27.5t-27.5 66.5v1204
q0 39 27.5 67t66.5 28h808q38 0 64.5 -26.5t26.5 -64.5t-26.5 -64.5t-64.5 -26.5h-714v-465h604q37 0 63.5 -26.5t26.5 -64.5q0 -37 -26 -63.5t-64 -26.5h-604v-384h714z" />
    <glyph glyph-name="Edieresis" unicode="&#xcb;" horiz-adv-x="1292" 
d="M452 1528q-43 0 -73.5 31t-30.5 74t30.5 73.5t73.5 30.5t73 -30.5t30 -73.5q0 -44 -30 -74.5t-73 -30.5zM841 1528q-43 0 -73.5 31t-30.5 74t30.5 73.5t73.5 30.5t73 -30.5t30 -73.5q0 -44 -30 -74.5t-73 -30.5zM1052 181q38 0 64.5 -26.5t26.5 -63.5t-26.5 -64
t-64.5 -27h-808q-39 0 -66.5 27.5t-27.5 66.5v1204q0 39 27.5 67t66.5 28h808q38 0 64.5 -26.5t26.5 -64.5t-26.5 -64.5t-64.5 -26.5h-714v-465h604q37 0 63.5 -26.5t26.5 -64.5q0 -37 -26 -63.5t-64 -26.5h-604v-384h714z" />
    <glyph glyph-name="Igrave" unicode="&#xcc;" horiz-adv-x="487" 
d="M210 1547q-35 0 -56 27l-165 230q-19 25 -19 56q0 38 27.5 65.5t65.5 27.5q58 0 84 -53l126 -253q17 -35 -4 -67.5t-59 -32.5zM244 0q-39 0 -66.5 27.5t-27.5 66.5v1204q0 39 27.5 67t66.5 28t66.5 -28t27.5 -67v-1204q0 -39 -27.5 -66.5t-66.5 -27.5z" />
    <glyph glyph-name="Iacute" unicode="&#xcd;" horiz-adv-x="487" 
d="M333 1574q-21 -27 -56 -27q-39 0 -59.5 32.5t-3.5 67.5l127 253q26 53 84 53q38 0 65 -27.5t27 -65.5q0 -31 -19 -56zM244 0q-39 0 -66.5 27.5t-27.5 66.5v1204q0 39 27.5 67t66.5 28t66.5 -28t27.5 -67v-1204q0 -39 -27.5 -66.5t-66.5 -27.5z" />
    <glyph glyph-name="Icircumflex" unicode="&#xce;" horiz-adv-x="487" 
d="M511 1540q-31 -13 -60 4l-205 126l-205 -126q-21 -12 -44.5 -7.5t-38.5 23.5q-16 20 -12.5 45.5t23.5 42.5l225 185q21 18 52 18t52 -18l225 -185q27 -23 23.5 -58.5t-35.5 -49.5zM244 0q-39 0 -66.5 27.5t-27.5 66.5v1204q0 39 27.5 67t66.5 28t66.5 -28t27.5 -67v-1204
q0 -39 -27.5 -66.5t-66.5 -27.5z" />
    <glyph glyph-name="Idieresis" unicode="&#xcf;" horiz-adv-x="487" 
d="M49 1528q-43 0 -73 30.5t-30 74.5q0 43 30 73.5t73 30.5t73.5 -30.5t30.5 -73.5t-30.5 -74t-73.5 -31zM438 1528q-43 0 -73 30.5t-30 74.5q0 43 30 73.5t73 30.5t73 -30.5t30 -73.5q0 -44 -30 -74.5t-73 -30.5zM244 0q-39 0 -66.5 27.5t-27.5 66.5v1204q0 39 27.5 67
t66.5 28t66.5 -28t27.5 -67v-1204q0 -39 -27.5 -66.5t-66.5 -27.5z" />
    <glyph glyph-name="Ntilde" unicode="&#xd1;" horiz-adv-x="1538" 
d="M508 1562q-32 -21 -66 -2t-32 58q1 23 17 40q142 144 333 71q7 -3 40.5 -16t42 -15.5t35 -10t39 -6.5t34 2t40 9.5t37.5 21.5q32 22 66.5 3t32.5 -58q-1 -23 -18 -41q-142 -144 -333 -71q-7 3 -40.5 16t-42 15.5t-35 10t-39 6.5t-34 -2t-40 -9.5t-37.5 -21.5zM1294 1393
q39 0 67 -27.5t28 -66.5v-1206q0 -39 -28 -66.5t-67 -27.5q-35 0 -60 22v-1l-2 3q-12 12 -17 19l-877 1019v-967q0 -39 -27.5 -67t-66.5 -28t-67 28t-28 67v1205q0 39 28 66.5t67 27.5q36 0 60 -21l2 2l894 -1037v962q0 39 27.5 66.5t66.5 27.5z" />
    <glyph glyph-name="Ograve" unicode="&#xd2;" horiz-adv-x="1699" 
d="M816 1547q-34 0 -55 27l-166 230q-19 25 -19 56q0 38 27.5 65.5t65.5 27.5q58 0 84 -53l127 -253q16 -34 -5 -67t-59 -33zM850 -20q-147 0 -280.5 56.5t-230 152.5t-153.5 228.5t-57 278.5t57 278.5t153.5 228.5t230 153t280.5 57t280.5 -57t230 -153t153.5 -228.5
t57 -278.5t-57 -278.5t-153.5 -228.5t-230 -152.5t-280.5 -56.5zM850 161q108 0 206.5 42.5t170 114t113.5 170.5t42 208t-42 208.5t-113.5 171t-170 114t-206.5 42.5t-207 -42.5t-170 -114t-113.5 -171t-42.5 -208.5q0 -146 71.5 -269t194 -194.5t267.5 -71.5z" />
    <glyph glyph-name="Oacute" unicode="&#xd3;" horiz-adv-x="1699" 
d="M939 1574q-21 -27 -56 -27q-39 0 -59.5 32.5t-3.5 67.5l127 253q26 53 84 53q38 0 65 -27.5t27 -65.5q0 -31 -19 -56zM850 -20q-147 0 -280.5 56.5t-230 152.5t-153.5 228.5t-57 278.5t57 278.5t153.5 228.5t230 153t280.5 57t280.5 -57t230 -153t153.5 -228.5t57 -278.5
t-57 -278.5t-153.5 -228.5t-230 -152.5t-280.5 -56.5zM850 161q108 0 206.5 42.5t170 114t113.5 170.5t42 208t-42 208.5t-113.5 171t-170 114t-206.5 42.5t-207 -42.5t-170 -114t-113.5 -171t-42.5 -208.5q0 -146 71.5 -269t194 -194.5t267.5 -71.5z" />
    <glyph glyph-name="Ocircumflex" unicode="&#xd4;" horiz-adv-x="1699" 
d="M1117 1540q-31 -13 -60 4l-205 126l-205 -126q-21 -12 -44.5 -7.5t-38.5 23.5q-16 20 -12.5 45.5t23.5 42.5l225 185q21 18 52 18q32 0 53 -18l225 -185q27 -23 23 -58.5t-36 -49.5zM850 -20q-147 0 -280.5 56.5t-230 152.5t-153.5 228.5t-57 278.5t57 278.5t153.5 228.5
t230 153t280.5 57t280.5 -57t230 -153t153.5 -228.5t57 -278.5t-57 -278.5t-153.5 -228.5t-230 -152.5t-280.5 -56.5zM850 161q108 0 206.5 42.5t170 114t113.5 170.5t42 208t-42 208.5t-113.5 171t-170 114t-206.5 42.5t-207 -42.5t-170 -114t-113.5 -171t-42.5 -208.5
q0 -146 71.5 -269t194 -194.5t267.5 -71.5z" />
    <glyph glyph-name="Otilde" unicode="&#xd5;" horiz-adv-x="1699" 
d="M857 1547q-7 3 -40.5 16t-42 15.5t-35 10t-39 6.5t-34 -2t-40 -9.5t-37.5 -21.5q-32 -21 -66.5 -2t-32.5 58q1 22 18 40q142 144 333 71q7 -3 40.5 -16t42 -15.5t35 -10t39 -6.5t34 2t40 9.5t37.5 21.5q32 22 66.5 3t32.5 -58q-1 -23 -18 -41q-142 -144 -333 -71z
M850 -20q-147 0 -280.5 56.5t-230 152.5t-153.5 228.5t-57 278.5t57 278.5t153.5 228.5t230 153t280.5 57t280.5 -57t230 -153t153.5 -228.5t57 -278.5t-57 -278.5t-153.5 -228.5t-230 -152.5t-280.5 -56.5zM850 161q108 0 206.5 42.5t170 114t113.5 170.5t42 208t-42 208.5
t-113.5 171t-170 114t-206.5 42.5t-207 -42.5t-170 -114t-113.5 -171t-42.5 -208.5q0 -146 71.5 -269t194 -194.5t267.5 -71.5z" />
    <glyph glyph-name="Odieresis" unicode="&#xd6;" horiz-adv-x="1699" 
d="M655 1528q-43 0 -73 30.5t-30 74.5q0 43 30 73.5t73 30.5t73.5 -30.5t30.5 -73.5t-30.5 -74t-73.5 -31zM1044 1528q-43 0 -73 30.5t-30 74.5q0 43 30 73.5t73 30.5t73.5 -30.5t30.5 -73.5t-30.5 -74t-73.5 -31zM850 -20q-147 0 -280.5 56.5t-230 152.5t-153.5 228.5
t-57 278.5t57 278.5t153.5 228.5t230 153t280.5 57t280.5 -57t230 -153t153.5 -228.5t57 -278.5t-57 -278.5t-153.5 -228.5t-230 -152.5t-280.5 -56.5zM850 161q108 0 206.5 42.5t170 114t113.5 170.5t42 208t-42 208.5t-113.5 171t-170 114t-206.5 42.5t-207 -42.5
t-170 -114t-113.5 -171t-42.5 -208.5q0 -146 71.5 -269t194 -194.5t267.5 -71.5z" />
    <glyph glyph-name="multiply" unicode="&#xd7;" horiz-adv-x="1153" 
d="M952 420q25 -25 25 -60t-25 -60t-60 -25t-60 25l-257 256l-254 -254q-25 -25 -60 -25t-60 25t-25 60t25 60l254 255l-252 252q-25 25 -25 60t25 60t60 25t60 -25l252 -252l255 254q25 25 60 25t60 -25t25 -60t-25 -60l-254 -254z" />
    <glyph glyph-name="Oslash" unicode="&#xd8;" horiz-adv-x="1703" 
d="M1417 1141q156 -196 156 -445q0 -146 -57 -278.5t-153.5 -228.5t-230 -152.5t-280.5 -56.5q-250 0 -445 152l-119 -119q-25 -25 -60 -25t-60 25t-25 60t25 60l118 118q-155 195 -155 445q0 146 57 278.5t153.5 228.5t230 153t280.5 57q249 0 444 -152l119 119
q25 25 60 25t60 -25t25 -60t-25 -60zM319 696q0 -172 100 -312l746 746q-140 102 -313 102q-108 0 -207 -42.5t-170 -114t-113.5 -171t-42.5 -208.5zM852 161q108 0 206.5 42.5t170 114t113.5 170.5t42 208q0 173 -100 313l-745 -746q140 -102 313 -102z" />
    <glyph glyph-name="Ugrave" unicode="&#xd9;" horiz-adv-x="1579" 
d="M756 1547q-35 0 -56 27l-165 230q-19 25 -19 56q0 38 27.5 65.5t65.5 27.5q57 0 83 -53l127 -253q17 -35 -4 -67.5t-59 -32.5zM789 -20q-174 0 -321 85t-233 231t-86 319v683q0 39 28 67t67 28t66.5 -28t27.5 -67v-683q0 -188 132 -321t319 -133t319.5 133t132.5 321v683
q0 39 27.5 67t66.5 28t66.5 -28t27.5 -67v-683q0 -173 -86 -319t-233 -231t-321 -85z" />
    <glyph glyph-name="Uacute" unicode="&#xda;" horiz-adv-x="1579" 
d="M879 1574q-21 -27 -56 -27q-39 0 -59.5 32.5t-3.5 67.5l127 253q26 53 83 53q38 0 65.5 -27.5t27.5 -65.5q0 -31 -19 -56zM789 -20q-174 0 -321 85t-233 231t-86 319v683q0 39 28 67t67 28t66.5 -28t27.5 -67v-683q0 -188 132 -321t319 -133t319.5 133t132.5 321v683
q0 39 27.5 67t66.5 28t66.5 -28t27.5 -67v-683q0 -173 -86 -319t-233 -231t-321 -85z" />
    <glyph glyph-name="Ucircumflex" unicode="&#xdb;" horiz-adv-x="1579" 
d="M1057 1540q-31 -13 -60 4l-205 126l-205 -126q-21 -12 -44.5 -7.5t-38.5 23.5q-16 20 -13 46t23 42l225 185q21 18 53 18q31 0 52 -18l225 -185q27 -23 23.5 -58.5t-35.5 -49.5zM789 -20q-174 0 -321 85t-233 231t-86 319v683q0 39 28 67t67 28t66.5 -28t27.5 -67v-683
q0 -188 132 -321t319 -133t319.5 133t132.5 321v683q0 39 27.5 67t66.5 28t66.5 -28t27.5 -67v-683q0 -173 -86 -319t-233 -231t-321 -85z" />
    <glyph glyph-name="Udieresis" unicode="&#xdc;" horiz-adv-x="1579" 
d="M595 1528q-43 0 -73 30.5t-30 74.5q0 43 30 73.5t73 30.5t73 -30.5t30 -73.5q0 -44 -30 -74.5t-73 -30.5zM984 1528q-43 0 -73 30.5t-30 74.5q0 43 30 73.5t73 30.5t73 -30.5t30 -73.5q0 -44 -30 -74.5t-73 -30.5zM789 -20q-174 0 -321 85t-233 231t-86 319v683
q0 39 28 67t67 28t66.5 -28t27.5 -67v-683q0 -188 132 -321t319 -133t319.5 133t132.5 321v683q0 39 27.5 67t66.5 28t66.5 -28t27.5 -67v-683q0 -173 -86 -319t-233 -231t-321 -85z" />
    <glyph glyph-name="Yacute" unicode="&#xdd;" horiz-adv-x="1404" 
d="M736 1547q-39 0 -59.5 32.5t-3.5 67.5l126 253q26 53 84 53q38 0 65.5 -27.5t27.5 -65.5q0 -31 -19 -56l-166 -230q-21 -27 -55 -27zM1273 1379q33 -21 41 -59t-13 -71l-505 -777v-387q0 -39 -27.5 -66.5t-66.5 -27.5t-66.5 27.5t-27.5 66.5v386l-505 778q-21 33 -13 71
t41 59t71.5 12.5t59.5 -41.5l440 -682l441 682q21 33 59 41.5t71 -12.5z" />
    <glyph glyph-name="Thorn" unicode="&#xde;" horiz-adv-x="1292" 
d="M688 1172q129 0 238.5 -63.5t173 -173t63.5 -238.5q0 -198 -139 -337t-336 -139h-350v-127q0 -39 -27.5 -66.5t-66.5 -27.5t-66.5 27.5t-27.5 66.5v1204q0 39 27.5 67t66.5 28t66.5 -28t27.5 -67v-126h350zM688 402q119 0 203 86.5t84 208.5q0 121 -84 207t-203 86h-350
v-588h350z" />
    <glyph glyph-name="germandbls" unicode="&#xdf;" horiz-adv-x="1245" 
d="M866 733q113 -43 178 -129.5t65 -213.5q0 -128 -66 -218t-172.5 -131.5t-243.5 -41.5h-40q-36 0 -61.5 25.5t-25.5 61.5t25.5 62t61.5 26h40q131 0 214.5 58t83.5 169t-84 170t-214 59h-42q-35 0 -60 25t-25 60t24.5 59t60.5 26h42q80 0 150 62.5t70 163.5
q0 108 -78.5 169.5t-183.5 62.5q-119 1 -192 -68t-73 -195v-903q0 -38 -27.5 -65t-65.5 -27t-65 27t-27 65v925q0 104 34 184.5t94 130t138 75t171 27.5q126 2 229 -43t166.5 -137.5t63.5 -216.5q0 -207 -165 -304z" />
    <glyph glyph-name="agrave" unicode="&#xe0;" 
d="M527 1187l-166 230q-19 25 -19 56q0 38 27.5 65.5t65.5 27.5q58 0 84 -53l127 -253q16 -34 -5 -67t-59 -33q-34 0 -55 27zM1079 1006q38 0 65 -27t27 -65v-822q0 -38 -27 -65t-65 -27t-65 27t-27 65v71q-68 -86 -164.5 -134.5t-206.5 -48.5q-99 0 -189 41t-155.5 111
t-104 167t-38.5 203q0 143 65 263.5t177.5 190.5t244.5 70q110 0 206.5 -48.5t164.5 -134.5v71q0 38 27 65t65 27zM652 154q140 0 239.5 102t99.5 247t-99.5 247t-239.5 102t-239.5 -102t-99.5 -247t99.5 -247t239.5 -102z" />
    <glyph glyph-name="aacute" unicode="&#xe1;" 
d="M649 1160q-38 0 -59 32.5t-4 67.5l127 253q26 53 84 53q38 0 65 -27.5t27 -65.5q0 -31 -19 -56l-165 -230q-21 -27 -56 -27zM1079 1006q38 0 65 -27t27 -65v-822q0 -38 -27 -65t-65 -27t-65 27t-27 65v71q-68 -86 -164.5 -134.5t-206.5 -48.5q-99 0 -189 41t-155.5 111
t-104 167t-38.5 203q0 143 65 263.5t177.5 190.5t244.5 70q110 0 206.5 -48.5t164.5 -134.5v71q0 38 27 65t65 27zM652 154q140 0 239.5 102t99.5 247t-99.5 247t-239.5 102t-239.5 -102t-99.5 -247t99.5 -247t239.5 -102z" />
    <glyph glyph-name="acircumflex" unicode="&#xe2;" 
d="M413 1157q-21 -12 -44.5 -7.5t-38.5 23.5q-16 20 -12.5 45.5t23.5 42.5l225 185q22 19 52 19t52 -19l226 -185q27 -23 23 -58t-36 -49q-32 -13 -60 3l-205 126zM1079 1006q38 0 65 -27t27 -65v-822q0 -38 -27 -65t-65 -27t-65 27t-27 65v71q-68 -86 -164.5 -134.5
t-206.5 -48.5q-99 0 -189 41t-155.5 111t-104 167t-38.5 203q0 143 65 263.5t177.5 190.5t244.5 70q110 0 206.5 -48.5t164.5 -134.5v71q0 38 27 65t65 27zM652 154q140 0 239.5 102t99.5 247t-99.5 247t-239.5 102t-239.5 -102t-99.5 -247t99.5 -247t239.5 -102z" />
    <glyph glyph-name="atilde" unicode="&#xe3;" 
d="M355 1176q-32 -22 -66.5 -3t-32.5 58q1 23 18 41q142 143 333 70q7 -3 40.5 -16t42 -15.5t35 -10t39 -6.5t34 2t40 9.5t37.5 21.5q32 22 66.5 3t32.5 -58q-1 -23 -18 -41q-142 -143 -333 -70q-7 3 -40.5 16t-42 15.5t-35 10t-39 6.5t-34 -2t-40 -9.5t-37.5 -21.5z
M1079 1006q38 0 65 -27t27 -65v-822q0 -38 -27 -65t-65 -27t-65 27t-27 65v71q-68 -86 -164.5 -134.5t-206.5 -48.5q-99 0 -189 41t-155.5 111t-104 167t-38.5 203q0 143 65 263.5t177.5 190.5t244.5 70q110 0 206.5 -48.5t164.5 -134.5v71q0 38 27 65t65 27zM652 154
q140 0 239.5 102t99.5 247t-99.5 247t-239.5 102t-239.5 -102t-99.5 -247t99.5 -247t239.5 -102z" />
    <glyph glyph-name="adieresis" unicode="&#xe4;" 
d="M421 1141q-43 0 -73 30.5t-30 74.5t30 74.5t73 30.5t73.5 -31t30.5 -74t-30.5 -74t-73.5 -31zM810 1141q-43 0 -73 30.5t-30 74.5t30 74.5t73 30.5t73.5 -31t30.5 -74t-30.5 -74t-73.5 -31zM1079 1006q38 0 65 -27t27 -65v-822q0 -38 -27 -65t-65 -27t-65 27t-27 65v71
q-68 -86 -164.5 -134.5t-206.5 -48.5q-99 0 -189 41t-155.5 111t-104 167t-38.5 203q0 143 65 263.5t177.5 190.5t244.5 70q110 0 206.5 -48.5t164.5 -134.5v71q0 38 27 65t65 27zM652 154q140 0 239.5 102t99.5 247t-99.5 247t-239.5 102t-239.5 -102t-99.5 -247t99.5 -247
t239.5 -102z" />
    <glyph glyph-name="aring" unicode="&#xe5;" 
d="M616 1141q-83 0 -142 57.5t-59 139.5t59 139t142 57t142 -57t59 -139t-59 -139.5t-142 -57.5zM616 1428q-38 0 -64.5 -27t-26.5 -64t26.5 -63.5t64.5 -26.5t64 26.5t26 63.5q0 38 -26.5 64.5t-63.5 26.5zM1079 1006q38 0 65 -27t27 -65v-822q0 -38 -27 -65t-65 -27
t-65 27t-27 65v71q-68 -86 -164.5 -134.5t-206.5 -48.5q-99 0 -189 41t-155.5 111t-104 167t-38.5 203q0 143 65 263.5t177.5 190.5t244.5 70q110 0 206.5 -48.5t164.5 -134.5v71q0 38 27 65t65 27zM652 154q140 0 239.5 102t99.5 247t-99.5 247t-239.5 102t-239.5 -102
t-99.5 -247t99.5 -247t239.5 -102z" />
    <glyph glyph-name="ae" unicode="&#xe6;" horiz-adv-x="2185" 
d="M1554 1026q137 0 252.5 -69.5t183 -190t67.5 -262.5q0 -4 -0.5 -11t-0.5 -11q-1 -37 -27 -63t-64 -26h-717q28 -115 115.5 -177.5t217.5 -61.5q150 2 303 78q11 5 29 5q36 0 61.5 -25.5t25.5 -61.5q0 -27 -16 -49.5t-41 -31.5q-185 -90 -361 -90q-129 0 -234.5 44.5
t-176.5 126.5v-58q0 -38 -27 -65t-65 -27t-65 27t-27 65v71q-68 -86 -164.5 -134.5t-206.5 -48.5q-99 0 -189 41t-155.5 111t-104 167t-38.5 203q0 143 65 263.5t177.5 190.5t244.5 70q110 0 206.5 -48.5t164.5 -134.5v71q0 38 27 65t65 27t65 -27t27 -65v-71
q70 86 170 134.5t213 48.5zM652 154q140 0 239.5 102t99.5 247t-99.5 247t-239.5 102t-239.5 -102t-99.5 -247t99.5 -247t239.5 -102zM1554 852q-117 0 -205.5 -82.5t-108.5 -206.5h628q-20 124 -108.5 206.5t-205.5 82.5z" />
    <glyph glyph-name="ccedilla" unicode="&#xe7;" horiz-adv-x="1181" 
d="M945 269q36 0 61.5 -25.5t25.5 -61.5q0 -40 -31 -66q-124 -112 -283 -131l-141 -237q-23 -40 -71 -40q-35 0 -59 24t-24 58t23 57l127 140q-190 29 -317 175.5t-127 341.5q0 142 70 262.5t190.5 190t262.5 69.5q199 0 349 -134q31 -26 31 -67q0 -36 -25.5 -61.5
t-61.5 -25.5q-31 0 -55 19q-106 95 -238 95q-139 0 -239 -102t-100 -246t100 -246.5t239 -102.5q132 0 238 95q24 19 55 19z" />
    <glyph glyph-name="egrave" unicode="&#xe8;" horiz-adv-x="1263" 
d="M543 1187l-166 230q-19 25 -19 56q0 38 27.5 65.5t65.5 27.5q58 0 84 -53l126 -253q17 -35 -4 -67.5t-59 -32.5q-34 0 -55 27zM632 1026q137 0 252.5 -69.5t183 -190t67.5 -262.5q0 -4 -0.5 -11t-0.5 -11q-1 -37 -27.5 -63t-64.5 -26h-716q28 -115 115.5 -177t217.5 -62
q149 2 302 78q11 5 30 5q36 0 61.5 -25.5t25.5 -61.5q0 -27 -16 -49.5t-41 -31.5q-185 -90 -362 -90q-238 0 -384 142t-146 382q0 142 67.5 262.5t183 190.5t252.5 70zM632 852q-117 0 -205.5 -82.5t-108.5 -206.5h628q-20 124 -108.5 206.5t-205.5 82.5z" />
    <glyph glyph-name="eacute" unicode="&#xe9;" horiz-adv-x="1263" 
d="M665 1160q-38 0 -59 32.5t-4 67.5l127 253q26 53 84 53q38 0 65 -27.5t27 -65.5q0 -31 -19 -56l-165 -230q-21 -27 -56 -27zM632 1026q137 0 252.5 -69.5t183 -190t67.5 -262.5q0 -4 -0.5 -11t-0.5 -11q-1 -37 -27.5 -63t-64.5 -26h-716q28 -115 115.5 -177t217.5 -62
q149 2 302 78q11 5 30 5q36 0 61.5 -25.5t25.5 -61.5q0 -27 -16 -49.5t-41 -31.5q-185 -90 -362 -90q-238 0 -384 142t-146 382q0 142 67.5 262.5t183 190.5t252.5 70zM632 852q-117 0 -205.5 -82.5t-108.5 -206.5h628q-20 124 -108.5 206.5t-205.5 82.5z" />
    <glyph glyph-name="ecircumflex" unicode="&#xea;" horiz-adv-x="1263" 
d="M429 1157q-21 -12 -44.5 -7.5t-38.5 23.5q-16 20 -12.5 45.5t23.5 42.5l225 185q22 19 52 19t52 -19l225 -185q27 -23 23.5 -58t-35.5 -49q-32 -13 -60 3l-205 126zM632 1026q137 0 252.5 -69.5t183 -190t67.5 -262.5q0 -4 -0.5 -11t-0.5 -11q-1 -37 -27.5 -63t-64.5 -26
h-716q28 -115 115.5 -177t217.5 -62q149 2 302 78q11 5 30 5q36 0 61.5 -25.5t25.5 -61.5q0 -27 -16 -49.5t-41 -31.5q-185 -90 -362 -90q-238 0 -384 142t-146 382q0 142 67.5 262.5t183 190.5t252.5 70zM632 852q-117 0 -205.5 -82.5t-108.5 -206.5h628
q-20 124 -108.5 206.5t-205.5 82.5z" />
    <glyph glyph-name="edieresis" unicode="&#xeb;" horiz-adv-x="1263" 
d="M437 1141q-43 0 -73 30.5t-30 74.5t30 74.5t73 30.5t73.5 -31t30.5 -74t-30.5 -74t-73.5 -31zM826 1141q-43 0 -73 30.5t-30 74.5t30 74.5t73 30.5t73.5 -31t30.5 -74t-30.5 -74t-73.5 -31zM632 1026q137 0 252.5 -69.5t183 -190t67.5 -262.5q0 -4 -0.5 -11t-0.5 -11
q-1 -37 -27.5 -63t-64.5 -26h-716q28 -115 115.5 -177t217.5 -62q149 2 302 78q11 5 30 5q36 0 61.5 -25.5t25.5 -61.5q0 -27 -16 -49.5t-41 -31.5q-185 -90 -362 -90q-238 0 -384 142t-146 382q0 142 67.5 262.5t183 190.5t252.5 70zM632 852q-117 0 -205.5 -82.5
t-108.5 -206.5h628q-20 124 -108.5 206.5t-205.5 82.5z" />
    <glyph glyph-name="igrave" unicode="&#xec;" horiz-adv-x="483" 
d="M208 1160q-35 0 -56 27l-165 230q-19 25 -19 56q0 38 27.5 65.5t65.5 27.5q57 0 83 -53l127 -253q17 -35 -4 -67.5t-59 -32.5zM242 0q-38 0 -65 27t-27 65v822q0 38 27 65t65 27t65 -27t27 -65v-822q0 -38 -27 -65t-65 -27z" />
    <glyph glyph-name="iacute" unicode="&#xed;" horiz-adv-x="483" 
d="M331 1187q-21 -27 -56 -27q-39 0 -59.5 32.5t-3.5 67.5l127 253q26 53 83 53q38 0 65.5 -27.5t27.5 -65.5q0 -31 -19 -56zM242 0q-38 0 -65 27t-27 65v822q0 38 27 65t65 27t65 -27t27 -65v-822q0 -38 -27 -65t-65 -27z" />
    <glyph glyph-name="icircumflex" unicode="&#xee;" horiz-adv-x="483" 
d="M509 1154q-32 -13 -60 3l-205 126l-205 -126q-21 -12 -44.5 -7.5t-38.5 23.5q-16 20 -12.5 45.5t23.5 42.5l225 185q22 19 52 19t52 -19l225 -185q27 -23 23.5 -58t-35.5 -49zM242 0q-38 0 -65 27t-27 65v822q0 38 27 65t65 27t65 -27t27 -65v-822q0 -38 -27 -65t-65 -27
z" />
    <glyph glyph-name="idieresis" unicode="&#xef;" horiz-adv-x="483" 
d="M47 1141q-43 0 -73 30.5t-30 74.5t30 74.5t73 30.5t73.5 -31t30.5 -74t-30.5 -74t-73.5 -31zM436 1141q-43 0 -73 30.5t-30 74.5t30 74.5t73 30.5t73 -30.5t30 -74.5t-30 -74.5t-73 -30.5zM242 0q-38 0 -65 27t-27 65v822q0 38 27 65t65 27t65 -27t27 -65v-822
q0 -38 -27 -65t-65 -27z" />
    <glyph glyph-name="ntilde" unicode="&#xf1;" horiz-adv-x="1284" 
d="M381 1176q-32 -21 -66 -2.5t-32 57.5q1 24 17 41q142 143 333 70q7 -3 40.5 -16t42 -15.5t35 -10t39 -6.5t34 2t40 9.5t37.5 21.5q32 22 66.5 3t32.5 -58q-1 -23 -18 -41q-142 -143 -333 -70q-7 3 -40.5 16t-42 15.5t-35 10t-39 6.5t-34 -2t-40 -9.5t-37.5 -21.5z
M685 1026q186 0 318 -131.5t132 -317.5v-484q0 -38 -27.5 -65.5t-65.5 -27.5t-65 27.5t-27 65.5v441q0 132 -90 225t-218 93t-218 -93t-90 -225v-442q0 -38 -27 -65t-65 -27t-65.5 27t-27.5 65v822q0 38 27.5 65t65.5 27t65 -27t27 -65v-57q63 79 154.5 124t196.5 45z" />
    <glyph glyph-name="ograve" unicode="&#xf2;" horiz-adv-x="1304" 
d="M619 1160q-35 0 -56 27l-165 230q-19 25 -19 56q0 38 27 65.5t65 27.5q58 0 84 -53l127 -253q17 -35 -4 -67.5t-59 -32.5zM652 -20q-142 0 -262.5 70t-190.5 190.5t-70 263.5q0 142 70 262.5t190.5 190t262.5 69.5q107 0 203.5 -41t167 -111t112 -167t41.5 -203
q0 -107 -41.5 -204t-112 -167t-167.5 -111.5t-203 -41.5zM652 154q140 0 239.5 102t99.5 247t-99.5 247t-239.5 102t-239.5 -102t-99.5 -247t99.5 -247t239.5 -102z" />
    <glyph glyph-name="oacute" unicode="&#xf3;" horiz-adv-x="1304" 
d="M742 1187q-21 -27 -56 -27q-38 0 -59 32.5t-4 67.5l126 253q26 53 84 53q38 0 65.5 -27.5t27.5 -65.5q0 -31 -19 -56zM652 -20q-142 0 -262.5 70t-190.5 190.5t-70 263.5q0 142 70 262.5t190.5 190t262.5 69.5q107 0 203.5 -41t167 -111t112 -167t41.5 -203
q0 -107 -41.5 -204t-112 -167t-167.5 -111.5t-203 -41.5zM652 154q140 0 239.5 102t99.5 247t-99.5 247t-239.5 102t-239.5 -102t-99.5 -247t99.5 -247t239.5 -102z" />
    <glyph glyph-name="ocircumflex" unicode="&#xf4;" horiz-adv-x="1304" 
d="M919 1154q-32 -13 -60 3l-204 126l-205 -126q-21 -12 -45 -7.5t-39 23.5q-16 20 -12.5 45.5t23.5 42.5l225 185q22 19 53 19q30 0 52 -19l225 -185q27 -23 23 -58t-36 -49zM652 -20q-142 0 -262.5 70t-190.5 190.5t-70 263.5q0 142 70 262.5t190.5 190t262.5 69.5
q107 0 203.5 -41t167 -111t112 -167t41.5 -203q0 -107 -41.5 -204t-112 -167t-167.5 -111.5t-203 -41.5zM652 154q140 0 239.5 102t99.5 247t-99.5 247t-239.5 102t-239.5 -102t-99.5 -247t99.5 -247t239.5 -102z" />
    <glyph glyph-name="otilde" unicode="&#xf5;" horiz-adv-x="1304" 
d="M659 1161q-7 3 -40.5 16t-42 15.5t-35 10t-39 6.5t-34 -2t-40 -9.5t-37.5 -21.5q-32 -21 -66 -2.5t-32 57.5q1 24 17 41q142 143 334 70q7 -3 40.5 -16t42 -15.5t35 -10t39 -6.5t34 2t40 9.5t37.5 21.5q32 21 66 2.5t32 -57.5q-1 -24 -17 -41q-142 -143 -334 -70z
M652 -20q-142 0 -262.5 70t-190.5 190.5t-70 263.5q0 142 70 262.5t190.5 190t262.5 69.5q107 0 203.5 -41t167 -111t112 -167t41.5 -203q0 -107 -41.5 -204t-112 -167t-167.5 -111.5t-203 -41.5zM652 154q140 0 239.5 102t99.5 247t-99.5 247t-239.5 102t-239.5 -102
t-99.5 -247t99.5 -247t239.5 -102z" />
    <glyph glyph-name="odieresis" unicode="&#xf6;" horiz-adv-x="1304" 
d="M458 1141q-43 0 -73 30.5t-30 74.5t30 74.5t73 30.5t73 -30.5t30 -74.5t-30 -74.5t-73 -30.5zM847 1141q-43 0 -73.5 31t-30.5 74t30.5 74t73.5 31t73 -30.5t30 -74.5t-30 -74.5t-73 -30.5zM652 -20q-142 0 -262.5 70t-190.5 190.5t-70 263.5q0 142 70 262.5t190.5 190
t262.5 69.5q107 0 203.5 -41t167 -111t112 -167t41.5 -203q0 -107 -41.5 -204t-112 -167t-167.5 -111.5t-203 -41.5zM652 154q140 0 239.5 102t99.5 247t-99.5 247t-239.5 102t-239.5 -102t-99.5 -247t99.5 -247t239.5 -102z" />
    <glyph glyph-name="divide" unicode="&#xf7;" horiz-adv-x="1271" 
d="M633 888q-44 0 -75.5 31t-31.5 74q0 44 31.5 75t75.5 31t76 -31.5t32 -74.5t-32 -74t-76 -31zM261 591q-35 0 -60 25t-25 60t25 60t60 25h751q35 0 59.5 -25t24.5 -60t-24.5 -60t-59.5 -25h-751zM633 253q-44 0 -75.5 31t-31.5 74q0 44 31.5 75t75.5 31t76 -31.5
t32 -74.5t-32 -74t-76 -31z" />
    <glyph glyph-name="oslash" unicode="&#xf8;" horiz-adv-x="1304" 
d="M982 910q90 -74 142 -179.5t52 -226.5q0 -107 -41.5 -204t-112 -167t-167.5 -111.5t-203 -41.5q-97 0 -187 34l-83 -144q-25 -42 -73 -42q-49 0 -73.5 42.5t-0.5 84.5l83 145q-89 73 -139 178.5t-50 225.5q0 142 70 262.5t190.5 190t262.5 69.5q96 0 183 -32l87 151
q26 43 74 43q49 0 73 -42.5t0 -84.5zM313 503q0 -142 97 -244l335 580q-43 13 -93 13q-140 0 -239.5 -102t-99.5 -247zM652 154q140 0 239.5 102t99.5 247q0 146 -100 248l-337 -582q47 -15 98 -15z" />
    <glyph glyph-name="ugrave" unicode="&#xf9;" horiz-adv-x="1284" 
d="M553 1187l-165 230q-20 27 -20 56q0 38 27.5 65.5t65.5 27.5q58 0 84 -53l127 -253q16 -34 -5 -67t-59 -33q-34 0 -55 27zM1042 1006q38 0 65.5 -27t27.5 -65v-822q0 -38 -27.5 -65t-65.5 -27t-65 27t-27 65v57q-63 -79 -154.5 -124t-196.5 -45q-186 0 -317.5 131.5
t-131.5 317.5v484q0 38 27 65.5t65 27.5t65 -27.5t27 -65.5v-441q0 -132 90 -225t218 -93t218 93t90 225v442q0 38 27 65t65 27z" />
    <glyph glyph-name="uacute" unicode="&#xfa;" horiz-adv-x="1284" 
d="M676 1160q-38 0 -59 33t-5 67l127 253q26 53 84 53q38 0 65.5 -27.5t27.5 -65.5q0 -31 -19 -56l-166 -230q-21 -27 -55 -27zM1042 1006q38 0 65.5 -27t27.5 -65v-822q0 -38 -27.5 -65t-65.5 -27t-65 27t-27 65v57q-63 -79 -154.5 -124t-196.5 -45q-186 0 -317.5 131.5
t-131.5 317.5v484q0 38 27 65.5t65 27.5t65 -27.5t27 -65.5v-441q0 -132 90 -225t218 -93t218 93t90 225v442q0 38 27 65t65 27z" />
    <glyph glyph-name="ucircumflex" unicode="&#xfb;" horiz-adv-x="1284" 
d="M440 1157q-21 -12 -45 -7.5t-39 23.5q-16 20 -12.5 45.5t23.5 42.5l225 185q22 19 52 19q31 0 53 -19l225 -185q27 -23 23 -58t-36 -49q-32 -13 -60 3l-205 126zM1042 1006q38 0 65.5 -27t27.5 -65v-822q0 -38 -27.5 -65t-65.5 -27t-65 27t-27 65v57q-63 -79 -154.5 -124
t-196.5 -45q-186 0 -317.5 131.5t-131.5 317.5v484q0 38 27 65.5t65 27.5t65 -27.5t27 -65.5v-441q0 -132 90 -225t218 -93t218 93t90 225v442q0 38 27 65t65 27z" />
    <glyph glyph-name="udieresis" unicode="&#xfc;" horiz-adv-x="1284" 
d="M448 1141q-43 0 -73.5 31t-30.5 74t30.5 74t73.5 31t73 -30.5t30 -74.5t-30 -74.5t-73 -30.5zM837 1141q-43 0 -73.5 31t-30.5 74t30.5 74t73.5 31t73 -30.5t30 -74.5t-30 -74.5t-73 -30.5zM1042 1006q38 0 65.5 -27t27.5 -65v-822q0 -38 -27.5 -65t-65.5 -27t-65 27
t-27 65v57q-63 -79 -154.5 -124t-196.5 -45q-186 0 -317.5 131.5t-131.5 317.5v484q0 38 27 65.5t65 27.5t65 -27.5t27 -65.5v-441q0 -132 90 -225t218 -93t218 93t90 225v442q0 38 27 65t65 27z" />
    <glyph glyph-name="yacute" unicode="&#xfd;" horiz-adv-x="1292" 
d="M724 1187q-21 -27 -56 -27q-38 0 -59 32.5t-4 67.5l127 253q26 53 84 53q38 0 65 -27.5t27 -65.5q0 -31 -19 -56zM617 -452q-202 -2 -411 100q-25 11 -40 33.5t-15 50.5q0 50 41.5 77t86.5 7q168 -84 337 -84q160 0 251 85t91 252v91q-60 -83 -152.5 -131.5t-199.5 -48.5
q-186 0 -317.5 131.5t-131.5 317.5v485q0 38 27 65t65 27t65 -27t27 -65v-442q0 -132 90.5 -225t218.5 -93q127 0 216.5 91.5t91.5 222.5v446q0 38 27 65.5t65 27.5t65 -27.5t27 -65.5v-845q0 -242 -142 -380.5t-383 -140.5z" />
    <glyph glyph-name="thorn" unicode="&#xfe;" 
d="M705 1026q99 0 189 -41t155.5 -111t104 -167t38.5 -203q0 -143 -65 -263.5t-177.5 -190.5t-244.5 -70q-110 0 -206.5 48.5t-164.5 134.5v-522q0 -38 -27 -65.5t-65 -27.5t-65 27.5t-27 65.5v1700q0 38 27 65.5t65 27.5t65 -27.5t27 -65.5v-498q68 86 164.5 134.5
t206.5 48.5zM668 154q140 0 239.5 102t99.5 247t-99.5 247t-239.5 102t-239 -102t-99 -247t99 -247t239 -102z" />
    <glyph glyph-name="ydieresis" unicode="&#xff;" horiz-adv-x="1292" 
d="M440 1141q-43 0 -73 30.5t-30 74.5t30 74.5t73 30.5t73.5 -31t30.5 -74t-30.5 -74t-73.5 -31zM829 1141q-43 0 -73 30.5t-30 74.5t30 74.5t73 30.5t73.5 -31t30.5 -74t-30.5 -74t-73.5 -31zM617 -452q-202 -2 -411 100q-25 11 -40 33.5t-15 50.5q0 50 41.5 77t86.5 7
q168 -84 337 -84q160 0 251 85t91 252v91q-60 -83 -152.5 -131.5t-199.5 -48.5q-186 0 -317.5 131.5t-131.5 317.5v485q0 38 27 65t65 27t65 -27t27 -65v-442q0 -132 90.5 -225t218.5 -93q127 0 216.5 91.5t91.5 222.5v446q0 38 27 65.5t65 27.5t65 -27.5t27 -65.5v-845
q0 -242 -142 -380.5t-383 -140.5z" />
    <glyph glyph-name="Amacron" unicode="&#x100;" horiz-adv-x="1445" 
d="M452 1589q-32 0 -54.5 22.5t-22.5 54.5t22.5 55t54.5 23h589q32 0 54.5 -23t22.5 -55t-22.5 -54.5t-54.5 -22.5h-589zM1350 130q16 -36 1.5 -72t-50.5 -52t-72 -2t-52 50l-124 282h-660l-124 -282q-16 -36 -52.5 -50t-72.5 2t-50 52t2 72l540 1217q12 26 36 41t51 15
t51 -15t36 -41zM476 524h494l-247 561z" />
    <glyph glyph-name="amacron" unicode="&#x101;" 
d="M345 1203q-32 0 -54.5 22.5t-22.5 54.5t22.5 54.5t54.5 22.5h588q32 0 54.5 -22.5t22.5 -54.5t-22.5 -54.5t-54.5 -22.5h-588zM1079 1006q38 0 65 -27t27 -65v-822q0 -38 -27 -65t-65 -27t-65 27t-27 65v71q-68 -86 -164.5 -134.5t-206.5 -48.5q-99 0 -189 41t-155.5 111
t-104 167t-38.5 203q0 143 65 263.5t177.5 190.5t244.5 70q110 0 206.5 -48.5t164.5 -134.5v71q0 38 27 65t65 27zM652 154q140 0 239.5 102t99.5 247t-99.5 247t-239.5 102t-239.5 -102t-99.5 -247t99.5 -247t239.5 -102z" />
    <glyph glyph-name="Abreve" unicode="&#x102;" horiz-adv-x="1445" 
d="M724 1528q-81 0 -146 47.5t-89 123.5q-12 31 6 58.5t52 27.5q20 0 36 -11.5t23 -29.5q10 -43 43 -69.5t75 -26.5t74 26.5t43 69.5q6 18 22.5 29.5t36.5 11.5q33 0 52 -27.5t6 -58.5q-24 -76 -88.5 -123.5t-145.5 -47.5zM1350 130q16 -36 1.5 -72t-50.5 -52t-72 -2t-52 50
l-124 282h-660l-124 -282q-16 -36 -52.5 -50t-72.5 2t-50 52t2 72l540 1217q12 26 36 41t51 15t51 -15t36 -41zM476 524h494l-247 561z" />
    <glyph glyph-name="abreve" unicode="&#x103;" 
d="M616 1141q-81 0 -145.5 47.5t-88.5 123.5q-12 31 6 58.5t52 27.5q20 0 36 -11.5t23 -29.5q11 -43 43 -69.5t74 -26.5t74 26.5t43 69.5q6 18 22.5 29.5t36.5 11.5q33 0 52 -27.5t6 -58.5q-24 -76 -88.5 -123.5t-145.5 -47.5zM1079 1006q38 0 65 -27t27 -65v-822
q0 -38 -27 -65t-65 -27t-65 27t-27 65v71q-68 -86 -164.5 -134.5t-206.5 -48.5q-99 0 -189 41t-155.5 111t-104 167t-38.5 203q0 143 65 263.5t177.5 190.5t244.5 70q110 0 206.5 -48.5t164.5 -134.5v71q0 38 27 65t65 27zM652 154q140 0 239.5 102t99.5 247t-99.5 247
t-239.5 102t-239.5 -102t-99.5 -247t99.5 -247t239.5 -102z" />
    <glyph glyph-name="Aogonek" unicode="&#x104;" horiz-adv-x="1445" 
d="M1377 -146q32 10 59 -9.5t27 -52.5q0 -43 -38 -60q-115 -52 -196.5 -42t-123.5 60.5t-35 121.5q10 100 118 163q-8 12 -11 19l-124 282h-660l-124 -282q-16 -36 -52.5 -50t-72.5 2t-50 52t2 72l540 1217q12 26 36 41t51 15t51 -15t36 -41l540 -1217q16 -36 1.5 -72
t-50.5 -52q-1 0 -3 -1t-3 -1q-40 -25 -59 -55.5t-16 -57.5q4 -40 48 -50.5t109 13.5zM476 524h494l-247 561z" />
    <glyph glyph-name="aogonek" unicode="&#x105;" 
d="M1203 -138q32 10 59 -9.5t27 -52.5q0 -43 -38 -60q-115 -52 -196.5 -42.5t-123.5 60t-35 121.5q10 95 109 158q-18 25 -18 55v71q-68 -86 -164.5 -134.5t-206.5 -48.5q-99 0 -189 41t-155.5 111t-104 167t-38.5 203q0 143 65 263.5t177.5 190.5t244.5 70
q110 0 206.5 -48.5t164.5 -134.5v71q0 38 27 65t65 27t65 -27t27 -65v-822q0 -28 -15.5 -51t-40.5 -34q-76 -51 -69 -108q4 -40 48 -50.5t109 13.5zM652 154q140 0 239.5 102t99.5 247t-99.5 247t-239.5 102t-239.5 -102t-99.5 -247t99.5 -247t239.5 -102z" />
    <glyph glyph-name="Cacute" unicode="&#x106;" horiz-adv-x="1492" 
d="M925 1574q-21 -27 -56 -27q-39 0 -59.5 32.5t-3.5 67.5l127 253q26 53 83 53q38 0 65.5 -27.5t27.5 -65.5q0 -31 -19 -56zM828 -20q-194 0 -358 96t-259.5 261t-95.5 359q0 146 56.5 278.5t152 228.5t227.5 153t277 57q152 0 288 -61t236 -171q26 -28 26 -65
q0 -38 -27 -65t-65 -27q-41 0 -68 29q-75 85 -176 132t-214 47q-107 0 -204 -42.5t-167.5 -114t-112 -171t-41.5 -208.5q0 -146 70.5 -269t191 -194.5t263.5 -71.5q114 0 215 46.5t175 131.5q28 30 68 30q38 0 65 -27.5t27 -65.5q0 -36 -26 -64q-100 -110 -236 -171
t-288 -61z" />
    <glyph glyph-name="cacute" unicode="&#x107;" horiz-adv-x="1181" 
d="M742 1187q-21 -27 -56 -27q-38 0 -59 32.5t-4 67.5l126 253q26 53 84 53q38 0 65.5 -27.5t27.5 -65.5q0 -31 -19 -56zM652 155q132 0 238 95q24 19 55 19q36 0 61.5 -25.5t25.5 -61.5q0 -40 -31 -66q-151 -135 -349 -135q-142 0 -262.5 70t-190.5 190.5t-70 262.5
t70 262.5t190.5 190t262.5 69.5q199 0 349 -134q31 -26 31 -67q0 -36 -25.5 -61.5t-61.5 -25.5q-31 0 -55 19q-106 95 -238 95q-139 0 -239 -102t-100 -246t100 -246.5t239 -102.5z" />
    <glyph glyph-name="Cdotaccent" unicode="&#x10a;" horiz-adv-x="1492" 
d="M836 1528q-43 0 -73.5 31t-30.5 74t30.5 73.5t73.5 30.5t73 -30.5t30 -73.5q0 -44 -30 -74.5t-73 -30.5zM828 -20q-194 0 -358 96t-259.5 261t-95.5 359q0 146 56.5 278.5t152 228.5t227.5 153t277 57q152 0 288 -61t236 -171q26 -28 26 -65q0 -38 -27 -65t-65 -27
q-41 0 -68 29q-75 85 -176 132t-214 47q-107 0 -204 -42.5t-167.5 -114t-112 -171t-41.5 -208.5q0 -146 70.5 -269t191 -194.5t263.5 -71.5q114 0 215 46.5t175 131.5q28 30 68 30q38 0 65 -27.5t27 -65.5q0 -36 -26 -64q-100 -110 -236 -171t-288 -61z" />
    <glyph glyph-name="cdotaccent" unicode="&#x10b;" horiz-adv-x="1181" 
d="M652 1141q-43 0 -73 30.5t-30 74.5t30 74.5t73 30.5t73.5 -31t30.5 -74t-30.5 -74t-73.5 -31zM652 155q132 0 238 95q24 19 55 19q36 0 61.5 -25.5t25.5 -61.5q0 -40 -31 -66q-151 -135 -349 -135q-142 0 -262.5 70t-190.5 190.5t-70 262.5t70 262.5t190.5 190
t262.5 69.5q199 0 349 -134q31 -26 31 -67q0 -36 -25.5 -61.5t-61.5 -25.5q-31 0 -55 19q-106 95 -238 95q-139 0 -239 -102t-100 -246t100 -246.5t239 -102.5z" />
    <glyph glyph-name="Ccaron" unicode="&#x10c;" horiz-adv-x="1492" 
d="M1098 1846q32 -14 36 -49t-23 -58l-225 -186q-21 -18 -52 -18q-32 0 -53 18l-225 186q-20 16 -23 42t13 46q14 19 38 23t45 -8l205 -126l204 126q29 17 60 4zM828 -20q-194 0 -358 96t-259.5 261t-95.5 359q0 146 56.5 278.5t152 228.5t227.5 153t277 57q152 0 288 -61
t236 -171q26 -28 26 -65q0 -38 -27 -65t-65 -27q-41 0 -68 29q-75 85 -176 132t-214 47q-107 0 -204 -42.5t-167.5 -114t-112 -171t-41.5 -208.5q0 -146 70.5 -269t191 -194.5t263.5 -71.5q114 0 215 46.5t175 131.5q28 30 68 30q38 0 65 -27.5t27 -65.5q0 -36 -26 -64
q-100 -110 -236 -171t-288 -61z" />
    <glyph glyph-name="ccaron" unicode="&#x10d;" horiz-adv-x="1181" 
d="M915 1459q32 -14 36 -49t-23 -58l-225 -185q-22 -19 -53 -19q-30 0 -52 19l-225 185q-20 17 -23.5 42.5t12.5 45.5q14 19 38.5 23t45.5 -8l204 -125l205 125q29 17 60 4zM652 155q132 0 238 95q24 19 55 19q36 0 61.5 -25.5t25.5 -61.5q0 -40 -31 -66
q-151 -135 -349 -135q-142 0 -262.5 70t-190.5 190.5t-70 262.5t70 262.5t190.5 190t262.5 69.5q199 0 349 -134q31 -26 31 -67q0 -36 -25.5 -61.5t-61.5 -25.5q-31 0 -55 19q-106 95 -238 95q-139 0 -239 -102t-100 -246t100 -246.5t239 -102.5z" />
    <glyph glyph-name="Dcaron" unicode="&#x10e;" horiz-adv-x="1517" 
d="M391 1739q-20 16 -23 42t13 46q14 19 38 23t45 -8l205 -126l205 126q29 17 60 4q32 -14 35.5 -49t-23.5 -58l-225 -186q-21 -18 -52 -18q-32 0 -53 18zM688 1393q190 0 351.5 -93.5t255.5 -254t94 -349.5t-94 -349.5t-255.5 -253.5t-351.5 -93h-444q-39 0 -66.5 27.5
t-27.5 66.5v1204q0 39 27.5 67t66.5 28h444zM688 181q139 0 257 69t186.5 187.5t68.5 258.5t-68.5 258.5t-186.5 187.5t-257 69h-350v-1030h350z" />
    <glyph glyph-name="dcaron" unicode="&#x10f;" horiz-adv-x="1548" 
d="M1379 1565q35 0 58.5 -26t21.5 -61l-15 -264q-2 -26 -20.5 -43.5t-44.5 -17.5t-45 17.5t-21 43.5l-15 264q-2 35 22.5 61t58.5 26zM1079 1434q38 0 65 -27.5t27 -65.5v-1249q0 -38 -27 -65t-65 -27t-65 27t-27 65v71q-68 -86 -164.5 -134.5t-206.5 -48.5q-99 0 -189 41
t-155.5 111t-104 167t-38.5 203q0 143 65 263.5t177.5 190.5t244.5 70q110 0 206.5 -48.5t164.5 -134.5v498q0 38 27 65.5t65 27.5zM652 154q140 0 239.5 102t99.5 247t-99.5 247t-239.5 102t-239.5 -102t-99.5 -247t99.5 -247t239.5 -102z" />
    <glyph glyph-name="Emacron" unicode="&#x112;" horiz-adv-x="1292" 
d="M375 1589q-32 0 -54.5 22.5t-22.5 54.5t22.5 55t54.5 23h588q32 0 54.5 -23t22.5 -55t-22.5 -54.5t-54.5 -22.5h-588zM1052 181q38 0 64.5 -26.5t26.5 -63.5t-26.5 -64t-64.5 -27h-808q-39 0 -66.5 27.5t-27.5 66.5v1204q0 39 27.5 67t66.5 28h808q38 0 64.5 -26.5
t26.5 -64.5t-26.5 -64.5t-64.5 -26.5h-714v-465h604q37 0 63.5 -26.5t26.5 -64.5q0 -37 -26 -63.5t-64 -26.5h-604v-384h714z" />
    <glyph glyph-name="emacron" unicode="&#x113;" horiz-adv-x="1263" 
d="M361 1203q-32 0 -55 22.5t-23 54.5t23 54.5t55 22.5h588q32 0 54.5 -22.5t22.5 -54.5t-22.5 -54.5t-54.5 -22.5h-588zM632 1026q137 0 252.5 -69.5t183 -190t67.5 -262.5q0 -4 -0.5 -11t-0.5 -11q-1 -37 -27.5 -63t-64.5 -26h-716q28 -115 115.5 -177t217.5 -62
q149 2 302 78q11 5 30 5q36 0 61.5 -25.5t25.5 -61.5q0 -27 -16 -49.5t-41 -31.5q-185 -90 -362 -90q-238 0 -384 142t-146 382q0 142 67.5 262.5t183 190.5t252.5 70zM632 852q-117 0 -205.5 -82.5t-108.5 -206.5h628q-20 124 -108.5 206.5t-205.5 82.5z" />
    <glyph glyph-name="Edotaccent" unicode="&#x116;" horiz-adv-x="1292" 
d="M646 1528q-43 0 -73 30.5t-30 74.5q0 43 30 73.5t73 30.5t73 -30.5t30 -73.5q0 -44 -30 -74.5t-73 -30.5zM1052 181q38 0 64.5 -26.5t26.5 -63.5t-26.5 -64t-64.5 -27h-808q-39 0 -66.5 27.5t-27.5 66.5v1204q0 39 27.5 67t66.5 28h808q38 0 64.5 -26.5t26.5 -64.5
t-26.5 -64.5t-64.5 -26.5h-714v-465h604q37 0 63.5 -26.5t26.5 -64.5q0 -37 -26 -63.5t-64 -26.5h-604v-384h714z" />
    <glyph glyph-name="edotaccent" unicode="&#x117;" horiz-adv-x="1263" 
d="M632 1141q-43 0 -73.5 31t-30.5 74t30.5 74t73.5 31t73 -30.5t30 -74.5t-30 -74.5t-73 -30.5zM632 1026q137 0 252.5 -69.5t183 -190t67.5 -262.5q0 -4 -0.5 -11t-0.5 -11q-1 -37 -27.5 -63t-64.5 -26h-716q28 -115 115.5 -177t217.5 -62q149 2 302 78q11 5 30 5
q36 0 61.5 -25.5t25.5 -61.5q0 -27 -16 -49.5t-41 -31.5q-185 -90 -362 -90q-238 0 -384 142t-146 382q0 142 67.5 262.5t183 190.5t252.5 70zM632 852q-117 0 -205.5 -82.5t-108.5 -206.5h628q-20 124 -108.5 206.5t-205.5 82.5z" />
    <glyph glyph-name="Eogonek" unicode="&#x118;" horiz-adv-x="1292" 
d="M1169 -143q32 10 59 -9.5t27 -52.5q0 -43 -38 -60q-115 -52 -196 -42.5t-123 60t-35 121.5q8 73 66 126h-685q-39 0 -66.5 27.5t-27.5 66.5v1204q0 39 27.5 67t66.5 28h808q38 0 64.5 -26.5t26.5 -64.5t-26.5 -64.5t-64.5 -26.5h-714v-465h604q37 0 63.5 -26.5
t26.5 -64.5q0 -37 -26 -63.5t-64 -26.5h-604v-384h714q38 0 64.5 -26.5t26.5 -63.5q0 -57 -50 -82q-42 -26 -63 -56.5t-18 -58.5q4 -40 48 -50.5t109 13.5z" />
    <glyph glyph-name="eogonek" unicode="&#x119;" horiz-adv-x="1263" 
d="M1125 -68q32 10 59.5 -10t27.5 -53q0 -42 -38 -59q-115 -52 -196.5 -42.5t-123.5 60t-35 121.5q3 32 18 62q-93 -32 -178 -32q-238 0 -384 142t-146 382q0 142 67.5 262.5t183 190.5t252.5 70t252.5 -69.5t183 -190t67.5 -262.5q0 -4 -0.5 -11t-0.5 -11q-1 -37 -27.5 -63
t-64.5 -26h-716q28 -115 115.5 -177t217.5 -62q149 2 302 78q11 5 30 5q36 0 61.5 -25.5t25.5 -61.5q0 -43 -37 -70q-2 -1 -5 -3.5t-4 -3.5q-70 -50 -63 -104q4 -40 47.5 -50.5t108.5 13.5zM632 852q-117 0 -205.5 -82.5t-108.5 -206.5h628q-20 124 -108.5 206.5
t-205.5 82.5z" />
    <glyph glyph-name="Ecaron" unicode="&#x11a;" horiz-adv-x="1292" 
d="M367 1739q-20 17 -23.5 42.5t12.5 45.5q14 19 38.5 23t45.5 -8l204 -126l205 126q29 17 60 4q32 -14 36 -49t-23 -58l-225 -186q-21 -18 -53 -18q-31 0 -52 18zM1052 181q38 0 64.5 -26.5t26.5 -63.5t-26.5 -64t-64.5 -27h-808q-39 0 -66.5 27.5t-27.5 66.5v1204
q0 39 27.5 67t66.5 28h808q38 0 64.5 -26.5t26.5 -64.5t-26.5 -64.5t-64.5 -26.5h-714v-465h604q37 0 63.5 -26.5t26.5 -64.5q0 -37 -26 -63.5t-64 -26.5h-604v-384h714z" />
    <glyph glyph-name="ecaron" unicode="&#x11b;" horiz-adv-x="1263" 
d="M353 1352q-20 17 -23.5 42.5t12.5 45.5q14 19 38 23t45 -8l205 -125l205 125q29 17 60 4q32 -14 35.5 -49t-23.5 -58l-225 -185q-22 -19 -52 -19t-52 19zM632 1026q137 0 252.5 -69.5t183 -190t67.5 -262.5q0 -4 -0.5 -11t-0.5 -11q-1 -37 -27.5 -63t-64.5 -26h-716
q28 -115 115.5 -177t217.5 -62q149 2 302 78q11 5 30 5q36 0 61.5 -25.5t25.5 -61.5q0 -27 -16 -49.5t-41 -31.5q-185 -90 -362 -90q-238 0 -384 142t-146 382q0 142 67.5 262.5t183 190.5t252.5 70zM632 852q-117 0 -205.5 -82.5t-108.5 -206.5h628q-20 124 -108.5 206.5
t-205.5 82.5z" />
    <glyph glyph-name="Gbreve" unicode="&#x11e;" horiz-adv-x="1572" 
d="M833 1528q-81 0 -146 47.5t-89 123.5q-12 31 6.5 58.5t52.5 27.5q43 0 58 -41q10 -43 43 -69.5t75 -26.5t74 26.5t43 69.5q6 18 22.5 29.5t36.5 11.5q33 0 52 -27.5t6 -58.5q-24 -76 -88.5 -123.5t-145.5 -47.5zM1329 714q39 0 66.5 -27.5t27.5 -66.5v-271
q0 -74 -43 -120q-101 -118 -243.5 -183.5t-300.5 -65.5q-144 0 -274.5 56.5t-225.5 152.5t-151 228.5t-56 278.5t56 278.5t151 228.5t225.5 153t274.5 57q152 0 287.5 -61t235.5 -171q26 -28 26 -65q0 -38 -27 -65t-65 -27q-41 0 -68 29q-75 85 -175.5 132t-213.5 47
q-105 0 -201.5 -42.5t-166 -114t-110.5 -171t-41 -208.5q0 -146 69.5 -269t189 -194.5t260.5 -71.5q118 0 222 49t177 135v187h-316q-37 0 -63.5 26.5t-26.5 64.5t26.5 64.5t63.5 26.5h410z" />
    <glyph glyph-name="gbreve" unicode="&#x11f;" 
d="M622 1141q-81 0 -145.5 47.5t-88.5 123.5q-12 31 6 58.5t52 27.5q43 0 58 -41q10 -43 43 -69.5t75 -26.5t74 26.5t43 69.5q6 18 22.5 29.5t36.5 11.5q33 0 52 -27.5t6 -58.5q-24 -76 -88.5 -123.5t-145.5 -47.5zM1079 1015q38 0 65 -27.5t27 -65.5v-853
q0 -242 -142 -380.5t-383 -140.5q-202 -2 -411 100q-25 11 -40 33.5t-15 50.5q0 50 42 77t87 7q168 -84 336 -84q160 0 251 85t91 252v94q-68 -86 -164.5 -134.5t-206.5 -48.5q-99 0 -189 41t-155.5 111t-104 167t-38.5 203q0 143 65 263.5t177.5 190.5t244.5 70
q110 0 206.5 -48.5t164.5 -134.5v79q0 38 27 65.5t65 27.5zM652 154q140 0 239.5 102t99.5 247t-99.5 247t-239.5 102t-239.5 -102t-99.5 -247t99.5 -247t239.5 -102z" />
    <glyph glyph-name="Gdotaccent" unicode="&#x120;" horiz-adv-x="1572" 
d="M833 1528q-43 0 -73.5 31t-30.5 74t30.5 73.5t73.5 30.5t73 -30.5t30 -73.5q0 -44 -30 -74.5t-73 -30.5zM1329 714q39 0 66.5 -27.5t27.5 -66.5v-271q0 -74 -43 -120q-101 -118 -243.5 -183.5t-300.5 -65.5q-144 0 -274.5 56.5t-225.5 152.5t-151 228.5t-56 278.5
t56 278.5t151 228.5t225.5 153t274.5 57q152 0 287.5 -61t235.5 -171q26 -28 26 -65q0 -38 -27 -65t-65 -27q-41 0 -68 29q-75 85 -175.5 132t-213.5 47q-105 0 -201.5 -42.5t-166 -114t-110.5 -171t-41 -208.5q0 -146 69.5 -269t189 -194.5t260.5 -71.5q118 0 222 49
t177 135v187h-316q-37 0 -63.5 26.5t-26.5 64.5t26.5 64.5t63.5 26.5h410z" />
    <glyph glyph-name="gdotaccent" unicode="&#x121;" 
d="M622 1141q-43 0 -73.5 31t-30.5 74t30.5 74t73.5 31t73 -30.5t30 -74.5t-30 -74.5t-73 -30.5zM1079 1015q38 0 65 -27.5t27 -65.5v-853q0 -242 -142 -380.5t-383 -140.5q-202 -2 -411 100q-25 11 -40 33.5t-15 50.5q0 50 42 77t87 7q168 -84 336 -84q160 0 251 85t91 252
v94q-68 -86 -164.5 -134.5t-206.5 -48.5q-99 0 -189 41t-155.5 111t-104 167t-38.5 203q0 143 65 263.5t177.5 190.5t244.5 70q110 0 206.5 -48.5t164.5 -134.5v79q0 38 27 65.5t65 27.5zM652 154q140 0 239.5 102t99.5 247t-99.5 247t-239.5 102t-239.5 -102t-99.5 -247
t99.5 -247t239.5 -102z" />
    <glyph glyph-name="Itilde" unicode="&#x128;" horiz-adv-x="487" 
d="M251 1547q-7 3 -40.5 16t-42 15.5t-35 10t-39 6.5t-34 -2t-40 -9.5t-37.5 -21.5q-32 -21 -66.5 -2t-32.5 58q1 22 18 40q142 144 333 71q7 -3 40.5 -16t42 -15.5t35 -10t39 -6.5t34 2t40 9.5t37.5 21.5q32 22 66.5 3t32.5 -58q-1 -23 -18 -41q-142 -144 -333 -71zM244 0
q-39 0 -67 27.5t-28 66.5v1204q0 39 28 67t67 28t66.5 -28t27.5 -67v-1204q0 -39 -27.5 -66.5t-66.5 -27.5z" />
    <glyph glyph-name="itilde" unicode="&#x129;" horiz-adv-x="483" 
d="M249 1161q-7 3 -40.5 16t-42 15.5t-35 10t-39 6.5t-34 -2t-40 -9.5t-37.5 -21.5q-32 -22 -66.5 -3t-32.5 58q1 23 18 41q142 143 333 70q7 -3 40.5 -16t42 -15.5t35 -10t39 -6.5t34 2t40 9.5t37.5 21.5q32 22 66.5 3t32.5 -58q-1 -23 -18 -41q-142 -143 -333 -70zM242 0
q-38 0 -65.5 27t-27.5 65v822q0 38 27.5 65t65.5 27t65 -27t27 -65v-822q0 -38 -27 -65t-65 -27z" />
    <glyph glyph-name="Imacron" unicode="&#x12a;" horiz-adv-x="487" 
d="M-27 1589q-32 0 -55 22.5t-23 54.5t23 55t55 23h588q32 0 54.5 -23t22.5 -55t-22.5 -54.5t-54.5 -22.5h-588zM244 0q-39 0 -66.5 27.5t-27.5 66.5v1204q0 39 27.5 67t66.5 28t66.5 -28t27.5 -67v-1204q0 -39 -27.5 -66.5t-66.5 -27.5z" />
    <glyph glyph-name="imacron" unicode="&#x12b;" horiz-adv-x="483" 
d="M-29 1203q-32 0 -55 22.5t-23 54.5t23 54.5t55 22.5h588q32 0 54.5 -22.5t22.5 -54.5t-22.5 -54.5t-54.5 -22.5h-588zM242 0q-38 0 -65 27t-27 65v822q0 38 27 65t65 27t65 -27t27 -65v-822q0 -38 -27 -65t-65 -27z" />
    <glyph glyph-name="Iogonek" unicode="&#x12e;" horiz-adv-x="487" 
d="M361 -143q32 10 59.5 -9.5t27.5 -52.5q0 -43 -39 -60q-115 -52 -196 -42.5t-123 60t-35 121.5q10 99 115 162q-20 25 -20 58v1204q0 39 27.5 67t66.5 28t66.5 -28t27.5 -67v-1204q0 -58 -53 -84q-42 -25 -62.5 -56.5t-17.5 -59.5q4 -40 47.5 -50.5t108.5 13.5z" />
    <glyph glyph-name="iogonek" unicode="&#x12f;" horiz-adv-x="483" 
d="M242 1141q-43 0 -73.5 31t-30.5 74t30.5 74t73.5 31t73 -30.5t30 -74.5t-30 -74.5t-73 -30.5zM389 -160q32 10 59.5 -9.5t27.5 -52.5q0 -43 -38 -60q-115 -52 -196.5 -42t-123.5 60.5t-35 121.5q9 95 108 157q-41 26 -41 77v822q0 38 27 65t65 27t65 -27t27 -65v-822
q0 -44 -37 -73l25 -21q-47 -26 -69.5 -58.5t-19.5 -62.5q4 -40 47.5 -50.5t108.5 13.5z" />
    <glyph glyph-name="Idotaccent" unicode="&#x130;" horiz-adv-x="487" 
d="M244 1528q-43 0 -73.5 31t-30.5 74t30.5 73.5t73.5 30.5t73 -30.5t30 -73.5q0 -44 -30 -74.5t-73 -30.5zM244 0q-39 0 -66.5 27.5t-27.5 66.5v1204q0 39 27.5 67t66.5 28t66.5 -28t27.5 -67v-1204q0 -39 -27.5 -66.5t-66.5 -27.5z" />
    <glyph glyph-name="dotlessi" unicode="&#x131;" horiz-adv-x="483" 
d="M242 0q-38 0 -65 27t-27 65v822q0 38 27 65t65 27t65 -27t27 -65v-822q0 -38 -27 -65t-65 -27z" />
    <glyph glyph-name="Lacute" unicode="&#x139;" horiz-adv-x="1292" 
d="M293 1547q-38 0 -59 32.5t-4 67.5l127 253q26 53 83 53q38 0 65.5 -27.5t27.5 -65.5q0 -31 -19 -56l-165 -230q-21 -27 -56 -27zM1114 181q38 0 64 -26.5t26 -63.5q0 -38 -26.5 -64.5t-63.5 -26.5h-870q-39 0 -66.5 27.5t-27.5 66.5v1204q0 39 27.5 67t66.5 28t66.5 -28
t27.5 -67v-1117h776z" />
    <glyph glyph-name="lacute" unicode="&#x13a;" horiz-adv-x="483" 
d="M331 1615q-21 -28 -56 -28q-39 0 -59.5 33t-3.5 68l127 253q26 53 83 53q38 0 65.5 -27.5t27.5 -65.5q0 -31 -19 -56zM242 0q-38 0 -65 27t-27 65v1249q0 38 27 65.5t65 27.5t65 -27.5t27 -65.5v-1249q0 -38 -27 -65t-65 -27z" />
    <glyph glyph-name="Lcaron" unicode="&#x13d;" horiz-adv-x="1292" 
d="M597 1208l-15 264q-2 35 22 61t59 26t58.5 -26t21.5 -61l-15 -264q-2 -26 -20.5 -43.5t-44.5 -17.5t-45 17.5t-21 43.5zM1114 181q38 0 64 -26.5t26 -63.5q0 -38 -26.5 -64.5t-63.5 -26.5h-870q-39 0 -66.5 27.5t-27.5 66.5v1204q0 39 27.5 67t66.5 28t66.5 -28t27.5 -67
v-1117h776z" />
    <glyph glyph-name="lcaron" unicode="&#x13e;" horiz-adv-x="710" 
d="M541 1153q-26 0 -44.5 17.5t-20.5 43.5l-15 264q-2 35 22 61t58 26q35 0 59 -26t22 -61l-15 -264q-2 -26 -21 -43.5t-45 -17.5zM242 0q-38 0 -65 27t-27 65v1249q0 38 27 65.5t65 27.5t65 -27.5t27 -65.5v-1249q0 -38 -27 -65t-65 -27z" />
    <glyph glyph-name="Lslash" unicode="&#x141;" horiz-adv-x="1509" 
d="M1331 181q38 0 64.5 -26.5t26.5 -63.5t-27 -64t-64 -27h-870q-39 0 -66.5 27.5t-27.5 66.5v457l-161 -93q-38 -22 -78 0t-40 68q0 44 39 68l240 138v566q0 39 27.5 67t66.5 28t67 -28t28 -67v-457l161 93q37 22 77.5 0.5t40.5 -67.5q0 -44 -40 -68l-239 -139v-479h775z
" />
    <glyph glyph-name="lslash" unicode="&#x142;" horiz-adv-x="923" 
d="M717 926q37 22 77.5 0t40.5 -68q0 -44 -40 -68l-242 -139v-559q0 -38 -27 -65t-65 -27t-65 27t-27 65v452l-163 -94q-38 -22 -78 0t-40 68q0 44 39 68l242 139v617q0 38 27 65t65 27t65 -27t27 -65v-510z" />
    <glyph glyph-name="Nacute" unicode="&#x143;" horiz-adv-x="1538" 
d="M803 1547q-39 0 -60 32.5t-4 67.5l127 253q26 53 84 53q38 0 65.5 -27.5t27.5 -65.5q0 -31 -19 -56l-166 -230q-21 -27 -55 -27zM1294 1393q39 0 67 -27.5t28 -66.5v-1206q0 -39 -28 -66.5t-67 -27.5q-35 0 -60 22v-1l-2 3q-12 12 -17 19l-877 1019v-967q0 -39 -27.5 -67
t-66.5 -28t-66.5 28t-27.5 67v1205q0 39 27.5 66.5t66.5 27.5q36 0 60 -21l2 2l894 -1037v962q0 39 27.5 66.5t66.5 27.5z" />
    <glyph glyph-name="nacute" unicode="&#x144;" horiz-adv-x="1284" 
d="M676 1160q-38 0 -59 33t-5 67l127 253q26 53 84 53q38 0 65.5 -27.5t27.5 -65.5q0 -31 -19 -56l-166 -230q-21 -27 -55 -27zM685 1026q186 0 318 -131.5t132 -317.5v-484q0 -38 -27.5 -65.5t-65.5 -27.5t-65 27.5t-27 65.5v441q0 132 -90 225t-218 93t-218 -93t-90 -225
v-442q0 -38 -27 -65t-65 -27t-65 27t-27 65v822q0 38 27 65t65 27t65 -27t27 -65v-57q63 79 154.5 124t196.5 45z" />
    <glyph glyph-name="Ncaron" unicode="&#x147;" horiz-adv-x="1538" 
d="M490 1739q-20 17 -23.5 42.5t12.5 45.5q14 19 38 23t45 -8l205 -126l205 126q29 17 60 4q32 -14 36 -49t-23 -58l-226 -186q-21 -18 -52 -18t-52 18zM1294 1393q39 0 67 -27.5t28 -66.5v-1206q0 -39 -28 -66.5t-67 -27.5q-35 0 -60 22v-1l-2 3q-12 12 -17 19l-877 1019
v-967q0 -39 -27.5 -67t-66.5 -28t-66.5 28t-27.5 67v1205q0 39 27.5 66.5t66.5 27.5q36 0 60 -21l2 2l894 -1037v962q0 39 27.5 66.5t66.5 27.5z" />
    <glyph glyph-name="ncaron" unicode="&#x148;" horiz-adv-x="1284" 
d="M363 1352q-20 17 -23.5 42.5t12.5 45.5q14 19 38 23t45 -8l205 -125l205 125q29 17 60 4q32 -14 36 -49t-23 -58l-226 -185q-22 -19 -52 -19t-52 19zM685 1026q186 0 318 -131.5t132 -317.5v-484q0 -38 -27.5 -65.5t-65.5 -27.5t-65 27.5t-27 65.5v441q0 132 -90 225
t-218 93t-218 -93t-90 -225v-442q0 -38 -27 -65t-65 -27t-65 27t-27 65v822q0 38 27 65t65 27t65 -27t27 -65v-57q63 79 154.5 124t196.5 45z" />
    <glyph glyph-name="Omacron" unicode="&#x14c;" horiz-adv-x="1699" 
d="M579 1589q-32 0 -54.5 22.5t-22.5 54.5t22.5 55t54.5 23h588q32 0 54.5 -23t22.5 -55t-22.5 -54.5t-54.5 -22.5h-588zM850 -20q-147 0 -280.5 56.5t-230 152.5t-153.5 228.5t-57 278.5t57 278.5t153.5 228.5t230 153t280.5 57t280.5 -57t230 -153t153.5 -228.5t57 -278.5
t-57 -278.5t-153.5 -228.5t-230 -152.5t-280.5 -56.5zM850 161q108 0 206.5 42.5t170 114t113.5 170.5t42 208t-42 208.5t-113.5 171t-170 114t-206.5 42.5t-207 -42.5t-170 -114t-113.5 -171t-42.5 -208.5q0 -146 71.5 -269t194 -194.5t267.5 -71.5z" />
    <glyph glyph-name="omacron" unicode="&#x14d;" horiz-adv-x="1304" 
d="M381 1203q-32 0 -54.5 22.5t-22.5 54.5t22.5 54.5t54.5 22.5h588q32 0 55 -22.5t23 -54.5t-23 -54.5t-55 -22.5h-588zM652 -20q-142 0 -262.5 70t-190.5 190.5t-70 263.5q0 142 70 262.5t190.5 190t262.5 69.5q107 0 203.5 -41t167 -111t112 -167t41.5 -203
q0 -107 -41.5 -204t-112 -167t-167.5 -111.5t-203 -41.5zM652 154q140 0 239.5 102t99.5 247t-99.5 247t-239.5 102t-239.5 -102t-99.5 -247t99.5 -247t239.5 -102z" />
    <glyph glyph-name="Ohungarumlaut" unicode="&#x150;" horiz-adv-x="1699" 
d="M646 1549q-28 7 -43 31.5t-10 53.5l53 302q6 36 39 56t70 11t56 -43t8 -71l-87 -292q-8 -27 -33 -41t-53 -7zM1025 1541q-35 0 -56.5 28.5t-12.5 63.5l73 296q7 28 31 46.5t55 18.5q47 0 73.5 -39t9.5 -83l-106 -286q-8 -20 -26.5 -32.5t-40.5 -12.5zM850 -20
q-147 0 -280.5 56.5t-230 152.5t-153.5 228.5t-57 278.5t57 278.5t153.5 228.5t230 153t280.5 57t280.5 -57t230 -153t153.5 -228.5t57 -278.5t-57 -278.5t-153.5 -228.5t-230 -152.5t-280.5 -56.5zM850 161q108 0 206.5 42.5t170 114t113.5 170.5t42 208t-42 208.5
t-113.5 171t-170 114t-206.5 42.5t-207 -42.5t-170 -114t-113.5 -171t-42.5 -208.5q0 -146 71.5 -269t194 -194.5t267.5 -71.5z" />
    <glyph glyph-name="ohungarumlaut" unicode="&#x151;" horiz-adv-x="1304" 
d="M448 1162q-28 7 -43 31.5t-10 53.5l54 302q6 37 38.5 57t69.5 11t56 -43t8 -71l-87 -293q-8 -27 -33 -41t-53 -7zM827 1154q-35 0 -56.5 28.5t-12.5 63.5l73 297q7 28 31 46t55 18q47 0 73.5 -39t9.5 -83l-106 -286q-8 -20 -26.5 -32.5t-40.5 -12.5zM652 -20
q-142 0 -262.5 70t-190.5 190.5t-70 263.5q0 142 70 262.5t190.5 190t262.5 69.5q107 0 203.5 -41t167 -111t112 -167t41.5 -203q0 -107 -41.5 -204t-112 -167t-167.5 -111.5t-203 -41.5zM652 154q140 0 239.5 102t99.5 247t-99.5 247t-239.5 102t-239.5 -102t-99.5 -247
t99.5 -247t239.5 -102z" />
    <glyph glyph-name="OE" unicode="&#x152;" horiz-adv-x="2521" 
d="M2280 181q38 0 64.5 -26.5t26.5 -63.5t-26.5 -64t-64.5 -27h-808q-39 0 -67 27.5t-28 66.5v129q-100 -114 -239 -178.5t-296 -64.5q-145 0 -277 56.5t-227.5 152.5t-152 228.5t-56.5 278.5q0 195 95.5 360t259.5 261t358 96q157 0 296 -64.5t239 -178.5v128q0 39 28 67
t67 28h808q38 0 64.5 -26.5t26.5 -64.5t-26.5 -64.5t-64.5 -26.5h-714v-465h604q37 0 63.5 -26.5t26.5 -64.5q0 -37 -26 -63.5t-64 -26.5h-604v-384h714zM850 161q108 0 206.5 42.5t170 114t113.5 170.5t42 208t-42 208.5t-113.5 171t-170 114t-206.5 42.5t-207 -42.5
t-170 -114t-113.5 -171t-42.5 -208.5q0 -146 71.5 -269t194 -194.5t267.5 -71.5z" />
    <glyph glyph-name="oe" unicode="&#x153;" horiz-adv-x="2125" 
d="M1494 1026q137 0 252.5 -70t183 -190.5t67.5 -262.5v-21q-1 -37 -27.5 -63t-64.5 -26h-716q28 -115 115 -177t217 -62q150 2 303 78q11 5 29 5q36 0 61.5 -25.5t25.5 -61.5q0 -27 -16 -49.5t-41 -31.5q-185 -90 -361 -90q-150 0 -265.5 62t-180.5 176q-70 -109 -184 -173
t-247 -64q-140 0 -259 70t-188 190.5t-69 263.5q0 106 41 203t110 167t164.5 111t200.5 41q136 0 251.5 -66t184.5 -178q66 112 175.5 178t237.5 66zM652 154q140 0 239.5 102t99.5 247t-99.5 247t-239.5 102t-239.5 -102t-99.5 -247t99.5 -247t239.5 -102zM1494 852
q-117 0 -205.5 -82.5t-108.5 -206.5h628q-20 124 -108.5 206.5t-205.5 82.5z" />
    <glyph glyph-name="Racute" unicode="&#x154;" horiz-adv-x="1333" 
d="M710 1547q-38 0 -59 32.5t-4 67.5l127 253q26 53 84 53q38 0 65 -27.5t27 -65.5q0 -31 -19 -56l-165 -230q-21 -27 -56 -27zM877 473l218 -332q21 -33 12 -71t-42 -59t-71 -12t-59 42l-261 401h-336v-348q0 -39 -27.5 -66.5t-66.5 -27.5t-66.5 27.5t-27.5 66.5v1204
q0 39 27.5 67t66.5 28h465q129 0 238.5 -63.5t173 -173t63.5 -238.5q0 -151 -85.5 -272t-221.5 -173zM338 1211v-588h371q119 0 202.5 86.5t83.5 208.5q0 121 -83.5 207t-202.5 86h-371z" />
    <glyph glyph-name="racute" unicode="&#x155;" horiz-adv-x="874" 
d="M471 1160q-38 0 -59 32.5t-4 67.5l126 253q26 53 84 53q38 0 65.5 -27.5t27.5 -65.5q0 -31 -19 -56l-166 -230q-21 -27 -55 -27zM630 1026q39 0 66.5 -27.5t27.5 -66.5q0 -36 -23.5 -62t-57.5 -31q-131 -14 -220 -111t-89 -251v-386q0 -38 -27 -65t-65 -27t-65 27t-27 65
v823q0 38 27 65.5t65 27.5t65 -27.5t27 -65.5v-44q60 71 138 113t158 43z" />
    <glyph glyph-name="Rcaron" unicode="&#x158;" horiz-adv-x="1333" 
d="M398 1739q-20 17 -23.5 42.5t12.5 45.5q14 19 38 23t45 -8l205 -126l205 126q29 17 60 4q32 -14 35.5 -49t-23.5 -58l-225 -186q-21 -18 -52 -18t-52 18zM877 473l218 -332q21 -33 12 -71t-42 -59t-71 -12t-59 42l-261 401h-336v-348q0 -39 -27.5 -66.5t-66.5 -27.5
t-66.5 27.5t-27.5 66.5v1204q0 39 27.5 67t66.5 28h465q129 0 238.5 -63.5t173 -173t63.5 -238.5q0 -151 -85.5 -272t-221.5 -173zM338 1211v-588h371q119 0 202.5 86.5t83.5 208.5q0 121 -83.5 207t-202.5 86h-371z" />
    <glyph glyph-name="rcaron" unicode="&#x159;" horiz-adv-x="874" 
d="M158 1352q-20 17 -23.5 42.5t12.5 45.5q14 19 38.5 23t45.5 -8l204 -125l205 125q29 17 60 4q32 -14 36 -49t-23 -58l-225 -185q-22 -19 -53 -19q-30 0 -52 19zM630 1026q39 0 66.5 -27.5t27.5 -66.5q0 -36 -23.5 -62t-57.5 -31q-131 -14 -220 -111t-89 -251v-386
q0 -38 -27 -65t-65 -27t-65 27t-27 65v823q0 38 27 65.5t65 27.5t65 -27.5t27 -65.5v-44q60 71 138 113t158 43z" />
    <glyph glyph-name="Sacute" unicode="&#x15a;" horiz-adv-x="1382" 
d="M774 1574q-21 -27 -55 -27q-38 0 -59 33t-5 67l127 253q26 53 84 53q38 0 65.5 -27.5t27.5 -65.5q0 -31 -19 -56zM692 -20q-244 0 -502 143q-47 27 -47 80q0 51 43.5 78t89.5 4q236 -124 422 -124q53 0 108.5 10t113.5 32.5t94.5 68t36.5 106.5q0 24 -6.5 44.5t-15 36
t-27 29.5t-33.5 23.5t-44 19t-48.5 15t-57.5 13t-60.5 11l-67.5 10.5q-49 7 -80.5 12.5t-80.5 16.5t-81.5 21.5t-75 28.5t-70.5 38t-57.5 48.5t-47 61.5t-28.5 76.5t-11 93.5q0 88 32 161.5t85.5 123.5t124.5 84.5t146.5 50.5t154.5 16q236 0 474 -140q21 -11 34 -33t13 -47
q0 -37 -26.5 -64t-64.5 -27q-24 0 -44 11q-199 119 -394 119q-160 0 -253.5 -71t-93.5 -176q0 -43 18 -75t45 -51.5t73.5 -34.5t89 -23.5t104.5 -18.5q9 -1 14 -2q68 -11 116.5 -21t110 -27t103.5 -36t86 -49t70.5 -66.5t43.5 -86.5t17 -110q0 -78 -26 -142t-71 -106.5
t-100 -74t-118.5 -48.5t-120 -25t-110.5 -8z" />
    <glyph glyph-name="sacute" unicode="&#x15b;" horiz-adv-x="1130" 
d="M667 1187q-21 -27 -56 -27q-38 0 -59 32.5t-4 67.5l127 253q26 53 84 53q38 0 65 -27.5t27 -65.5q0 -31 -19 -56zM561 -17q-172 -1 -367 97q-48 22 -48 76q0 45 38 70.5t80 6.5q155 -75 293 -74q60 1 111 14t84 41t33 65q0 27 -14 47.5t-32 33t-52 23.5t-56.5 16
t-64.5 12q-64 11 -113.5 24.5t-104.5 38.5t-91.5 57t-60.5 82.5t-24 114.5q0 76 36.5 135.5t96.5 94.5t128.5 53.5t139.5 18.5q163 1 344 -100q49 -22 49 -76q0 -35 -24.5 -60t-59.5 -25q-14 0 -32 7q-140 81 -275 80q-93 -1 -149.5 -34t-55.5 -88q0 -28 13 -50t30 -35
t47 -24.5t50.5 -16.5t55.5 -12q55 -11 94 -20t86 -23.5t78.5 -30t64 -38.5t52 -50t31.5 -64t12 -81q0 -64 -28 -117t-72.5 -87t-101.5 -57.5t-112.5 -34t-108.5 -10.5z" />
    <glyph glyph-name="Scedilla" unicode="&#x15e;" horiz-adv-x="1382" 
d="M1238 384q0 -81 -29.5 -147t-75.5 -109t-109 -74.5t-123.5 -47t-125.5 -22.5l-140 -236q-23 -40 -71 -40q-34 0 -58 24t-24 58q0 35 22 57l123 135q-218 19 -437 141q-47 27 -47 80q0 51 43.5 78t89.5 4q236 -124 422 -124q53 0 108.5 10t113.5 32.5t94.5 68t36.5 106.5
q0 24 -6.5 44.5t-15 36t-27 29.5t-33.5 23.5t-44 19t-48.5 15t-57.5 13t-60.5 11l-67.5 10.5q-49 7 -80.5 12.5t-80.5 16.5t-81.5 21.5t-75 28.5t-70.5 38t-57.5 48.5t-47 61.5t-28.5 76.5t-11 93.5q0 88 32 161.5t85.5 123.5t124.5 84.5t146.5 50.5t154.5 16
q236 0 474 -140q21 -11 34 -33t13 -47q0 -37 -26.5 -64t-64.5 -27q-24 0 -44 11q-199 119 -394 119q-160 0 -253.5 -71t-93.5 -176q0 -43 18 -75t45 -51.5t73.5 -34.5t89 -23.5t104.5 -18.5q9 -1 14 -2q68 -11 116.5 -21t110 -27t103.5 -36t86 -49t70.5 -66.5t43.5 -86.5
t17 -110z" />
    <glyph glyph-name="scedilla" unicode="&#x15f;" horiz-adv-x="1130" 
d="M984 289q0 -72 -34.5 -130t-92 -92.5t-120 -54.5t-128.5 -26l-141 -238q-23 -40 -71 -40q-35 0 -59 24t-24 58t23 57l130 144q-134 20 -273 89q-48 22 -48 76q0 45 38 70.5t80 6.5q155 -75 293 -74q60 1 111 14t84 41t33 65q0 27 -14 47.5t-32 33t-52 23.5t-56.5 16
t-64.5 12q-64 11 -113.5 24.5t-104.5 38.5t-91.5 57t-60.5 82.5t-24 114.5q0 76 36.5 135.5t96.5 94.5t128.5 53.5t139.5 18.5q163 1 344 -100q49 -22 49 -76q0 -35 -24.5 -60t-59.5 -25q-14 0 -32 7q-140 81 -275 80q-93 -1 -149.5 -34t-55.5 -88q0 -28 13 -50t30 -35
t47 -24.5t50.5 -16.5t55.5 -12q55 -11 94 -20t86 -23.5t78.5 -30t64 -38.5t52 -50t31.5 -64t12 -81z" />
    <glyph glyph-name="Scaron" unicode="&#x160;" horiz-adv-x="1382" 
d="M948 1846q32 -14 36 -49t-23 -58l-226 -186q-21 -18 -52 -18t-52 18l-225 186q-20 17 -23.5 42.5t12.5 45.5q14 19 38 23t45 -8l205 -126l205 126q29 17 60 4zM692 -20q-244 0 -502 143q-47 27 -47 80q0 51 43.5 78t89.5 4q236 -124 422 -124q53 0 108.5 10t113.5 32.5
t94.5 68t36.5 106.5q0 24 -6.5 44.5t-15 36t-27 29.5t-33.5 23.5t-44 19t-48.5 15t-57.5 13t-60.5 11l-67.5 10.5q-49 7 -80.5 12.5t-80.5 16.5t-81.5 21.5t-75 28.5t-70.5 38t-57.5 48.5t-47 61.5t-28.5 76.5t-11 93.5q0 88 32 161.5t85.5 123.5t124.5 84.5t146.5 50.5
t154.5 16q236 0 474 -140q21 -11 34 -33t13 -47q0 -37 -26.5 -64t-64.5 -27q-24 0 -44 11q-199 119 -394 119q-160 0 -253.5 -71t-93.5 -176q0 -43 18 -75t45 -51.5t73.5 -34.5t89 -23.5t104.5 -18.5q9 -1 14 -2q68 -11 116.5 -21t110 -27t103.5 -36t86 -49t70.5 -66.5
t43.5 -86.5t17 -110q0 -78 -26 -142t-71 -106.5t-100 -74t-118.5 -48.5t-120 -25t-110.5 -8z" />
    <glyph glyph-name="scaron" unicode="&#x161;" horiz-adv-x="1130" 
d="M841 1459q32 -14 35.5 -49t-23.5 -58l-225 -185q-22 -19 -52 -19t-52 19l-225 185q-20 17 -23.5 42.5t12.5 45.5q14 19 38 23t45 -8l205 -125l205 125q29 17 60 4zM561 -17q-172 -1 -367 97q-48 22 -48 76q0 45 38 70.5t80 6.5q155 -75 293 -74q60 1 111 14t84 41t33 65
q0 27 -14 47.5t-32 33t-52 23.5t-56.5 16t-64.5 12q-64 11 -113.5 24.5t-104.5 38.5t-91.5 57t-60.5 82.5t-24 114.5q0 76 36.5 135.5t96.5 94.5t128.5 53.5t139.5 18.5q163 1 344 -100q49 -22 49 -76q0 -35 -24.5 -60t-59.5 -25q-14 0 -32 7q-140 81 -275 80
q-93 -1 -149.5 -34t-55.5 -88q0 -28 13 -50t30 -35t47 -24.5t50.5 -16.5t55.5 -12q55 -11 94 -20t86 -23.5t78.5 -30t64 -38.5t52 -50t31.5 -64t12 -81q0 -64 -28 -117t-72.5 -87t-101.5 -57.5t-112.5 -34t-108.5 -10.5z" />
    <glyph glyph-name="uni0162" unicode="&#x162;" horiz-adv-x="1394" 
d="M1216 1393q38 0 64.5 -26.5t26.5 -64.5t-26.5 -64.5t-64.5 -26.5h-424v-1117q0 -32 -22 -59v-1l-153 -258q-23 -40 -71 -40q-34 0 -58 24t-24 59q0 34 22 56l142 156q-25 28 -25 63v1117h-424q-37 0 -64 26.5t-27 64.5t27 64.5t64 26.5h1037z" />
    <glyph glyph-name="uni0163" unicode="&#x163;" horiz-adv-x="966" 
d="M771 172q41 10 74.5 -16t33.5 -69q0 -30 -18 -53t-45 -31q-70 -21 -140 -24l-137 -231q-23 -40 -71 -40q-35 0 -59 24t-24 58t23 57l131 145q-52 14 -92 40q-141 88 -141 277v512h-131q-36 0 -61.5 25.5t-25.5 61.5t25.5 61.5t61.5 25.5h131v207q0 38 27 65t65 27t65 -27
t27 -65v-207h238q36 0 61.5 -25.5t25.5 -61.5t-25.5 -61.5t-61.5 -25.5h-238v-493q0 -106 64 -146q77 -47 217 -10z" />
    <glyph glyph-name="Tcaron" unicode="&#x164;" horiz-adv-x="1394" 
d="M418 1739q-20 17 -23.5 42.5t12.5 45.5q14 19 38.5 23t45.5 -8l204 -126l205 126q29 17 60 4q32 -14 36 -49t-23 -58l-225 -186q-21 -18 -53 -18q-31 0 -52 18zM1216 1393q38 0 64.5 -26.5t26.5 -64.5t-26.5 -64.5t-64.5 -26.5h-424v-1117q0 -39 -28 -66.5t-67 -27.5
t-66.5 27.5t-27.5 66.5v1117h-424q-37 0 -64 26.5t-27 64.5t27 64.5t64 26.5h1037z" />
    <glyph glyph-name="tcaron" unicode="&#x165;" horiz-adv-x="952" 
d="M618 1217l-15 264q-2 35 22 61t59 26t58.5 -26t21.5 -61l-15 -264q-2 -26 -20.5 -43.5t-44.5 -17.5t-45 17.5t-21 43.5zM756 172q41 10 75 -16.5t34 -68.5q0 -30 -18 -53t-45 -31q-220 -63 -369 29q-141 88 -141 277v522h-117q-36 0 -61.5 26t-25.5 62t25.5 61.5
t61.5 25.5h117v196q0 38 27 65t65 27t65 -27t27 -65v-196h237q36 0 62 -25.5t26 -61.5t-26 -62t-62 -26h-237v-503q0 -106 64 -146q77 -47 216 -10z" />
    <glyph glyph-name="Utilde" unicode="&#x168;" horiz-adv-x="1579" 
d="M797 1547q-6 2 -40.5 15.5t-42 15.5t-35 10.5t-39.5 7t-34 -2.5t-40.5 -9.5t-37.5 -21.5q-32 -21 -66 -2t-32 58q1 22 18 40q142 144 333 71q7 -3 40.5 -16t42 -15.5t35 -10t39 -6.5t34 2t40 9.5t37.5 21.5q32 21 66 2.5t32 -57.5q-1 -24 -17 -41q-142 -144 -333 -71z
M789 -20q-174 0 -321 85t-233 231t-86 319v683q0 39 28 67t67 28t66.5 -28t27.5 -67v-683q0 -188 132 -321t319 -133t319.5 133t132.5 321v683q0 39 27.5 67t66.5 28t66.5 -28t27.5 -67v-683q0 -173 -86 -319t-233 -231t-321 -85z" />
    <glyph glyph-name="utilde" unicode="&#x169;" horiz-adv-x="1284" 
d="M381 1176q-32 -21 -66 -2.5t-32 57.5q1 24 17 41q142 143 333 70q7 -3 40.5 -16t42 -15.5t35 -10t39 -6.5t34 2t40 9.5t37.5 21.5q32 22 66.5 3t32.5 -58q-1 -23 -18 -41q-142 -143 -333 -70q-7 3 -40.5 16t-42 15.5t-35 10t-39 6.5t-34 -2t-40 -9.5t-37.5 -21.5z
M1042 1006q38 0 65.5 -27t27.5 -65v-822q0 -38 -27.5 -65t-65.5 -27t-65 27t-27 65v57q-63 -79 -154.5 -124t-196.5 -45q-186 0 -318 131.5t-132 317.5v484q0 38 27.5 65.5t65.5 27.5t65 -27.5t27 -65.5v-441q0 -132 90 -225t218 -93t218 93t90 225v442q0 38 27 65t65 27z
" />
    <glyph glyph-name="Umacron" unicode="&#x16a;" horiz-adv-x="1579" 
d="M518 1589q-32 0 -54.5 22.5t-22.5 54.5t22.5 55t54.5 23h589q32 0 54.5 -23t22.5 -55t-22.5 -54.5t-54.5 -22.5h-589zM789 -20q-174 0 -321 85t-233 231t-86 319v683q0 39 28 67t67 28t66.5 -28t27.5 -67v-683q0 -188 132 -321t319 -133t319.5 133t132.5 321v683
q0 39 27.5 67t66.5 28t66.5 -28t27.5 -67v-683q0 -173 -86 -319t-233 -231t-321 -85z" />
    <glyph glyph-name="umacron" unicode="&#x16b;" horiz-adv-x="1284" 
d="M371 1203q-32 0 -54.5 22.5t-22.5 54.5t22.5 54.5t54.5 22.5h588q32 0 54.5 -22.5t22.5 -54.5t-22.5 -54.5t-54.5 -22.5h-588zM1042 1006q38 0 65.5 -27t27.5 -65v-822q0 -38 -27.5 -65t-65.5 -27t-65 27t-27 65v57q-63 -79 -154.5 -124t-196.5 -45q-186 0 -317.5 131.5
t-131.5 317.5v484q0 38 27 65.5t65 27.5t65 -27.5t27 -65.5v-441q0 -132 90 -225t218 -93t218 93t90 225v442q0 38 27 65t65 27z" />
    <glyph glyph-name="Uring" unicode="&#x16e;" horiz-adv-x="1579" 
d="M790 1528q-83 0 -142 57t-59 139t59 139.5t142 57.5t141.5 -57.5t58.5 -139.5t-58.5 -139t-141.5 -57zM790 1633q37 0 63.5 26.5t26.5 64.5t-26 64t-64 26t-64.5 -26.5t-26.5 -63.5q0 -38 26.5 -64.5t64.5 -26.5zM789 -20q-174 0 -321 85t-233 231t-86 319v683
q0 39 28 67t67 28t66.5 -28t27.5 -67v-683q0 -188 132 -321t319 -133t319.5 133t132.5 321v683q0 39 27.5 67t66.5 28t66.5 -28t27.5 -67v-683q0 -173 -86 -319t-233 -231t-321 -85z" />
    <glyph glyph-name="uring" unicode="&#x16f;" horiz-adv-x="1284" 
d="M642 1141q-83 0 -142 57.5t-59 139.5t59 139t142 57t142 -57t59 -139t-59 -139.5t-142 -57.5zM642 1428q-37 0 -63.5 -26.5t-26.5 -64.5q0 -37 26 -63.5t64 -26.5t64.5 26.5t26.5 63.5t-26.5 64t-64.5 27zM1042 1006q38 0 65.5 -27t27.5 -65v-822q0 -38 -27.5 -65
t-65.5 -27t-65 27t-27 65v57q-63 -79 -154.5 -124t-196.5 -45q-186 0 -317.5 131.5t-131.5 317.5v484q0 38 27 65.5t65 27.5t65 -27.5t27 -65.5v-441q0 -132 90 -225t218 -93t218 93t90 225v442q0 38 27 65t65 27z" />
    <glyph glyph-name="Uhungarumlaut" unicode="&#x170;" horiz-adv-x="1579" 
d="M585 1549q-28 7 -42.5 31.5t-9.5 53.5l53 302q6 36 38.5 56t69.5 11t56 -43t8 -71l-87 -292q-8 -27 -33 -41t-53 -7zM965 1541q-35 0 -57 28.5t-13 63.5l74 296q7 29 30.5 47t54.5 18q47 0 73.5 -39t9.5 -83l-106 -286q-19 -45 -66 -45zM789 -20q-174 0 -321 85t-233 231
t-86 319v683q0 39 28 67t67 28t66.5 -28t27.5 -67v-683q0 -188 132 -321t319 -133t319.5 133t132.5 321v683q0 39 27.5 67t66.5 28t66.5 -28t27.5 -67v-683q0 -173 -86 -319t-233 -231t-321 -85z" />
    <glyph glyph-name="uhungarumlaut" unicode="&#x171;" horiz-adv-x="1284" 
d="M438 1162q-28 7 -43 31.5t-10 53.5l53 302q6 36 39 56.5t70 11.5t56 -43t8 -71l-87 -293q-8 -27 -33 -41t-53 -7zM817 1154q-35 0 -56.5 28.5t-12.5 63.5l73 297q7 28 31 46t55 18q47 0 73.5 -39t9.5 -83l-106 -286q-8 -20 -26.5 -32.5t-40.5 -12.5zM1042 1006
q38 0 65.5 -27t27.5 -65v-822q0 -38 -27.5 -65t-65.5 -27t-65 27t-27 65v57q-63 -79 -154.5 -124t-196.5 -45q-186 0 -317.5 131.5t-131.5 317.5v484q0 38 27 65.5t65 27.5t65 -27.5t27 -65.5v-441q0 -132 90 -225t218 -93t218 93t90 225v442q0 38 27 65t65 27z" />
    <glyph glyph-name="Uogonek" unicode="&#x172;" horiz-adv-x="1579" 
d="M1335 1393q39 0 66.5 -28t27.5 -67v-683q0 -152 -68 -285.5t-186 -222t-265 -116.5q-44 -25 -65 -56.5t-18 -60.5q4 -40 47.5 -51t108.5 13q32 10 59.5 -9.5t27.5 -52.5q0 -42 -39 -59q-115 -52 -196 -42.5t-123 60t-35 121.5q8 71 68 127q-123 8 -233.5 61.5t-190 137.5
t-126 197.5t-46.5 237.5v683q0 39 28 67t67 28t66.5 -28t27.5 -67v-683q0 -188 132 -321t319 -133t319.5 133t132.5 321v683q0 39 27.5 67t66.5 28z" />
    <glyph glyph-name="uogonek" unicode="&#x173;" horiz-adv-x="1284" 
d="M1161 -141q32 10 59.5 -9.5t27.5 -52.5q0 -43 -39 -60q-115 -52 -196 -42.5t-123 60t-35 121.5q10 99 113 161q-18 25 -18 55v57q-63 -79 -154.5 -124t-196.5 -45q-186 0 -317.5 131.5t-131.5 317.5v484q0 38 27 65.5t65 27.5t65 -27.5t27 -65.5v-441q0 -132 90 -225
t218 -93t218 93t90 225v442q0 38 27 65t65 27t65.5 -27t27.5 -65v-822q0 -28 -15.5 -51t-40.5 -34q-81 -51 -74 -111q4 -40 47.5 -50.5t108.5 13.5z" />
    <glyph glyph-name="Wcircumflex" unicode="&#x174;" horiz-adv-x="2527" 
d="M1061 1544q-21 -12 -44.5 -7.5t-38.5 23.5q-16 20 -13 46t23 42l225 185q21 18 53 18q31 0 52 -18l225 -185q27 -23 23 -58.5t-36 -49.5q-31 -13 -60 4l-204 126zM2383 1389q36 -16 50 -52t-2 -72l-540 -1217q-12 -26 -36 -41t-51 -15t-51 15t-36 41l-453 1023
l-454 -1023q-12 -26 -36 -41t-51 -15t-51 15t-36 41l-540 1217q-16 36 -2 72t50 52t72.5 2t52.5 -50l454 -1031l454 1031q12 26 36 41t51 15v0q27 0 50.5 -15t35.5 -41l454 -1031l455 1031q16 36 52 50t72 -2z" />
    <glyph glyph-name="wcircumflex" unicode="&#x175;" horiz-adv-x="2017" 
d="M1275 1154q-32 -13 -60 3l-205 126l-205 -126q-21 -12 -44.5 -7.5t-38.5 23.5q-16 20 -12.5 45.5t23.5 42.5l225 185q22 19 52 19t52 -19l225 -185q27 -23 23.5 -58t-35.5 -49zM635 -6q-34 -16 -68.5 -3.5t-51.5 46.5l-412 841q-17 34 -4 71t47 53q34 17 70.5 4t52.5 -47
l328 -680l329 680q14 29 45 43q34 16 68.5 3.5t51.5 -46.5l329 -680l328 680q16 34 52.5 47t70.5 -4q34 -16 46.5 -53t-4.5 -71l-409 -837q-15 -34 -47 -47q-34 -16 -68.5 -3.5t-51.5 46.5l-329 672l-326 -668q-15 -34 -47 -47z" />
    <glyph glyph-name="Ycircumflex" unicode="&#x176;" horiz-adv-x="1404" 
d="M500 1544q-21 -12 -45 -7.5t-39 23.5q-16 20 -12.5 45.5t23.5 42.5l225 185q21 18 52 18q32 0 53 -18l225 -185q27 -23 23 -58.5t-36 -49.5q-31 -13 -60 4l-205 126zM1273 1379q33 -21 41 -59t-13 -71l-505 -777v-387q0 -39 -27.5 -66.5t-66.5 -27.5t-66.5 27.5
t-27.5 66.5v386l-505 778q-21 33 -13 71t41 59t71.5 12.5t59.5 -41.5l440 -682l441 682q21 33 59 41.5t71 -12.5z" />
    <glyph glyph-name="ycircumflex" unicode="&#x177;" horiz-adv-x="1292" 
d="M902 1154q-32 -13 -60 3l-205 126l-205 -126q-21 -12 -44.5 -7.5t-38.5 23.5q-16 20 -12.5 45.5t23.5 42.5l225 185q22 19 52 19t52 -19l225 -185q27 -23 23.5 -58t-35.5 -49zM617 -452q-202 -2 -411 100q-25 11 -40 33.5t-15 50.5q0 50 41.5 77t86.5 7q168 -84 337 -84
q160 0 251 85t91 252v91q-60 -83 -152.5 -131.5t-199.5 -48.5q-186 0 -317.5 131.5t-131.5 317.5v485q0 38 27 65t65 27t65 -27t27 -65v-442q0 -132 90.5 -225t218.5 -93q127 0 216.5 91.5t91.5 222.5v446q0 38 27 65.5t65 27.5t65 -27.5t27 -65.5v-845q0 -242 -142 -380.5
t-383 -140.5z" />
    <glyph glyph-name="Ydieresis" unicode="&#x178;" horiz-adv-x="1404" 
d="M508 1528q-43 0 -73.5 31t-30.5 74t30.5 73.5t73.5 30.5t73 -30.5t30 -73.5q0 -44 -30 -74.5t-73 -30.5zM897 1528q-43 0 -73.5 31t-30.5 74t30.5 73.5t73.5 30.5t73 -30.5t30 -73.5q0 -44 -30 -74.5t-73 -30.5zM1273 1379q33 -21 41 -59t-13 -71l-505 -777v-387
q0 -39 -27.5 -66.5t-66.5 -27.5t-66.5 27.5t-27.5 66.5v386l-505 778q-21 33 -13 71t41 59t71.5 12.5t59.5 -41.5l440 -682l441 682q21 33 59 41.5t71 -12.5z" />
    <glyph glyph-name="Zacute" unicode="&#x179;" horiz-adv-x="1456" 
d="M762 1547q-39 0 -59.5 32.5t-3.5 67.5l127 253q26 53 84 53q38 0 65 -27.5t27 -65.5q0 -31 -19 -56l-165 -230q-21 -27 -56 -27zM1217 181q37 0 63.5 -26.5t26.5 -63.5q0 -38 -26.5 -64.5t-63.5 -26.5h-977q-37 0 -63.5 26.5t-26.5 64.5q0 39 27 64l829 1056h-748
q-38 0 -64.5 26.5t-26.5 64.5t26.5 64.5t64.5 26.5h944q38 0 64.5 -26.5t26.5 -64.5q0 -35 -25 -62l-831 -1059h780z" />
    <glyph glyph-name="zacute" unicode="&#x17a;" 
d="M694 1160q-38 0 -59 32.5t-4 67.5l127 253q26 53 83 53q38 0 65.5 -27.5t27.5 -65.5q0 -31 -19 -56l-165 -230q-21 -27 -56 -27zM1084 174q36 0 62 -25.5t26 -61.5t-26 -61.5t-62 -25.5h-847q-36 0 -61.5 25.5t-25.5 61.5q0 39 26 63l667 682h-586q-36 0 -61.5 25.5
t-25.5 61.5t25.5 61.5t61.5 25.5h807q36 0 61.5 -25.5t25.5 -61.5q0 -37 -25 -62l-669 -683h627z" />
    <glyph glyph-name="Zdotaccent" unicode="&#x17b;" horiz-adv-x="1456" 
d="M729 1528q-43 0 -73.5 31t-30.5 74t30.5 73.5t73.5 30.5t73 -30.5t30 -73.5q0 -44 -30 -74.5t-73 -30.5zM1217 181q37 0 63.5 -26.5t26.5 -63.5q0 -38 -26.5 -64.5t-63.5 -26.5h-977q-37 0 -63.5 26.5t-26.5 64.5q0 39 27 64l829 1056h-748q-38 0 -64.5 26.5t-26.5 64.5
t26.5 64.5t64.5 26.5h944q38 0 64.5 -26.5t26.5 -64.5q0 -35 -25 -62l-831 -1059h780z" />
    <glyph glyph-name="zdotaccent" unicode="&#x17c;" 
d="M660 1141q-43 0 -73 30.5t-30 74.5t30 74.5t73 30.5t73.5 -31t30.5 -74t-30.5 -74t-73.5 -31zM1084 174q36 0 62 -25.5t26 -61.5t-26 -61.5t-62 -25.5h-847q-36 0 -62 25.5t-26 61.5q0 38 27 63l667 682h-586q-36 0 -61.5 25.5t-25.5 61.5t25.5 61.5t61.5 25.5h807
q36 0 61.5 -25.5t25.5 -61.5q0 -37 -25 -62l-669 -683h627z" />
    <glyph glyph-name="Zcaron" unicode="&#x17d;" horiz-adv-x="1456" 
d="M449 1739q-20 16 -23 42t13 46q14 19 38 23t45 -8l205 -126l205 126q29 17 60 4q32 -14 35.5 -49t-23.5 -58l-225 -186q-21 -18 -52 -18q-32 0 -53 18zM1217 181q37 0 63.5 -26.5t26.5 -63.5q0 -38 -26.5 -64.5t-63.5 -26.5h-977q-37 0 -63.5 26.5t-26.5 64.5q0 39 27 64
l829 1056h-748q-38 0 -64.5 26.5t-26.5 64.5t26.5 64.5t64.5 26.5h944q38 0 64.5 -26.5t26.5 -64.5q0 -35 -25 -62l-831 -1059h780z" />
    <glyph glyph-name="zcaron" unicode="&#x17e;" 
d="M381 1352q-20 17 -23.5 42.5t12.5 45.5q14 19 38.5 23t45.5 -8l205 -125l204 125q29 17 60 4q32 -14 36 -49t-23 -58l-225 -185q-22 -19 -52 -19q-31 0 -53 19zM1084 174q36 0 62 -25.5t26 -61.5t-26 -61.5t-62 -25.5h-847q-36 0 -61.5 25.5t-25.5 61.5q0 39 26 63
l667 682h-586q-36 0 -61.5 25.5t-25.5 61.5t25.5 61.5t61.5 25.5h807q36 0 61.5 -25.5t25.5 -61.5q0 -37 -25 -62l-669 -683h627z" />
    <glyph glyph-name="uni01CD" unicode="&#x1cd;" horiz-adv-x="1445" 
d="M444 1739q-20 16 -23 42t13 46q14 19 38 23t45 -8l205 -126l204 126q29 17 60 4q32 -14 36 -49t-23 -58l-225 -186q-21 -18 -52 -18q-32 0 -53 18zM1350 130q16 -36 1.5 -72t-50.5 -52t-72 -2t-52 50l-124 282h-660l-124 -282q-16 -36 -52.5 -50t-72.5 2t-50 52t2 72
l540 1217q12 26 36 41t51 15t51 -15t36 -41zM476 524h494l-247 561z" />
    <glyph glyph-name="uni01CE" unicode="&#x1ce;" 
d="M337 1352q-20 17 -23.5 42.5t12.5 45.5q14 19 38 23t45 -8l205 -125l205 125q29 17 60 4q32 -14 35.5 -49t-23.5 -58l-225 -185q-22 -19 -52 -19t-52 19zM1079 1006q38 0 65 -27t27 -65v-822q0 -38 -27 -65t-65 -27t-65 27t-27 65v71q-68 -86 -164.5 -134.5t-206.5 -48.5
q-99 0 -189 41t-155.5 111t-104 167t-38.5 203q0 143 65 263.5t177.5 190.5t244.5 70q110 0 206.5 -48.5t164.5 -134.5v71q0 38 27 65t65 27zM652 154q140 0 239.5 102t99.5 247t-99.5 247t-239.5 102t-239.5 -102t-99.5 -247t99.5 -247t239.5 -102z" />
    <glyph glyph-name="uni01CF" unicode="&#x1cf;" horiz-adv-x="487" 
d="M507 1846q32 -14 35.5 -49t-23.5 -58l-225 -186q-21 -18 -52 -18q-32 0 -53 18l-225 186q-20 16 -23 42t13 46q14 19 38 23t45 -8l205 -126l205 126q29 17 60 4zM244 0q-39 0 -66.5 27.5t-27.5 66.5v1204q0 39 27.5 67t66.5 28t66.5 -28t27.5 -67v-1204
q0 -39 -27.5 -66.5t-66.5 -27.5z" />
    <glyph glyph-name="uni01D0" unicode="&#x1d0;" horiz-adv-x="483" 
d="M505 1459q32 -14 35.5 -49t-23.5 -58l-225 -185q-22 -19 -52 -19q-31 0 -53 19l-225 185q-20 16 -23 42t13 46q14 19 38 23t45 -8l205 -125l205 125q29 17 60 4zM242 0q-38 0 -65 27t-27 65v822q0 38 27 65t65 27t65 -27t27 -65v-822q0 -38 -27 -65t-65 -27z" />
    <glyph glyph-name="uni01D1" unicode="&#x1d1;" horiz-adv-x="1699" 
d="M1113 1846q32 -14 35.5 -49t-23.5 -58l-225 -186q-21 -18 -52 -18t-52 18l-225 186q-20 17 -23.5 42.5t12.5 45.5q14 19 38 23t45 -8l205 -126l205 126q29 17 60 4zM850 -20q-147 0 -280.5 56.5t-230 152.5t-153.5 228.5t-57 278.5t57 278.5t153.5 228.5t230 153
t280.5 57t280.5 -57t230 -153t153.5 -228.5t57 -278.5t-57 -278.5t-153.5 -228.5t-230 -152.5t-280.5 -56.5zM850 161q108 0 206.5 42.5t170 114t113.5 170.5t42 208t-42 208.5t-113.5 171t-170 114t-206.5 42.5t-207 -42.5t-170 -114t-113.5 -171t-42.5 -208.5
q0 -146 71.5 -269t194 -194.5t267.5 -71.5z" />
    <glyph glyph-name="uni01D2" unicode="&#x1d2;" horiz-adv-x="1304" 
d="M915 1459q32 -14 36 -49t-23 -58l-225 -185q-22 -19 -53 -19q-30 0 -52 19l-225 185q-20 17 -23.5 42.5t12.5 45.5q14 19 38.5 23t45.5 -8l204 -125l205 125q29 17 60 4zM652 -20q-142 0 -262.5 70t-190.5 190.5t-70 263.5q0 142 70 262.5t190.5 190t262.5 69.5
q107 0 203.5 -41t167 -111t112 -167t41.5 -203q0 -107 -41.5 -204t-112 -167t-167.5 -111.5t-203 -41.5zM652 154q140 0 239.5 102t99.5 247t-99.5 247t-239.5 102t-239.5 -102t-99.5 -247t99.5 -247t239.5 -102z" />
    <glyph glyph-name="uni01D3" unicode="&#x1d3;" horiz-adv-x="1579" 
d="M1052 1846q32 -14 36 -49t-23 -58l-225 -186q-21 -18 -52 -18q-32 0 -53 18l-225 186q-20 17 -23.5 42.5t12.5 45.5q14 19 38.5 23t45.5 -8l205 -126l204 126q29 17 60 4zM789 -20q-174 0 -321 85t-233 231t-86 319v683q0 39 28 67t67 28t66.5 -28t27.5 -67v-683
q0 -188 132 -321t319 -133t319.5 133t132.5 321v683q0 39 27.5 67t66.5 28t66.5 -28t27.5 -67v-683q0 -173 -86 -319t-233 -231t-321 -85z" />
    <glyph glyph-name="uni01D4" unicode="&#x1d4;" horiz-adv-x="1284" 
d="M363 1352q-20 17 -23.5 42.5t12.5 45.5q14 19 38 23t45 -8l205 -125l205 125q29 17 60 4q32 -14 36 -49t-23 -58l-226 -185q-22 -19 -52 -19t-52 19zM1042 1006q38 0 65.5 -27t27.5 -65v-822q0 -38 -27.5 -65t-65.5 -27t-65 27t-27 65v57q-63 -79 -154.5 -124t-196.5 -45
q-186 0 -317.5 131.5t-131.5 317.5v484q0 38 27 65.5t65 27.5t65 -27.5t27 -65.5v-441q0 -132 90 -225t218 -93t218 93t90 225v442q0 38 27 65t65 27z" />
    <glyph glyph-name="uni0228" unicode="&#x228;" horiz-adv-x="1292" 
d="M1052 181q38 0 64.5 -26.5t26.5 -63.5t-26.5 -64t-64.5 -27h-325l-148 -249q-24 -41 -71 -41q-34 0 -58.5 24t-24.5 59q0 34 23 57l136 150h-340q-39 0 -66.5 27.5t-27.5 66.5v1204q0 39 27.5 67t66.5 28h808q38 0 64.5 -26.5t26.5 -64.5t-26.5 -64.5t-64.5 -26.5h-714
v-465h604q37 0 63.5 -26.5t26.5 -64.5q0 -37 -26 -63.5t-64 -26.5h-604v-384h714z" />
    <glyph glyph-name="uni0229" unicode="&#x229;" horiz-adv-x="1263" 
d="M632 1026q137 0 252.5 -69.5t183 -190t67.5 -262.5q0 -4 -0.5 -11t-0.5 -11q-1 -37 -27.5 -63t-64.5 -26h-716q28 -115 115.5 -177t217.5 -62q149 2 302 78q11 5 30 5q36 0 61.5 -25.5t25.5 -61.5q0 -27 -16 -49.5t-41 -31.5q-152 -73 -305 -87l-139 -234
q-23 -40 -71 -40q-35 0 -59 24t-24 58t23 57l125 138q-202 26 -322 164t-120 354q0 142 67.5 262.5t183 190.5t252.5 70zM632 852q-117 0 -205.5 -82.5t-108.5 -206.5h628q-20 124 -108.5 206.5t-205.5 82.5z" />
    <glyph glyph-name="circumflex" unicode="&#x2c6;" horiz-adv-x="872" 
d="M701 1154q-32 -13 -60 3l-204 126l-205 -126q-21 -12 -45.5 -7.5t-38.5 23.5q-16 20 -12.5 45.5t23.5 42.5l225 185q22 19 53 19q30 0 52 -19l225 -185q27 -23 23 -58t-36 -49z" />
    <glyph glyph-name="caron" unicode="&#x2c7;" horiz-adv-x="872" 
d="M701 1459q32 -14 36 -49t-23 -58l-225 -185q-22 -19 -52 -19q-31 0 -53 19l-225 185q-20 17 -23.5 42.5t12.5 45.5q14 19 38.5 23t45.5 -8l205 -125l204 125q29 17 60 4z" />
    <glyph glyph-name="breve" unicode="&#x2d8;" horiz-adv-x="747" 
d="M374 1141q-81 0 -145.5 47.5t-88.5 123.5q-12 31 6 58.5t52 27.5q20 0 36 -11.5t23 -29.5q11 -43 43 -69.5t74 -26.5t74 26.5t43 69.5q6 18 22.5 29.5t36.5 11.5q33 0 52 -27.5t6 -58.5q-24 -76 -88.5 -123.5t-145.5 -47.5z" />
    <glyph glyph-name="dotaccent" unicode="&#x2d9;" horiz-adv-x="477" 
d="M238 1141q-43 0 -73 30.5t-30 74.5t30 74.5t73 30.5t73.5 -31t30.5 -74t-30.5 -74t-73.5 -31z" />
    <glyph glyph-name="ring" unicode="&#x2da;" horiz-adv-x="634" 
d="M317 1141q-83 0 -141.5 57.5t-58.5 139.5t58.5 139t141.5 57t142 -57t59 -139t-59 -139.5t-142 -57.5zM317 1247q38 0 64.5 26.5t26.5 63.5t-27 64t-64 27t-63.5 -26.5t-26.5 -64.5q0 -37 26.5 -63.5t63.5 -26.5z" />
    <glyph glyph-name="ogonek" unicode="&#x2db;" horiz-adv-x="669" 
d="M495 -281q-115 -52 -196 -42.5t-123 60t-35 121.5q6 61 52.5 111.5t125.5 79.5l61 -50q-47 -26 -70 -58.5t-20 -62.5q4 -40 48 -50.5t109 13.5q32 10 59.5 -10t27.5 -53q0 -42 -39 -59z" />
    <glyph glyph-name="tilde" unicode="&#x2dc;" horiz-adv-x="1024" 
d="M520 1161q-7 3 -40.5 16t-42 15.5t-35 10t-39 6.5t-34 -2t-40 -9.5t-37.5 -21.5q-32 -21 -66 -2.5t-32 57.5q1 24 17 41q142 143 333 70q6 -2 40.5 -15.5t42 -15.5t35 -10.5t39.5 -7t34 2.5t40.5 9.5t37.5 21.5q32 21 66 2.5t32 -57.5q-1 -23 -18 -41q-142 -143 -333 -70
z" />
    <glyph glyph-name="hungarumlaut" unicode="&#x2dd;" horiz-adv-x="925" 
d="M190 1162q-28 7 -43 31.5t-10 53.5l53 302q6 36 39 56.5t70 11.5t55.5 -43t7.5 -71l-86 -293q-8 -27 -33 -41t-53 -7zM569 1154q-35 0 -56.5 28.5t-12.5 63.5l73 297q7 28 31 46t55 18q47 0 73.5 -39t9.5 -83l-106 -286q-8 -20 -26.5 -32.5t-40.5 -12.5z" />
    <glyph glyph-name="uni1E36" unicode="&#x1e36;" horiz-adv-x="1292" 
d="M1114 181q38 0 64 -26.5t26 -63.5q0 -38 -26.5 -64.5t-63.5 -26.5h-870q-39 0 -66.5 27.5t-27.5 66.5v1204q0 39 27.5 67t66.5 28t66.5 -28t27.5 -67v-1117h776zM677 -135q43 0 73 -30.5t30 -74.5t-30 -74.5t-73 -30.5t-73 30.5t-30 74.5t30 74.5t73 30.5z" />
    <glyph glyph-name="uni1E37" unicode="&#x1e37;" horiz-adv-x="483" 
d="M334 1341v-1249q0 -38 -27 -65t-65 -27t-65 27t-27 65v1249q0 38 27 65.5t65 27.5t65 -27.5t27 -65.5zM242 -135q43 0 73 -30.5t30 -74.5t-30 -74.5t-73 -30.5t-73.5 31t-30.5 74t30.5 74t73.5 31z" />
    <glyph glyph-name="Wgrave" unicode="&#x1e80;" horiz-adv-x="2527" 
d="M1174 1574l-165 230q-19 25 -19 56q0 38 27.5 65.5t65.5 27.5q57 0 83 -53l127 -253q17 -35 -4 -67.5t-59 -32.5q-35 0 -56 27zM2383 1389q36 -16 50 -52t-2 -72l-540 -1217q-12 -26 -36 -41t-51 -15t-51 15t-36 41l-453 1023l-454 -1023q-12 -26 -36 -41t-51 -15t-51 15
t-36 41l-540 1217q-16 36 -2 72t50 52t72.5 2t52.5 -50l454 -1031l454 1031q12 26 36 41t51 15v0q27 0 50.5 -15t35.5 -41l454 -1031l455 1031q16 36 52 50t72 -2z" />
    <glyph glyph-name="wgrave" unicode="&#x1e81;" horiz-adv-x="2017" 
d="M974 1160q-34 0 -55 27l-166 230q-19 25 -19 56q0 38 27.5 65.5t65.5 27.5q58 0 84 -53l126 -253q17 -35 -4 -67.5t-59 -32.5zM635 -6q-34 -16 -68.5 -3.5t-51.5 46.5l-412 841q-17 34 -4 71t47 53q34 17 70.5 4t52.5 -47l328 -680l329 680q14 29 45 43q34 16 68.5 3.5
t51.5 -46.5l329 -680l328 680q16 34 52.5 47t70.5 -4q34 -16 46.5 -53t-4.5 -71l-409 -837q-15 -34 -47 -47q-34 -16 -68.5 -3.5t-51.5 46.5l-329 672l-326 -668q-15 -34 -47 -47z" />
    <glyph glyph-name="Wacute" unicode="&#x1e82;" horiz-adv-x="2527" 
d="M1297 1547q-38 0 -59 32.5t-4 67.5l127 253q26 53 83 53q38 0 65.5 -27.5t27.5 -65.5q0 -31 -19 -56l-165 -230q-21 -27 -56 -27zM2383 1389q36 -16 50 -52t-2 -72l-540 -1217q-12 -26 -36 -41t-51 -15t-51 15t-36 41l-453 1023l-454 -1023q-12 -26 -36 -41t-51 -15
t-51 15t-36 41l-540 1217q-16 36 -2 72t50 52t72.5 2t52.5 -50l454 -1031l454 1031q12 26 36 41t51 15v0q27 0 50.5 -15t35.5 -41l454 -1031l455 1031q16 36 52 50t72 -2z" />
    <glyph glyph-name="wacute" unicode="&#x1e83;" horiz-adv-x="2017" 
d="M1097 1187q-21 -27 -56 -27q-39 0 -59.5 32.5t-3.5 67.5l127 253q26 53 84 53q38 0 65 -27.5t27 -65.5q0 -31 -19 -56zM635 -6q-34 -16 -68.5 -3.5t-51.5 46.5l-412 841q-17 34 -4 71t47 53q34 17 70.5 4t52.5 -47l328 -680l329 680q14 29 45 43q34 16 68.5 3.5
t51.5 -46.5l329 -680l328 680q16 34 52.5 47t70.5 -4q34 -16 46.5 -53t-4.5 -71l-409 -837q-15 -34 -47 -47q-34 -16 -68.5 -3.5t-51.5 46.5l-329 672l-326 -668q-15 -34 -47 -47z" />
    <glyph glyph-name="Wdieresis" unicode="&#x1e84;" horiz-adv-x="2527" 
d="M1069 1528q-43 0 -73 30.5t-30 74.5q0 43 30 73.5t73 30.5t73 -30.5t30 -73.5q0 -44 -30 -74.5t-73 -30.5zM1458 1528q-43 0 -73 30.5t-30 74.5q0 43 30 73.5t73 30.5t73 -30.5t30 -73.5q0 -44 -30 -74.5t-73 -30.5zM2383 1389q36 -16 50 -52t-2 -72l-540 -1217
q-12 -26 -36 -41t-51 -15t-51 15t-36 41l-453 1023l-454 -1023q-12 -26 -36 -41t-51 -15t-51 15t-36 41l-540 1217q-16 36 -2 72t50 52t72.5 2t52.5 -50l454 -1031l454 1031q12 26 36 41t51 15v0q27 0 50.5 -15t35.5 -41l454 -1031l455 1031q16 36 52 50t72 -2z" />
    <glyph glyph-name="wdieresis" unicode="&#x1e85;" horiz-adv-x="2017" 
d="M813 1141q-43 0 -73 30.5t-30 74.5t30 74.5t73 30.5t73.5 -31t30.5 -74t-30.5 -74t-73.5 -31zM1202 1141q-43 0 -73 30.5t-30 74.5t30 74.5t73 30.5t73.5 -31t30.5 -74t-30.5 -74t-73.5 -31zM635 -6q-34 -16 -68.5 -3.5t-51.5 46.5l-412 841q-17 34 -4 71t47 53
q34 17 70.5 4t52.5 -47l328 -680l329 680q14 29 45 43q34 16 68.5 3.5t51.5 -46.5l329 -680l328 680q16 34 52.5 47t70.5 -4q34 -16 46.5 -53t-4.5 -71l-409 -837q-15 -34 -47 -47q-34 -16 -68.5 -3.5t-51.5 46.5l-329 672l-326 -668q-15 -34 -47 -47z" />
    <glyph glyph-name="uni1E92" unicode="&#x1e92;" horiz-adv-x="1456" 
d="M1217 181q37 0 63.5 -26.5t26.5 -63.5q0 -38 -26.5 -64.5t-63.5 -26.5h-977q-37 0 -63.5 26.5t-26.5 64.5q0 39 27 64l829 1056h-748q-38 0 -64.5 26.5t-26.5 64.5t26.5 64.5t64.5 26.5h944q38 0 64.5 -26.5t26.5 -64.5q0 -35 -25 -62l-831 -1059h780zM729 -135
q43 0 73 -30.5t30 -74.5t-30 -74.5t-73 -30.5t-73.5 31t-30.5 74t30.5 74t73.5 31z" />
    <glyph glyph-name="uni1E93" unicode="&#x1e93;" 
d="M1084 174q36 0 62 -25.5t26 -61.5t-26 -61.5t-62 -25.5h-847q-36 0 -61.5 25.5t-25.5 61.5q0 39 26 63l667 682h-586q-36 0 -61.5 25.5t-25.5 61.5t25.5 61.5t61.5 25.5h807q36 0 61.5 -25.5t25.5 -61.5q0 -37 -25 -62l-669 -683h627zM661 -135q43 0 73 -30.5t30 -74.5
t-30 -74.5t-73 -30.5t-73.5 31t-30.5 74t30.5 74t73.5 31z" />
    <glyph glyph-name="uni1EA1" unicode="&#x1ea1;" 
d="M1079 1006q38 0 65 -27t27 -65v-822q0 -38 -27 -65t-65 -27t-65 27t-27 65v71q-68 -86 -164.5 -134.5t-206.5 -48.5q-99 0 -189 41t-155.5 111t-104 167t-38.5 203q0 143 65 263.5t177.5 190.5t244.5 70q110 0 206.5 -48.5t164.5 -134.5v71q0 38 27 65t65 27zM652 154
q140 0 239.5 102t99.5 247t-99.5 247t-239.5 102t-239.5 -102t-99.5 -247t99.5 -247t239.5 -102zM616 -135q43 0 73 -30.5t30 -74.5t-30 -74.5t-73 -30.5t-73 30.5t-30 74.5t30 74.5t73 30.5z" />
    <glyph glyph-name="uni1EB8" unicode="&#x1eb8;" horiz-adv-x="1292" 
d="M1052 181q38 0 64.5 -26.5t26.5 -63.5t-26.5 -64t-64.5 -27h-808q-39 0 -66.5 27.5t-27.5 66.5v1204q0 39 27.5 67t66.5 28h808q38 0 64.5 -26.5t26.5 -64.5t-26.5 -64.5t-64.5 -26.5h-714v-465h604q37 0 63.5 -26.5t26.5 -64.5q0 -37 -26 -63.5t-64 -26.5h-604v-384h714
zM646 -135q43 0 73 -30.5t30 -74.5t-30 -74.5t-73 -30.5t-73 30.5t-30 74.5t30 74.5t73 30.5z" />
    <glyph glyph-name="uni1EB9" unicode="&#x1eb9;" horiz-adv-x="1263" 
d="M632 1026q137 0 252.5 -69.5t183 -190t67.5 -262.5q0 -4 -0.5 -11t-0.5 -11q-1 -37 -27.5 -63t-64.5 -26h-716q28 -115 115.5 -177t217.5 -62q149 2 302 78q11 5 30 5q36 0 61.5 -25.5t25.5 -61.5q0 -27 -16 -49.5t-41 -31.5q-185 -90 -362 -90q-238 0 -384 142t-146 382
q0 142 67.5 262.5t183 190.5t252.5 70zM632 852q-117 0 -205.5 -82.5t-108.5 -206.5h628q-20 124 -108.5 206.5t-205.5 82.5zM632 -135q43 0 73 -30.5t30 -74.5t-30 -74.5t-73 -30.5t-73.5 31t-30.5 74t30.5 74t73.5 31z" />
    <glyph glyph-name="uni1EBC" unicode="&#x1ebc;" horiz-adv-x="1292" 
d="M385 1562q-32 -21 -66 -2t-32 58q1 23 17 40q142 144 333 71q6 -2 40.5 -15.5t42 -15.5t35 -10.5t39.5 -7t34 2.5t40.5 9.5t37.5 21.5q32 21 66 2.5t32 -57.5q-1 -23 -18 -41q-142 -144 -333 -71q-7 3 -40.5 16t-42 15.5t-35 10t-39 6.5t-34 -2t-40 -9.5t-37.5 -21.5z
M1052 181q38 0 64.5 -26.5t26.5 -63.5t-26.5 -64t-64.5 -27h-808q-39 0 -67 27.5t-28 66.5v1204q0 39 28 67t67 28h808q38 0 64.5 -26.5t26.5 -64.5t-26.5 -64.5t-64.5 -26.5h-714v-465h604q37 0 63.5 -26.5t26.5 -64.5q0 -37 -26 -63.5t-64 -26.5h-604v-384h714z" />
    <glyph glyph-name="uni1EBD" unicode="&#x1ebd;" horiz-adv-x="1263" 
d="M371 1176q-32 -22 -66.5 -3t-32.5 58q1 23 18 41q142 143 333 70q7 -3 40.5 -16t42 -15.5t35 -10t39 -6.5t34 2t40 9.5t37.5 21.5q32 22 66.5 3t32.5 -58q-1 -23 -18 -41q-142 -143 -333 -70q-7 3 -40.5 16t-42 15.5t-35 10t-39 6.5t-34 -2t-40 -9.5t-37.5 -21.5z
M632 1026q137 0 252.5 -69.5t183 -190t67.5 -262.5q0 -4 -0.5 -11t-0.5 -11q-1 -37 -27.5 -63t-64.5 -26h-716q28 -115 115.5 -177t217.5 -62q149 2 302 78q11 5 30 5q36 0 61.5 -25.5t25.5 -61.5q0 -27 -16 -49.5t-41 -31.5q-185 -90 -362 -90q-238 0 -384 142t-146 382
q0 142 67.5 262.5t183 190.5t252.5 70zM632 852q-117 0 -205.5 -82.5t-108.5 -206.5h628q-20 124 -108.5 206.5t-205.5 82.5z" />
    <glyph glyph-name="uni1ECA" unicode="&#x1eca;" horiz-adv-x="194" 
d="M135 1298v-1204q0 -39 -11 -66.5t-27 -27.5t-26.5 27.5t-10.5 66.5v1204q0 39 10.5 67t26.5 28t27 -28t11 -67zM97 -135q17 0 29.5 -31t12.5 -74t-12.5 -74t-29.5 -31t-29 30.5t-12 74.5t12 74.5t29 30.5z" />
    <glyph glyph-name="uni1ECB" unicode="&#x1ecb;" horiz-adv-x="512" 
d="M256 1141q-46 0 -78 32.5t-32 79.5t32 79.5t78 32.5t78 -32.5t32 -79.5t-32 -79.5t-78 -32.5zM348 914v-822q0 -38 -27 -65t-65 -27t-65 27t-27 65v822q0 38 27 65t65 27t65 -27t27 -65zM256 -135q46 0 78 -32.5t32 -79.5t-32 -79.5t-78 -32.5t-78 32.5t-32 79.5t32 79.5
t78 32.5z" />
    <glyph glyph-name="Ygrave" unicode="&#x1ef2;" horiz-adv-x="1404" 
d="M613 1574l-165 230q-19 25 -19 56q0 38 27 65.5t65 27.5q58 0 84 -53l127 -253q17 -35 -4 -67.5t-59 -32.5q-35 0 -56 27zM1273 1379q33 -21 41 -59t-13 -71l-505 -777v-387q0 -39 -27.5 -66.5t-66.5 -27.5t-66.5 27.5t-27.5 66.5v386l-505 778q-21 33 -13 71t41 59
t71.5 12.5t59.5 -41.5l440 -682l441 682q21 33 59 41.5t71 -12.5z" />
    <glyph glyph-name="ygrave" unicode="&#x1ef3;" horiz-adv-x="1292" 
d="M601 1160q-35 0 -56 27l-165 230q-19 25 -19 56q0 38 27.5 65.5t65.5 27.5q58 0 84 -53l126 -253q17 -35 -4 -67.5t-59 -32.5zM617 -452q-202 -2 -411 100q-25 11 -40 33.5t-15 50.5q0 50 41.5 77t86.5 7q168 -84 337 -84q160 0 251 85t91 252v91q-60 -83 -152.5 -131.5
t-199.5 -48.5q-186 0 -317.5 131.5t-131.5 317.5v485q0 38 27 65t65 27t65 -27t27 -65v-442q0 -132 90.5 -225t218.5 -93q127 0 216.5 91.5t91.5 222.5v446q0 38 27 65.5t65 27.5t65 -27.5t27 -65.5v-845q0 -242 -142 -380.5t-383 -140.5z" />
    <glyph glyph-name="uni1EF8" unicode="&#x1ef8;" horiz-adv-x="1404" 
d="M441 1562q-32 -21 -66 -2t-32 58q1 23 17 40q142 144 333 71q6 -2 40.5 -15.5t42 -15.5t35 -10.5t39.5 -7t34 2.5t40.5 9.5t37.5 21.5q32 21 66 2.5t32 -57.5q-1 -23 -18 -41q-142 -144 -333 -71q-7 3 -40.5 16t-42 15.5t-35 10t-39 6.5t-34 -2t-40 -9.5t-37.5 -21.5z
M1273 1379q33 -21 41 -59t-13 -71l-505 -777v-387q0 -39 -27.5 -66.5t-66.5 -27.5t-66.5 27.5t-27.5 66.5v386l-505 778q-21 33 -13 71t41 59t71.5 12.5t59.5 -41.5l440 -682l441 682q21 33 59 41.5t71 -12.5z" />
    <glyph glyph-name="uni1EF9" unicode="&#x1ef9;" horiz-adv-x="1292" 
d="M642 1161q-7 3 -40.5 16t-42 15.5t-35 10t-39 6.5t-34 -2t-40 -9.5t-37.5 -21.5q-32 -22 -66.5 -3t-32.5 58q1 23 18 41q142 143 333 70q7 -3 40.5 -16t42 -15.5t35 -10t39 -6.5t34 2t40 9.5t37.5 21.5q32 22 66.5 3t32.5 -58q-1 -23 -18 -41q-142 -143 -333 -70z
M617 -452q-202 -2 -411 100q-25 11 -40 33.5t-15 50.5q0 50 41.5 77t86.5 7q168 -84 337 -84q160 0 251 85t91 252v91q-60 -83 -152.5 -131.5t-199.5 -48.5q-186 0 -317.5 131.5t-131.5 317.5v485q0 38 27 65t65 27t65 -27t27 -65v-442q0 -132 90.5 -225t218.5 -93
q127 0 216.5 91.5t91.5 222.5v446q0 38 27 65.5t65 27.5t65 -27.5t27 -65.5v-845q0 -242 -142 -380.5t-383 -140.5z" />
    <glyph glyph-name="endash" unicode="&#x2013;" horiz-adv-x="1173" 
d="M94 503q0 35 25 60t60 25h815q35 0 60 -25t25 -60t-25 -60t-60 -25h-815q-35 0 -60 25t-25 60z" />
    <glyph glyph-name="emdash" unicode="&#x2014;" horiz-adv-x="1974" 
d="M94 503q0 35 25 60t60 25h1616q35 0 60 -25t25 -60t-25 -60t-60 -25h-1616q-35 0 -60 25t-25 60z" />
    <glyph glyph-name="quoteleft" unicode="&#x2018;" horiz-adv-x="456" 
d="M229 925q-29 0 -49.5 19.5t-22.5 48.5l-18 438q-2 38 25 66t65 28t64 -28t25 -66l-18 -438q-2 -29 -22 -48.5t-49 -19.5z" />
    <glyph glyph-name="quoteright" unicode="&#x2019;" horiz-adv-x="456" 
d="M229 925q-29 0 -49.5 19.5t-22.5 48.5l-18 438q-2 38 25 66t65 28t64 -28t25 -66l-18 -438q-2 -29 -22 -48.5t-49 -19.5z" />
    <glyph glyph-name="quotesinglbase" unicode="&#x201a;" horiz-adv-x="800" 
d="M190 -373q-44 0 -64.5 39.5t4.5 75.5q51 69 75.5 134t32.5 147q3 40 33 67.5t70 27.5q44 0 74.5 -31t29.5 -74q-3 -74 -62 -179t-143 -187q-20 -20 -50 -20z" />
    <glyph glyph-name="quotedblleft" unicode="&#x201c;" horiz-adv-x="792" 
d="M229 925q-29 0 -49.5 19.5t-22.5 48.5l-18 438q-2 38 25 66t65 28t64 -28t25 -66l-18 -438q-2 -29 -22 -48.5t-49 -19.5zM564 925q-29 0 -49.5 19.5t-22.5 48.5l-17 438q-2 38 24.5 66t64.5 28t64 -28t25 -66l-17 -438q-2 -29 -22.5 -48.5t-49.5 -19.5z" />
    <glyph glyph-name="quotedblright" unicode="&#x201d;" horiz-adv-x="792" 
d="M229 925q-29 0 -49.5 19.5t-22.5 48.5l-18 438q-2 38 25 66t65 28t64 -28t25 -66l-18 -438q-2 -29 -22 -48.5t-49 -19.5zM564 925q-29 0 -49.5 19.5t-22.5 48.5l-17 438q-2 38 24.5 66t64.5 28t64 -28t25 -66l-17 -438q-2 -29 -22.5 -48.5t-49.5 -19.5z" />
    <glyph glyph-name="quotedblbase" unicode="&#x201e;" horiz-adv-x="800" 
d="M341 118q44 0 74.5 -31t29.5 -74q-3 -74 -62 -179t-143 -187q-20 -20 -50 -20q-44 0 -64.5 39.5t4.5 75.5q51 69 75.5 134t32.5 147q3 40 33 67.5t70 27.5z" />
    <glyph glyph-name="bullet" unicode="&#x2022;" horiz-adv-x="641" 
d="M320 333q-70 0 -119 49.5t-49 120.5t49 120.5t119 49.5t119 -49.5t49 -120.5t-49 -120.5t-119 -49.5z" />
    <glyph glyph-name="ellipsis" unicode="&#x2026;" horiz-adv-x="1112" 
d="M904 -24q-47 0 -80 33.5t-33 81.5t33 81.5t80 33.5t80.5 -33.5t33.5 -81.5t-33.5 -81.5t-80.5 -33.5zM208 -25q-47 0 -80.5 33.5t-33.5 81.5t33.5 81.5t80.5 33.5t80 -33.5t33 -81.5t-33 -81.5t-80 -33.5zM556 -25q-47 0 -80.5 33.5t-33.5 81.5t33.5 81.5t80.5 33.5
t80 -33.5t33 -81.5t-33 -81.5t-80 -33.5z" />
    <glyph glyph-name="perthousand" unicode="&#x2030;" horiz-adv-x="2445" 
d="M551 10q-15 -26 -42.5 -33.5t-53.5 7.5q-26 14 -33.5 42.5t7.5 54.5l728 1261q15 25 43.5 32.5t53.5 -6.5q25 -15 32 -43.5t-7 -53.5zM454 676q-148 0 -226 98t-78 250t78 250t226 98t226 -98t78 -250t-78 -250t-226 -98zM454 807q79 0 121 61t42 156t-42 156t-121 61
t-121 -61t-42 -156t42 -156t121 -61zM1262 -20q-144 0 -220.5 98t-76.5 250t76.5 250t220.5 98t220.5 -98t76.5 -250t-76.5 -250t-220.5 -98zM1999 -20q-144 0 -220.5 98t-76.5 250t76.5 250t220.5 98t220.5 -98t76.5 -250t-76.5 -250t-220.5 -98zM1262 111q76 0 116 61
t40 156t-40 156t-116 61t-116 -61t-40 -156t40 -156t116 -61zM1999 111q76 0 116 61t40 156t-40 156t-116 61q-75 0 -115 -61t-40 -156t40 -156t115 -61z" />
    <glyph glyph-name="guilsinglleft" unicode="&#x2039;" horiz-adv-x="614" 
d="M256 491l273 -336q17 -20 17 -49q0 -32 -23.5 -55t-55.5 -23q-37 0 -60 28l-311 366q-28 34 -28 69t28 69l311 366q24 29 60 29q32 0 55.5 -23.5t23.5 -55.5q0 -29 -17 -49z" />
    <glyph glyph-name="guilsinglright" unicode="&#x203a;" horiz-adv-x="614" 
d="M358 491l-273 336q-17 20 -17 49q0 32 23 55.5t55 23.5q37 0 61 -29l310 -366q29 -35 29 -69t-29 -69l-310 -366q-23 -28 -61 -28q-32 0 -55 23t-23 55q0 29 17 49z" />
    <glyph glyph-name="fraction" unicode="&#x2044;" horiz-adv-x="876" 
d="M149 -99q-36 13 -52 48t-3 71l515 1416q13 36 47.5 52t70.5 3t52 -47.5t3 -70.5l-515 -1416q-13 -36 -47.5 -52.5t-70.5 -3.5z" />
    <glyph glyph-name="Euro" unicode="&#x20ac;" horiz-adv-x="1390" 
d="M1163 181q38 1 65.5 -26t27.5 -65q0 -32 -19.5 -56t-49.5 -32q-85 -22 -178 -22q-227 0 -410.5 126.5t-262.5 330.5h-157q-35 0 -60 25t-25 60t25 60t60 25h114q-5 36 -5 89q0 44 4 77h-113q-35 0 -60 25t-25 60t25 60t60 25h153q77 208 262 339t415 131q93 0 178 -22
q30 -8 49.5 -32.5t19.5 -56.5q0 -38 -27.5 -64.5t-65.5 -25.5q-8 1 -38.5 7t-59.5 9.5t-56 3.5q-152 0 -278.5 -79t-194.5 -210h418q35 0 60 -25t25 -60t-25 -60t-60 -25h-472q-6 -37 -6 -77q0 -43 8 -89h470q35 0 60 -25t25 -60t-25 -60t-60 -25h-411q69 -126 193.5 -201
t272.5 -75q27 0 55.5 3.5t62 9.5t36.5 7z" />
    <glyph glyph-name="partialdiff" unicode="&#x2202;" horiz-adv-x="1228" 
 />
    <glyph glyph-name="emptyset" unicode="&#x2205;" horiz-adv-x="1228" 
 />
    <glyph glyph-name="product" unicode="&#x220f;" horiz-adv-x="1427" 
d="M1200 1434q38 0 65 -27.5t27 -65.5v-1700q0 -38 -27 -65.5t-65 -27.5t-65 27.5t-27 65.5v1618h-789v-1618q0 -38 -27 -65.5t-65 -27.5t-65 27.5t-27 65.5v1700q0 38 27 65.5t65 27.5h973z" />
    <glyph glyph-name="summation" unicode="&#x2211;" horiz-adv-x="1228" 
 />
    <glyph glyph-name="minus" unicode="&#x2212;" horiz-adv-x="1232" 
d="M261 591q-35 0 -60 25t-25 60t25 60t60 25h711q35 0 60 -25t25 -60t-25 -60t-60 -25h-711z" />
    <glyph glyph-name="radical" unicode="&#x221a;" horiz-adv-x="1228" 
 />
    <glyph glyph-name="infinity" unicode="&#x221e;" horiz-adv-x="1228" 
 />
    <glyph glyph-name="integral" unicode="&#x222b;" horiz-adv-x="1228" 
 />
    <glyph glyph-name="approxequal" unicode="&#x2248;" horiz-adv-x="1228" 
 />
    <glyph glyph-name="notequal" unicode="&#x2260;" horiz-adv-x="1273" 
d="M1013 546q35 0 60 -25t25 -60t-25 -60t-60 -25h-371l-54 -204q-9 -34 -39.5 -51.5t-64.5 -8.5t-51.5 39.5t-8.5 64.5l42 160h-205q-35 0 -60 25t-25 60t25 60t60 25h251l65 241h-316q-35 0 -60 25t-25 60t25 60t60 25h361l60 223q9 34 39.5 51.5t64.5 8.5t51.5 -39.5
t8.5 -64.5l-48 -179h215q35 0 60 -25t25 -60t-25 -60t-60 -25h-260l-65 -241h325z" />
    <glyph glyph-name="lessequal" unicode="&#x2264;" horiz-adv-x="1241" 
d="M1004 633q27 -8 44 -31t16 -52q-1 -42 -36 -66.5t-75 -11.5l-723 259q-24 8 -39 28.5t-15 46.5t15 47.5t39 28.5l723 258q40 13 75 -11t36 -66q1 -29 -16 -52.5t-44 -31.5l-506 -173zM971 349q35 0 60 -25t25 -60t-25 -60t-60 -25h-702q-35 0 -60 25t-25 60t25 60t60 25
h702z" />
    <glyph glyph-name="greaterequal" unicode="&#x2265;" horiz-adv-x="1241" 
d="M1011 882q24 -7 39 -28.5t15 -47.5t-15 -46.5t-39 -28.5l-723 -259q-40 -13 -75 11.5t-36 66.5q-1 29 16 52t44 31l506 173l-506 173q-27 8 -44 31.5t-16 52.5q1 42 36 66t75 11zM972 349q35 0 60 -25t25 -60t-25 -60t-60 -25h-702q-35 0 -60 25t-25 60t25 60t60 25h702z
" />
    <glyph glyph-name="i.loclTRK" horiz-adv-x="483" 
d="M242 1141q-43 0 -73.5 31t-30.5 74t30.5 74t73.5 31t73 -30.5t30 -74.5t-30 -74.5t-73 -30.5zM242 0q-38 0 -65 27t-27 65v822q0 38 27 65t65 27t65 -27t27 -65v-822q0 -38 -27 -65t-65 -27z" />
    </font>
</defs>
</svg>
