<svg width="18" height="14" viewBox="0 0 18 14" fill="none" xmlns="http://www.w3.org/2000/svg">
<path d="M1.58203 0H16.418C17.2892 0 18 0.710016 18 1.58203V12.1289C18 12.998 17.2924 13.7109 16.418 13.7109H1.58203C0.712969 13.7109 0 13.0033 0 12.1289V1.58203C0 0.712969 0.707624 0 1.58203 0ZM1.80049 1.05469L8.96646 8.22069L16.1944 1.05469H1.80049ZM16.9453 11.9105V1.79539L11.866 6.83118L16.9453 11.9105ZM16.1995 12.6562L11.117 7.57371L9.33609 9.33933C9.12994 9.54373 8.79725 9.54306 8.59194 9.33771L6.85547 7.60124L1.80046 12.6562H16.1995ZM1.05469 11.9105L6.1097 6.85547L1.05469 1.80042V11.9105Z" fill="white"/>
</svg>
