<?xml version="1.0" standalone="no"?>
<!DOCTYPE svg PUBLIC "-//W3C//DTD SVG 1.1//EN" "http://www.w3.org/Graphics/SVG/1.1/DTD/svg11.dtd" >
<svg xmlns="http://www.w3.org/2000/svg" xmlns:xlink="http://www.w3.org/1999/xlink" version="1.1">
<metadata>
Created by FontForge 20170731 at Fri Nov 12 10:54:04 2021
 By Aleksey,,,
Copyright (c) 2016 by Reghardt Grobbelaar. All rights reserved.
</metadata>
<defs>
<font id="PollyRounded-Light" horiz-adv-x="1273" >
  <font-face 
    font-family="Polly Rounded Light"
    font-weight="300"
    font-stretch="normal"
    units-per-em="2048"
    panose-1="0 0 4 0 0 0 0 0 0 0"
    ascent="1638"
    descent="-410"
    x-height="988"
    cap-height="1393"
    bbox="-137 -504 2523 1965.38"
    underline-thickness="102"
    underline-position="-307"
    unicode-range="U+0020-2265"
  />
<missing-glyph horiz-adv-x="933" 
d="M766 1434v-1869h-592v1869h592zM622 1308h-308v-61h121v-69h-123v-62h310v62h-123v69h123v61zM499 1067h-187v-194h310v64h-123v130zM435 1004v-67h-61v67h61zM622 823h-310v-62h123v-69h-123v-62h187v131h123v62zM622 711h-62v-124h-248v-63h310v187zM622 483h-187v-105
h64v43h61v-88h-186v150h-62v-211h310v211zM622 159h-310v-211h310v211zM560 98v-88h-186v88h186zM622 -95h-310v-61h131l-131 -88v-62h310v62h-190l130 88h60v61z" />
    <glyph glyph-name=".notdef" horiz-adv-x="933" 
d="M766 1434v-1869h-592v1869h592zM622 1308h-308v-61h121v-69h-123v-62h310v62h-123v69h123v61zM499 1067h-187v-194h310v64h-123v130zM435 1004v-67h-61v67h61zM622 823h-310v-62h123v-69h-123v-62h187v131h123v62zM622 711h-62v-124h-248v-63h310v187zM622 483h-187v-105
h64v43h61v-88h-186v150h-62v-211h310v211zM622 159h-310v-211h310v211zM560 98v-88h-186v88h186zM622 -95h-310v-61h131l-131 -88v-62h310v62h-190l130 88h60v61z" />
    <glyph glyph-name=".null" horiz-adv-x="0" 
 />
    <glyph glyph-name="nonmarkingreturn" horiz-adv-x="682" 
 />
    <glyph glyph-name="space" unicode=" " horiz-adv-x="913" 
 />
    <glyph glyph-name="exclam" unicode="!" horiz-adv-x="405" 
d="M202 304q-13 0 -21.5 9t-9.5 22l-13 1012q-1 19 12 32.5t32 13.5t32 -13.5t12 -32.5l-12 -1012q-1 -13 -10 -22t-22 -9zM202 -13q-25 0 -42 17t-17 42t17 42t42 17t42 -17t17 -42t-17 -42t-42 -17z" />
    <glyph glyph-name="quotedbl" unicode="&#x22;" horiz-adv-x="669" 
d="M197 930q-11 0 -19 7.5t-8 18.5l-11 524q-1 16 10.5 27.5t27.5 11.5t27.5 -11.5t10.5 -27.5l-11 -524q0 -11 -8 -18.5t-19 -7.5zM472 930q-11 0 -19 7.5t-8 18.5l-11 524q-1 16 10.5 27.5t27.5 11.5t27.5 -11.5t10.5 -27.5l-12 -524q0 -11 -7.5 -18.5t-18.5 -7.5z" />
    <glyph glyph-name="numbersign" unicode="#" horiz-adv-x="1521" 
d="M1328 982q14 0 23.5 -10t9.5 -23t-9.5 -23t-23.5 -10h-255l-62 -440h246q13 0 23 -10t10 -23t-9.5 -22.5t-23.5 -9.5h-255l-54 -386q-1 -13 -11 -21t-23 -8q-15 0 -25.5 12t-8.5 27l53 376h-437l-54 -386q-1 -13 -11 -21t-23 -8q-15 0 -25 12t-8 27l52 376h-234
q-13 0 -22.5 9.5t-9.5 22.5q0 14 9.5 23.5t22.5 9.5h244l61 440h-233q-13 0 -23 10t-10 23t10 23t23 10h243l54 385q1 13 10.5 21t22.5 8q15 0 25.5 -11.5t8.5 -26.5l-53 -376h437l55 385q1 13 10.5 21t22.5 8q15 0 25.5 -11.5t8.5 -26.5l-53 -376h246zM942 476l62 440h-437
l-62 -440h437z" />
    <glyph glyph-name="dollar" unicode="$" horiz-adv-x="1329" 
d="M1188 361q0 -81 -32.5 -147t-83.5 -108t-118 -70.5t-131 -41t-128 -14.5v-175q0 -14 -10 -24t-24 -10t-24.5 10t-10.5 24v176q-215 14 -467 154q-19 10 -19 33q0 21 18 32t37 1q266 -147 480 -147q54 0 110.5 9t116.5 31.5t106 55.5t76 87t30 120q0 52 -15.5 92t-52 68
t-69.5 46t-95.5 32.5t-100.5 21t-112 16.5q-66 9 -115.5 18t-106 24t-97.5 33.5t-80 45.5t-63.5 60.5t-39.5 79.5t-15 101q0 93 39 170t105.5 128t151 81.5t178.5 36.5v177q0 14 10.5 24t24.5 10t24 -10t10 -24v-175q240 -6 458 -158q18 -13 18 -32q0 -16 -10.5 -26.5
t-26.5 -10.5q-11 0 -20 6q-209 147 -440 147q-188 0 -317.5 -93.5t-130.5 -246.5q0 -64 29 -112.5t60 -74.5t107 -48.5t112 -29t131 -20.5q3 -1 4 -1q69 -10 120.5 -19.5t108.5 -25t97.5 -33t79 -44t62 -58.5t37.5 -75.5t14 -96.5z" />
    <glyph glyph-name="percent" unicode="%" horiz-adv-x="1658" 
d="M473 -4q-7 -11 -19 -15t-23 3t-15 19.5t3 23.5l768 1329q7 11 19 15t23 -3t15 -19.5t-3 -23.5zM459 676q-145 0 -221.5 98t-76.5 250t76.5 250t221.5 98t222 -98t77 -250t-77 -250t-222 -98zM459 736q115 0 175.5 81t60.5 207t-60.5 207t-175.5 81t-175.5 -81t-60.5 -207
t60.5 -207t175.5 -81zM1202 -20q-144 0 -220.5 98t-76.5 250t76.5 250t220.5 98t220.5 -98t76.5 -250t-76.5 -250t-220.5 -98zM1202 40q114 0 174.5 81t60.5 207t-60.5 207t-174.5 81t-174 -81t-60 -207t60 -207t174 -81z" />
    <glyph glyph-name="ampersand" unicode="&#x26;" horiz-adv-x="1200" 
d="M1004 212q23 0 32 -21t-6 -37q-57 -80 -152.5 -124.5t-214.5 -49.5v-136q0 -14 -10.5 -24t-24.5 -10t-24 10t-10 24v136q-124 6 -220 48.5t-154.5 128t-58.5 204.5q0 134 71.5 222t195.5 127q-118 36 -186.5 116.5t-68.5 200.5q0 160 117 248t304 96v137q0 14 10 24
t24 10t24.5 -10t10.5 -24v-137q179 -8 292 -90q16 -11 16 -29q0 -14 -10.5 -24.5t-24.5 -10.5q-11 0 -20 6q-108 80 -287 80q-169 0 -277 -71.5t-108 -206.5t108 -206.5t277 -71.5h298q14 0 24.5 -10t10.5 -24t-10.5 -24.5t-24.5 -10.5h-298q-112 0 -200 -33.5t-142.5 -106
t-54.5 -175.5t54.5 -175.5t142 -105.5t200.5 -33q115 0 206.5 38t142.5 113q10 12 26 12z" />
    <glyph glyph-name="quotesingle" unicode="'" horiz-adv-x="393" 
d="M197 930q-11 0 -19 7.5t-8 18.5l-11 524q-1 16 10.5 27.5t27.5 11.5t27.5 -11.5t10.5 -27.5l-11 -524q0 -11 -8 -18.5t-19 -7.5z" />
    <glyph glyph-name="parenleft" unicode="(" horiz-adv-x="559" 
d="M446 -497q-20 0 -30 18q-276 500 -276 972.5t276 972.5q10 19 30 19t30 -17t1 -34q-268 -484 -268 -940t268 -940q9 -17 -1.5 -34t-29.5 -17z" />
    <glyph glyph-name="parenright" unicode=")" horiz-adv-x="559" 
d="M113 -497q-19 0 -29 17t-1 34q268 484 268 940t-268 940q-9 17 0.5 34t29.5 17t30 -19q276 -500 276 -972.5t-276 -972.5q-10 -18 -30 -18z" />
    <glyph glyph-name="asterisk" unicode="*" horiz-adv-x="573" 
d="M286 975q-13 0 -21.5 9.5t-7.5 22.5l2 155l-134 -79q-12 -8 -27 -2.5t-18 20.5q-7 22 15 33l136 76l-136 76q-22 11 -15 33q3 15 17.5 21t27.5 -2l134 -79l-2 155q-1 13 7.5 22.5t21.5 9.5t22 -9.5t8 -22.5l-2 -155l134 79q12 8 26.5 2t17.5 -21q7 -23 -14 -33l-136 -76
l136 -76q21 -10 14 -33q-3 -15 -17 -20.5t-27 2.5l-134 79l2 -155q1 -13 -8 -22.5t-22 -9.5z" />
    <glyph glyph-name="plus" unicode="+" 
d="M1041 710q14 0 24 -10t10 -24t-10 -24t-24 -10h-370v-370q0 -14 -10 -24t-24 -10t-24 10t-10 24v370h-370q-14 0 -24 10t-10 24t10 24t24 10h370v370q0 14 10 24t24 10t24 -10t10 -24v-370h370z" />
    <glyph glyph-name="comma" unicode="," horiz-adv-x="466" 
d="M155 -342q-17 0 -24.5 15t2.5 29q106 135 124 331q1 16 13.5 27.5t29.5 11.5q18 0 30.5 -13.5t11.5 -32.5q-24 -210 -167 -360q-8 -8 -20 -8z" />
    <glyph glyph-name="hyphen" unicode="-" horiz-adv-x="1185" 
d="M117 494q0 14 10 24t24 10h883q14 0 24 -10t10 -24t-10 -24t-24 -10h-883q-14 0 -24 10t-10 24z" />
    <glyph glyph-name="period" unicode="." horiz-adv-x="352" 
d="M176 -13q-25 0 -42 17t-17 42t17 42t42 17t42 -17t17 -42t-17 -42t-42 -17z" />
    <glyph glyph-name="slash" unicode="/" horiz-adv-x="716" 
d="M104 -421q-14 4 -21 16.5t-3 25.5l491 1833q4 14 16.5 21t25.5 3q14 -4 21 -16.5t3 -25.5l-491 -1832q-4 -14 -16.5 -21.5t-25.5 -3.5z" />
    <glyph glyph-name="zero" unicode="0" horiz-adv-x="1320" 
d="M660 -20q-103 0 -189 35.5t-146.5 98.5t-102.5 150.5t-62 191t-20 220.5t20 220.5t62 191t102.5 150.5t146.5 98.5t189 35.5t189 -35.5t146.5 -98.5t102.5 -150.5t62 -191t20 -220.5t-20 -220.5t-62 -191t-102.5 -150.5t-146.5 -98.5t-189 -35.5zM660 49q111 0 197.5 49
t140.5 135t82 198.5t28 244.5t-28 244.5t-82 198.5t-140.5 135t-197.5 49t-197.5 -49t-140.5 -135t-82 -198.5t-28 -244.5t28 -244.5t82 -198.5t140.5 -135t197.5 -49z" />
    <glyph glyph-name="one" unicode="1" horiz-adv-x="450" 
d="M255 1352q15 0 25.5 -10.5t10.5 -25.5v-1280q0 -15 -10.5 -25.5t-25.5 -10.5t-25.5 10.5t-10.5 25.5v1246h-85q-14 0 -24.5 10.5t-10.5 24.5t10.5 24.5t24.5 10.5h121z" />
    <glyph glyph-name="two" unicode="2" horiz-adv-x="1277" 
d="M1067 69q14 0 24.5 -10.5t10.5 -24.5t-10.5 -24t-24.5 -10h-871q-14 0 -24.5 10t-10.5 24q0 25 22 33q115 49 232 116.5t231 156.5t202 184t142 204t54 212q0 71 -24 133.5t-71.5 115t-130.5 83t-192 30.5q-192 0 -292 -99t-102 -283q-1 -14 -11 -23.5t-23 -9.5
q-15 0 -25 11t-9 25q-2 211 119.5 330t342.5 119t354.5 -117t134.5 -315q0 -103 -45 -208t-119.5 -195t-178 -177.5t-212 -157.5t-230.5 -133h737z" />
    <glyph glyph-name="three" unicode="3" horiz-adv-x="1200" 
d="M772 710q124 -39 195.5 -127t71.5 -222q0 -125 -64 -212.5t-167.5 -128t-236.5 -40.5q-131 0 -236 44t-165 130q-15 16 -6 37t32 21q16 0 26 -12q51 -75 142.5 -113t206.5 -38q113 0 200.5 33t142 105.5t54.5 175.5t-54.5 175.5t-142.5 106t-200 33.5h-81
q-14 0 -24.5 10.5t-10.5 24.5t10.5 24t24.5 10h81q169 0 277 71.5t108 206.5t-108 206.5t-277 71.5q-179 0 -287 -80q-9 -6 -20 -6q-14 0 -24.5 10.5t-10.5 24.5q0 19 15 29q125 91 327 91q129 0 230 -36.5t163.5 -116t62.5 -192.5q0 -120 -68.5 -200.5t-186.5 -116.5z" />
    <glyph glyph-name="four" unicode="4" horiz-adv-x="1269" 
d="M1095 298q14 0 24 -10.5t10 -24.5t-10 -24.5t-24 -10.5h-198v-192q0 -15 -10.5 -25.5t-25.5 -10.5t-25 10.5t-10 25.5v192h-692q-14 0 -24.5 10.5t-10.5 24.5q0 11 8 21l724 1051q10 17 30 17q15 0 25.5 -10.5t10.5 -25.5v-1018h198zM194 298h632v916z" />
    <glyph glyph-name="five" unicode="5" 
d="M637 -20q-147 0 -275 55.5t-195 159.5q-8 12 -5.5 26t14.5 22t26 6t22 -14q57 -90 170 -138t243 -48q182 0 292.5 92.5t110.5 261.5q0 163 -105.5 250.5t-282.5 87.5q-198 0 -359 -63q-18 -7 -33 3t-15 31l19 606q1 14 11 24t24 10h734q14 0 24 -10.5t10 -24.5t-10 -24.5
t-24 -10.5h-699l-16 -524q151 52 337 52q206 0 331.5 -108.5t125.5 -298.5q0 -198 -131 -310.5t-344 -112.5z" />
    <glyph glyph-name="six" unicode="6" horiz-adv-x="1284" 
d="M666 903q190 0 324 -135.5t134 -326.5t-134.5 -326t-321.5 -135q-99 0 -182 36.5t-142.5 100.5t-101 152t-61.5 190.5t-20 216.5q0 117 20 220.5t61.5 191t102.5 150.5t146.5 98.5t188.5 35.5q266 0 407 -230q13 -16 4.5 -36.5t-31.5 -20.5q-17 0 -27 13
q-124 205 -353 205q-84 0 -155.5 -29.5t-121.5 -82t-88 -123.5t-55.5 -154.5t-23 -176t8.5 -186.5q28 151 146.5 251.5t274.5 100.5zM665 833q-160 0 -273 -114.5t-113 -277.5q0 -162 113 -277t275 -115q159 1 272 115.5t113 276.5q0 163 -113.5 277.5t-273.5 114.5z" />
    <glyph glyph-name="seven" unicode="7" horiz-adv-x="1171" 
d="M500 0q-15 0 -25.5 10.5t-10.5 25.5q0 262 81 531q55 186 152.5 376t214.5 338h-718q-14 0 -23.5 10.5t-9.5 24.5t10 24.5t24 10.5h779q22 1 32.5 -19t-3.5 -39q-120 -137 -227.5 -345.5t-164.5 -402.5q-75 -255 -75 -509q0 -15 -10.5 -25.5t-25.5 -10.5z" />
    <glyph glyph-name="eight" unicode="8" horiz-adv-x="1259" 
d="M831 710q124 -39 195.5 -127t71.5 -222q0 -125 -64 -212.5t-168 -128t-237 -40.5t-236.5 40.5t-167.5 128t-64 212.5q0 134 71.5 222t195.5 127q-118 36 -187 116.5t-69 200.5q0 113 62.5 192.5t163.5 116t231 36.5t231 -36.5t163.5 -116t62.5 -192.5
q0 -120 -68.5 -200.5t-186.5 -116.5zM244 1025q0 -135 108 -206.5t277 -71.5t277 71.5t108 206.5t-108 206.5t-277 71.5t-277 -71.5t-108 -206.5zM629 49q113 0 200.5 33t142 105.5t54.5 175.5t-54.5 175.5t-142.5 106t-200 33.5t-200 -33.5t-142.5 -106t-54.5 -175.5
t54.5 -175.5t142 -105.5t200.5 -33z" />
    <glyph glyph-name="nine" unicode="9" horiz-adv-x="1284" 
d="M619 449q-190 0 -324 135.5t-134 326.5t134.5 326t321.5 135q99 0 182 -36.5t142.5 -100.5t101 -152t61.5 -190.5t20 -216.5q0 -117 -20 -220.5t-62 -191t-102.5 -150.5t-146.5 -98.5t-189 -35.5q-266 0 -407 230q-13 16 -4 36.5t32 20.5q17 0 27 -13q124 -205 352 -205
q84 0 155.5 29.5t121.5 82t88 123.5t56 154.5t23.5 176t-8.5 186.5q-28 -151 -146.5 -251.5t-274.5 -100.5zM619 518q160 0 273.5 115t113.5 278q0 162 -113 277t-275 115q-159 -1 -272.5 -115.5t-113.5 -276.5q0 -163 113.5 -278t273.5 -115z" />
    <glyph glyph-name="colon" unicode=":" horiz-adv-x="352" 
d="M176 858q-25 0 -42 17t-17 42t17 42t42 17t42 -17t17 -42t-17 -42t-42 -17zM176 -13q-25 0 -42 17t-17 42t17 42t42 17t42 -17t17 -42t-17 -42t-42 -17z" />
    <glyph glyph-name="semicolon" unicode=";" horiz-adv-x="466" 
d="M284 858q-25 0 -42 17t-17 42t17 42t42 17t42 -17t17 -42t-17 -42t-42 -17zM155 -342q-17 0 -24.5 15t2.5 29q106 135 124 331q1 16 13.5 27.5t29.5 11.5q18 0 30.5 -13.5t11.5 -32.5q-24 -210 -167 -360q-8 -8 -20 -8z" />
    <glyph glyph-name="less" unicode="&#x3c;" horiz-adv-x="1163" 
d="M948 281q12 -8 16 -21.5t-3 -25.5q-8 -12 -21.5 -15.5t-25.5 3.5l-698 422q-17 9 -17 29q0 21 17 30l698 422q12 7 25.5 3t21.5 -16q7 -12 3 -25.5t-16 -21.5l-649 -392z" />
    <glyph glyph-name="equal" unicode="=" 
d="M233 804q-14 0 -24 10.5t-10 24.5t10 24t24 10h808q14 0 24 -10t10 -24t-10 -24.5t-24 -10.5h-808zM233 426q-14 0 -24 10.5t-10 24.5t10 24t24 10h808q14 0 24 -10t10 -24t-10 -24.5t-24 -10.5h-808z" />
    <glyph glyph-name="greater" unicode="&#x3e;" horiz-adv-x="1163" 
d="M948 703q17 -9 17 -30q0 -20 -17 -29l-698 -422q-12 -7 -25.5 -3.5t-21.5 15.5q-7 12 -3 25.5t16 21.5l649 392l-649 392q-12 8 -16 21.5t3 25.5q8 12 21.5 16t25.5 -3z" />
    <glyph glyph-name="question" unicode="?" horiz-adv-x="1128" 
d="M520 302q-13 0 -22 9t-10 22l-7 341q-1 38 39 41q195 7 296 88t101 226q0 153 -111.5 234t-284.5 81q-214 0 -322 -118q-11 -9 -23 -9q-15 0 -25.5 10t-10.5 25q0 17 13 27q125 134 368 134q99 0 183 -23.5t148 -69.5t100.5 -120t36.5 -169q0 -178 -120 -276.5
t-310 -107.5l-7 -315q-1 -13 -10 -21.5t-22 -8.5zM520 -12q-25 0 -42 17t-17 42t17 42.5t42 17.5t42 -17.5t17 -42.5t-17 -42t-42 -17z" />
    <glyph glyph-name="at" unicode="@" horiz-adv-x="1781" 
d="M891 1413q144 0 275.5 -57t227 -153t151.5 -228.5t56 -278.5q0 -104 -28 -187t-86.5 -134t-140.5 -51q-84 0 -134.5 51t-49.5 131v4q-45 -71 -117.5 -113t-157.5 -42q-136 0 -232 100t-96 241t96 241t232 100q85 0 157.5 -41.5t117.5 -112.5v109q0 12 8.5 20.5t20.5 8.5
t20 -8.5t8 -20.5v-486q0 -56 35 -90.5t92 -34.5q94 0 144 90.5t50 224.5t-51.5 255.5t-138 210t-207 140.5t-252.5 52t-252.5 -52t-207 -140.5t-138 -210t-51.5 -255.5t51.5 -255.5t138 -210t207 -140.5t252.5 -52q214 0 387 134q8 5 16 5q12 0 20.5 -8.5t8.5 -20.5
q0 -17 -13 -25q-185 -143 -419 -143q-144 0 -275.5 56.5t-227 152.5t-151.5 228.5t-56 278.5t56 278.5t151.5 228.5t227 153t275.5 57zM891 412q113 0 193.5 83t80.5 201t-80.5 201.5t-193.5 83.5t-194 -83.5t-81 -201.5t81 -201t194 -83z" />
    <glyph glyph-name="A" unicode="A" horiz-adv-x="1447" 
d="M1346 52q6 -14 0 -29t-20 -21t-29 0t-21 20l-164 370h-776l-164 -370q-6 -14 -21 -20t-29 0t-19.5 21t0.5 29l586 1322q10 23 35 23t35 -23zM370 468h709l-355 800z" />
    <glyph glyph-name="B" unicode="B" horiz-adv-x="1316" 
d="M927 717q104 -41 168.5 -135.5t64.5 -210.5q0 -154 -107.5 -262.5t-259.5 -108.5h-597q-16 0 -27 11t-11 27v1317q0 16 11 27t27 11h580q145 0 248 -104t103 -251q0 -104 -55 -191t-145 -130zM1051 1034q0 118 -81 201t-194 83h-543v-568h543q113 0 194 83t81 201z
M793 74q120 0 205.5 88.5t85.5 212.5q0 125 -85 213t-206 88h-560v-602h560z" />
    <glyph glyph-name="C" unicode="C" horiz-adv-x="1540" 
d="M845 -20q-144 0 -275 56.5t-226 152.5t-151 228.5t-56 278.5t56 278.5t151 228.5t226 153t275 57q163 0 305.5 -70t242.5 -193q9 -10 9 -25q0 -16 -11 -26.5t-27 -10.5q-17 0 -28 13q-89 111 -217.5 174.5t-273.5 63.5q-129 0 -246 -51t-201.5 -137t-134.5 -205t-50 -250
q0 -175 84.5 -322.5t230 -233.5t317.5 -86q145 0 273.5 63.5t217.5 174.5q11 13 28 13q16 0 27 -11t11 -27q0 -13 -9 -24q-100 -123 -242.5 -193t-305.5 -70z" />
    <glyph glyph-name="D" unicode="D" horiz-adv-x="1484" 
d="M654 1393q187 0 346 -93.5t251 -254t92 -349.5q0 -142 -54.5 -271t-146.5 -222t-220 -148t-268 -55h-455q-16 0 -27 11t-11 27v1317q0 16 11 27t27 11h455zM654 74q125 0 238.5 49t196 132.5t131 198.5t48.5 242t-48.5 242t-131 198.5t-196 132.5t-238.5 49h-417v-1244
h417z" />
    <glyph glyph-name="E" unicode="E" horiz-adv-x="1259" 
d="M1061 74q15 0 26 -11t11 -26t-11 -26t-26 -11h-862q-16 0 -27 11t-11 27v1317q0 16 11 27t27 11h862q15 0 26 -11t11 -26t-11 -26.5t-26 -11.5l-824 1v-627h736q15 0 26 -11t11 -26t-11 -26t-26 -11h-736v-544h824z" />
    <glyph glyph-name="F" unicode="F" horiz-adv-x="1198" 
d="M1061 1393q15 0 26 -11t11 -26t-11 -26.5t-26 -11.5l-824 1v-627h736q15 0 26 -11t11 -26t-11 -26t-26 -11h-736v-580q0 -16 -11 -27t-27 -11t-27 11t-11 27v1317q0 16 11 27t27 11h862z" />
    <glyph glyph-name="G" unicode="G" horiz-adv-x="1595" 
d="M1396 648q16 0 27 -11t11 -27v-289q0 -29 -16 -49q-98 -136 -248.5 -214t-322.5 -78q-144 0 -274.5 56.5t-225.5 152.5t-151 228.5t-56 278.5t56 278.5t151 228.5t225.5 153t274.5 57q162 0 304.5 -69.5t242.5 -193.5q9 -10 9 -25q0 -16 -10.5 -26.5t-26.5 -10.5
q-17 0 -28 13q-89 111 -217.5 174.5t-273.5 63.5q-128 0 -245 -51t-201.5 -137t-134.5 -205t-50 -250q0 -175 84.5 -322.5t230 -233.5t316.5 -86q155 0 289 71t222 194v254h-410q-15 0 -26 11t-11 26t11 26t26 11z" />
    <glyph glyph-name="H" unicode="H" horiz-adv-x="1525" 
d="M1326 1392q16 0 27 -11t11 -27v-1316q0 -16 -11 -27t-27 -11t-27 11t-11 27v600h-1051v-600q0 -16 -11 -27t-27 -11t-27 11t-11 27v1317q0 16 11 27t27 11t27 -11t11 -27v-642h1051v641q0 16 11 27t27 11z" />
    <glyph glyph-name="I" unicode="I" horiz-adv-x="397" 
d="M199 0q-16 0 -27 11t-11 27v1317q0 16 11 27t27 11t27 -11t11 -27v-1317q0 -16 -11 -27t-27 -11z" />
    <glyph glyph-name="J" unicode="J" horiz-adv-x="1290" 
d="M644 -20q-191 0 -330.5 131.5t-154.5 323.5q-3 17 8.5 31t28.5 14q14 0 24.5 -9.5t12.5 -22.5q11 -166 129.5 -280t281.5 -114q171 0 292 123.5t121 298.5v879q0 16 11 27t27 11t27 -11t11 -27v-879q0 -135 -65.5 -249t-178 -180.5t-245.5 -66.5z" />
    <glyph glyph-name="K" unicode="K" horiz-adv-x="1308" 
d="M1200 62q11 -12 10 -27.5t-13 -25.5q-12 -11 -28 -10t-26 13l-630 699l-276 -260v-413q0 -16 -11 -27t-27 -11t-27 11t-11 27v1317q0 16 11 27t27 11t27 -11t11 -27v-800l878 827q11 11 27 10.5t26 -11.5q11 -11 10.5 -27.5t-11.5 -26.5l-599 -564z" />
    <glyph glyph-name="L" unicode="L" horiz-adv-x="1259" 
d="M1122 74q15 0 26 -11t11 -26t-11 -26t-26 -11h-923q-16 0 -27 11t-11 27v1317q0 16 11 27t27 11t27 -11t11 -27v-1281h885z" />
    <glyph glyph-name="M" unicode="M" horiz-adv-x="1628" 
d="M1429 1393q16 0 27 -11t11 -27v-1317q0 -16 -11 -27t-27 -11t-27 11t-11 27v1213l-548 -671q-11 -14 -29 -14q-19 0 -30 14l-547 671v-1213q0 -16 -11 -27t-27 -11t-27 11t-11 27v1317q0 16 11 27t27 11q17 0 29 -15l586 -716l585 716q12 15 30 15z" />
    <glyph glyph-name="N" unicode="N" horiz-adv-x="1505" 
d="M1306 1394q16 0 26.5 -11t10.5 -27v-1320q0 -16 -10.5 -27t-26.5 -11q-14 0 -26 10l-5 -4l-1038 1261v-1229q0 -16 -11 -27t-27 -11t-27 11t-11 27v1321q0 16 11 27t27 11q15 0 26 -11l5 5l1038 -1259v1226q0 16 11 27t27 11z" />
    <glyph glyph-name="O" unicode="O" horiz-adv-x="1699" 
d="M850 -20q-144 0 -275.5 56.5t-227 152.5t-151.5 228.5t-56 278.5t56 278.5t151.5 228.5t227 153t275.5 57t275.5 -57t227 -153t151.5 -228.5t56 -278.5t-56 -278.5t-151.5 -228.5t-227 -152.5t-275.5 -56.5zM850 54q172 0 318 86t231 233.5t85 322.5t-85 323t-231 234
t-318 86t-318 -86t-231 -234t-85 -323t85 -322.5t231 -233.5t318 -86z" />
    <glyph glyph-name="P" unicode="P" horiz-adv-x="1280" 
d="M675 1393q126 0 233 -63.5t169 -172t62 -236.5t-62 -237t-169 -172t-233 -63h-438v-411q0 -16 -11 -27t-27 -11t-27 11t-11 27v1317q0 16 11 27t27 11h476zM675 523q161 0 274.5 116.5t113.5 281.5t-113.5 281t-274.5 116h-438v-795h438z" />
    <glyph glyph-name="Q" unicode="Q" horiz-adv-x="1699" 
d="M1363 201l157 -175q9 -11 9 -25q0 -16 -11 -26.5t-27 -10.5q-17 0 -28 13l-154 173q-199 -170 -459 -170q-144 0 -275.5 56.5t-227 152.5t-151.5 228.5t-56 278.5t56 278.5t151.5 228.5t227 153t275.5 57t275.5 -57t227 -153t151.5 -228.5t56 -278.5q0 -141 -52 -268.5
t-145 -226.5zM850 54q234 0 410 152l-174 195q-9 11 -9 24q0 16 10.5 27t26.5 11q17 0 28 -13l171 -192q171 186 171 438q0 175 -85 323t-231 234t-318 86t-318 -86t-231 -234t-85 -323t85 -322.5t231 -233.5t318 -86z" />
    <glyph glyph-name="R" unicode="R" horiz-adv-x="1300" 
d="M778 460l288 -400q9 -13 6 -28.5t-16 -24.5t-28 -5.5t-24 16.5l-310 431h-19h-438v-411q0 -16 -11 -27t-27 -11t-27 11t-11 27v1317q0 16 11 27t27 11h476q126 0 233 -63.5t169 -172t62 -236.5q0 -167 -102.5 -296t-258.5 -165zM237 1318v-795h438q161 0 274.5 116.5
t113.5 281.5t-113.5 281t-274.5 116h-438z" />
    <glyph glyph-name="S" unicode="S" horiz-adv-x="1335" 
d="M675 -20q-234 0 -513 155q-19 10 -19 33q0 21 18 32t37 1q266 -147 480 -147q54 0 110.5 9t116.5 31.5t106 55.5t76 87t30 120q0 52 -15.5 92t-52 68t-69.5 46t-95.5 32.5t-100.5 21t-112 16.5q-66 9 -115.5 18t-106 24t-97.5 33.5t-80 45.5t-63.5 60.5t-39.5 79.5
t-15 101q0 99 44 179.5t118 132t167.5 79t194.5 27.5q251 0 477 -158q18 -13 18 -32q0 -16 -10.5 -26.5t-26.5 -10.5q-11 0 -20 6q-209 147 -440 147q-188 0 -317.5 -93.5t-130.5 -246.5q0 -64 29 -112.5t60 -74.5t107 -48.5t112 -29t131 -20.5q3 -1 4 -1
q69 -10 120.5 -19.5t108.5 -25t97.5 -33t79 -44t62 -58.5t37.5 -75.5t14 -96.5q0 -84 -35 -152t-89.5 -109.5t-125 -69.5t-136.5 -39t-130 -11z" />
    <glyph glyph-name="T" unicode="T" horiz-adv-x="1361" 
d="M1224 1393q15 0 26.5 -11t11.5 -26t-11.5 -26.5t-26.5 -11.5h-506v-1280q0 -16 -11 -27t-27 -11t-26.5 11t-10.5 27v1280h-507q-15 0 -26 11.5t-11 26.5t11 26t26 11h1088z" />
    <glyph glyph-name="U" unicode="U" horiz-adv-x="1546" 
d="M773 -20q-166 0 -307 83t-223 225.5t-82 310.5v756q0 16 11 27t27 11t26.5 -11t10.5 -27v-756q0 -148 72 -273.5t195.5 -198.5t269.5 -73q109 0 208.5 43t171 116t114 174t42.5 212v756q0 16 10.5 27t26.5 11t27 -11t11 -27v-756q0 -168 -81.5 -310.5t-222.5 -225.5
t-307 -83z" />
    <glyph glyph-name="V" unicode="V" horiz-adv-x="1447" 
d="M1346 1343l-587 -1323q-9 -22 -35 -22t-35 22l-586 1323q-6 14 -0.5 29t19.5 21t29 0t21 -20l552 -1247l552 1247q6 14 21 20t29 0t20 -21t0 -29z" />
    <glyph glyph-name="W" unicode="W" horiz-adv-x="2621" 
d="M2500 1393q14 -6 20 -21t0 -29l-587 -1323q-9 -22 -35 -22t-35 22l-552 1245l-552 -1245q-9 -22 -35 -22t-35 22l-586 1323q-6 14 -0.5 29t19.5 21t29 0t21 -20l552 -1247l552 1247q10 23 35 23t35 -23l552 -1247l553 1247q6 14 20.5 20t28.5 0z" />
    <glyph glyph-name="X" unicode="X" horiz-adv-x="1409" 
d="M1301 61q10 -12 9 -27t-13 -26q-12 -10 -27 -9t-26 13l-539 628l-539 -628q-11 -12 -26.5 -13t-27.5 9t-13 25.5t10 27.5l546 637l-546 637q-11 12 -10 27.5t13 25.5t27.5 9t26.5 -13l539 -628l539 628q11 12 26 13t27 -9q12 -11 13 -26t-9 -27l-546 -637z" />
    <glyph glyph-name="Y" unicode="Y" horiz-adv-x="1417" 
d="M1300 1389q13 -8 16 -24t-5 -29l-564 -850v-452q0 -16 -11 -27t-27 -11t-27 11t-11 27v450l-566 852q-8 13 -5 29t16 24t29 5t24 -16l539 -814l540 814q8 13 23.5 16t28.5 -5z" />
    <glyph glyph-name="Z" unicode="Z" horiz-adv-x="1423" 
d="M1226 74q15 0 26 -11t11 -26t-10.5 -26t-26.5 -11h-1028q-15 0 -26 11t-11 26q0 14 10 26l974 1255h-935q-15 0 -26 11.5t-11 26.5t11 26t26 11h1013q15 0 26 -11t11 -26q0 -14 -9 -25l-975 -1257h950z" />
    <glyph glyph-name="bracketleft" unicode="[" horiz-adv-x="444" 
d="M313 -437q13 0 23 -10t10 -24q0 -13 -10 -23t-23 -10h-179q-14 0 -24.5 10t-10.5 24v1939q0 14 10.5 24t24.5 10h179q13 0 23 -9.5t10 -23.5t-10 -24t-23 -10h-145v-1873h145z" />
    <glyph glyph-name="backslash" unicode="\" horiz-adv-x="716" 
d="M613 -421q-13 -4 -25.5 3.5t-16.5 21.5l-491 1832q-4 13 3 25.5t21 16.5q13 4 25.5 -3t16.5 -21l491 -1833q4 -13 -3 -25.5t-21 -16.5z" />
    <glyph glyph-name="bracketright" unicode="]" horiz-adv-x="444" 
d="M312 1503q14 0 24 -10t10 -24v-1939q0 -14 -10 -24t-24 -10h-179q-14 0 -24 10t-10 23t10.5 23.5t23.5 10.5h144v1873h-144q-13 0 -23.5 10t-10.5 24q0 13 10 23t24 10h179z" />
    <glyph glyph-name="underscore" unicode="_" horiz-adv-x="1185" 
d="M151 -151q-14 0 -24 10.5t-10 24.5t10 24t24 10h883q14 0 24 -10t10 -24t-10 -24.5t-24 -10.5h-883z" />
    <glyph glyph-name="grave" unicode="`" horiz-adv-x="542" 
d="M357 1152q-14 0 -23 12l-169 265q-7 10 -7 22q0 16 11 27t27 11q24 0 34 -20l152 -276q7 -14 -1.5 -27.5t-23.5 -13.5z" />
    <glyph glyph-name="a" unicode="a" horiz-adv-x="1312" 
d="M1116 988q15 0 25.5 -10.5t10.5 -25.5v-916q0 -15 -10.5 -25.5t-25.5 -10.5t-25.5 10.5t-10.5 25.5v222q-63 -126 -181.5 -202t-260.5 -76q-135 0 -250 69t-181.5 187t-66.5 258t66.5 258t181.5 187t250 69q142 0 260.5 -76t181.5 -202v222q0 15 10.5 25.5t25.5 10.5z
M647 49q180 0 307 130t127 315t-127 315t-307 130t-307.5 -130.5t-127.5 -314.5t127.5 -314.5t307.5 -130.5z" />
    <glyph glyph-name="b" unicode="b" horiz-adv-x="1312" 
d="M675 1008q135 0 250 -69t181.5 -187t66.5 -258t-66.5 -258t-181.5 -187t-250 -69q-142 0 -261 76t-182 202v-222q0 -15 -10 -25.5t-25 -10.5t-25.5 10.5t-10.5 25.5v1362q0 15 10.5 25.5t25.5 10.5t25 -10.5t10 -25.5v-668q63 126 182 202t261 76zM666 49
q180 0 307.5 130.5t127.5 314.5t-127.5 314.5t-307.5 130.5t-307 -130t-127 -315t127 -315t307 -130z" />
    <glyph glyph-name="c" unicode="c" horiz-adv-x="1175" 
d="M647 49q179 0 310 133q9 9 23 9t24.5 -10.5t10.5 -24.5q0 -16 -11 -25q-149 -151 -357 -151q-103 0 -196.5 40.5t-161.5 109.5t-108.5 164t-40.5 200t40.5 200t108.5 164t161.5 109.5t196.5 40.5q209 0 357 -150q11 -9 11 -26q0 -14 -10.5 -24t-24.5 -10t-23 9
q-130 132 -310 132q-118 0 -218 -59.5t-158.5 -162t-58.5 -223.5t58.5 -223.5t158.5 -162t218 -59.5z" />
    <glyph glyph-name="d" unicode="d" horiz-adv-x="1312" 
d="M1116 1434q15 0 25.5 -10.5t10.5 -25.5v-1362q0 -15 -10.5 -25.5t-25.5 -10.5t-25.5 10.5t-10.5 25.5v222q-63 -126 -181.5 -202t-260.5 -76q-135 0 -250 69t-181.5 187t-66.5 258t66.5 258t181.5 187t250 69q142 0 260.5 -76t181.5 -202v668q0 15 10.5 25.5t25.5 10.5z
M647 49q180 0 307 130t127 315t-127 315t-307 130t-307.5 -130.5t-127.5 -314.5t127.5 -314.5t307.5 -130.5z" />
    <glyph glyph-name="e" unicode="e" horiz-adv-x="1253" 
d="M626 1008q99 0 189 -40.5t155 -109.5t103.5 -164t38.5 -200v-25q0 -14 -10.5 -24.5t-25.5 -10.5h-860q20 -167 137 -276t279 -109q103 1 212 38.5t199 101.5q8 5 16 5q14 0 24.5 -10.5t10.5 -24.5q0 -20 -19 -30q-99 -69 -216 -109.5t-227 -40.5q-207 0 -349.5 148.5
t-142.5 366.5q0 105 38.5 200t103.5 164t155 109.5t189 40.5zM626 939q-169 0 -290 -127t-124 -309h828q-3 182 -124 309t-290 127z" />
    <glyph glyph-name="f" unicode="f" horiz-adv-x="903" 
d="M781 1394q23 -9 23 -33q0 -18 -14.5 -27.5t-31.5 -4.5q-55 20 -108.5 28.5t-106.5 2.5t-90 -30q-89 -55 -89 -193v-161h317q14 0 24.5 -10t10.5 -24t-10.5 -24.5t-24.5 -10.5h-317v-871q0 -15 -10.5 -25.5t-25.5 -10.5t-25.5 10.5t-10.5 25.5v871h-137q-14 0 -24.5 10.5
t-10.5 24.5t10.5 24t24.5 10h137v166q0 173 122 248q69 43 167 43t200 -39z" />
    <glyph glyph-name="g" unicode="g" horiz-adv-x="1312" 
d="M1116 990q15 0 25.5 -10.5t10.5 -25.5v-924q0 -221 -127.5 -343t-345.5 -122q-113 0 -234.5 35.5t-222.5 97.5q-19 10 -19 31q0 20 17 31t35 1q94 -58 205 -91t217 -33q191 0 297 101.5t106 291.5v228q-63 -126 -181.5 -202t-260.5 -76q-135 0 -249.5 68.5t-181.5 187
t-67 258.5t67 258.5t181.5 187t249.5 68.5q142 0 260.5 -76t181.5 -202v224q0 15 10.5 25.5t25.5 10.5zM647 49q180 0 307 130t127 315t-127 315t-307 130t-307.5 -130.5t-127.5 -314.5t127.5 -314.5t307.5 -130.5z" />
    <glyph glyph-name="h" unicode="h" 
d="M646 1008q193 0 329.5 -139t136.5 -335v-498q0 -15 -10.5 -25.5t-25.5 -10.5t-25.5 10.5t-10.5 25.5v489q0 172 -118.5 293t-285.5 121t-285.5 -121t-118.5 -293v-489q0 -15 -10 -25.5t-25 -10.5t-25.5 10.5t-10.5 25.5v1362q0 15 10.5 25.5t25.5 10.5t25 -10.5t10 -25.5
v-647q59 116 170 186.5t244 70.5z" />
    <glyph glyph-name="i" unicode="i" horiz-adv-x="399" 
d="M200 1146q-21 0 -36 14.5t-15 35.5t15 36t36 15t35.5 -15t14.5 -36t-14.5 -35.5t-35.5 -14.5zM200 0q-15 0 -25.5 10.5t-10.5 25.5v916q0 15 10.5 25.5t25.5 10.5t25.5 -10.5t10.5 -25.5v-916q0 -15 -10.5 -25.5t-25.5 -10.5z" />
    <glyph glyph-name="j" unicode="j" horiz-adv-x="616" 
d="M421 1146q-20 0 -34.5 14.5t-14.5 34.5t14.5 34.5t34.5 14.5t34 -14.5t14 -34.5t-14 -34.5t-34 -14.5zM147 -429q-17 -7 -32.5 3.5t-15.5 29.5q0 25 24 34q117 32 184 113q78 91 78 245v956q0 15 10.5 25.5t25.5 10.5t25 -10.5t10 -25.5v-956q0 -181 -97 -294
q-81 -95 -212 -131z" />
    <glyph glyph-name="k" unicode="k" horiz-adv-x="1067" 
d="M960 57q9 -12 7.5 -26.5t-13.5 -23.5t-27 -7.5t-24 13.5l-425 523l-246 -209v-291q0 -15 -10 -25.5t-25 -10.5t-25.5 10.5t-10.5 25.5v1362q0 15 10.5 25.5t25.5 10.5t25 -10.5t10 -25.5v-976l664 561q11 10 26 9t25 -12t9 -26t-12 -25l-411 -347z" />
    <glyph glyph-name="l" unicode="l" horiz-adv-x="393" 
d="M197 0q-15 0 -25.5 10.5t-10.5 25.5v1362q0 15 10.5 25.5t25.5 10.5t25 -10.5t10 -25.5v-1362q0 -15 -10 -25.5t-25 -10.5z" />
    <glyph glyph-name="m" unicode="m" horiz-adv-x="2152" 
d="M1524 1009q127 0 235 -63.5t170.5 -173t62.5 -238.5v-498q0 -15 -10.5 -25.5t-25.5 -10.5t-25.5 10.5t-10.5 25.5v489q0 172 -118.5 293t-285.5 121t-285.5 -121t-118.5 -293v-489q0 -15 -10.5 -25.5t-25.5 -10.5t-25.5 10.5t-10.5 25.5v489q0 172 -118.5 293t-285.5 121
t-285.5 -121t-118.5 -293v-489q0 -15 -10 -25.5t-25 -10.5t-25.5 10.5t-10.5 25.5v916q0 15 10.5 25.5t25.5 10.5t25 -10.5t10 -25.5v-201q59 116 170 186.5t244 70.5q147 0 266 -85t170 -221q52 136 172.5 221.5t269.5 85.5z" />
    <glyph glyph-name="n" unicode="n" 
d="M646 1008q193 0 329.5 -139t136.5 -335v-498q0 -15 -10.5 -25.5t-25.5 -10.5t-25.5 10.5t-10.5 25.5v489q0 172 -118.5 293t-285.5 121t-285.5 -121t-118.5 -293v-489q0 -15 -10 -25.5t-25 -10.5t-25.5 10.5t-10.5 25.5v916q0 15 10.5 25.5t25.5 10.5t25 -10.5t10 -25.5
v-201q59 116 170 186.5t244 70.5z" />
    <glyph glyph-name="o" unicode="o" horiz-adv-x="1294" 
d="M647 -20q-103 0 -196.5 40.5t-161.5 109.5t-108.5 164t-40.5 200t40.5 200t108.5 164t161.5 109.5t196.5 40.5q137 0 253.5 -68.5t184.5 -187t68 -258.5t-68 -258.5t-184.5 -187t-253.5 -68.5zM647 49q180 0 307 130t127 315t-127 315t-307 130t-307.5 -130.5
t-127.5 -314.5t127.5 -314.5t307.5 -130.5z" />
    <glyph glyph-name="p" unicode="p" horiz-adv-x="1312" 
d="M675 1008q135 0 250 -69t181.5 -187t66.5 -258t-66.5 -258t-181.5 -187t-250 -69q-142 0 -261 76t-182 202v-657q0 -15 -10 -25.5t-25 -10.5t-25.5 10.5t-10.5 25.5v1351q0 15 10.5 25.5t25.5 10.5t25 -10.5t10 -25.5v-222q63 126 182 202t261 76zM666 49
q180 0 307.5 130.5t127.5 314.5t-127.5 314.5t-307.5 130.5t-307 -130t-127 -315t127 -315t307 -130z" />
    <glyph glyph-name="q" unicode="q" horiz-adv-x="1312" 
d="M1116 988q15 0 25.5 -10.5t10.5 -25.5v-1351q0 -15 -10.5 -25.5t-25.5 -10.5t-25.5 10.5t-10.5 25.5v657q-63 -126 -181.5 -202t-260.5 -76q-135 0 -250 69t-181.5 187t-66.5 258t66.5 258t181.5 187t250 69q142 0 260.5 -76t181.5 -202v222q0 15 10.5 25.5t25.5 10.5z
M647 49q180 0 307 130t127 315t-127 315t-307 130t-307.5 -130.5t-127.5 -314.5t127.5 -314.5t307.5 -130.5z" />
    <glyph glyph-name="r" unicode="r" horiz-adv-x="817" 
d="M619 1008q16 0 26.5 -10.5t10.5 -25.5q0 -14 -9.5 -24.5t-23.5 -11.5q-164 -9 -277.5 -130.5t-113.5 -293.5v-478q0 -15 -10 -25.5t-25 -10.5t-25.5 10.5t-10.5 25.5v920q0 15 10.5 25.5t25.5 10.5t25 -10.5t10 -25.5v-198q58 110 161.5 178.5t225.5 73.5z" />
    <glyph glyph-name="s" unicode="s" horiz-adv-x="1103" 
d="M575 -14q-95 -1 -203.5 34.5t-203.5 91.5q-19 10 -19 30q0 19 16.5 29.5t34.5 1.5q207 -119 374 -117q112 2 207 55.5t94 142.5q-1 32 -10 58.5t-22 45.5t-37.5 35t-46 26t-57.5 19.5t-62.5 15t-70.5 13.5q-71 13 -120 25.5t-100 35t-81.5 51.5t-50.5 74.5t-21 105.5
q-1 80 52 139t135 87t181 30q94 1 193.5 -38.5t177.5 -105.5q16 -11 16 -28q0 -14 -10.5 -24t-24.5 -10q-10 0 -17 6q-68 60 -159 95.5t-175 34.5q-128 -2 -211.5 -51t-82.5 -133q1 -47 18 -82.5t40.5 -56.5t67.5 -38.5t78 -26t94 -19.5q76 -13 126 -25.5t102.5 -34
t82.5 -49.5t49.5 -71.5t20.5 -101.5q1 -65 -34.5 -118t-92.5 -85t-121.5 -49t-126.5 -18z" />
    <glyph glyph-name="t" unicode="t" horiz-adv-x="856" 
d="M713 70q16 5 30 -5.5t14 -28.5q0 -27 -26 -34q-196 -57 -319 20q-122 77 -122 248v637h-156q-14 0 -24.5 10.5t-10.5 24.5t10.5 24.5t24.5 10.5h156v243q0 15 10 25.5t25 10.5t25.5 -10.5t10.5 -25.5v-243h297q14 0 24.5 -10.5t10.5 -24.5t-10.5 -24.5t-24.5 -10.5h-297
v-632q0 -137 90 -193q96 -59 262 -12z" />
    <glyph glyph-name="u" unicode="u" 
d="M1076 988q15 0 25.5 -10.5t10.5 -25.5v-916q0 -15 -10.5 -25.5t-25.5 -10.5t-25.5 10.5t-10.5 25.5v201q-59 -116 -170 -186.5t-244 -70.5q-193 0 -329 139t-136 335v498q0 15 10.5 25.5t25.5 10.5t25 -10.5t10 -25.5v-489q0 -172 118.5 -293t285.5 -121t285.5 121
t118.5 293v489q0 15 10.5 25.5t25.5 10.5z" />
    <glyph glyph-name="v" unicode="v" horiz-adv-x="1214" 
d="M615 -6q-28 -7 -40 18l-455 927q-7 14 -2 27.5t19 20.5t27.5 2t20.5 -18l422 -865l422 865q7 13 21 18t27 -2q14 -7 19 -20.5t-2 -27.5l-454 -926q-8 -16 -25 -19z" />
    <glyph glyph-name="w" unicode="w" horiz-adv-x="2123" 
d="M615 -8q-28 -7 -40 19l-455 927q-7 14 -2 27.5t19 20.5t27.5 2t20.5 -19l422 -866l422 866q7 15 24 18q29 7 41 -18l422 -866l422 866q7 14 20.5 19t27.5 -2t18.5 -20.5t-2.5 -27.5l-454 -927q-8 -16 -24 -19q-28 -7 -40 19l-423 861l-421 -861q-8 -16 -25 -19z" />
    <glyph glyph-name="x" unicode="x" horiz-adv-x="1132" 
d="M615 493l409 -440q10 -11 8.5 -26t-12.5 -25t-25.5 -8.5t-24.5 12.5l-404 434l-403 -434q-10 -11 -25 -12.5t-26 8.5t-12.5 25t8.5 26l409 440l-408 439q-10 11 -9.5 25.5t11.5 24.5t26 9.5t25 -11.5l404 -435l404 435q10 11 25 11.5t26 -9.5t12 -24.5t-9 -25.5z" />
    <glyph glyph-name="y" unicode="y" 
d="M640 -435q-113 0 -234 35t-222 97q-19 10 -19 32q0 20 17 30.5t35 0.5q94 -58 205 -91t217 -33q191 0 297 101.5t106 291.5v217q-56 -120 -168 -193t-246 -73q-193 0 -329.5 139t-136.5 335v500q0 15 10.5 25.5t25.5 10.5t25.5 -10.5t10.5 -25.5v-491q0 -172 118.5 -293
t285.5 -121t285.5 121t118.5 292v492q0 15 10.5 25.5t25.5 10.5t25.5 -10.5t10.5 -25.5v-925q0 -221 -127.5 -342.5t-346.5 -121.5z" />
    <glyph glyph-name="z" unicode="z" horiz-adv-x="1310" 
d="M1115 70q14 0 24 -10.5t10 -24.5t-10 -24.5t-24 -10.5h-919q-14 0 -24.5 10.5t-10.5 24.5q0 16 11 25l837 858h-793q-14 0 -24.5 10.5t-10.5 24.5t10.5 24.5t24.5 10.5h878q14 0 24.5 -10.5t10.5 -24.5q0 -16 -11 -25l-837 -858h834z" />
    <glyph glyph-name="braceleft" unicode="{" horiz-adv-x="1462" 
 />
    <glyph glyph-name="bar" unicode="|" horiz-adv-x="385" 
d="M192 -435q-14 0 -24 10.5t-10 24.5v1799q0 14 10 24.5t24 10.5t24 -10.5t10 -24.5v-1799q0 -14 -10 -24.5t-24 -10.5z" />
    <glyph glyph-name="braceright" unicode="}" horiz-adv-x="1462" 
 />
    <glyph glyph-name="asciitilde" unicode="~" horiz-adv-x="1228" 
 />
    <glyph glyph-name="cent" unicode="&#xa2;" horiz-adv-x="1155" 
d="M980 191q14 0 24.5 -10.5t10.5 -24.5q0 -17 -11 -26q-135 -137 -326 -149v-176q0 -14 -10 -24t-24 -10t-24.5 10t-10.5 24v176q-97 7 -183.5 50.5t-149.5 111.5t-99.5 159.5t-36.5 191.5t36.5 191.5t99.5 159.5t149.5 111.5t183.5 50.5v177q0 14 10.5 24t24.5 10t24 -10
t10 -24v-177q191 -12 326 -149q11 -9 11 -26q0 -14 -10.5 -24t-24.5 -10t-23 9q-130 132 -310 132q-118 0 -218 -59.5t-158.5 -162t-58.5 -223.5t58.5 -223.5t158.5 -162t218 -59.5q179 0 310 133q9 9 23 9z" />
    <glyph glyph-name="sterling" unicode="&#xa3;" horiz-adv-x="1292" 
d="M1095 73q15 0 26 -11t11 -26t-11 -25.5t-26 -10.5h-848q-15 0 -25.5 10.5t-10.5 25.5q0 18 13 29q71 81 94.5 168.5t23.5 222.5v152h-151q-13 0 -23 10t-10 23q0 14 10 24t23 10h151v389q0 88 31.5 156.5t85.5 110t128.5 62t159.5 18t178 -26.5t185 -69q20 -8 20 -31
q0 -18 -15.5 -28.5t-32.5 -3.5q-126 60 -246 79.5t-214 -2.5t-151 -95.5t-57 -190.5v-368h497q13 0 23 -10t10 -24q0 -13 -10 -23t-23 -10h-497v-152q0 -58 -2 -94.5t-10.5 -93t-30 -105.5t-56.5 -90h780z" />
    <glyph glyph-name="currency" unicode="&#xa4;" horiz-adv-x="1228" 
 />
    <glyph glyph-name="yen" unicode="&#xa5;" horiz-adv-x="1355" 
d="M679 0q-16 0 -27 11t-11 27v296h-280q-14 0 -24 10t-10 24t10 24.5t24 10.5h280v206h-280q-14 0 -24 10t-10 24t10 24.5t24 10.5h245l-480 660q-9 13 -5.5 28.5t16.5 24.5t28 5.5t24 -16.5l490 -676l488 675q9 13 24.5 16t28.5 -6t16 -24t-6 -28l-478 -659h245
q14 0 24 -10.5t10 -24.5t-10 -24t-24 -10h-280v-206h280q14 0 24 -10.5t10 -24.5t-10 -24t-24 -10h-280v-296q0 -16 -11 -27t-27 -11z" />
    <glyph glyph-name="section" unicode="&#xa7;" horiz-adv-x="1228" 
 />
    <glyph glyph-name="dieresis" unicode="&#xa8;" horiz-adv-x="727" 
d="M206 1146q-20 0 -34 14.5t-14 34.5t14 34.5t34 14.5t34.5 -14.5t14.5 -34.5t-14.5 -34.5t-34.5 -14.5zM520 1146q-20 0 -34.5 14.5t-14.5 34.5t14.5 34.5t34.5 14.5t34.5 -14.5t14.5 -34.5t-14.5 -34.5t-34.5 -14.5z" />
    <glyph glyph-name="guillemotleft" unicode="&#xab;" horiz-adv-x="921" 
d="M155 491l319 -374q7 -9 7 -20q0 -13 -9 -21.5t-22 -8.5q-14 0 -23 11l-336 385q-12 13 -12 28t12 28l336 385q9 11 23 11q13 0 22 -9t9 -22q0 -10 -7 -19zM517 491l319 -374q7 -9 7 -20q0 -13 -9 -21.5t-22 -8.5q-14 0 -23 11l-336 385q-12 13 -12 28t12 28l336 385
q9 11 23 11q13 0 22 -8.5t9 -21.5q0 -11 -7 -20z" />
    <glyph glyph-name="logicalnot" unicode="&#xac;" horiz-adv-x="1228" 
 />
    <glyph glyph-name="macron" unicode="&#xaf;" horiz-adv-x="989" 
d="M187 1207q-13 0 -22 9t-9 22t9 22t22 9h615q13 0 22 -9t9 -22t-9 -22t-22 -9h-615z" />
    <glyph glyph-name="degree" unicode="&#xb0;" horiz-adv-x="567" 
d="M284 1064q-85 0 -145 59.5t-60 144.5t60 144t145 59t144.5 -59t59.5 -144t-59.5 -144.5t-144.5 -59.5zM284 1122q60 0 102 42t42 102t-42 102t-102 42t-102.5 -42t-42.5 -102t42.5 -102t102.5 -42z" />
    <glyph glyph-name="plusminus" unicode="&#xb1;" horiz-adv-x="1269" 
d="M231 729q-14 0 -24 10t-10 24t10 24.5t24 10.5h370v259q0 14 10 24t24 10t24 -10t10 -24v-259h368q14 0 24.5 -10.5t10.5 -24.5t-10.5 -24t-24.5 -10h-368v-241q0 -14 -10 -24t-24 -10t-24 10t-10 24v241h-370zM1037 331q14 0 24.5 -10t10.5 -24t-10.5 -24t-24.5 -10
h-806q-14 0 -24 10t-10 24t10 24t24 10h806z" />
    <glyph glyph-name="acute" unicode="&#xb4;" horiz-adv-x="542" 
d="M209 1164q-9 -12 -23 -12q-15 0 -23.5 13.5t-1.5 27.5l151 276q10 20 34 20q16 0 27.5 -11t11.5 -27q0 -11 -7 -22z" />
    <glyph glyph-name="paragraph" unicode="&#xb6;" horiz-adv-x="1228" 
 />
    <glyph glyph-name="periodcentered" unicode="&#xb7;" horiz-adv-x="352" 
d="M176 435q-25 0 -42 17t-17 42t17 42t42 17t42 -17t17 -42t-17 -42t-42 -17z" />
    <glyph glyph-name="cedilla" unicode="&#xb8;" horiz-adv-x="509" 
d="M194 -237q-15 0 -25.5 10.5t-10.5 25.5q0 14 7 22l138 191l49 -9l-126 -222q-10 -18 -32 -18z" />
    <glyph glyph-name="guillemotright" unicode="&#xbb;" horiz-adv-x="921" 
d="M404 491l-318 374q-7 9 -7 19q0 13 8.5 22t21.5 9q14 0 23 -11l337 -385q12 -14 12 -28q0 -15 -12 -28l-337 -385q-9 -11 -23 -11q-13 0 -21.5 8.5t-8.5 21.5q0 11 7 20zM766 491l-318 374q-7 9 -7 19q0 13 8.5 22t21.5 9q14 0 23 -11l337 -385q12 -14 12 -28
q0 -15 -12 -28l-337 -385q-9 -11 -23 -11q-13 0 -21.5 8.5t-8.5 21.5q0 11 7 20z" />
    <glyph glyph-name="Agrave" unicode="&#xc0;" horiz-adv-x="1447" 
d="M684 1569l-169 265q-7 10 -7 22q0 16 11 27t27 11q24 0 35 -21l151 -275q7 -14 -1.5 -27.5t-23.5 -13.5q-14 0 -23 12zM1346 52q6 -14 0 -29t-20 -21t-29 0t-21 20l-164 370h-776l-164 -370q-6 -14 -21 -20t-29 0t-19.5 21t0.5 29l586 1322q10 23 35 23t35 -23zM370 468
h709l-355 800z" />
    <glyph glyph-name="Aacute" unicode="&#xc1;" horiz-adv-x="1447" 
d="M742 1557q-15 0 -23 13.5t-1 27.5l151 275q11 21 34 21q16 0 27 -11t11 -27q0 -12 -7 -22l-169 -265q-9 -12 -23 -12zM1346 52q6 -14 0 -29t-20 -21t-29 0t-21 20l-164 370h-776l-164 -370q-6 -14 -21 -20t-29 0t-19.5 21t0.5 29l586 1322q10 23 35 23t35 -23zM370 468
h709l-355 800z" />
    <glyph glyph-name="Acircumflex" unicode="&#xc2;" horiz-adv-x="1447" 
d="M472 1566q-10 8 -10 20.5t10 20.5l231 181q10 8 22 8q13 0 23 -8l230 -181q12 -10 10.5 -24.5t-15.5 -20.5q-12 -6 -25 2l-223 152l-222 -152q-17 -10 -31 2zM1346 52q6 -14 0 -29t-20 -21t-29 0t-21 20l-164 370h-776l-164 -370q-6 -14 -21 -20t-29 0t-19.5 21t0.5 29
l586 1322q10 23 35 23t35 -23zM370 468h709l-355 800z" />
    <glyph glyph-name="Atilde" unicode="&#xc3;" horiz-adv-x="1447" 
d="M484 1565q-13 -9 -28 -2t-14 24q0 10 9 19q126 107 279 39q137 -61 235 11q13 9 28 2t14 -24q0 -10 -9 -19q-126 -107 -279 -39q-137 61 -235 -11zM1346 52q6 -14 0 -29t-20 -21t-29 0t-21 20l-164 370h-776l-164 -370q-6 -14 -21 -20t-29 0t-19.5 21t0.5 29l586 1322
q10 23 35 23t35 -23zM370 468h709l-355 800z" />
    <glyph glyph-name="Adieresis" unicode="&#xc4;" horiz-adv-x="1447" 
d="M568 1550q-20 0 -34.5 14.5t-14.5 34.5t14.5 34.5t34.5 14.5t34.5 -14.5t14.5 -34.5t-14.5 -34.5t-34.5 -14.5zM881 1550q-20 0 -34 14.5t-14 34.5t14 34.5t34 14.5t34.5 -14.5t14.5 -34.5t-14.5 -34.5t-34.5 -14.5zM1346 52q6 -14 0 -29t-20 -21t-29 0t-21 20l-164 370
h-776l-164 -370q-6 -14 -21 -20t-29 0t-19.5 21t0.5 29l586 1322q10 23 35 23t35 -23zM370 468h709l-355 800z" />
    <glyph glyph-name="Aring" unicode="&#xc5;" horiz-adv-x="1447" 
d="M725 1550q-68 0 -116 48t-48 115t48 115t116 48q67 0 115 -48t48 -115t-48 -115t-115 -48zM725 1818q-44 0 -75.5 -31.5t-31.5 -75.5t31.5 -75t75.5 -31t75 31t31 75t-31 75.5t-75 31.5zM1346 52q6 -14 0 -29t-20 -21t-29 0t-21 20l-164 370h-776l-164 -370
q-6 -14 -21 -20t-29 0t-19.5 21t0.5 29l586 1322q10 23 35 23t35 -23zM370 468h709l-355 800z" />
    <glyph glyph-name="AE" unicode="&#xc6;" horiz-adv-x="2023" 
d="M1826 74q15 0 26 -11t11 -26t-11 -26t-26 -11h-801q-16 0 -26.5 11t-10.5 27v354h-649l-168 -371q-6 -14 -21 -19.5t-29 0.5t-19.5 21t1.5 29l598 1318q10 21 33 23l1092 -1q15 0 26 -11t11 -26t-11 -26t-26 -11h-763v-626h675q15 0 26 -11t11 -26t-11 -26t-26 -11h-675
v-544h763zM374 468h614v850h-228z" />
    <glyph glyph-name="Ccedilla" unicode="&#xc7;" horiz-adv-x="1540" 
d="M1364 305q16 0 27 -11t11 -27q0 -13 -9 -24q-95 -117 -228 -186.5t-284 -76.5l-118 -208q-10 -18 -31 -18q-15 0 -26 10.5t-11 25.5q0 13 8 23l121 167q-141 4 -268 62.5t-219 154t-146 226t-54 273.5q0 146 56 278.5t151 228.5t226 153t275 57q163 0 305.5 -70
t242.5 -193q9 -10 9 -25q0 -16 -11 -26.5t-27 -10.5q-17 0 -28 13q-89 111 -217.5 174.5t-273.5 63.5q-129 0 -246 -51t-201.5 -137t-134.5 -205t-50 -250q0 -175 84.5 -322.5t230 -233.5t317.5 -86q145 0 273.5 63.5t217.5 174.5q11 13 28 13z" />
    <glyph glyph-name="Egrave" unicode="&#xc8;" horiz-adv-x="1259" 
d="M589 1569l-170 265q-6 9 -6 22q0 16 11 27t27 11q23 0 34 -21l151 -275q7 -14 -1 -27.5t-23 -13.5q-14 0 -23 12zM1061 74q15 0 26 -11t11 -26t-11 -26t-26 -11h-862q-16 0 -27 11t-11 27v1317q0 16 11 27t27 11h862q15 0 26 -11t11 -26t-11 -26.5t-26 -11.5l-824 1v-627
h736q15 0 26 -11t11 -26t-11 -26t-26 -11h-736v-544h824z" />
    <glyph glyph-name="Eacute" unicode="&#xc9;" horiz-adv-x="1259" 
d="M647 1557q-15 0 -23.5 13.5t-1.5 27.5l151 275q11 21 34 21q16 0 27.5 -11t11.5 -27q0 -12 -7 -22l-169 -265q-9 -12 -23 -12zM1061 74q15 0 26 -11t11 -26t-11 -26t-26 -11h-862q-16 0 -27 11t-11 27v1317q0 16 11 27t27 11h862q15 0 26 -11t11 -26t-11 -26.5t-26 -11.5
l-824 1v-627h736q15 0 26 -11t11 -26t-11 -26t-26 -11h-736v-544h824z" />
    <glyph glyph-name="Ecircumflex" unicode="&#xca;" horiz-adv-x="1259" 
d="M377 1566q-10 8 -10.5 20.5t9.5 20.5l231 181q10 8 23 8q12 0 22 -8l231 -181q12 -10 10.5 -24.5t-15.5 -20.5q-13 -6 -26 2l-222 152l-223 -152q-16 -10 -30 2zM1061 74q15 0 26 -11t11 -26t-11 -26t-26 -11h-862q-16 0 -27 11t-11 27v1317q0 16 11 27t27 11h862
q15 0 26 -11t11 -26t-11 -26.5t-26 -11.5l-824 1v-627h736q15 0 26 -11t11 -26t-11 -26t-26 -11h-736v-544h824z" />
    <glyph glyph-name="Edieresis" unicode="&#xcb;" horiz-adv-x="1259" 
d="M473 1550q-20 0 -34.5 14.5t-14.5 34.5t14.5 34.5t34.5 14.5t34 -14.5t14 -34.5t-14 -34.5t-34 -14.5zM786 1550q-20 0 -34.5 14.5t-14.5 34.5t14.5 34.5t34.5 14.5t34.5 -14.5t14.5 -34.5t-14.5 -34.5t-34.5 -14.5zM1061 74q15 0 26 -11t11 -26t-11 -26t-26 -11h-862
q-16 0 -27 11t-11 27v1317q0 16 11 27t27 11h862q15 0 26 -11t11 -26t-11 -26.5t-26 -11.5l-824 1v-627h736q15 0 26 -11t11 -26t-11 -26t-26 -11h-736v-544h824z" />
    <glyph glyph-name="Igrave" unicode="&#xcc;" horiz-adv-x="397" 
d="M181 1557q-14 0 -23 12l-169 265q-7 10 -7 22q0 16 11 27t27 11q24 0 35 -21l151 -275q7 -14 -1.5 -27.5t-23.5 -13.5zM199 0q-16 0 -27 11t-11 27v1317q0 16 11 27t27 11t27 -11t11 -27v-1317q0 -16 -11 -27t-27 -11z" />
    <glyph glyph-name="Iacute" unicode="&#xcd;" horiz-adv-x="397" 
d="M239 1569q-9 -12 -23 -12q-15 0 -23.5 13.5t-1.5 27.5l152 275q11 21 34 21q16 0 27 -11t11 -27q0 -12 -7 -22zM199 0q-16 0 -27 11t-11 27v1317q0 16 11 27t27 11t27 -11t11 -27v-1317q0 -16 -11 -27t-27 -11z" />
    <glyph glyph-name="Icircumflex" unicode="&#xce;" horiz-adv-x="397" 
d="M447 1562q-12 -6 -25 2l-223 152l-222 -152q-17 -10 -31 2q-10 8 -10 20.5t10 20.5l231 181q10 8 22 8q13 0 23 -8l230 -181q12 -10 10.5 -24.5t-15.5 -20.5zM199 0q-16 0 -27 11t-11 27v1317q0 16 11 27t27 11t27 -11t11 -27v-1317q0 -16 -11 -27t-27 -11z" />
    <glyph glyph-name="Idieresis" unicode="&#xcf;" horiz-adv-x="397" 
d="M42 1550q-20 0 -34.5 14.5t-14.5 34.5t14.5 34.5t34.5 14.5t34.5 -14.5t14.5 -34.5t-14.5 -34.5t-34.5 -14.5zM355 1550q-20 0 -34 14.5t-14 34.5t14 34.5t34 14.5t34.5 -14.5t14.5 -34.5t-14.5 -34.5t-34.5 -14.5zM199 0q-16 0 -27 11t-11 27v1317q0 16 11 27t27 11
t27 -11t11 -27v-1317q0 -16 -11 -27t-27 -11z" />
    <glyph glyph-name="Ntilde" unicode="&#xd1;" horiz-adv-x="1505" 
d="M511 1565q-13 -9 -27.5 -2t-13.5 24q0 11 8 19q126 107 279 39q138 -61 236 11q13 9 27.5 2t13.5 -24q0 -10 -9 -19q-126 -106 -278 -39q-138 61 -236 -11zM1306 1394q16 0 26.5 -11t10.5 -27v-1320q0 -16 -10.5 -27t-26.5 -11q-14 0 -26 10l-5 -4l-1038 1261v-1229
q0 -16 -11 -27t-27 -11t-27 11t-11 27v1321q0 16 11 27t27 11q15 0 26 -11l5 5l1038 -1259v1226q0 16 11 27t27 11z" />
    <glyph glyph-name="Ograve" unicode="&#xd2;" horiz-adv-x="1699" 
d="M832 1557q-14 0 -23 12l-169 265q-7 10 -7 22q0 16 11.5 27t27.5 11q24 0 34 -21l151 -275q7 -14 -1.5 -27.5t-23.5 -13.5zM850 -20q-144 0 -275.5 56.5t-227 152.5t-151.5 228.5t-56 278.5t56 278.5t151.5 228.5t227 153t275.5 57t275.5 -57t227 -153t151.5 -228.5
t56 -278.5t-56 -278.5t-151.5 -228.5t-227 -152.5t-275.5 -56.5zM850 54q172 0 318 86t231 233.5t85 322.5t-85 323t-231 234t-318 86t-318 -86t-231 -234t-85 -323t85 -322.5t231 -233.5t318 -86z" />
    <glyph glyph-name="Oacute" unicode="&#xd3;" horiz-adv-x="1699" 
d="M891 1569q-9 -12 -23 -12q-15 0 -23.5 13.5t-1.5 27.5l151 275q10 21 34 21q16 0 27.5 -11t11.5 -27q0 -12 -7 -22zM850 -20q-144 0 -275.5 56.5t-227 152.5t-151.5 228.5t-56 278.5t56 278.5t151.5 228.5t227 153t275.5 57t275.5 -57t227 -153t151.5 -228.5t56 -278.5
t-56 -278.5t-151.5 -228.5t-227 -152.5t-275.5 -56.5zM850 54q172 0 318 86t231 233.5t85 322.5t-85 323t-231 234t-318 86t-318 -86t-231 -234t-85 -323t85 -322.5t231 -233.5t318 -86z" />
    <glyph glyph-name="Ocircumflex" unicode="&#xd4;" horiz-adv-x="1699" 
d="M1098 1562q-12 -6 -25 2l-223 152l-222 -152q-17 -10 -31 2q-10 8 -10 20.5t10 20.5l231 181q10 8 22 8q13 0 23 -8l231 -181q12 -10 10 -24.5t-16 -20.5zM850 -20q-144 0 -275.5 56.5t-227 152.5t-151.5 228.5t-56 278.5t56 278.5t151.5 228.5t227 153t275.5 57
t275.5 -57t227 -153t151.5 -228.5t56 -278.5t-56 -278.5t-151.5 -228.5t-227 -152.5t-275.5 -56.5zM850 54q172 0 318 86t231 233.5t85 322.5t-85 323t-231 234t-318 86t-318 -86t-231 -234t-85 -323t85 -322.5t231 -233.5t318 -86z" />
    <glyph glyph-name="Otilde" unicode="&#xd5;" horiz-adv-x="1699" 
d="M845 1576q-138 61 -236 -11q-13 -9 -28 -2t-14 24q0 10 9 19q126 107 279 39q137 -61 235 11q13 9 28 2t14 -24q0 -10 -9 -19q-126 -106 -278 -39zM850 -20q-144 0 -275.5 56.5t-227 152.5t-151.5 228.5t-56 278.5t56 278.5t151.5 228.5t227 153t275.5 57t275.5 -57
t227 -153t151.5 -228.5t56 -278.5t-56 -278.5t-151.5 -228.5t-227 -152.5t-275.5 -56.5zM850 54q172 0 318 86t231 233.5t85 322.5t-85 323t-231 234t-318 86t-318 -86t-231 -234t-85 -323t85 -322.5t231 -233.5t318 -86z" />
    <glyph glyph-name="Odieresis" unicode="&#xd6;" horiz-adv-x="1699" 
d="M693 1550q-20 0 -34 14.5t-14 34.5t14 34.5t34 14.5t34.5 -14.5t14.5 -34.5t-14.5 -34.5t-34.5 -14.5zM1007 1550q-20 0 -34.5 14.5t-14.5 34.5t14.5 34.5t34.5 14.5t34 -14.5t14 -34.5t-14 -34.5t-34 -14.5zM850 -20q-144 0 -275.5 56.5t-227 152.5t-151.5 228.5
t-56 278.5t56 278.5t151.5 228.5t227 153t275.5 57t275.5 -57t227 -153t151.5 -228.5t56 -278.5t-56 -278.5t-151.5 -228.5t-227 -152.5t-275.5 -56.5zM850 54q172 0 318 86t231 233.5t85 322.5t-85 323t-231 234t-318 86t-318 -86t-231 -234t-85 -323t85 -322.5t231 -233.5
t318 -86z" />
    <glyph glyph-name="multiply" unicode="&#xd7;" horiz-adv-x="1132" 
d="M924 366q10 -10 10 -24t-10 -24t-24.5 -10t-24.5 10l-312 312l-306 -306q-10 -10 -24 -10t-24 10t-10 24t10 24l306 306l-300 300q-10 10 -10 24.5t10 24.5t24 10t24 -10l300 -300l306 306q10 10 24.5 10t24.5 -10t10 -24.5t-10 -24.5l-306 -306z" />
    <glyph glyph-name="Oslash" unicode="&#xd8;" horiz-adv-x="1699" 
d="M1378 1176q86 -97 134 -220.5t48 -259.5q0 -146 -56 -278.5t-151.5 -228.5t-227 -152.5t-275.5 -56.5q-136 0 -259.5 49.5t-219.5 138.5l-132 -131q-10 -10 -24 -10t-24.5 10t-10.5 24q0 13 11 24l132 132q-86 97 -134 220t-48 259q0 195 95 360t258 261t356 96
q137 0 260.5 -49.5t219.5 -138.5l132 131q10 10 24 10t24 -10t10 -24t-10 -24zM216 696q0 -243 160 -426l901 902q-86 79 -196 123t-231 44q-172 0 -318 -86t-231 -234t-85 -323zM850 54q172 0 318 86t231 233.5t85 322.5q0 120 -41.5 230t-117.5 196l-901 -901
q86 -80 195.5 -123.5t230.5 -43.5z" />
    <glyph glyph-name="Ugrave" unicode="&#xd9;" horiz-adv-x="1546" 
d="M755 1557q-14 0 -23 12l-169 265q-7 10 -7 22q0 16 11 27t27 11q24 0 34 -21l152 -275q7 -14 -1.5 -27.5t-23.5 -13.5zM773 -20q-166 0 -307 83t-223 225.5t-82 310.5v756q0 16 11 27t27 11t26.5 -11t10.5 -27v-756q0 -148 72 -273.5t195.5 -198.5t269.5 -73
q109 0 208.5 43t171 116t114 174t42.5 212v756q0 16 10.5 27t26.5 11t27 -11t11 -27v-756q0 -168 -81.5 -310.5t-222.5 -225.5t-307 -83z" />
    <glyph glyph-name="Uacute" unicode="&#xda;" horiz-adv-x="1546" 
d="M813 1569q-9 -12 -23 -12q-15 0 -23.5 13.5t-1.5 27.5l152 275q11 21 34 21q16 0 27 -11t11 -27q0 -12 -7 -22zM773 -20q-166 0 -307 83t-223 225.5t-82 310.5v756q0 16 11 27t27 11t26.5 -11t10.5 -27v-756q0 -148 72 -273.5t195.5 -198.5t269.5 -73q109 0 208.5 43
t171 116t114 174t42.5 212v756q0 16 10.5 27t26.5 11t27 -11t11 -27v-756q0 -168 -81.5 -310.5t-222.5 -225.5t-307 -83z" />
    <glyph glyph-name="Ucircumflex" unicode="&#xdb;" horiz-adv-x="1546" 
d="M1021 1562q-12 -6 -25 2l-223 152l-222 -152q-17 -10 -31 2q-10 8 -10 20.5t10 20.5l231 181q10 8 22 8q13 0 23 -8l230 -181q12 -10 10.5 -24.5t-15.5 -20.5zM773 -20q-166 0 -307 83t-223 225.5t-82 310.5v756q0 16 11 27t27 11t26.5 -11t10.5 -27v-756
q0 -148 72 -273.5t195.5 -198.5t269.5 -73q109 0 208.5 43t171 116t114 174t42.5 212v756q0 16 10.5 27t26.5 11t27 -11t11 -27v-756q0 -168 -81.5 -310.5t-222.5 -225.5t-307 -83z" />
    <glyph glyph-name="Udieresis" unicode="&#xdc;" horiz-adv-x="1546" 
d="M616 1550q-20 0 -34.5 14.5t-14.5 34.5t14.5 34.5t34.5 14.5t34.5 -14.5t14.5 -34.5t-14.5 -34.5t-34.5 -14.5zM929 1550q-20 0 -34 14.5t-14 34.5t14 34.5t34 14.5t34.5 -14.5t14.5 -34.5t-14.5 -34.5t-34.5 -14.5zM773 -20q-166 0 -307 83t-223 225.5t-82 310.5v756
q0 16 11 27t27 11t26.5 -11t10.5 -27v-756q0 -148 72 -273.5t195.5 -198.5t269.5 -73q109 0 208.5 43t171 116t114 174t42.5 212v756q0 16 10.5 27t26.5 11t27 -11t11 -27v-756q0 -168 -81.5 -310.5t-222.5 -225.5t-307 -83z" />
    <glyph glyph-name="Yacute" unicode="&#xdd;" horiz-adv-x="1417" 
d="M727 1557q-15 0 -23.5 13.5t-1.5 27.5l151 275q11 21 34 21q16 0 27.5 -11t11.5 -27q0 -12 -7 -22l-169 -265q-9 -12 -23 -12zM1300 1389q13 -8 16 -24t-5 -29l-564 -850v-452q0 -16 -11 -27t-27 -11t-27 11t-11 27v450l-566 852q-8 13 -5 29t16 24t29 5t24 -16l539 -814
l540 814q8 13 23.5 16t28.5 -5z" />
    <glyph glyph-name="Thorn" unicode="&#xde;" horiz-adv-x="1259" 
d="M654 1168q126 0 233 -63.5t169 -172t62 -236.5t-62 -237t-169 -172t-233 -63h-417v-186q0 -16 -11 -27t-27 -11t-27 11t-11 27v1317q0 16 11 27t27 11t27 -11t11 -27v-187h417zM654 299q161 0 274.5 116t113.5 281t-113.5 281.5t-274.5 116.5h-417v-795h417z" />
    <glyph glyph-name="germandbls" unicode="&#xdf;" horiz-adv-x="1232" 
d="M776 734q138 -34 218.5 -124t80.5 -232q0 -125 -63.5 -212.5t-166.5 -128t-235 -40.5h-91q-14 0 -24.5 10t-10.5 24t10.5 24.5t24.5 10.5h91q172 0 282.5 80.5t110.5 233.5t-110.5 234t-282.5 81h-92q-14 0 -24 10t-10 24t10 23.5t24 10.5l92 1q56 0 109.5 16.5t103 51
t79.5 96t30 142.5q0 88 -52 156t-134 101.5t-178 34.5q-151 1 -245 -96t-94 -264v-966q0 -15 -10 -25.5t-25 -10.5t-25.5 10.5t-10.5 25.5v977q0 197 113 309t294 112q182 0 310 -100.5t128 -261.5q0 -126 -60.5 -212.5t-166.5 -125.5z" />
    <glyph glyph-name="agrave" unicode="&#xe0;" horiz-adv-x="1312" 
d="M597 1164l-170 265q-6 9 -6 22q0 16 11 27t27 11q24 0 34 -20l151 -276q7 -14 -1 -27.5t-23 -13.5q-14 0 -23 12zM1116 988q15 0 25.5 -10.5t10.5 -25.5v-916q0 -15 -10.5 -25.5t-25.5 -10.5t-25.5 10.5t-10.5 25.5v222q-63 -126 -181.5 -202t-260.5 -76q-135 0 -250 69
t-181.5 187t-66.5 258t66.5 258t181.5 187t250 69q142 0 260.5 -76t181.5 -202v222q0 15 10.5 25.5t25.5 10.5zM647 49q180 0 307 130t127 315t-127 315t-307 130t-307.5 -130.5t-127.5 -314.5t127.5 -314.5t307.5 -130.5z" />
    <glyph glyph-name="aacute" unicode="&#xe1;" horiz-adv-x="1312" 
d="M655 1152q-15 0 -23.5 13.5t-1.5 27.5l151 276q10 20 34 20q16 0 27.5 -11t11.5 -27q0 -11 -7 -22l-169 -265q-9 -12 -23 -12zM1116 988q15 0 25.5 -10.5t10.5 -25.5v-916q0 -15 -10.5 -25.5t-25.5 -10.5t-25.5 10.5t-10.5 25.5v222q-63 -126 -181.5 -202.5t-260.5 -76.5
q-135 0 -250 69t-181.5 187.5t-66.5 258.5t66.5 258t181.5 187t250 69q142 0 260.5 -76t181.5 -202v222q0 15 10.5 25.5t25.5 10.5zM647 49q180 0 307 130t127 315t-127 315t-307 130t-307.5 -130.5t-127.5 -314.5t127.5 -314.5t307.5 -130.5z" />
    <glyph glyph-name="acircumflex" unicode="&#xe2;" horiz-adv-x="1312" 
d="M385 1162q-10 8 -10.5 20.5t9.5 20.5l231 181q8 7 23 7q14 0 22 -7l231 -181q12 -10 10.5 -25t-15.5 -21q-13 -6 -26 2l-222 152l-223 -152q-16 -9 -30 3zM1116 988q15 0 25.5 -10.5t10.5 -25.5v-916q0 -15 -10.5 -25.5t-25.5 -10.5t-25.5 10.5t-10.5 25.5v222
q-63 -126 -181.5 -202t-260.5 -76q-135 0 -250 69t-181.5 187t-66.5 258t66.5 258t181.5 187t250 69q142 0 260.5 -76t181.5 -202v222q0 15 10.5 25.5t25.5 10.5zM647 49q180 0 307 130t127 315t-127 315t-307 130t-307.5 -130.5t-127.5 -314.5t127.5 -314.5t307.5 -130.5z
" />
    <glyph glyph-name="atilde" unicode="&#xe3;" horiz-adv-x="1312" 
d="M396 1160q-13 -9 -27.5 -2t-13.5 24q0 10 9 19q126 106 278 39q138 -61 236 11q13 9 27.5 2t13.5 -24q0 -11 -8 -19q-125 -106 -279 -38q-137 60 -236 -12zM1116 988q15 0 25.5 -10.5t10.5 -25.5v-916q0 -15 -10.5 -25.5t-25.5 -10.5t-25.5 10.5t-10.5 25.5v222
q-63 -126 -181.5 -202t-260.5 -76q-135 0 -250 69t-181.5 187t-66.5 258t66.5 258t181.5 187t250 69q142 0 260.5 -76t181.5 -202v222q0 15 10.5 25.5t25.5 10.5zM647 49q180 0 307 130t127 315t-127 315t-307 130t-307.5 -130.5t-127.5 -314.5t127.5 -314.5t307.5 -130.5z
" />
    <glyph glyph-name="adieresis" unicode="&#xe4;" horiz-adv-x="1312" 
d="M481 1146q-20 0 -34.5 14.5t-14.5 34.5t14.5 34.5t34.5 14.5t34 -14.5t14 -34.5t-14 -34.5t-34 -14.5zM794 1146q-20 0 -34.5 14.5t-14.5 34.5t14.5 34.5t34.5 14.5t34.5 -14.5t14.5 -34.5t-14.5 -34.5t-34.5 -14.5zM1116 988q15 0 25.5 -10.5t10.5 -25.5v-916
q0 -15 -10.5 -25.5t-25.5 -10.5t-25.5 10.5t-10.5 25.5v222q-63 -126 -181.5 -202t-260.5 -76q-135 0 -250 69t-181.5 187t-66.5 258t66.5 258t181.5 187t250 69q142 0 260.5 -76t181.5 -202v222q0 15 10.5 25.5t25.5 10.5zM647 49q180 0 307 130t127 315t-127 315t-307 130
t-307.5 -130.5t-127.5 -314.5t127.5 -314.5t307.5 -130.5z" />
    <glyph glyph-name="aring" unicode="&#xe5;" horiz-adv-x="1312" 
d="M637 1146q-68 0 -116 47.5t-48 114.5t48 115t116 48t116 -48t48 -115t-48 -114.5t-116 -47.5zM637 1413q-44 0 -75 -31t-31 -75t31 -75.5t75 -31.5t75.5 31.5t31.5 75.5t-31.5 75t-75.5 31zM1116 988q15 0 25.5 -10.5t10.5 -25.5v-916q0 -15 -10.5 -25.5t-25.5 -10.5
t-25.5 10.5t-10.5 25.5v222q-63 -126 -181.5 -202t-260.5 -76q-135 0 -250 69t-181.5 187t-66.5 258t66.5 258t181.5 187t250 69q142 0 260.5 -76t181.5 -202v222q0 15 10.5 25.5t25.5 10.5zM647 49q180 0 307 130t127 315t-127 315t-307 130t-307.5 -130.5t-127.5 -314.5
t127.5 -314.5t307.5 -130.5z" />
    <glyph glyph-name="ae" unicode="&#xe6;" horiz-adv-x="2209" 
d="M1583 1008q99 0 189 -40.5t155 -109.5t103.5 -164t38.5 -200v-25q0 -14 -10.5 -24.5t-25.5 -10.5h-860q20 -168 137 -277t279 -108q103 1 212 38.5t199 101.5q8 5 16 5q14 0 24.5 -10.5t10.5 -24.5q0 -20 -18 -30q-99 -69 -216.5 -109.5t-227.5 -40.5q-143 0 -259 74
t-178 200v-217q0 -15 -10.5 -25.5t-25.5 -10.5t-25.5 10.5t-10.5 25.5v222q-63 -126 -181.5 -202t-260.5 -76q-135 0 -250 69t-181.5 187t-66.5 258t66.5 258t181.5 187t250 69q142 0 260.5 -76t181.5 -202v222q0 15 10.5 25.5t25.5 10.5t25.5 -10.5t10.5 -25.5v-221
q62 126 177.5 201.5t253.5 75.5zM647 49q180 0 307 130t127 315t-127 315t-307 130t-307.5 -130.5t-127.5 -314.5t127.5 -314.5t307.5 -130.5zM1583 939q-169 0 -290 -127t-124 -309h828q-3 182 -124 309t-290 127z" />
    <glyph glyph-name="ccedilla" unicode="&#xe7;" horiz-adv-x="1175" 
d="M980 191q14 0 24.5 -10.5t10.5 -24.5q0 -16 -11 -25q-142 -143 -337 -151l-111 -196q-10 -19 -32 -19q-15 0 -25.5 11t-10.5 26q0 12 8 22l113 157q-197 15 -333 163t-136 350q0 105 40.5 200t108.5 164t161.5 109.5t196.5 40.5q209 0 357 -150q11 -9 11 -26
q0 -14 -10.5 -24t-24.5 -10t-23 9q-130 132 -310 132q-118 0 -218 -59.5t-158.5 -162t-58.5 -223.5t58.5 -223.5t158.5 -162t218 -59.5q179 0 310 133q9 9 23 9z" />
    <glyph glyph-name="egrave" unicode="&#xe8;" horiz-adv-x="1253" 
d="M586 1164l-170 265q-7 10 -7 22q0 16 11.5 27t27.5 11q24 0 34 -20l151 -276q7 -14 -1.5 -27.5t-23.5 -13.5q-13 0 -22 12zM626 1008q99 0 189 -40.5t155 -109.5t103.5 -164t38.5 -200v-25q0 -14 -10.5 -24.5t-25.5 -10.5h-860q20 -167 137 -276t279 -109q103 1 212 38.5
t199 101.5q8 5 16 5q14 0 24.5 -10.5t10.5 -24.5q0 -20 -19 -30q-99 -69 -216 -109.5t-227 -40.5q-207 0 -349.5 148.5t-142.5 366.5q0 105 38.5 200t103.5 164t155 109.5t189 40.5zM626 939q-169 0 -290 -127t-124 -309h828q-3 182 -124 309t-290 127z" />
    <glyph glyph-name="eacute" unicode="&#xe9;" horiz-adv-x="1253" 
d="M644 1152q-15 0 -23.5 13.5t-1.5 27.5l151 276q10 20 34 20q16 0 27.5 -11t11.5 -27q0 -11 -7 -22l-169 -265q-9 -12 -23 -12zM626 1008q99 0 189 -40.5t155 -109.5t103.5 -164t38.5 -200v-25q0 -14 -10.5 -24.5t-25.5 -10.5h-860q20 -167 137 -276t279 -109
q103 1 212 38.5t199 101.5q8 5 16 5q14 0 24.5 -10.5t10.5 -24.5q0 -20 -19 -30q-99 -69 -216 -109.5t-227 -40.5q-207 0 -349.5 148.5t-142.5 366.5q0 105 38.5 200t103.5 164t155 109.5t189 40.5zM626 939q-169 0 -290 -127t-124 -309h828q-3 182 -124 309t-290 127z" />
    <glyph glyph-name="ecircumflex" unicode="&#xea;" horiz-adv-x="1253" 
d="M374 1162q-10 8 -10.5 20.5t9.5 20.5l231 181q8 7 23 7q14 0 22 -7l231 -181q12 -10 10.5 -25t-15.5 -21q-13 -6 -26 2l-222 152l-223 -152q-16 -9 -30 3zM626 1008q99 0 189 -40.5t155 -109.5t103.5 -164t38.5 -200v-25q0 -14 -10.5 -24.5t-25.5 -10.5h-860
q20 -167 137 -276t279 -109q103 1 212 38.5t199 101.5q8 5 16 5q14 0 24.5 -10.5t10.5 -24.5q0 -20 -19 -30q-99 -69 -216 -109.5t-227 -40.5q-207 0 -349.5 148.5t-142.5 366.5q0 105 38.5 200t103.5 164t155 109.5t189 40.5zM626 939q-169 0 -290 -127t-124 -309h828
q-3 182 -124 309t-290 127z" />
    <glyph glyph-name="edieresis" unicode="&#xeb;" horiz-adv-x="1253" 
d="M469 1146q-20 0 -34 14.5t-14 34.5t14 34.5t34 14.5t34.5 -14.5t14.5 -34.5t-14.5 -34.5t-34.5 -14.5zM783 1146q-20 0 -34.5 14.5t-14.5 34.5t14.5 34.5t34.5 14.5t34.5 -14.5t14.5 -34.5t-14.5 -34.5t-34.5 -14.5zM626 1008q99 0 189 -40.5t155 -109.5t103.5 -164
t38.5 -200v-25q0 -14 -10.5 -24.5t-25.5 -10.5h-860q20 -167 137 -276t279 -109q103 1 212 38.5t199 101.5q8 5 16 5q14 0 24.5 -10.5t10.5 -24.5q0 -20 -19 -30q-99 -69 -216 -109.5t-227 -40.5q-207 0 -349.5 148.5t-142.5 366.5q0 105 38.5 200t103.5 164t155 109.5
t189 40.5zM626 939q-169 0 -290 -127t-124 -309h828q-3 182 -124 309t-290 127z" />
    <glyph glyph-name="igrave" unicode="&#xec;" horiz-adv-x="393" 
d="M179 1152q-14 0 -23 12l-169 265q-7 11 -7 22q0 16 11 27t27 11q24 0 34 -20l152 -276q7 -14 -1.5 -27.5t-23.5 -13.5zM197 0q-15 0 -25.5 10.5t-10.5 25.5v916q0 15 10.5 25.5t25.5 10.5t25 -10.5t10 -25.5v-916q0 -15 -10 -25.5t-25 -10.5z" />
    <glyph glyph-name="iacute" unicode="&#xed;" horiz-adv-x="393" 
d="M237 1164q-9 -12 -23 -12q-15 0 -23.5 13.5t-1.5 27.5l152 276q10 20 34 20q16 0 27 -11t11 -27q0 -11 -7 -22zM197 0q-15 0 -25.5 10.5t-10.5 25.5v916q0 15 10.5 25.5t25.5 10.5t25 -10.5t10 -25.5v-916q0 -15 -10 -25.5t-25 -10.5z" />
    <glyph glyph-name="icircumflex" unicode="&#xee;" horiz-adv-x="393" 
d="M445 1157q-12 -6 -25 2l-223 152l-222 -152q-16 -10 -31 3q-10 8 -10 20.5t10 20.5l231 181q8 7 22 7q15 0 23 -7l230 -181q12 -10 10.5 -25t-15.5 -21zM197 0q-15 0 -25.5 10.5t-10.5 25.5v916q0 15 10.5 25.5t25.5 10.5t25 -10.5t10 -25.5v-916q0 -15 -10 -25.5
t-25 -10.5z" />
    <glyph glyph-name="idieresis" unicode="&#xef;" horiz-adv-x="393" 
d="M40 1146q-20 0 -34.5 14.5t-14.5 34.5t14.5 34.5t34.5 14.5t34.5 -14.5t14.5 -34.5t-14.5 -34.5t-34.5 -14.5zM353 1146q-20 0 -34 14.5t-14 34.5t14 34.5t34 14.5t34.5 -14.5t14.5 -34.5t-14.5 -34.5t-34.5 -14.5zM197 0q-15 0 -25.5 10.5t-10.5 25.5v916
q0 15 10.5 25.5t25.5 10.5t25 -10.5t10 -25.5v-916q0 -15 -10 -25.5t-25 -10.5z" />
    <glyph glyph-name="ntilde" unicode="&#xf1;" 
d="M396 1160q-13 -9 -28 -2t-14 24q0 10 9 19q126 106 278 39q138 -61 236 11q13 9 28 2t14 -24q0 -10 -9 -19q-125 -106 -279 -38q-136 60 -235 -12zM646 1008q193 0 329.5 -139t136.5 -335v-498q0 -15 -10.5 -25.5t-25.5 -10.5t-25.5 10.5t-10.5 25.5v489
q0 172 -118.5 293t-285.5 121t-285.5 -121t-118.5 -293v-489q0 -15 -10 -25.5t-25 -10.5t-25.5 10.5t-10.5 25.5v916q0 15 10.5 25.5t25.5 10.5t25 -10.5t10 -25.5v-201q59 116 170 186.5t244 70.5z" />
    <glyph glyph-name="ograve" unicode="&#xf2;" horiz-adv-x="1294" 
d="M629 1152q-14 0 -23 12l-169 265q-7 10 -7 22q0 16 11 27t27 11q25 0 35 -20l151 -276q7 -14 -1.5 -27.5t-23.5 -13.5zM647 -20q-103 0 -196.5 40.5t-161.5 109.5t-108.5 164t-40.5 200t40.5 200t108.5 164t161.5 109.5t196.5 40.5q137 0 253.5 -68.5t184.5 -187
t68 -258.5t-68 -258.5t-184.5 -187t-253.5 -68.5zM647 49q180 0 307 130t127 315t-127 315t-307 130t-307.5 -130.5t-127.5 -314.5t127.5 -314.5t307.5 -130.5z" />
    <glyph glyph-name="oacute" unicode="&#xf3;" horiz-adv-x="1294" 
d="M687 1164q-9 -12 -23 -12q-15 0 -23.5 13.5t-1.5 27.5l152 276q10 20 34 20q16 0 27 -11t11 -27q0 -11 -7 -22zM647 -20q-103 0 -196.5 40.5t-161.5 109.5t-108.5 164t-40.5 200t40.5 200t108.5 164t161.5 109.5t196.5 40.5q137 0 253.5 -68.5t184.5 -187t68 -258.5
t-68 -258.5t-184.5 -187t-253.5 -68.5zM647 49q180 0 307 130t127 315t-127 315t-307 130t-307.5 -130.5t-127.5 -314.5t127.5 -314.5t307.5 -130.5z" />
    <glyph glyph-name="ocircumflex" unicode="&#xf4;" horiz-adv-x="1294" 
d="M895 1157q-12 -6 -25 2l-223 152l-222 -152q-16 -10 -31 3q-10 8 -10 20.5t10 20.5l231 181q8 7 22 7q15 0 23 -7l230 -181q12 -10 10.5 -25t-15.5 -21zM647 -20q-103 0 -196.5 40.5t-161.5 109.5t-108.5 164t-40.5 200t40.5 200t108.5 164t161.5 109.5t196.5 40.5
q137 0 253.5 -68.5t184.5 -187t68 -258.5t-68 -258.5t-184.5 -187t-253.5 -68.5zM647 49q180 0 307 130t127 315t-127 315t-307 130t-307.5 -130.5t-127.5 -314.5t127.5 -314.5t307.5 -130.5z" />
    <glyph glyph-name="otilde" unicode="&#xf5;" horiz-adv-x="1294" 
d="M641 1172q-136 60 -235 -12q-13 -9 -28 -2t-14 24q0 10 9 19q126 107 279 39q137 -61 235 11q13 9 28 2t14 -24q0 -10 -9 -19q-125 -106 -279 -38zM647 -20q-103 0 -196.5 40.5t-161.5 109.5t-108.5 164t-40.5 200t40.5 200t108.5 164t161.5 109.5t196.5 40.5
q137 0 253.5 -68.5t184.5 -187t68 -258.5t-68 -258.5t-184.5 -187t-253.5 -68.5zM647 49q180 0 307 130t127 315t-127 315t-307 130t-307.5 -130.5t-127.5 -314.5t127.5 -314.5t307.5 -130.5z" />
    <glyph glyph-name="odieresis" unicode="&#xf6;" horiz-adv-x="1294" 
d="M490 1146q-20 0 -34.5 14.5t-14.5 34.5t14.5 34.5t34.5 14.5t34.5 -14.5t14.5 -34.5t-14.5 -34.5t-34.5 -14.5zM803 1146q-20 0 -34 14.5t-14 34.5t14 34.5t34 14.5t34.5 -14.5t14.5 -34.5t-14.5 -34.5t-34.5 -14.5zM647 -20q-103 0 -196.5 40.5t-161.5 109.5t-108.5 164
t-40.5 200t40.5 200t108.5 164t161.5 109.5t196.5 40.5q137 0 253.5 -68.5t184.5 -187t68 -258.5t-68 -258.5t-184.5 -187t-253.5 -68.5zM647 49q180 0 307 130t127 315t-127 315t-307 130t-307.5 -130.5t-127.5 -314.5t127.5 -314.5t307.5 -130.5z" />
    <glyph glyph-name="divide" unicode="&#xf7;" horiz-adv-x="1269" 
d="M627 826q-23 0 -40 16.5t-17 38.5t17 38t40 16t40 -16t17 -38t-17 -38.5t-40 -16.5zM233 642q-14 0 -24 10t-10 24t10 24t24 10h804q14 0 24.5 -10t10.5 -24t-10.5 -24t-24.5 -10h-804zM627 416q-23 0 -40 16.5t-17 38.5t17 38.5t40 16.5t40 -16.5t17 -38.5t-17 -38.5
t-40 -16.5z" />
    <glyph glyph-name="oslash" unicode="&#xf8;" horiz-adv-x="1294" 
d="M926 923q105 -70 166 -183.5t61 -245.5q0 -140 -68 -258.5t-184.5 -187t-253.5 -68.5q-125 0 -233 57l-90 -156q-10 -17 -29 -17q-20 0 -30 17t0 34l91 158q-100 71 -158 182t-58 239q0 105 40.5 200t108.5 164t161.5 109.5t196.5 40.5q116 0 220 -51l102 178
q10 17 30 17t29.5 -17t-0.5 -34zM212 494q0 -109 48 -203.5t131 -156.5l441 763q-87 42 -185 42q-180 0 -307.5 -130.5t-127.5 -314.5zM647 49q180 0 307 130t127 315q0 113 -51 210t-139 158l-442 -764q93 -49 198 -49z" />
    <glyph glyph-name="ugrave" unicode="&#xf9;" 
d="M596 1164l-169 265q-7 10 -7 22q0 16 11 27t27 11q24 0 34 -20l152 -276q7 -14 -1.5 -27.5t-23.5 -13.5q-14 0 -23 12zM1076 988q15 0 25.5 -10.5t10.5 -25.5v-916q0 -15 -10.5 -25.5t-25.5 -10.5t-25.5 10.5t-10.5 25.5v201q-59 -116 -170 -186.5t-244 -70.5
q-193 0 -329 139t-136 335v498q0 15 10.5 25.5t25.5 10.5t25 -10.5t10 -25.5v-489q0 -172 118.5 -293t285.5 -121t285.5 121t118.5 293v489q0 15 10.5 25.5t25.5 10.5z" />
    <glyph glyph-name="uacute" unicode="&#xfa;" 
d="M654 1152q-15 0 -23.5 13.5t-1.5 27.5l152 276q10 20 34 20q16 0 27 -11t11 -27q0 -11 -7 -22l-169 -265q-9 -12 -23 -12zM1076 988q15 0 25.5 -10.5t10.5 -25.5v-916q0 -15 -10.5 -25.5t-25.5 -10.5t-25.5 10.5t-10.5 25.5v201q-59 -116 -170 -186.5t-244 -70.5
q-193 0 -329 139t-136 335v498q0 15 10.5 25.5t25.5 10.5t25 -10.5t10 -25.5v-489q0 -172 118.5 -293t285.5 -121t285.5 121t118.5 293v489q0 15 10.5 25.5t25.5 10.5z" />
    <glyph glyph-name="ucircumflex" unicode="&#xfb;" 
d="M384 1162q-10 8 -10 20.5t10 20.5l230 181q8 7 23 7q14 0 22 -7l231 -181q12 -10 10.5 -25t-15.5 -21q-13 -6 -26 2l-222 152l-223 -152q-16 -9 -30 3zM1076 988q15 0 25.5 -10.5t10.5 -25.5v-916q0 -15 -10.5 -25.5t-25.5 -10.5t-25.5 10.5t-10.5 25.5v201
q-59 -116 -170 -186.5t-244 -70.5q-193 0 -329 139t-136 335v498q0 15 10.5 25.5t25.5 10.5t25 -10.5t10 -25.5v-489q0 -172 118.5 -293t285.5 -121t285.5 121t118.5 293v489q0 15 10.5 25.5t25.5 10.5z" />
    <glyph glyph-name="udieresis" unicode="&#xfc;" 
d="M480 1146q-20 0 -34.5 14.5t-14.5 34.5t14.5 34.5t34.5 14.5t34 -14.5t14 -34.5t-14 -34.5t-34 -14.5zM793 1146q-20 0 -34.5 14.5t-14.5 34.5t14.5 34.5t34.5 14.5t34.5 -14.5t14.5 -34.5t-14.5 -34.5t-34.5 -14.5zM1076 988q15 0 25.5 -10.5t10.5 -25.5v-916
q0 -15 -10.5 -25.5t-25.5 -10.5t-25.5 10.5t-10.5 25.5v201q-59 -116 -170 -186.5t-244 -70.5q-193 0 -329 139t-136 335v498q0 15 10.5 25.5t25.5 10.5t25 -10.5t10 -25.5v-489q0 -172 118.5 -293t285.5 -121t285.5 121t118.5 293v489q0 15 10.5 25.5t25.5 10.5z" />
    <glyph glyph-name="yacute" unicode="&#xfd;" 
d="M675 1164q-9 -12 -23 -12q-15 0 -23.5 13.5t-1.5 27.5l152 276q10 20 34 20q16 0 27 -11t11 -27q0 -11 -7 -22zM640 -435q-113 0 -234 35t-222 97q-19 10 -19 32q0 20 17 30.5t35 0.5q94 -58 205 -91t217 -33q191 0 297 101.5t106 291.5v217q-56 -120 -168 -193t-246 -73
q-193 0 -329.5 139t-136.5 335v500q0 15 10.5 25.5t25.5 10.5t25.5 -10.5t10.5 -25.5v-491q0 -172 118.5 -293t285.5 -121t285.5 121t118.5 292v492q0 15 10.5 25.5t25.5 10.5t25.5 -10.5t10.5 -25.5v-925q0 -221 -127.5 -342.5t-346.5 -121.5z" />
    <glyph glyph-name="thorn" unicode="&#xfe;" horiz-adv-x="1312" 
d="M675 1008q135 0 250 -69t181.5 -187t66.5 -258t-66.5 -258t-181.5 -187t-250 -69q-142 0 -261 76t-182 202v-657q0 -15 -10 -25.5t-25 -10.5t-25.5 10.5t-10.5 25.5v1797q0 15 10.5 25.5t25.5 10.5t25 -10.5t10 -25.5v-668q63 126 182 202t261 76zM666 49
q180 0 307.5 130.5t127.5 314.5t-127.5 314.5t-307.5 130.5t-307 -130t-127 -315t127 -315t307 -130z" />
    <glyph glyph-name="ydieresis" unicode="&#xff;" 
d="M478 1146q-20 0 -34.5 14.5t-14.5 34.5t14.5 34.5t34.5 14.5t34 -14.5t14 -34.5t-14 -34.5t-34 -14.5zM791 1146q-20 0 -34 14.5t-14 34.5t14 34.5t34 14.5t34.5 -14.5t14.5 -34.5t-14.5 -34.5t-34.5 -14.5zM640 -435q-113 0 -234 35t-222 97q-19 10 -19 32q0 20 17 30.5
t35 0.5q94 -58 205 -91t217 -33q191 0 297 101.5t106 291.5v217q-56 -120 -168 -193t-246 -73q-193 0 -329.5 139t-136.5 335v500q0 15 10.5 25.5t25.5 10.5t25.5 -10.5t10.5 -25.5v-491q0 -172 118.5 -293t285.5 -121t285.5 121t118.5 292v492q0 15 10.5 25.5t25.5 10.5
t25.5 -10.5t10.5 -25.5v-925q0 -221 -127.5 -342.5t-346.5 -121.5z" />
    <glyph glyph-name="Amacron" unicode="&#x100;" horiz-adv-x="1447" 
d="M422 1612q-13 0 -22 9t-9 22t9 22t22 9h615q13 0 22 -9t9 -22t-9 -22t-22 -9h-615zM1346 52q6 -14 0 -29t-20 -21t-29 0t-21 20l-164 370h-776l-164 -370q-6 -14 -21 -20t-29 0t-19.5 21t0.5 29l586 1322q10 23 35 23t35 -23zM370 468h709l-355 800z" />
    <glyph glyph-name="amacron" unicode="&#x101;" horiz-adv-x="1312" 
d="M335 1207q-13 0 -22 9t-9 22t9 22t22 9h615q13 0 22 -9t9 -22t-9 -22t-22 -9h-615zM1116 988q15 0 25.5 -10.5t10.5 -25.5v-916q0 -15 -10.5 -25.5t-25.5 -10.5t-25.5 10.5t-10.5 25.5v222q-63 -126 -181.5 -202t-260.5 -76q-135 0 -250 69t-181.5 187t-66.5 258
t66.5 258t181.5 187t250 69q142 0 260.5 -76t181.5 -202v222q0 15 10.5 25.5t25.5 10.5zM647 49q180 0 307 130t127 315t-127 315t-307 130t-307.5 -130.5t-127.5 -314.5t127.5 -314.5t307.5 -130.5z" />
    <glyph glyph-name="Abreve" unicode="&#x102;" horiz-adv-x="1447" 
d="M725 1550q-83 0 -145.5 56.5t-73.5 141.5q-3 13 6 24.5t23 11.5q23 0 28 -23q8 -65 54 -109t108 -44t107.5 43.5t53.5 109.5q5 23 29 23q14 0 22.5 -11t5.5 -25q-11 -85 -73 -141.5t-145 -56.5zM1346 52q6 -14 0 -29t-20 -21t-29 0t-21 20l-164 370h-776l-164 -370
q-6 -14 -21 -20t-29 0t-19.5 21t0.5 29l586 1322q10 23 35 23t35 -23zM370 468h709l-355 800z" />
    <glyph glyph-name="abreve" unicode="&#x103;" horiz-adv-x="1312" 
d="M637 1146q-83 0 -145 56t-73 141q-3 13 5.5 25t22.5 12q23 0 29 -24q8 -65 53.5 -108.5t107.5 -43.5t107.5 43.5t53.5 108.5q6 24 29 24q14 0 23 -12t6 -25q-11 -85 -73.5 -141t-145.5 -56zM1116 988q15 0 25.5 -10.5t10.5 -25.5v-916q0 -15 -10.5 -25.5t-25.5 -10.5
t-25.5 10.5t-10.5 25.5v222q-63 -126 -181.5 -202t-260.5 -76q-135 0 -250 69t-181.5 187t-66.5 258t66.5 258t181.5 187t250 69q142 0 260.5 -76t181.5 -202v222q0 15 10.5 25.5t25.5 10.5zM647 49q180 0 307 130t127 315t-127 315t-307 130t-307.5 -130.5t-127.5 -314.5
t127.5 -314.5t307.5 -130.5z" />
    <glyph glyph-name="Aogonek" unicode="&#x104;" horiz-adv-x="1447" 
d="M1407 -158q14 7 27.5 -1.5t13.5 -24.5q0 -17 -15 -25q-104 -59 -186.5 -35t-81.5 114q1 86 112 150l-1 1v1l-164 370h-776l-164 -370q-6 -14 -21 -20t-29 0t-19.5 21t0.5 29l586 1322q10 23 35 23t35 -23l587 -1322q6 -14 0 -29t-20 -21q0 -1 -1 -1q-97 -58 -95 -126
q1 -36 27.5 -52t67 -10.5t82.5 29.5zM370 468h709l-355 800z" />
    <glyph glyph-name="aogonek" unicode="&#x105;" horiz-adv-x="1312" 
d="M1211 -158q14 7 27.5 -1.5t13.5 -24.5t-16 -25q-104 -59 -186 -35t-81 114q1 87 115 151q-4 8 -4 15v222q-63 -126 -181.5 -202t-260.5 -76q-135 0 -250 69t-181.5 187t-66.5 258t66.5 258t181.5 187t250 69q142 0 260.5 -76t181.5 -202v222q0 15 10.5 25.5t25.5 10.5
t25.5 -10.5t10.5 -25.5v-916q0 -25 -22 -33q-47 -27 -72.5 -61t-24.5 -67q1 -36 28 -52t67.5 -10.5t82.5 29.5zM647 49q180 0 307 130t127 315t-127 315t-307 130t-307.5 -130.5t-127.5 -314.5t127.5 -314.5t307.5 -130.5z" />
    <glyph glyph-name="Cacute" unicode="&#x106;" horiz-adv-x="1540" 
d="M888 1569q-9 -12 -23 -12q-15 0 -23.5 13.5t-1.5 27.5l151 275q11 21 34 21q16 0 27.5 -11t11.5 -27q0 -12 -7 -22zM845 -20q-144 0 -275 56.5t-226 152.5t-151 228.5t-56 278.5t56 278.5t151 228.5t226 153t275 57q163 0 305.5 -70t242.5 -193q9 -10 9 -25
q0 -16 -11 -26.5t-27 -10.5q-17 0 -28 13q-89 111 -217.5 174.5t-273.5 63.5q-129 0 -246 -51t-201.5 -137t-134.5 -205t-50 -250q0 -175 84.5 -322.5t230 -233.5t317.5 -86q145 0 273.5 63.5t217.5 174.5q11 13 28 13q16 0 27 -11t11 -27q0 -13 -9 -24
q-100 -123 -242.5 -193t-305.5 -70z" />
    <glyph glyph-name="cacute" unicode="&#x107;" horiz-adv-x="1175" 
d="M687 1164q-9 -12 -23 -12q-15 0 -23.5 13.5t-1.5 27.5l152 276q10 20 34 20q16 0 27 -11t11 -27q0 -11 -7 -22zM647 49q179 0 310 133q9 9 23 9t24.5 -10.5t10.5 -24.5q0 -17 -11 -26q-148 -150 -357 -150q-103 0 -196.5 40.5t-161.5 109.5t-108.5 164t-40.5 200
t40.5 200t108.5 164t161.5 109.5t196.5 40.5q209 0 357 -150q11 -9 11 -26q0 -14 -10.5 -24t-24.5 -10t-23 9q-130 132 -310 132q-118 0 -218 -59.5t-158.5 -162t-58.5 -223.5t58.5 -223.5t158.5 -162t218 -59.5z" />
    <glyph glyph-name="Cdotaccent" unicode="&#x10a;" horiz-adv-x="1540" 
d="M847 1550q-20 0 -34.5 14.5t-14.5 34.5t14.5 34.5t34.5 14.5t34.5 -14.5t14.5 -34.5t-14.5 -34.5t-34.5 -14.5zM845 -20q-144 0 -275 56.5t-226 152.5t-151 228.5t-56 278.5t56 278.5t151 228.5t226 153t275 57q163 0 305.5 -70t242.5 -193q9 -10 9 -25q0 -16 -11 -26.5
t-27 -10.5q-17 0 -28 13q-89 111 -217.5 174.5t-273.5 63.5q-129 0 -246 -51t-201.5 -137t-134.5 -205t-50 -250q0 -175 84.5 -322.5t230 -233.5t317.5 -86q145 0 273.5 63.5t217.5 174.5q11 13 28 13q16 0 27 -11t11 -27q0 -13 -9 -24q-100 -123 -242.5 -193t-305.5 -70z
" />
    <glyph glyph-name="cdotaccent" unicode="&#x10b;" horiz-adv-x="1175" 
d="M647 1146q-20 0 -34.5 14.5t-14.5 34.5t14.5 34.5t34.5 14.5t34 -14.5t14 -34.5t-14 -34.5t-34 -14.5zM647 49q179 0 310 133q9 9 23 9t24.5 -10.5t10.5 -24.5q0 -16 -11 -25q-149 -151 -357 -151q-103 0 -196.5 40.5t-161.5 109.5t-108.5 164t-40.5 200t40.5 200
t108.5 164t161.5 109.5t196.5 40.5q209 0 357 -150q11 -9 11 -26q0 -14 -10.5 -24t-24.5 -10t-23 9q-130 132 -310 132q-118 0 -218 -59.5t-158.5 -162t-58.5 -223.5t58.5 -223.5t158.5 -162t218 -59.5z" />
    <glyph glyph-name="Ccaron" unicode="&#x10c;" horiz-adv-x="1540" 
d="M1094 1786q14 -6 16 -20.5t-10 -24.5l-231 -181q-10 -8 -23 -8q-12 0 -22 8l-231 181q-10 8 -10 20.5t10 20.5q14 12 31 2l222 -152l223 152q13 8 25 2zM845 -20q-144 0 -275 56.5t-226 152.5t-151 228.5t-56 278.5t56 278.5t151 228.5t226 153t275 57q163 0 305.5 -70
t242.5 -193q9 -10 9 -25q0 -16 -11 -26.5t-27 -10.5q-17 0 -28 13q-89 111 -217.5 174.5t-273.5 63.5q-129 0 -246 -51t-201.5 -137t-134.5 -205t-50 -250q0 -175 84.5 -322.5t230 -233.5t317.5 -86q145 0 273.5 63.5t217.5 174.5q11 13 28 13q16 0 27 -11t11 -27
q0 -13 -9 -24q-100 -123 -242.5 -193t-305.5 -70z" />
    <glyph glyph-name="ccaron" unicode="&#x10d;" horiz-adv-x="1175" 
d="M894 1381q14 -6 16 -20.5t-10 -24.5l-231 -181q-10 -8 -23 -8q-12 0 -22 8l-231 181q-10 8 -10 20.5t10 20.5q14 12 31 2l222 -152l223 152q13 8 25 2zM647 49q179 0 310 133q9 9 23 9t24.5 -10.5t10.5 -24.5q0 -16 -11 -25q-149 -151 -357 -151q-103 0 -196.5 40.5
t-161.5 109.5t-108.5 164t-40.5 200t40.5 200t108.5 164t161.5 109.5t196.5 40.5q209 0 357 -150q11 -9 11 -26q0 -14 -10.5 -24t-24.5 -10t-23 9q-130 132 -310 132q-118 0 -218 -59.5t-158.5 -162t-58.5 -223.5t58.5 -223.5t158.5 -162t218 -59.5z" />
    <glyph glyph-name="Dcaron" unicode="&#x10e;" horiz-adv-x="1484" 
d="M389 1741q-10 8 -10 20.5t10 20.5q14 12 31 2l222 -152l223 152q13 8 25 2q14 -6 15.5 -20.5t-10.5 -24.5l-230 -181q-10 -8 -23 -8q-12 0 -22 8zM654 1393q187 0 346 -93.5t251 -254t92 -349.5q0 -142 -54.5 -271t-146.5 -222t-220 -148t-268 -55h-455q-16 0 -27 11
t-11 27v1317q0 16 11 27t27 11h455zM654 74q125 0 238.5 49t196 132.5t131 198.5t48.5 242t-48.5 242t-131 198.5t-196 132.5t-238.5 49h-417v-1244h417z" />
    <glyph glyph-name="dcaron" unicode="&#x10f;" horiz-adv-x="1458" 
d="M1324 1505q15 0 26 -11t10 -27l-11 -293q-1 -10 -8 -17t-17 -7t-17.5 7t-8.5 17l-10 293q-1 16 10 27t26 11zM1116 1434q15 0 25.5 -10.5t10.5 -25.5v-1362q0 -15 -10.5 -25.5t-25.5 -10.5t-25.5 10.5t-10.5 25.5v222q-63 -126 -181.5 -202t-260.5 -76q-135 0 -250 69
t-181.5 187t-66.5 258t66.5 258t181.5 187t250 69q142 0 260.5 -76t181.5 -202v668q0 15 10.5 25.5t25.5 10.5zM647 49q180 0 307 130t127 315t-127 315t-307 130t-307.5 -130.5t-127.5 -314.5t127.5 -314.5t307.5 -130.5z" />
    <glyph glyph-name="Emacron" unicode="&#x112;" horiz-adv-x="1259" 
d="M327 1612q-13 0 -22 9t-9 22t9 22t22 9h615q13 0 22 -9t9 -22t-9 -22t-22 -9h-615zM1061 74q15 0 26 -11t11 -26t-11 -26t-26 -11h-862q-16 0 -27 11t-11 27v1317q0 16 11 27t27 11h862q15 0 26 -11t11 -26t-11 -26.5t-26 -11.5l-824 1v-627h736q15 0 26 -11t11 -26
t-11 -26t-26 -11h-736v-544h824z" />
    <glyph glyph-name="emacron" unicode="&#x113;" horiz-adv-x="1253" 
d="M323 1207q-13 0 -22 9t-9 22t9 22t22 9h616q13 0 22 -9t9 -22t-9 -22t-22 -9h-616zM626 1008q99 0 189 -40.5t155 -109.5t103.5 -164t38.5 -200v-25q0 -14 -10.5 -24.5t-25.5 -10.5h-860q20 -167 137 -276t279 -109q103 1 212 38.5t199 101.5q8 5 16 5q14 0 24.5 -10.5
t10.5 -24.5q0 -20 -19 -30q-99 -69 -216 -109.5t-227 -40.5q-207 0 -349.5 148.5t-142.5 366.5q0 105 38.5 200t103.5 164t155 109.5t189 40.5zM626 939q-169 0 -290 -127t-124 -309h828q-3 182 -124 309t-290 127z" />
    <glyph glyph-name="Edotaccent" unicode="&#x116;" horiz-adv-x="1259" 
d="M629 1550q-20 0 -34 14.5t-14 34.5t14 34.5t34 14.5t34.5 -14.5t14.5 -34.5t-14.5 -34.5t-34.5 -14.5zM1061 74q15 0 26 -11t11 -26t-11 -26t-26 -11h-862q-16 0 -27 11t-11 27v1317q0 16 11 27t27 11h862q15 0 26 -11t11 -26t-11 -26.5t-26 -11.5l-824 1v-627h736
q15 0 26 -11t11 -26t-11 -26t-26 -11h-736v-544h824z" />
    <glyph glyph-name="edotaccent" unicode="&#x117;" horiz-adv-x="1253" 
d="M626 1146q-20 0 -34.5 14.5t-14.5 34.5t14.5 34.5t34.5 14.5t34.5 -14.5t14.5 -34.5t-14.5 -34.5t-34.5 -14.5zM626 1008q99 0 189 -40.5t155 -109.5t103.5 -164t38.5 -200q0 -4 -0.5 -12t-0.5 -13q0 -14 -10 -24.5t-25 -10.5h-861q20 -167 137.5 -276t279.5 -109
q103 1 212 38.5t199 101.5q8 5 16 5q14 0 24.5 -10.5t10.5 -24.5q0 -20 -19 -30q-99 -69 -216 -109.5t-227 -40.5q-207 0 -349.5 148.5t-142.5 366.5q0 105 38.5 200t103.5 164t155 109.5t189 40.5zM626 939q-169 0 -290 -127t-124 -309h828q-3 182 -124 309t-290 127z" />
    <glyph glyph-name="Eogonek" unicode="&#x118;" horiz-adv-x="1259" 
d="M1156 -158q14 7 27.5 -1.5t13.5 -24.5q0 -17 -15 -25q-68 -39 -130.5 -41.5t-100 30t-36.5 91.5q1 73 80 129h-796q-16 0 -27 11t-11 27v1317q0 16 11 27t27 11h862q15 0 26 -11t11 -26t-11 -26.5t-26 -11.5l-824 1v-627h736q15 0 26 -11t11 -26t-11 -26t-26 -11h-736
v-544h824q15 0 26 -11t11 -26q0 -24 -23 -34q-47 -27 -72 -61t-24 -67q1 -36 27.5 -52t67 -10.5t82.5 29.5z" />
    <glyph glyph-name="eogonek" unicode="&#x119;" horiz-adv-x="1253" 
d="M1169 -26q14 7 27.5 -1.5t13.5 -24.5q0 -17 -15 -25q-104 -59 -186.5 -35t-81.5 114q0 26 13 54q-157 -77 -308 -77q-207 0 -349.5 148.5t-142.5 366.5q0 105 38.5 200t103.5 164t155 109.5t189 40.5t189 -40.5t155 -109.5t103.5 -164t38.5 -200v-25q0 -14 -10.5 -24.5
t-25.5 -10.5h-860q20 -167 137 -276t279 -109q103 1 212 38.5t199 101.5q8 5 16 5q14 0 24.5 -10.5t10.5 -24.5q0 -19 -14 -28q-3 -3 -11 -8t-11 -8q-69 -50 -67 -108q1 -36 28 -52t67.5 -10.5t82.5 29.5zM626 939q-169 0 -290 -127t-124 -309h828q-3 182 -124 309t-290 127
z" />
    <glyph glyph-name="Ecaron" unicode="&#x11a;" horiz-adv-x="1259" 
d="M376 1741q-10 8 -10 20.5t10 20.5q14 12 30 2l223 -152l222 152q13 8 26 2q14 -6 15.5 -20.5t-10.5 -24.5l-231 -181q-10 -8 -22 -8q-13 0 -23 8zM1061 74q15 0 26 -11t11 -26t-11 -26t-26 -11h-862q-16 0 -27 11t-11 27v1317q0 16 11 27t27 11h862q15 0 26 -11t11 -26
t-11 -26.5t-26 -11.5l-824 1v-627h736q15 0 26 -11t11 -26t-11 -26t-26 -11h-736v-544h824z" />
    <glyph glyph-name="ecaron" unicode="&#x11b;" horiz-adv-x="1253" 
d="M372 1336q-10 8 -9.5 20.5t10.5 20.5q14 12 30 2l223 -152l222 152q13 8 26 2q14 -6 15.5 -20.5t-10.5 -24.5l-231 -181q-10 -8 -22 -8q-13 0 -23 8zM626 1008q99 0 189 -40.5t155 -109.5t103.5 -164t38.5 -200v-25q0 -14 -10.5 -24.5t-25.5 -10.5h-860q20 -167 137 -276
t279 -109q103 1 212 38.5t199 101.5q8 5 16 5q14 0 24.5 -10.5t10.5 -24.5q0 -20 -19 -30q-99 -69 -216 -109.5t-227 -40.5q-207 0 -349.5 148.5t-142.5 366.5q0 105 38.5 200t103.5 164t155 109.5t189 40.5zM626 939q-169 0 -290 -127t-124 -309h828q-3 182 -124 309
t-290 127z" />
    <glyph glyph-name="Gbreve" unicode="&#x11e;" horiz-adv-x="1595" 
d="M846 1550q-83 0 -145 56.5t-73 141.5q-3 13 5.5 24.5t22.5 11.5q24 0 29 -23q8 -66 53.5 -109.5t107.5 -43.5t107.5 43.5t53.5 109.5q5 23 29 23q14 0 23 -11.5t6 -24.5q-11 -85 -73.5 -141.5t-145.5 -56.5zM1396 648q16 0 27 -11t11 -27v-289q0 -29 -16 -49
q-98 -136 -248.5 -214t-322.5 -78q-144 0 -274.5 56.5t-225.5 152.5t-151 228.5t-56 278.5t56 278.5t151 228.5t225.5 153t274.5 57q162 0 304.5 -69.5t242.5 -193.5q9 -10 9 -25q0 -16 -10.5 -26.5t-26.5 -10.5q-17 0 -28 13q-89 111 -217.5 174.5t-273.5 63.5
q-128 0 -245 -51t-201.5 -137t-134.5 -205t-50 -250q0 -175 84.5 -322.5t230 -233.5t316.5 -86q155 0 289 71t222 194v254h-410q-15 0 -26 11t-11 26t11 26t26 11z" />
    <glyph glyph-name="gbreve" unicode="&#x11f;" horiz-adv-x="1312" 
d="M643 1146q-83 0 -145.5 56t-73.5 141q-3 13 6 25t23 12q23 0 29 -24q8 -65 53.5 -108.5t107.5 -43.5t107.5 43.5t53.5 108.5q6 24 29 24q13 0 22 -11.5t6 -25.5q-11 -85 -73 -141t-145 -56zM1116 990q15 0 25.5 -10.5t10.5 -25.5v-924q0 -221 -127.5 -343t-345.5 -122
q-113 0 -234.5 35.5t-222.5 97.5q-19 10 -19 31q0 20 17 31t35 1q94 -58 205 -91t217 -33q191 0 297 101.5t106 291.5v228q-63 -126 -181.5 -202t-260.5 -76q-135 0 -249.5 68.5t-181.5 187t-67 258.5t67 258.5t181.5 187t249.5 68.5q142 0 260.5 -76t181.5 -202v224
q0 15 10.5 25.5t25.5 10.5zM647 49q180 0 307 130t127 315t-127 315t-307 130t-307.5 -130.5t-127.5 -314.5t127.5 -314.5t307.5 -130.5z" />
    <glyph glyph-name="Gdotaccent" unicode="&#x120;" horiz-adv-x="1595" 
d="M846 1550q-20 0 -34 14.5t-14 34.5t14 34.5t34 14.5t34.5 -14.5t14.5 -34.5t-14.5 -34.5t-34.5 -14.5zM1396 648q16 0 27 -11t11 -27v-289q0 -29 -16 -49q-98 -136 -248.5 -214t-322.5 -78q-144 0 -274.5 56.5t-225.5 152.5t-151 228.5t-56 278.5t56 278.5t151 228.5
t225.5 153t274.5 57q162 0 304.5 -69.5t242.5 -193.5q9 -10 9 -25q0 -16 -10.5 -26.5t-26.5 -10.5q-17 0 -28 13q-89 111 -217.5 174.5t-273.5 63.5q-128 0 -245 -51t-201.5 -137t-134.5 -205t-50 -250q0 -175 84.5 -322.5t230 -233.5t316.5 -86q155 0 289 71t222 194v254
h-410q-15 0 -26 11t-11 26t11 26t26 11z" />
    <glyph glyph-name="gdotaccent" unicode="&#x121;" horiz-adv-x="1312" 
d="M643 1146q-20 0 -34.5 14.5t-14.5 34.5t14.5 34.5t34.5 14.5t34.5 -14.5t14.5 -34.5t-14.5 -34.5t-34.5 -14.5zM1116 990q15 0 25.5 -10.5t10.5 -25.5v-924q0 -221 -127.5 -343t-345.5 -122q-113 0 -234.5 35.5t-222.5 97.5q-19 10 -19 31q0 20 17 31t35 1
q94 -58 205 -91t217 -33q191 0 297 101.5t106 291.5v228q-63 -126 -181.5 -202t-260.5 -76q-135 0 -249.5 68.5t-181.5 187t-67 258.5t67 258.5t181.5 187t249.5 68.5q142 0 260.5 -76t181.5 -202v224q0 15 10.5 25.5t25.5 10.5zM647 49q180 0 307 130t127 315t-127 315
t-307 130t-307.5 -130.5t-127.5 -314.5t127.5 -314.5t307.5 -130.5z" />
    <glyph glyph-name="Itilde" unicode="&#x128;" horiz-adv-x="397" 
d="M193 1576q-137 61 -235 -11q-13 -9 -28 -2t-14 24q0 10 9 19q126 107 279 39q137 -61 235 11q13 9 28 2t14 -24q0 -10 -9 -19q-126 -107 -279 -39zM199 0q-16 0 -27 11t-11 27v1317q0 16 11 27t27 11t27 -11t11 -27v-1317q0 -16 -11 -27t-27 -11z" />
    <glyph glyph-name="itilde" unicode="&#x129;" horiz-adv-x="393" 
d="M191 1172q-136 60 -235 -12q-13 -9 -28 -2t-14 24q0 10 9 19q126 107 279 39q137 -61 235 11q13 9 28 2t14 -24q0 -10 -9 -19q-125 -106 -279 -38zM197 0q-15 0 -25.5 10.5t-10.5 25.5v916q0 15 10.5 25.5t25.5 10.5t25 -10.5t10 -25.5v-916q0 -15 -10 -25.5t-25 -10.5z
" />
    <glyph glyph-name="Imacron" unicode="&#x12a;" horiz-adv-x="397" 
d="M-104 1612q-13 0 -22 9t-9 22t9 22t22 9h615q13 0 22 -9t9 -22t-9 -22t-22 -9h-615zM199 0q-16 0 -27 11t-11 27v1317q0 16 11 27t27 11t27 -11t11 -27v-1317q0 -16 -11 -27t-27 -11z" />
    <glyph glyph-name="imacron" unicode="&#x12b;" horiz-adv-x="393" 
d="M-106 1207q-13 0 -22 9t-9 22t9 22t22 9h615q13 0 22 -9t9 -22t-9 -22t-22 -9h-615zM197 0q-15 0 -25.5 10.5t-10.5 25.5v916q0 15 10.5 25.5t25.5 10.5t25 -10.5t10 -25.5v-916q0 -15 -10 -25.5t-25 -10.5z" />
    <glyph glyph-name="Iogonek" unicode="&#x12e;" horiz-adv-x="397" 
d="M295 -158q14 7 27.5 -1.5t13.5 -24.5q0 -17 -15 -25q-104 -59 -186.5 -34.5t-81.5 114.5q1 85 112 149q-4 7 -4 18v1317q0 16 11 27t27 11t27 -11t11 -27v-1317q0 -24 -22 -34q-47 -28 -73 -62t-25 -67q1 -36 28 -52t67.5 -10.5t82.5 29.5z" />
    <glyph glyph-name="iogonek" unicode="&#x12f;" horiz-adv-x="393" 
d="M197 1146q-20 0 -34.5 14.5t-14.5 34.5t14.5 34.5t34.5 14.5t34 -14.5t14 -34.5t-14 -34.5t-34 -14.5zM299 -168q14 7 27.5 -1.5t13.5 -24.5q0 -17 -15 -25q-104 -59 -186.5 -34.5t-81.5 114.5q1 86 114 150q-10 10 -10 25v916q0 15 10.5 25.5t25.5 10.5t25 -10.5
t10 -25.5v-916q0 -22 -18 -32l10 -8q-49 -28 -76 -62.5t-26 -68.5q1 -36 27.5 -52t67 -10.5t82.5 29.5z" />
    <glyph glyph-name="Idotaccent" unicode="&#x130;" horiz-adv-x="397" 
d="M199 1550q-20 0 -34.5 14.5t-14.5 34.5t14.5 34.5t34.5 14.5t34 -14.5t14 -34.5t-14 -34.5t-34 -14.5zM199 0q-16 0 -27 11t-11 27v1317q0 16 11 27t27 11t27 -11t11 -27v-1317q0 -16 -11 -27t-27 -11z" />
    <glyph glyph-name="dotlessi" unicode="&#x131;" horiz-adv-x="393" 
d="M197 0q-15 0 -25.5 10.5t-10.5 25.5v916q0 15 10.5 25.5t25.5 10.5t25 -10.5t10 -25.5v-916q0 -15 -10 -25.5t-25 -10.5z" />
    <glyph glyph-name="Lacute" unicode="&#x139;" horiz-adv-x="1259" 
d="M221 1557q-15 0 -23.5 13.5t-1.5 27.5l152 275q10 21 34 21q16 0 27 -11t11 -27q0 -12 -7 -22l-169 -265q-9 -12 -23 -12zM1122 74q15 0 26 -11t11 -26t-11 -26t-26 -11h-923q-16 0 -27 11t-11 27v1317q0 16 11 27t27 11t27 -11t11 -27v-1281h885z" />
    <glyph glyph-name="lacute" unicode="&#x13a;" horiz-adv-x="393" 
d="M237 1610q-9 -12 -23 -12q-15 0 -23.5 13.5t-1.5 27.5l152 275q11 21 34 21q16 0 27 -11t11 -27q0 -11 -7 -22zM197 0q-15 0 -25.5 10.5t-10.5 25.5v1362q0 15 10.5 25.5t25.5 10.5t25 -10.5t10 -25.5v-1362q0 -15 -10 -25.5t-25 -10.5z" />
    <glyph glyph-name="Lcaron" unicode="&#x13d;" horiz-adv-x="1259" 
d="M509 1171l-10 293q-1 16 10 27t26 11t26 -11t10 -27l-10 -293q-1 -10 -8.5 -17t-17.5 -7t-17.5 7t-8.5 17zM1122 74q15 0 26 -11t11 -26t-11 -26t-26 -11h-923q-16 0 -27 11t-11 27v1317q0 16 11 27t27 11t27 -11t11 -27v-1281h885z" />
    <glyph glyph-name="lcaron" unicode="&#x13e;" horiz-adv-x="538" 
d="M404 1150q-10 0 -17 7t-8 17l-11 293q-1 16 10 27t26 11t26 -11t10 -27l-10 -293q-1 -10 -8.5 -17t-17.5 -7zM197 0q-15 0 -25.5 10.5t-10.5 25.5v1362q0 15 10.5 25.5t25.5 10.5t25 -10.5t10 -25.5v-1362q0 -15 -10 -25.5t-25 -10.5z" />
    <glyph glyph-name="Lslash" unicode="&#x141;" horiz-adv-x="1521" 
d="M1385 74q15 0 26 -11t11 -26t-11 -26t-26 -11h-923q-16 0 -27 11t-11 27v597l-273 -158q-16 -9 -34 0.5t-18 29.5q0 19 18 30l307 177v641q0 16 11 27t27 11t27 -11t11 -27v-597l273 158q16 9 33.5 -0.5t17.5 -29.5t-17 -30l-307 -178v-604h885z" />
    <glyph glyph-name="lslash" unicode="&#x142;" horiz-adv-x="923" 
d="M773 930q16 9 33.5 -0.5t17.5 -29.5t-17 -30l-309 -179v-655q0 -15 -10.5 -25.5t-25.5 -10.5t-25.5 10.5t-10.5 25.5v614l-275 -159q-16 -9 -34 0.5t-18 29.5q0 19 18 30l309 179v668q0 15 10.5 25.5t25.5 10.5t25.5 -10.5t10.5 -25.5v-627z" />
    <glyph glyph-name="Nacute" unicode="&#x143;" horiz-adv-x="1505" 
d="M770 1557q-15 0 -23.5 13.5t-1.5 27.5l151 275q10 21 34 21q16 0 27.5 -11t11.5 -27q0 -12 -7 -22l-169 -265q-9 -12 -23 -12zM1306 1394q16 0 26.5 -11t10.5 -27v-1320q0 -16 -10.5 -27t-26.5 -11q-14 0 -26 10l-5 -4l-1038 1261v-1229q0 -16 -11 -27t-27 -11t-27 11
t-11 27v1321q0 16 11 27t27 11q15 0 26 -11l5 5l1038 -1259v1226q0 16 11 27t27 11z" />
    <glyph glyph-name="nacute" unicode="&#x144;" 
d="M654 1152q-15 0 -23.5 13.5t-1.5 27.5l152 276q10 20 34 20q16 0 27 -11t11 -27q0 -11 -7 -22l-169 -265q-9 -12 -23 -12zM646 1008q193 0 329.5 -139t136.5 -335v-498q0 -15 -10.5 -25.5t-25.5 -10.5t-25.5 10.5t-10.5 25.5v489q0 172 -118.5 293t-285.5 121
t-285.5 -121t-118.5 -293v-489q0 -15 -10 -25.5t-25 -10.5t-25.5 10.5t-10.5 25.5v916q0 15 10.5 25.5t25.5 10.5t25 -10.5t10 -25.5v-201q59 116 170 186.5t244 70.5z" />
    <glyph glyph-name="Ncaron" unicode="&#x147;" horiz-adv-x="1505" 
d="M498 1741q-10 8 -9.5 20.5t10.5 20.5q14 12 30 2l223 -152l222 152q13 8 26 2q14 -6 15.5 -20.5t-10.5 -24.5l-231 -181q-10 -8 -22 -8q-13 0 -23 8zM1306 1394q16 0 26.5 -11t10.5 -27v-1320q0 -16 -10.5 -27t-26.5 -11q-14 0 -26 10l-5 -4l-1038 1261v-1229
q0 -16 -11 -27t-27 -11t-27 11t-11 27v1321q0 16 11 27t27 11q15 0 26 -11l5 5l1038 -1259v1226q0 16 11 27t27 11z" />
    <glyph glyph-name="ncaron" unicode="&#x148;" 
d="M383 1336q-10 8 -10 20.5t10 20.5q14 12 30 2l223 -152l223 152q13 8 25 2q14 -6 15.5 -20.5t-10.5 -24.5l-230 -181q-10 -8 -23 -8t-23 8zM646 1008q193 0 329.5 -139t136.5 -335v-498q0 -15 -10.5 -25.5t-25.5 -10.5t-25.5 10.5t-10.5 25.5v489q0 172 -118.5 293
t-285.5 121t-285.5 -121t-118.5 -293v-489q0 -15 -10 -25.5t-25 -10.5t-25.5 10.5t-10.5 25.5v916q0 15 10.5 25.5t25.5 10.5t25 -10.5t10 -25.5v-201q59 116 170 186.5t244 70.5z" />
    <glyph glyph-name="Omacron" unicode="&#x14c;" horiz-adv-x="1699" 
d="M547 1612q-13 0 -22 9t-9 22t9 22t22 9h615q13 0 22 -9t9 -22t-9 -22t-22 -9h-615zM850 -20q-144 0 -275.5 56.5t-227 152.5t-151.5 228.5t-56 278.5t56 278.5t151.5 228.5t227 153t275.5 57t275.5 -57t227 -153t151.5 -228.5t56 -278.5t-56 -278.5t-151.5 -228.5
t-227 -152.5t-275.5 -56.5zM850 54q172 0 318 86t231 233.5t85 322.5t-85 323t-231 234t-318 86t-318 -86t-231 -234t-85 -323t85 -322.5t231 -233.5t318 -86z" />
    <glyph glyph-name="omacron" unicode="&#x14d;" horiz-adv-x="1294" 
d="M344 1207q-13 0 -22 9t-9 22t9 22t22 9h615q13 0 22 -9t9 -22t-9 -22t-22 -9h-615zM647 -20q-103 0 -196.5 40.5t-161.5 109.5t-108.5 164t-40.5 200t40.5 200t108.5 164t161.5 109.5t196.5 40.5q137 0 253.5 -68.5t184.5 -187t68 -258.5t-68 -258.5t-184.5 -187
t-253.5 -68.5zM647 49q180 0 307 130t127 315t-127 315t-307 130t-307.5 -130.5t-127.5 -314.5t127.5 -314.5t307.5 -130.5z" />
    <glyph glyph-name="Ohungarumlaut" unicode="&#x150;" horiz-adv-x="1699" 
d="M705 1587q-11 2 -17.5 11t-4.5 21l70 317q3 14 15 22.5t26 6.5q18 -2 27.5 -17t4.5 -32l-91 -311q-3 -9 -11.5 -14t-18.5 -4zM980 1585q-13 0 -21 10.5t-5 23.5l74 316q7 28 37 28q19 0 30.5 -16.5t5.5 -34.5l-96 -309q-7 -18 -25 -18zM850 -20q-144 0 -275.5 56.5
t-227 152.5t-151.5 228.5t-56 278.5t56 278.5t151.5 228.5t227 153t275.5 57t275.5 -57t227 -153t151.5 -228.5t56 -278.5t-56 -278.5t-151.5 -228.5t-227 -152.5t-275.5 -56.5zM850 54q172 0 318 86t231 233.5t85 322.5t-85 323t-231 234t-318 86t-318 -86t-231 -234
t-85 -323t85 -322.5t231 -233.5t318 -86z" />
    <glyph glyph-name="ohungarumlaut" unicode="&#x151;" horiz-adv-x="1294" 
d="M502 1182q-11 2 -17.5 11t-4.5 21l69 317q3 14 15.5 22.5t26.5 6.5q18 -2 27.5 -16.5t4.5 -31.5l-92 -311q-7 -22 -29 -19zM776 1180q-13 0 -20.5 10.5t-4.5 23.5l73 316q7 28 37 28q19 0 30.5 -16t5.5 -34l-95 -310q-7 -18 -26 -18zM647 -20q-103 0 -196.5 40.5
t-161.5 109.5t-108.5 164t-40.5 200t40.5 200t108.5 164t161.5 109.5t196.5 40.5q137 0 253.5 -68.5t184.5 -187t68 -258.5t-68 -258.5t-184.5 -187t-253.5 -68.5zM647 49q180 0 307 130t127 315t-127 315t-307 130t-307.5 -130.5t-127.5 -314.5t127.5 -314.5t307.5 -130.5z
" />
    <glyph glyph-name="OE" unicode="&#x152;" horiz-adv-x="2578" 
d="M2381 74q15 0 26 -11t11 -26t-10.5 -26t-26.5 -11h-862q-16 0 -27 11t-11 27v343q-88 -181 -258 -291t-376 -110q-144 0 -274.5 56.5t-225.5 152.5t-151 228.5t-56 278.5t56 278.5t151 228.5t225.5 153t274.5 57q206 0 376 -110t258 -291v343q0 16 11 27t27 11h862
q15 0 26 -11t11 -26t-11 -26.5t-26 -11.5l-824 1v-627h736q15 0 26 -11t11 -26t-10.5 -26t-26.5 -11h-736v-544h824zM850 54q172 0 318 86t231 233.5t85 322.5t-85 323t-231 234t-318 86t-318 -86t-231 -234t-85 -323t85 -322.5t231 -233.5t318 -86z" />
    <glyph glyph-name="oe" unicode="&#x153;" horiz-adv-x="2193" 
d="M1567 1008q132 0 244 -69t177 -187.5t65 -258.5v-25q0 -14 -10.5 -24t-25.5 -10h-860q20 -167 137 -276.5t279 -109.5q102 1 211.5 39t199.5 102q7 4 16 4q14 0 24.5 -10.5t10.5 -24.5q0 -20 -18 -30q-99 -69 -216 -109t-228 -40q-159 0 -283 92.5t-175 243.5
q-54 -149 -182.5 -242t-287.5 -93q-137 0 -253 68.5t-184 187t-68 258.5t68 258.5t184 187t253 68.5q160 0 288.5 -93.5t182.5 -243.5q52 149 175 243t276 94zM647 49q180 0 307 130t127 315t-127 315t-307 130t-307.5 -130.5t-127.5 -314.5t127.5 -314.5t307.5 -130.5z
M1567 938q-169 0 -290 -127t-124 -309h828q-3 182 -124 309t-290 127z" />
    <glyph glyph-name="Racute" unicode="&#x154;" horiz-adv-x="1300" 
d="M678 1557q-15 0 -23.5 13.5t-1.5 27.5l151 275q10 21 34 21q16 0 27.5 -11t11.5 -27q0 -12 -7 -22l-169 -265q-9 -12 -23 -12zM778 460l288 -400q9 -13 6 -28.5t-16 -24.5t-28 -5.5t-24 16.5l-310 431h-19h-438v-411q0 -16 -11 -27t-27 -11t-27 11t-11 27v1317
q0 16 11 27t27 11h476q126 0 233 -63.5t169 -172t62 -236.5q0 -167 -102.5 -296t-258.5 -165zM237 1318v-795h438q161 0 274.5 116.5t113.5 281.5t-113.5 281t-274.5 116h-438z" />
    <glyph glyph-name="racute" unicode="&#x155;" horiz-adv-x="817" 
d="M427 1152q-15 0 -23.5 13.5t-1.5 27.5l151 276q10 20 34 20q16 0 27.5 -11t11.5 -27q0 -11 -7 -22l-169 -265q-9 -12 -23 -12zM619 1008q16 0 26.5 -10.5t10.5 -25.5q0 -14 -9.5 -24.5t-23.5 -11.5q-164 -9 -277.5 -130.5t-113.5 -293.5v-478q0 -15 -10 -25.5t-25 -10.5
t-25.5 10.5t-10.5 25.5v920q0 15 10.5 25.5t25.5 10.5t25 -10.5t10 -25.5v-198q58 110 161.5 178.5t225.5 73.5z" />
    <glyph glyph-name="Rcaron" unicode="&#x158;" horiz-adv-x="1300" 
d="M406 1741q-10 8 -9.5 20.5t10.5 20.5q14 12 30 2l223 -152l222 152q13 8 26 2q14 -6 15.5 -20.5t-10.5 -24.5l-231 -181q-10 -8 -22 -8q-13 0 -23 8zM778 460l288 -400q9 -13 6 -28.5t-16 -24.5t-28 -5.5t-24 16.5l-310 431h-19h-438v-411q0 -16 -11 -27t-27 -11t-27 11
t-11 27v1317q0 16 11 27t27 11h476q126 0 233 -63.5t169 -172t62 -236.5q0 -167 -102.5 -296t-258.5 -165zM237 1318v-795h438q161 0 274.5 116.5t113.5 281.5t-113.5 281t-274.5 116h-438z" />
    <glyph glyph-name="rcaron" unicode="&#x159;" horiz-adv-x="817" 
d="M657 1381q14 -6 15.5 -20.5t-10.5 -24.5l-231 -181q-10 -8 -22 -8q-13 0 -23 8l-231 181q-10 8 -9.5 20.5t10.5 20.5q14 12 30 2l223 -152l222 152q13 8 26 2zM619 1008q16 0 26.5 -10.5t10.5 -25.5q0 -14 -9.5 -24.5t-23.5 -11.5q-164 -9 -277.5 -130.5t-113.5 -293.5
v-478q0 -15 -10 -25.5t-25 -10.5t-25.5 10.5t-10.5 25.5v920q0 15 10.5 25.5t25.5 10.5t25 -10.5t10 -25.5v-198q58 110 161.5 178.5t225.5 73.5z" />
    <glyph glyph-name="Sacute" unicode="&#x15a;" horiz-adv-x="1335" 
d="M704 1569q-9 -12 -23 -12q-15 0 -23.5 13.5t-1.5 27.5l152 275q10 21 34 21q16 0 27 -11t11 -27q0 -12 -7 -22zM675 -20q-234 0 -513 155q-19 10 -19 33q0 21 18 32t37 1q266 -147 480 -147q54 0 110.5 9t116.5 31.5t106 55.5t76 87t30 120q0 52 -15.5 92t-52 68
t-69.5 46t-95.5 32.5t-100.5 21t-112 16.5q-66 9 -115.5 18t-106 24t-97.5 33.5t-80 45.5t-63.5 60.5t-39.5 79.5t-15 101q0 99 44 179.5t118 132t167.5 79t194.5 27.5q251 0 477 -158q18 -13 18 -32q0 -16 -10.5 -26.5t-26.5 -10.5q-11 0 -20 6q-209 147 -440 147
q-188 0 -317.5 -93.5t-130.5 -246.5q0 -64 29 -112.5t60 -74.5t107 -48.5t112 -29t131 -20.5q3 -1 4 -1q69 -10 120.5 -19.5t108.5 -25t97.5 -33t79 -44t62 -58.5t37.5 -75.5t14 -96.5q0 -84 -35 -152t-89.5 -109.5t-125 -69.5t-136.5 -39t-130 -11z" />
    <glyph glyph-name="sacute" unicode="&#x15b;" horiz-adv-x="1103" 
d="M612 1164q-9 -12 -23 -12q-15 0 -23.5 13.5t-1.5 27.5l151 276q10 20 34 20q16 0 27.5 -11t11.5 -27q0 -11 -7 -22zM575 -14q-95 -1 -203.5 34.5t-203.5 91.5q-19 10 -19 30q0 19 16.5 29.5t34.5 1.5q207 -119 374 -117q70 1 137.5 22.5t116 68t47.5 106.5
q-1 45 -18 78.5t-41 54.5t-69 37.5t-81 24.5t-97 19q-71 13 -120 25.5t-100 35t-81.5 51.5t-50.5 74.5t-21 105.5q-1 80 52 139t135 87t181 30q94 1 193.5 -38.5t177.5 -105.5q16 -11 16 -28q0 -14 -10.5 -24t-24.5 -10q-10 0 -17 6q-68 60 -159 95.5t-175 34.5
q-128 -2 -211.5 -51t-82.5 -133q1 -47 18 -82.5t40.5 -56.5t67.5 -38.5t78 -26t94 -19.5q76 -13 126 -25.5t102.5 -34t82.5 -49.5t49.5 -71.5t20.5 -101.5q1 -65 -34.5 -118t-92.5 -85t-121.5 -49t-126.5 -18z" />
    <glyph glyph-name="Scedilla" unicode="&#x15e;" horiz-adv-x="1335" 
d="M1191 361q0 -78 -30.5 -142.5t-78.5 -106t-112 -71t-126 -43t-125 -17.5l-112 -197q-10 -19 -31 -19q-15 0 -26 11t-11 26q0 12 8 22l112 156q-228 5 -497 155q-19 10 -19 33q0 21 18 32t37 1q266 -147 480 -147q54 0 110.5 9t116.5 31.5t106 55.5t76 87t30 120
q0 52 -15.5 92t-52 68t-69.5 46t-95.5 32.5t-100.5 21t-112 16.5q-66 9 -115.5 18t-106 24t-97.5 33.5t-80 45.5t-63.5 60.5t-39.5 79.5t-15 101q0 99 44 179.5t118 132t167.5 79t194.5 27.5q251 0 477 -158q18 -13 18 -32q0 -16 -10.5 -26.5t-26.5 -10.5q-11 0 -20 6
q-209 147 -440 147q-188 0 -317.5 -93.5t-130.5 -246.5q0 -64 29 -112.5t60 -74.5t107 -48.5t112 -29t131 -20.5q3 -1 4 -1q69 -10 120.5 -19.5t108.5 -25t97.5 -33t79 -44t62 -58.5t37.5 -75.5t14 -96.5z" />
    <glyph glyph-name="scedilla" unicode="&#x15f;" horiz-adv-x="1103" 
d="M569 538q76 -13 126 -25.5t102.5 -34t82.5 -49.5t49.5 -71.5t20.5 -101.5q1 -65 -34.5 -118t-92.5 -85t-121.5 -49t-126.5 -18h-3l-115 -202q-10 -19 -32 -19q-15 0 -25.5 11t-10.5 26q0 14 7 22l119 165q-170 18 -347 123q-19 10 -19 30q0 19 16.5 29.5t34.5 1.5
q207 -119 374 -117q112 2 207 55.5t94 142.5q-1 32 -10 58.5t-22 45.5t-37.5 35t-46 26t-57.5 19.5t-62.5 15t-70.5 13.5q-71 13 -120 25.5t-100 35t-81.5 51.5t-50.5 74.5t-21 105.5q-1 80 52 139t135 87t181 30q94 1 193.5 -38.5t177.5 -105.5q16 -11 16 -28
q0 -14 -10.5 -24t-24.5 -10q-10 0 -17 6q-68 60 -159 95.5t-175 34.5q-128 -2 -211.5 -51t-82.5 -133q1 -47 18 -82.5t40.5 -56.5t67.5 -38.5t78 -26t94 -19.5z" />
    <glyph glyph-name="Scaron" unicode="&#x160;" horiz-adv-x="1335" 
d="M911 1786q14 -6 15.5 -20.5t-10.5 -24.5l-230 -181q-10 -8 -23 -8q-12 0 -22 8l-231 181q-10 8 -10 20.5t10 20.5q14 12 30 2l223 -152l223 152q13 8 25 2zM675 -20q-234 0 -513 155q-19 10 -19 33q0 21 18 32t37 1q266 -147 480 -147q54 0 110.5 9t116.5 31.5t106 55.5
t76 87t30 120q0 52 -15.5 92t-52 68t-69.5 46t-95.5 32.5t-100.5 21t-112 16.5q-66 9 -115.5 18t-106 24t-97.5 33.5t-80 45.5t-63.5 60.5t-39.5 79.5t-15 101q0 99 44 179.5t118 132t167.5 79t194.5 27.5q251 0 477 -158q18 -13 18 -32q0 -16 -10.5 -26.5t-26.5 -10.5
q-11 0 -20 6q-209 147 -440 147q-188 0 -317.5 -93.5t-130.5 -246.5q0 -64 29 -112.5t60 -74.5t107 -48.5t112 -29t131 -20.5q3 -1 4 -1q69 -10 120.5 -19.5t108.5 -25t97.5 -33t79 -44t62 -58.5t37.5 -75.5t14 -96.5q0 -84 -35 -152t-89.5 -109.5t-125 -69.5t-136.5 -39
t-130 -11z" />
    <glyph glyph-name="scaron" unicode="&#x161;" horiz-adv-x="1103" 
d="M819 1381q14 -6 15.5 -20.5t-10.5 -24.5l-231 -181q-10 -8 -22 -8q-13 0 -23 8l-231 181q-10 8 -9.5 20.5t10.5 20.5q14 12 30 2l223 -152l222 152q13 8 26 2zM575 -14q-95 -1 -203.5 34.5t-203.5 91.5q-19 10 -19 30q0 19 16.5 29.5t34.5 1.5q207 -119 374 -117
q70 1 137.5 22.5t116 68t47.5 106.5q-1 45 -18 78.5t-41 54.5t-69 37.5t-81 24.5t-97 19q-71 13 -120 25.5t-100 35t-81.5 51.5t-50.5 74.5t-21 105.5q-1 80 52 139t135 87t181 30q94 1 193.5 -38.5t177.5 -105.5q16 -11 16 -28q0 -14 -10.5 -24t-24.5 -10q-10 0 -17 6
q-68 60 -159 95.5t-175 34.5q-128 -2 -211.5 -51t-82.5 -133q1 -47 18 -82.5t40.5 -56.5t67.5 -38.5t78 -26t94 -19.5q76 -13 126 -25.5t102.5 -34t82.5 -49.5t49.5 -71.5t20.5 -101.5q1 -65 -34.5 -118t-92.5 -85t-121.5 -49t-126.5 -18z" />
    <glyph glyph-name="uni0162" unicode="&#x162;" horiz-adv-x="1361" 
d="M1224 1393q15 0 26.5 -11t11.5 -26t-11.5 -26.5t-26.5 -11.5h-506v-1280q0 -10 -5 -20l-126 -222q-10 -18 -31 -18q-15 0 -26 10.5t-11 25.5q0 13 8 23l126 175q-10 10 -10 26v1280h-507q-15 0 -26 11.5t-11 26.5t11 26t26 11h1088z" />
    <glyph glyph-name="uni0163" unicode="&#x163;" horiz-adv-x="856" 
d="M713 70q16 5 30 -5.5t14 -28.5q0 -27 -26 -34q-84 -24 -158 -23l-111 -195q-10 -19 -31 -19q-15 0 -26 11t-11 26q0 12 8 22l115 160q-57 9 -105 38q-122 77 -122 248v637h-156q-14 0 -24.5 10.5t-10.5 24.5t10.5 24.5t24.5 10.5h156v243q0 15 10 25.5t25 10.5
t25.5 -10.5t10.5 -25.5v-243h297q14 0 24.5 -10.5t10.5 -24.5t-10.5 -24.5t-24.5 -10.5h-297v-632q0 -137 90 -193q96 -59 262 -12z" />
    <glyph glyph-name="Tcaron" unicode="&#x164;" horiz-adv-x="1361" 
d="M427 1741q-10 8 -10 20.5t10 20.5q14 12 30 2l223 -152l223 152q13 8 25 2q14 -6 15.5 -20.5t-10.5 -24.5l-230 -181q-10 -8 -23 -8q-12 0 -22 8zM1224 1393q15 0 26.5 -11t11.5 -26t-11.5 -26.5t-26.5 -11.5h-506v-1280q0 -16 -11 -27t-27 -11t-26.5 11t-10.5 27v1280
h-507q-15 0 -26 11.5t-11 26.5t11 26t26 11h1088z" />
    <glyph glyph-name="tcaron" unicode="&#x165;" horiz-adv-x="851" 
d="M504 1173l-10 294q-1 16 10 27t26 11t26 -11t10 -27l-11 -294q-1 -10 -8 -17t-17 -7t-17.5 7t-8.5 17zM710 70q16 5 30 -5.5t14 -28.5q0 -27 -26 -34q-196 -57 -319 20t-123 248v648h-152q-14 0 -24.5 10t-10.5 24t10.5 24.5t24.5 10.5h152v233q0 15 10.5 25.5t25.5 10.5
t25.5 -10.5t10.5 -25.5v-233h297q14 0 24.5 -10.5t10.5 -24.5t-10.5 -24t-24.5 -10h-297v-643q0 -137 90 -193q96 -59 262 -12z" />
    <glyph glyph-name="Utilde" unicode="&#x168;" horiz-adv-x="1546" 
d="M767 1576q-137 61 -235 -11q-13 -9 -28 -2t-14 24q0 10 9 19q126 107 279 39q137 -61 235 11q13 9 28 2t14 -24q0 -10 -9 -19q-126 -107 -279 -39zM773 -20q-166 0 -307 83t-223 225.5t-82 310.5v756q0 16 11 27t27 11t26.5 -11t10.5 -27v-756q0 -148 72 -273.5
t195.5 -198.5t269.5 -73q109 0 208.5 43t171 116t114 174t42.5 212v756q0 16 10.5 27t26.5 11t27 -11t11 -27v-756q0 -168 -81.5 -310.5t-222.5 -225.5t-307 -83z" />
    <glyph glyph-name="utilde" unicode="&#x169;" 
d="M396 1160q-13 -9 -28 -2t-14 24q0 10 9 19q126 106 278 39q138 -61 236 11q13 9 28 2t14 -24q0 -10 -9 -19q-125 -106 -279 -38q-136 60 -235 -12zM1076 988q15 0 25.5 -10.5t10.5 -25.5v-916q0 -15 -10.5 -25.5t-25.5 -10.5t-25.5 10.5t-10.5 25.5v201
q-59 -116 -170 -186.5t-244 -70.5q-193 0 -329 139t-136 335v498q0 15 10.5 25.5t25.5 10.5t25 -10.5t10 -25.5v-489q0 -172 118.5 -293t285.5 -121t285.5 121t118.5 293v489q0 15 10.5 25.5t25.5 10.5z" />
    <glyph glyph-name="Umacron" unicode="&#x16a;" horiz-adv-x="1546" 
d="M470 1612q-13 0 -22 9t-9 22t9 22t22 9h615q13 0 22 -9t9 -22t-9 -22t-22 -9h-615zM773 -20q-166 0 -307 83t-223 225.5t-82 310.5v756q0 16 11 27t27 11t26.5 -11t10.5 -27v-756q0 -148 72 -273.5t195.5 -198.5t269.5 -73q109 0 208.5 43t171 116t114 174t42.5 212v756
q0 16 10.5 27t26.5 11t27 -11t11 -27v-756q0 -168 -81.5 -310.5t-222.5 -225.5t-307 -83z" />
    <glyph glyph-name="umacron" unicode="&#x16b;" 
d="M334 1207q-13 0 -22 9t-9 22t9 22t22 9h615q13 0 22 -9t9 -22t-9 -22t-22 -9h-615zM1076 988q15 0 25.5 -10.5t10.5 -25.5v-916q0 -15 -10.5 -25.5t-25.5 -10.5t-25.5 10.5t-10.5 25.5v201q-59 -116 -170 -186.5t-244 -70.5q-193 0 -329 139t-136 335v498q0 15 10.5 25.5
t25.5 10.5t25 -10.5t10 -25.5v-489q0 -172 118.5 -293t285.5 -121t285.5 121t118.5 293v489q0 15 10.5 25.5t25.5 10.5z" />
    <glyph glyph-name="Uring" unicode="&#x16e;" horiz-adv-x="1546" 
d="M773 1550q-68 0 -116 48t-48 115t48 115t116 48q67 0 115 -48t48 -115t-48 -115t-115 -48zM773 1605q44 0 75 31t31 75t-31 75.5t-75 31.5t-75.5 -31.5t-31.5 -75.5t31.5 -75t75.5 -31zM773 -20q-166 0 -307 83t-223 225.5t-82 310.5v756q0 16 11 27t27 11t26.5 -11
t10.5 -27v-756q0 -148 72 -273.5t195.5 -198.5t269.5 -73q109 0 208.5 43t171 116t114 174t42.5 212v756q0 16 10.5 27t26.5 11t27 -11t11 -27v-756q0 -168 -81.5 -310.5t-222.5 -225.5t-307 -83z" />
    <glyph glyph-name="uring" unicode="&#x16f;" 
d="M636 1146q-68 0 -115.5 47.5t-47.5 114.5q0 68 47.5 115.5t115.5 47.5t116 -48t48 -115t-48 -114.5t-116 -47.5zM636 1413q-44 0 -75 -31t-31 -75t31 -75.5t75 -31.5t75.5 31.5t31.5 75.5t-31.5 75t-75.5 31zM1076 988q15 0 25.5 -10.5t10.5 -25.5v-916
q0 -15 -10.5 -25.5t-25.5 -10.5t-25.5 10.5t-10.5 25.5v201q-59 -116 -170 -186.5t-244 -70.5q-193 0 -329 139t-136 335v498q0 15 10.5 25.5t25.5 10.5t25 -10.5t10 -25.5v-489q0 -172 118.5 -293t285.5 -121t285.5 121t118.5 293v489q0 15 10.5 25.5t25.5 10.5z" />
    <glyph glyph-name="Uhungarumlaut" unicode="&#x170;" horiz-adv-x="1546" 
d="M628 1587q-11 2 -17.5 11t-4.5 21l69 317q3 14 15.5 22.5t26.5 6.5q18 -2 27.5 -17t4.5 -32l-92 -311q-7 -21 -29 -18zM902 1585q-13 0 -21 10.5t-5 23.5l74 316q7 28 37 28q19 0 30.5 -16.5t5.5 -34.5l-95 -309q-7 -18 -26 -18zM773 -20q-166 0 -307 83t-223 225.5
t-82 310.5v756q0 16 11 27t27 11t26.5 -11t10.5 -27v-756q0 -148 72 -273.5t195.5 -198.5t269.5 -73q109 0 208.5 43t171 116t114 174t42.5 212v756q0 16 10.5 27t26.5 11t27 -11t11 -27v-756q0 -168 -81.5 -310.5t-222.5 -225.5t-307 -83z" />
    <glyph glyph-name="uhungarumlaut" unicode="&#x171;" 
d="M492 1182q-11 2 -18 11t-5 21l70 317q3 14 15.5 22.5t26.5 6.5q18 -2 27.5 -16.5t4.5 -31.5l-92 -311q-7 -22 -29 -19zM766 1180q-13 0 -21 10.5t-5 23.5l74 316q7 28 37 28q19 0 30.5 -16t5.5 -34l-96 -310q-7 -18 -25 -18zM1076 988q15 0 25.5 -10.5t10.5 -25.5v-916
q0 -15 -10.5 -25.5t-25.5 -10.5t-25.5 10.5t-10.5 25.5v201q-59 -116 -170 -186.5t-244 -70.5q-193 0 -329 139t-136 335v498q0 15 10.5 25.5t25.5 10.5t25 -10.5t10 -25.5v-489q0 -172 118.5 -293t285.5 -121t285.5 121t118.5 293v489q0 15 10.5 25.5t25.5 10.5z" />
    <glyph glyph-name="Uogonek" unicode="&#x172;" horiz-adv-x="1546" 
d="M1346 1393q16 0 27 -11t11 -27v-757q0 -231 -148.5 -404.5t-370.5 -207.5h1q-49 -28 -76 -62.5t-26 -68.5q1 -36 28 -52t67.5 -10.5t82.5 29.5q14 7 27.5 -1.5t13.5 -24.5t-16 -25q-104 -59 -186 -35t-81 114q1 74 81 130h-8q-166 0 -307 83t-223 225.5t-82 310.5v756
q0 16 11 27t27 11t26.5 -11t10.5 -27v-756q0 -148 72 -273.5t195.5 -198.5t269.5 -73q109 0 208.5 43t171 116t114 174t42.5 212v756q0 16 10.5 27t26.5 11z" />
    <glyph glyph-name="uogonek" unicode="&#x173;" 
d="M1176 -152q14 7 27.5 -1.5t13.5 -24.5q0 -18 -15 -26q-104 -59 -186.5 -34.5t-81.5 114.5q1 83 109 147q-3 12 -3 13v201q-59 -116 -170 -186.5t-244 -70.5q-193 0 -329 139t-136 335v498q0 15 10.5 25.5t25.5 10.5t25 -10.5t10 -25.5v-489q0 -172 118.5 -293t285.5 -121
t285.5 121t118.5 293v489q0 15 10.5 25.5t25.5 10.5t25.5 -10.5t10.5 -25.5v-916q0 -13 -8.5 -23t-21.5 -12q-86 -56 -84 -120q1 -36 28 -52t67.5 -10.5t82.5 29.5z" />
    <glyph glyph-name="Wcircumflex" unicode="&#x174;" horiz-adv-x="2621" 
d="M1059 1566q-10 8 -10 20.5t10 20.5l231 181q10 8 22 8q13 0 23 -8l231 -181q12 -10 10 -24.5t-16 -20.5q-12 -6 -25 2l-223 152l-222 -152q-17 -10 -31 2zM2500 1393q14 -6 20 -21t0 -29l-587 -1323q-9 -22 -35 -22t-35 22l-552 1245l-552 -1245q-9 -22 -35 -22t-35 22
l-586 1323q-6 14 -0.5 29t19.5 21t29 0t21 -20l552 -1247l552 1247q10 23 35 23t35 -23l552 -1247l553 1247q6 14 20.5 20t28.5 0z" />
    <glyph glyph-name="wcircumflex" unicode="&#x175;" horiz-adv-x="2123" 
d="M1309 1157q-12 -6 -25 2l-223 152l-222 -152q-16 -10 -31 3q-10 8 -10 20.5t10 20.5l231 181q8 7 22 7q15 0 23 -7l231 -181q12 -10 10 -25t-16 -21zM615 -8q-28 -7 -40 19l-455 927q-7 14 -2 27.5t19 20.5t27.5 2t20.5 -19l422 -866l422 866q7 15 24 18q29 7 41 -18
l422 -866l422 866q7 14 20.5 19t27.5 -2t18.5 -20.5t-2.5 -27.5l-454 -927q-8 -16 -24 -19q-28 -7 -40 19l-423 861l-421 -861q-8 -16 -25 -19z" />
    <glyph glyph-name="Ycircumflex" unicode="&#x176;" horiz-adv-x="1417" 
d="M457 1566q-10 8 -10.5 20.5t9.5 20.5l231 181q10 8 23 8q12 0 22 -8l231 -181q12 -10 10.5 -24.5t-15.5 -20.5q-13 -6 -26 2l-222 152l-223 -152q-16 -10 -30 2zM1300 1389q13 -8 16 -24t-5 -29l-564 -850v-452q0 -16 -11 -27t-27 -11t-27 11t-11 27v450l-566 852
q-8 13 -5 29t16 24t29 5t24 -16l539 -814l540 814q8 13 23.5 16t28.5 -5z" />
    <glyph glyph-name="ycircumflex" unicode="&#x177;" 
d="M883 1157q-12 -6 -25 2l-223 152l-223 -152q-16 -9 -30 3q-10 8 -10 20.5t10 20.5l231 181q8 7 22 7q15 0 23 -7l230 -181q12 -10 10.5 -25t-15.5 -21zM640 -435q-113 0 -234 35t-222 97q-19 10 -19 32q0 20 17 30.5t35 0.5q94 -58 205 -91t217 -33q191 0 297 101.5
t106 291.5v217q-56 -120 -168 -193t-246 -73q-193 0 -329.5 139t-136.5 335v500q0 15 10.5 25.5t25.5 10.5t25.5 -10.5t10.5 -25.5v-491q0 -172 118.5 -293t285.5 -121t285.5 121t118.5 292v492q0 15 10.5 25.5t25.5 10.5t25.5 -10.5t10.5 -25.5v-925q0 -221 -127.5 -342.5
t-346.5 -121.5z" />
    <glyph glyph-name="Ydieresis" unicode="&#x178;" horiz-adv-x="1417" 
d="M552 1550q-20 0 -34 14.5t-14 34.5t14 34.5t34 14.5t34.5 -14.5t14.5 -34.5t-14.5 -34.5t-34.5 -14.5zM866 1550q-20 0 -34.5 14.5t-14.5 34.5t14.5 34.5t34.5 14.5t34.5 -14.5t14.5 -34.5t-14.5 -34.5t-34.5 -14.5zM1300 1389q13 -8 16 -24t-5 -29l-564 -850v-452
q0 -16 -11 -27t-27 -11t-27 11t-11 27v450l-566 852q-8 13 -5 29t16 24t29 5t24 -16l539 -814l540 814q8 13 23.5 16t28.5 -5z" />
    <glyph glyph-name="Zacute" unicode="&#x179;" horiz-adv-x="1423" 
d="M731 1557q-15 0 -23.5 13.5t-1.5 27.5l151 275q11 21 34 21q16 0 27.5 -11t11.5 -27q0 -12 -7 -22l-169 -265q-9 -12 -23 -12zM1226 74q15 0 26 -11t11 -26t-10.5 -26t-26.5 -11h-1028q-15 0 -26 11t-11 26q0 14 10 26l974 1255h-935q-15 0 -26 11t-11 26t11 26.5
t26 11.5h1013q15 0 26 -11.5t11 -26.5q0 -13 -9 -24l-975 -1257h950z" />
    <glyph glyph-name="zacute" unicode="&#x17a;" horiz-adv-x="1310" 
d="M673 1152q-15 0 -23.5 13.5t-1.5 27.5l151 276q10 20 34 20q16 0 27.5 -11t11.5 -27q0 -11 -7 -22l-169 -265q-9 -12 -23 -12zM1115 70q14 0 24 -10.5t10 -24.5t-10 -24.5t-24 -10.5h-919q-14 0 -24.5 10.5t-10.5 24.5q0 16 11 25l837 858h-793q-14 0 -24.5 10.5
t-10.5 24.5t10.5 24.5t24.5 10.5h878q14 0 24.5 -10.5t10.5 -24.5q0 -16 -11 -25l-837 -858h834z" />
    <glyph glyph-name="Zdotaccent" unicode="&#x17b;" horiz-adv-x="1423" 
d="M713 1550q-20 0 -34.5 14.5t-14.5 34.5t14.5 34.5t34.5 14.5t34.5 -14.5t14.5 -34.5t-14.5 -34.5t-34.5 -14.5zM1226 74q15 0 26 -11t11 -26t-10.5 -26t-26.5 -11h-1028q-15 0 -26 11t-11 26q0 14 10 26l974 1255h-935q-15 0 -26 11.5t-11 26.5t11 26t26 11h1013
q15 0 26 -11t11 -26q0 -14 -9 -25l-975 -1257h950z" />
    <glyph glyph-name="zdotaccent" unicode="&#x17c;" horiz-adv-x="1310" 
d="M655 1146q-20 0 -34.5 14.5t-14.5 34.5t14.5 34.5t34.5 14.5t34.5 -14.5t14.5 -34.5t-14.5 -34.5t-34.5 -14.5zM1115 70q14 0 24 -10.5t10 -24.5t-10 -24.5t-24 -10.5h-919q-14 0 -24.5 10.5t-10.5 24.5q0 16 11 25l837 858h-793q-14 0 -24.5 10.5t-10.5 24.5t10.5 24.5
t24.5 10.5h878q14 0 24.5 -10.5t10.5 -24.5q0 -16 -11 -25l-837 -858h834z" />
    <glyph glyph-name="Zcaron" unicode="&#x17d;" horiz-adv-x="1423" 
d="M459 1741q-10 8 -10 20.5t10 20.5q14 12 31 2l222 -152l223 152q13 8 26 2q14 -6 15.5 -20.5t-10.5 -24.5l-231 -181q-10 -8 -23 -8q-12 0 -22 8zM1226 74q15 0 26 -11t11 -26t-10.5 -26t-26.5 -11h-1028q-15 0 -26 11t-11 26q0 14 10 26l974 1255h-935q-15 0 -26 11.5
t-11 26.5t11 26t26 11h1013q15 0 26 -11t11 -26q0 -14 -9 -25l-975 -1257h950z" />
    <glyph glyph-name="zcaron" unicode="&#x17e;" horiz-adv-x="1310" 
d="M401 1336q-10 8 -10 20.5t10 20.5q14 12 31 2l222 -152l223 152q13 8 25 2q14 -6 16 -20.5t-10 -24.5l-231 -181q-10 -8 -23 -8q-12 0 -22 8zM1114 70q14 0 24.5 -10.5t10.5 -24.5t-10.5 -24.5t-24.5 -10.5h-918q-14 0 -24.5 10.5t-10.5 24.5q0 16 11 25l837 858h-793
q-14 0 -24.5 10.5t-10.5 24.5t10.5 24.5t24.5 10.5h878q14 0 24.5 -10.5t10.5 -24.5q0 -16 -11 -25l-837 -858h833z" />
    <glyph glyph-name="uni01CD" unicode="&#x1cd;" horiz-adv-x="1447" 
d="M471 1741q-10 8 -10 20.5t10 20.5q14 12 31 2l222 -152l223 152q13 8 25 2q14 -6 16 -20.5t-10 -24.5l-231 -181q-10 -8 -23 -8q-12 0 -22 8zM1346 52q6 -14 0 -29t-20 -21t-29 0t-21 20l-164 370h-776l-164 -370q-6 -14 -21 -20t-29 0t-19.5 21t0.5 29l586 1322
q10 23 35 23t35 -23zM370 468h709l-355 800z" />
    <glyph glyph-name="uni01CE" unicode="&#x1ce;" horiz-adv-x="1312" 
d="M383 1336q-10 8 -9.5 20.5t10.5 20.5q14 12 30 2l223 -152l222 152q13 8 26 2q14 -6 15.5 -20.5t-10.5 -24.5l-231 -181q-10 -8 -22 -8q-13 0 -23 8zM1116 988q15 0 25.5 -10.5t10.5 -25.5v-916q0 -15 -10.5 -25.5t-25.5 -10.5t-25.5 10.5t-10.5 25.5v222
q-63 -126 -181.5 -202t-260.5 -76q-135 0 -250 69t-181.5 187t-66.5 258t66.5 258t181.5 187t250 69q142 0 260.5 -76t181.5 -202v222q0 15 10.5 25.5t25.5 10.5zM647 49q180 0 307 130t127 315t-127 315t-307 130t-307.5 -130.5t-127.5 -314.5t127.5 -314.5t307.5 -130.5z
" />
    <glyph glyph-name="uni01CF" unicode="&#x1cf;" horiz-adv-x="397" 
d="M446 1786q14 -6 16 -20.5t-10 -24.5l-231 -181q-10 -8 -23 -8q-12 0 -22 8l-231 181q-10 8 -10 20.5t10 20.5q14 12 31 2l222 -152l223 152q13 8 25 2zM199 0q-16 0 -27 11t-11 27v1317q0 16 11 27t27 11t27 -11t11 -27v-1317q0 -16 -11 -27t-27 -11z" />
    <glyph glyph-name="uni01D0" unicode="&#x1d0;" horiz-adv-x="393" 
d="M444 1381q14 -6 16 -20.5t-10 -24.5l-231 -181q-10 -8 -23 -8q-12 0 -22 8l-231 181q-10 8 -10 20.5t10 20.5q14 12 31 2l222 -152l223 152q13 8 25 2zM197 0q-15 0 -25.5 10.5t-10.5 25.5v916q0 15 10.5 25.5t25.5 10.5t25 -10.5t10 -25.5v-916q0 -15 -10 -25.5
t-25 -10.5z" />
    <glyph glyph-name="uni01D1" unicode="&#x1d1;" horiz-adv-x="1699" 
d="M1098 1786q14 -6 15.5 -20.5t-10.5 -24.5l-231 -181q-10 -8 -22 -8q-13 0 -23 8l-231 181q-10 8 -10 20.5t10 20.5q14 12 31 2l223 -152l222 152q13 8 26 2zM850 -20q-144 0 -275.5 56.5t-227 152.5t-151.5 228.5t-56 278.5t56 278.5t151.5 228.5t227 153t275.5 57
t275.5 -57t227 -153t151.5 -228.5t56 -278.5t-56 -278.5t-151.5 -228.5t-227 -152.5t-275.5 -56.5zM850 54q172 0 318 86t231 233.5t85 322.5t-85 323t-231 234t-318 86t-318 -86t-231 -234t-85 -323t85 -322.5t231 -233.5t318 -86z" />
    <glyph glyph-name="uni01D2" unicode="&#x1d2;" horiz-adv-x="1294" 
d="M894 1381q14 -6 16 -20.5t-10 -24.5l-231 -181q-10 -8 -23 -8q-12 0 -22 8l-231 181q-10 8 -10 20.5t10 20.5q14 12 31 2l222 -152l223 152q13 8 25 2zM647 -20q-103 0 -196.5 40.5t-161.5 109.5t-108.5 164t-40.5 200t40.5 200t108.5 164t161.5 109.5t196.5 40.5
q137 0 253.5 -68.5t184.5 -187t68 -258.5t-68 -258.5t-184.5 -187t-253.5 -68.5zM647 49q180 0 307 130t127 315t-127 315t-307 130t-307.5 -130.5t-127.5 -314.5t127.5 -314.5t307.5 -130.5z" />
    <glyph glyph-name="uni01D3" unicode="&#x1d3;" horiz-adv-x="1546" 
d="M1020 1786q14 -6 16 -20.5t-10 -24.5l-231 -181q-10 -8 -23 -8q-12 0 -22 8l-231 181q-10 8 -10 20.5t10 20.5q14 12 31 2l222 -152l223 152q13 8 25 2zM773 -20q-166 0 -307 83t-223 225.5t-82 310.5v756q0 16 11 27t27 11t26.5 -11t10.5 -27v-756q0 -148 72 -273.5
t195.5 -198.5t269.5 -73q109 0 208.5 43t171 116t114 174t42.5 212v756q0 16 10.5 27t26.5 11t27 -11t11 -27v-756q0 -168 -81.5 -310.5t-222.5 -225.5t-307 -83z" />
    <glyph glyph-name="uni01D4" unicode="&#x1d4;" 
d="M383 1336q-10 8 -10 20.5t10 20.5q14 12 30 2l223 -152l223 152q13 8 25 2q14 -6 15.5 -20.5t-10.5 -24.5l-230 -181q-10 -8 -23 -8t-23 8zM1076 988q15 0 25.5 -10.5t10.5 -25.5v-916q0 -15 -10.5 -25.5t-25.5 -10.5t-25.5 10.5t-10.5 25.5v201q-59 -116 -170 -186.5
t-244 -70.5q-193 0 -329 139t-136 335v498q0 15 10.5 25.5t25.5 10.5t25 -10.5t10 -25.5v-489q0 -172 118.5 -293t285.5 -121t285.5 121t118.5 293v489q0 15 10.5 25.5t25.5 10.5z" />
    <glyph glyph-name="uni0228" unicode="&#x228;" horiz-adv-x="1259" 
d="M1061 74q15 0 26 -11t11 -26t-11 -26t-26 -11h-414l-123 -216q-10 -18 -31 -18q-15 0 -26 11t-11 26q0 12 8 22l126 175h-391q-16 0 -27 11t-11 27v1317q0 16 11 27t27 11h862q15 0 26 -11t11 -26t-11 -26.5t-26 -11.5l-824 1v-627h736q15 0 26 -11t11 -26t-11 -26
t-26 -11h-736v-544h824z" />
    <glyph glyph-name="uni0229" unicode="&#x229;" horiz-adv-x="1253" 
d="M626 1008q99 0 189 -40.5t155 -109.5t103.5 -164t38.5 -200v-25q0 -14 -10.5 -24.5t-25.5 -10.5h-860q20 -167 137 -276t279 -109q103 1 212 38.5t199 101.5q8 5 16 5q14 0 24.5 -10.5t10.5 -24.5q0 -20 -19 -30q-90 -63 -197.5 -103t-210.5 -46l-111 -196
q-10 -19 -32 -19q-15 0 -25.5 11t-10.5 26q0 12 8 22l112 156q-199 10 -333.5 156.5t-134.5 357.5q0 105 38.5 200t103.5 164t155 109.5t189 40.5zM626 939q-169 0 -290 -127t-124 -309h828q-3 182 -124 309t-290 127z" />
    <glyph glyph-name="circumflex" unicode="&#x2c6;" horiz-adv-x="841" 
d="M669 1157q-12 -6 -25 2l-223 152l-222 -152q-16 -10 -31 3q-10 8 -10 20.5t10 20.5l231 181q8 7 22 7q15 0 23 -7l230 -181q12 -10 10.5 -25t-15.5 -21z" />
    <glyph glyph-name="caron" unicode="&#x2c7;" horiz-adv-x="841" 
d="M669 1381q14 -6 16 -20.5t-10 -24.5l-231 -181q-10 -8 -23 -8q-12 0 -22 8l-231 181q-10 8 -10 20.5t10 20.5q14 12 31 2l222 -152l223 152q13 8 25 2z" />
    <glyph glyph-name="breve" unicode="&#x2d8;" horiz-adv-x="753" 
d="M377 1146q-83 0 -145 56t-73 141q-3 13 5.5 25t22.5 12q23 0 29 -24q8 -65 53.5 -108.5t107.5 -43.5t107.5 43.5t53.5 108.5q6 24 29 24q13 0 22 -11.5t6 -25.5q-11 -85 -73 -141t-145 -56z" />
    <glyph glyph-name="dotaccent" unicode="&#x2d9;" horiz-adv-x="413" 
d="M206 1146q-20 0 -34 14.5t-14 34.5t14 34.5t34 14.5t34.5 -14.5t14.5 -34.5t-14.5 -34.5t-34.5 -14.5z" />
    <glyph glyph-name="ring" unicode="&#x2da;" horiz-adv-x="634" 
d="M317 1146q-68 0 -115.5 47.5t-47.5 114.5q0 68 48 115.5t115 47.5q68 0 116 -48t48 -115t-48 -114.5t-116 -47.5zM317 1200q44 0 75.5 31.5t31.5 75.5t-31.5 75t-75.5 31t-75 -31t-31 -75t31 -75.5t75 -31.5z" />
    <glyph glyph-name="ogonek" unicode="&#x2db;" horiz-adv-x="600" 
d="M431 -219q-104 -59 -186.5 -34.5t-81.5 114.5q1 95 135 162l31 -27q-49 -28 -76 -62t-26 -68q1 -36 28 -52t67.5 -10.5t82.5 29.5q14 7 27.5 -1.5t13.5 -24.5q0 -18 -15 -26z" />
    <glyph glyph-name="tilde" unicode="&#x2dc;" horiz-adv-x="897" 
d="M443 1172q-136 60 -235 -12q-13 -9 -28 -2t-14 24q0 10 9 19q126 106 278 39q138 -61 236 11q13 9 27.5 2t13.5 -24q0 -11 -8 -19q-125 -106 -279 -38z" />
    <glyph glyph-name="hungarumlaut" unicode="&#x2dd;" horiz-adv-x="790" 
d="M181 1182q-11 2 -18 11t-5 21l70 317q3 14 15.5 22.5t26.5 6.5q18 -2 27.5 -16.5t4.5 -31.5l-92 -311q-7 -22 -29 -19zM455 1180q-13 0 -21 10.5t-5 23.5l74 316q7 28 37 28q19 0 30.5 -16t5.5 -34l-96 -310q-7 -18 -25 -18z" />
    <glyph glyph-name="uni1E36" unicode="&#x1e36;" horiz-adv-x="1259" 
d="M1122 74q15 0 26 -11t11 -26t-11 -26t-26 -11h-923q-16 0 -27 11t-11 27v1317q0 16 11 27t27 11t27 -11t11 -27v-1281h885zM660 -158q20 0 34.5 -14.5t14.5 -34.5t-14.5 -34.5t-34.5 -14.5t-34.5 14.5t-14.5 34.5t14.5 34.5t34.5 14.5z" />
    <glyph glyph-name="uni1E37" unicode="&#x1e37;" horiz-adv-x="393" 
d="M232 1398v-1362q0 -15 -10 -25.5t-25 -10.5t-25.5 10.5t-10.5 25.5v1362q0 15 10.5 25.5t25.5 10.5t25 -10.5t10 -25.5zM197 -158q20 0 34 -14.5t14 -34.5t-14 -34.5t-34 -14.5t-34.5 14.5t-14.5 34.5t14.5 34.5t34.5 14.5z" />
    <glyph glyph-name="Wgrave" unicode="&#x1e80;" horiz-adv-x="2621" 
d="M1271 1569l-169 265q-7 10 -7 22q0 16 11.5 27t27.5 11q24 0 34 -21l151 -275q7 -14 -1.5 -27.5t-23.5 -13.5q-14 0 -23 12zM2500 1393q14 -6 20 -21t0 -29l-587 -1323q-9 -22 -35 -22t-35 22l-552 1245l-552 -1245q-9 -22 -35 -22t-35 22l-586 1323q-6 14 -0.5 29
t19.5 21t29 0t21 -20l552 -1247l552 1247q10 23 35 23t35 -23l552 -1247l553 1247q6 14 20.5 20t28.5 0z" />
    <glyph glyph-name="wgrave" unicode="&#x1e81;" horiz-adv-x="2123" 
d="M1043 1152q-14 0 -23 12l-169 265q-7 10 -7 22q0 16 11.5 27t27.5 11q24 0 34 -20l151 -276q7 -14 -1.5 -27.5t-23.5 -13.5zM615 -8q-28 -7 -40 19l-455 927q-7 14 -2 27.5t19 20.5t27.5 2t20.5 -19l422 -866l422 866q7 15 24 18q29 7 41 -18l422 -866l422 866
q7 14 20.5 19t27.5 -2t18.5 -20.5t-2.5 -27.5l-454 -927q-8 -16 -24 -19q-28 -7 -40 19l-423 861l-421 -861q-8 -16 -25 -19z" />
    <glyph glyph-name="Wacute" unicode="&#x1e82;" horiz-adv-x="2621" 
d="M1330 1557q-15 0 -23.5 13.5t-1.5 27.5l151 275q10 21 34 21q16 0 27.5 -11t11.5 -27q0 -12 -7 -22l-169 -265q-9 -12 -23 -12zM2500 1393q14 -6 20 -21t0 -29l-587 -1323q-9 -22 -35 -22t-35 22l-552 1245l-552 -1245q-9 -22 -35 -22t-35 22l-586 1323q-6 14 -0.5 29
t19.5 21t29 0t21 -20l552 -1247l552 1247q10 23 35 23t35 -23l552 -1247l553 1247q6 14 20.5 20t28.5 0z" />
    <glyph glyph-name="wacute" unicode="&#x1e83;" horiz-adv-x="2123" 
d="M1101 1164q-9 -12 -23 -12q-15 0 -23 13.5t-1 27.5l151 276q10 20 34 20q16 0 27 -11t11 -27q0 -13 -6 -22zM615 -8q-28 -7 -40 19l-455 927q-7 14 -2 27.5t19 20.5t27.5 2t20.5 -19l422 -866l422 866q7 15 24 18q29 7 41 -18l422 -866l422 866q7 14 20.5 19t27.5 -2
t18.5 -20.5t-2.5 -27.5l-454 -927q-8 -16 -24 -19q-28 -7 -40 19l-423 861l-421 -861q-8 -16 -25 -19z" />
    <glyph glyph-name="Wdieresis" unicode="&#x1e84;" horiz-adv-x="2621" 
d="M1155 1550q-20 0 -34.5 14.5t-14.5 34.5t14.5 34.5t34.5 14.5t34.5 -14.5t14.5 -34.5t-14.5 -34.5t-34.5 -14.5zM1469 1550q-20 0 -34.5 14.5t-14.5 34.5t14.5 34.5t34.5 14.5t34 -14.5t14 -34.5t-14 -34.5t-34 -14.5zM2500 1393q14 -6 20 -21t0 -29l-587 -1323
q-9 -22 -35 -22t-35 22l-552 1245l-552 -1245q-9 -22 -35 -22t-35 22l-586 1323q-6 14 -0.5 29t19.5 21t29 0t21 -20l552 -1247l552 1247q10 23 35 23t35 -23l552 -1247l553 1247q6 14 20.5 20t28.5 0z" />
    <glyph glyph-name="wdieresis" unicode="&#x1e85;" horiz-adv-x="2123" 
d="M904 1146q-20 0 -34.5 14.5t-14.5 34.5t14.5 34.5t34.5 14.5t34.5 -14.5t14.5 -34.5t-14.5 -34.5t-34.5 -14.5zM1217 1146q-20 0 -34 14.5t-14 34.5t14 34.5t34 14.5t34.5 -14.5t14.5 -34.5t-14.5 -34.5t-34.5 -14.5zM615 -8q-28 -7 -40 19l-455 927q-7 14 -2 27.5
t19 20.5t27.5 2t20.5 -19l422 -866l422 866q7 15 24 18q29 7 41 -18l422 -866l422 866q7 14 20.5 19t27.5 -2t18.5 -20.5t-2.5 -27.5l-454 -927q-8 -16 -24 -19q-28 -7 -40 19l-423 861l-421 -861q-8 -16 -25 -19z" />
    <glyph glyph-name="uni1E92" unicode="&#x1e92;" horiz-adv-x="1423" 
d="M1226 74q15 0 26 -11t11 -26t-10.5 -26t-26.5 -11h-1028q-15 0 -26 11t-11 26q0 14 10 26l974 1255h-935q-15 0 -26 11.5t-11 26.5t11 26t26 11h1013q15 0 26 -11t11 -26q0 -14 -9 -25l-975 -1257h950zM713 -158q20 0 34.5 -14.5t14.5 -34.5t-14.5 -34.5t-34.5 -14.5
t-34.5 14.5t-14.5 34.5t14.5 34.5t34.5 14.5z" />
    <glyph glyph-name="uni1E93" unicode="&#x1e93;" horiz-adv-x="1310" 
d="M1115 70q14 0 24 -10.5t10 -24.5t-10 -24.5t-24 -10.5h-919q-14 0 -24.5 10.5t-10.5 24.5q0 16 11 25l837 858h-793q-14 0 -24.5 10.5t-10.5 24.5t10.5 24.5t24.5 10.5h878q14 0 24.5 -10.5t10.5 -24.5q0 -16 -11 -25l-837 -858h834zM655 -158q20 0 34.5 -14.5
t14.5 -34.5t-14.5 -34.5t-34.5 -14.5t-34.5 14.5t-14.5 34.5t14.5 34.5t34.5 14.5z" />
    <glyph glyph-name="uni1EA1" unicode="&#x1ea1;" horiz-adv-x="1312" 
d="M1116 988q15 0 25.5 -10.5t10.5 -25.5v-916q0 -15 -10.5 -25.5t-25.5 -10.5t-25.5 10.5t-10.5 25.5v222q-63 -126 -181.5 -202t-260.5 -76q-135 0 -250 69t-181.5 187t-66.5 258t66.5 258t181.5 187t250 69q142 0 260.5 -76t181.5 -202v222q0 15 10.5 25.5t25.5 10.5z
M647 49q180 0 307 130t127 315t-127 315t-307 130t-307.5 -130.5t-127.5 -314.5t127.5 -314.5t307.5 -130.5zM638 -158q20 0 34.5 -14.5t14.5 -34.5t-14.5 -34.5t-34.5 -14.5t-34.5 14.5t-14.5 34.5t14.5 34.5t34.5 14.5z" />
    <glyph glyph-name="uni1EB8" unicode="&#x1eb8;" horiz-adv-x="1259" 
d="M1061 74q15 0 26 -11t11 -26t-11 -26t-26 -11h-862q-16 0 -27 11t-11 27v1317q0 16 11 27t27 11l862 -1q15 0 26 -11t11 -26t-11 -26t-26 -11h-824v-626h736q15 0 26 -11t11 -26t-11 -26t-26 -11h-736v-544h824zM629 -158q20 0 34.5 -14.5t14.5 -34.5t-14.5 -34.5
t-34.5 -14.5t-34 14.5t-14 34.5t14 34.5t34 14.5z" />
    <glyph glyph-name="uni1EB9" unicode="&#x1eb9;" horiz-adv-x="1253" 
d="M626 1008q99 0 189 -40.5t155 -109.5t103.5 -164t38.5 -200v-25q0 -14 -10.5 -24.5t-25.5 -10.5h-860q20 -167 137 -276t279 -109q103 1 212 38.5t199 101.5q8 5 16 5q14 0 24.5 -10.5t10.5 -24.5q0 -20 -19 -30q-99 -69 -216 -109.5t-227 -40.5q-207 0 -349.5 148.5
t-142.5 366.5q0 105 38.5 200t103.5 164t155 109.5t189 40.5zM626 939q-169 0 -290 -127t-124 -309h828q-3 182 -124 309t-290 127zM626 -158q20 0 34.5 -14.5t14.5 -34.5t-14.5 -34.5t-34.5 -14.5t-34.5 14.5t-14.5 34.5t14.5 34.5t34.5 14.5z" />
    <glyph glyph-name="uni1EBC" unicode="&#x1ebc;" horiz-adv-x="1259" 
d="M388 1565q-13 -9 -27.5 -2t-13.5 24q0 10 9 19q126 106 278 39q138 -61 236 11q13 9 27.5 2t13.5 -24q0 -11 -8 -19q-126 -107 -279 -39q-138 61 -236 -11zM1061 74q15 0 26 -11t11 -26t-11 -26t-26 -11h-862q-16 0 -27 11t-11 27v1317q0 16 11 27t27 11h862q15 0 26 -11
t11 -26t-11 -26.5t-26 -11.5l-824 1v-627h736q15 0 26 -11t11 -26t-11 -26t-26 -11h-736v-544h824z" />
    <glyph glyph-name="uni1EBD" unicode="&#x1ebd;" horiz-adv-x="1253" 
d="M385 1160q-13 -9 -27.5 -2t-13.5 24q0 11 8 19q126 107 279 39q138 -61 236 11q13 9 27.5 2t13.5 -24q0 -11 -8 -19q-125 -106 -279 -38q-137 60 -236 -12zM626 1008q99 0 189 -40.5t155 -109.5t103.5 -164t38.5 -200v-25q0 -14 -10.5 -24.5t-25.5 -10.5h-860
q20 -167 137 -276t279 -109q103 1 212 38.5t199 101.5q8 5 16 5q14 0 24.5 -10.5t10.5 -24.5q0 -20 -19 -30q-99 -69 -216 -109.5t-227 -40.5q-207 0 -349.5 148.5t-142.5 366.5q0 105 38.5 200t103.5 164t155 109.5t189 40.5zM626 939q-169 0 -290 -127t-124 -309h828
q-3 182 -124 309t-290 127z" />
    <glyph glyph-name="uni1ECA" unicode="&#x1eca;" horiz-adv-x="278" 
d="M139 1393q11 0 19 -11t8 -27v-1317q0 -16 -8 -27t-19 -11t-18.5 11t-7.5 27v1317q0 16 7.5 27t18.5 11zM139 -158q14 0 24 -14.5t10 -34.5t-10 -34.5t-24 -14.5t-24 14.5t-10 34.5t10 34.5t24 14.5z" />
    <glyph glyph-name="uni1ECB" unicode="&#x1ecb;" horiz-adv-x="399" 
d="M200 1146q-21 0 -36 14.5t-15 35.5t15 36t36 15t35.5 -15t14.5 -36t-14.5 -35.5t-35.5 -14.5zM236 952v-916q0 -15 -10.5 -25.5t-25.5 -10.5t-25.5 10.5t-10.5 25.5v916q0 15 10.5 25.5t25.5 10.5t25.5 -10.5t10.5 -25.5zM200 -158q21 0 35.5 -14.5t14.5 -35.5t-14.5 -36
t-35.5 -15t-36 15t-15 36t15 35.5t36 14.5z" />
    <glyph glyph-name="Ygrave" unicode="&#x1ef2;" horiz-adv-x="1417" 
d="M668 1569l-169 265q-7 10 -7 22q0 16 11.5 27t27.5 11q23 0 34 -21l151 -275q7 -14 -1.5 -27.5t-23.5 -13.5q-14 0 -23 12zM1300 1389q13 -8 16 -24t-5 -29l-564 -850v-452q0 -16 -11 -27t-27 -11t-27 11t-11 27v450l-566 852q-8 13 -5 29t16 24t29 5t24 -16l539 -814
l540 814q8 13 23.5 16t28.5 -5z" />
    <glyph glyph-name="ygrave" unicode="&#x1ef3;" 
d="M617 1152q-14 0 -23 12l-169 265q-7 10 -7 22q0 16 11 27t27 11q24 0 34 -20l152 -276q7 -14 -1.5 -27.5t-23.5 -13.5zM640 -435q-113 0 -234 35t-222 97q-19 10 -19 32q0 20 17 30.5t35 0.5q94 -58 205 -91t217 -33q191 0 297 101.5t106 291.5v217q-56 -120 -168 -193
t-246 -73q-193 0 -329.5 139t-136.5 335v500q0 15 10.5 25.5t25.5 10.5t25.5 -10.5t10.5 -25.5v-491q0 -172 118.5 -293t285.5 -121t285.5 121t118.5 292v492q0 15 10.5 25.5t25.5 10.5t25.5 -10.5t10.5 -25.5v-925q0 -221 -127.5 -342.5t-346.5 -121.5z" />
    <glyph glyph-name="uni1EF8" unicode="&#x1ef8;" horiz-adv-x="1417" 
d="M468 1565q-13 -9 -27.5 -2t-13.5 24q0 11 8 19q126 107 279 39q138 -61 236 11q13 9 27.5 2t13.5 -24q0 -11 -8 -19q-126 -107 -279 -39q-138 61 -236 -11zM1300 1389q13 -8 16 -24t-5 -29l-564 -850v-452q0 -16 -11 -27t-27 -11t-27 11t-11 27v450l-566 852q-8 13 -5 29
t16 24t29 5t24 -16l539 -814l540 814q8 13 23.5 16t28.5 -5z" />
    <glyph glyph-name="uni1EF9" unicode="&#x1ef9;" 
d="M629 1172q-136 60 -235 -12q-13 -9 -28 -2t-14 24q0 10 9 19q126 106 278 39q138 -61 236 11q13 9 28 2t14 -24q0 -10 -9 -19q-125 -106 -279 -38zM640 -435q-113 0 -234 35t-222 97q-19 10 -19 32q0 20 17 30.5t35 0.5q94 -58 205 -91t217 -33q191 0 297 101.5
t106 291.5v217q-56 -120 -168 -193t-246 -73q-193 0 -329.5 139t-136.5 335v500q0 15 10.5 25.5t25.5 10.5t25.5 -10.5t10.5 -25.5v-491q0 -172 118.5 -293t285.5 -121t285.5 121t118.5 292v492q0 15 10.5 25.5t25.5 10.5t25.5 -10.5t10.5 -25.5v-925q0 -221 -127.5 -342.5
t-346.5 -121.5z" />
    <glyph glyph-name="endash" unicode="&#x2013;" horiz-adv-x="1185" 
d="M117 494q0 14 10 24t24 10h883q14 0 24 -10t10 -24t-10 -24t-24 -10h-883q-14 0 -24 10t-10 24z" />
    <glyph glyph-name="emdash" unicode="&#x2014;" horiz-adv-x="2064" 
d="M117 494q0 14 10 24t24 10h1762q14 0 24.5 -10t10.5 -24t-10.5 -24t-24.5 -10h-1762q-14 0 -24 10t-10 24z" />
    <glyph glyph-name="quoteleft" unicode="&#x2018;" horiz-adv-x="393" 
d="M197 930q-11 0 -19 7.5t-8 18.5l-11 524q-1 16 10.5 27.5t27.5 11.5t27.5 -11.5t10.5 -27.5l-11 -524q0 -11 -8 -18.5t-19 -7.5z" />
    <glyph glyph-name="quoteright" unicode="&#x2019;" horiz-adv-x="393" 
d="M197 930q-11 0 -19 7.5t-8 18.5l-11 524q-1 16 10.5 27.5t27.5 11.5t27.5 -11.5t10.5 -27.5l-11 -524q0 -11 -8 -18.5t-19 -7.5z" />
    <glyph glyph-name="quotesinglbase" unicode="&#x201a;" horiz-adv-x="1136" 
d="M155 -342q-17 0 -24.5 15t2.5 29q106 135 124 331q1 16 13.5 27.5t29.5 11.5q18 0 30.5 -13.5t11.5 -32.5q-24 -210 -167 -360q-8 -8 -20 -8z" />
    <glyph glyph-name="quotedblleft" unicode="&#x201c;" horiz-adv-x="669" 
d="M197 930q-11 0 -19 7.5t-8 18.5l-11 524q-1 16 10.5 27.5t27.5 11.5t27.5 -11.5t10.5 -27.5l-11 -524q0 -11 -8 -18.5t-19 -7.5zM472 930q-11 0 -19 7.5t-8 18.5l-11 524q-1 16 10.5 27.5t27.5 11.5t27.5 -11.5t10.5 -27.5l-12 -524q0 -11 -7.5 -18.5t-18.5 -7.5z" />
    <glyph glyph-name="quotedblright" unicode="&#x201d;" horiz-adv-x="669" 
d="M197 930q-11 0 -19 7.5t-8 18.5l-11 524q-1 16 10.5 27.5t27.5 11.5t27.5 -11.5t10.5 -27.5l-11 -524q0 -11 -8 -18.5t-19 -7.5zM472 930q-11 0 -19 7.5t-8 18.5l-11 524q-1 16 10.5 27.5t27.5 11.5t27.5 -11.5t10.5 -27.5l-12 -524q0 -11 -7.5 -18.5t-18.5 -7.5z" />
    <glyph glyph-name="quotedblbase" unicode="&#x201e;" horiz-adv-x="1136" 
d="M300 72q18 0 30.5 -13.5t11.5 -32.5q-24 -210 -167 -360q-8 -8 -20 -8q-17 0 -24.5 15t2.5 29q106 135 124 331q1 16 13.5 27.5t29.5 11.5z" />
    <glyph glyph-name="bullet" unicode="&#x2022;" horiz-adv-x="432" 
d="M216 407q-36 0 -61.5 25.5t-25.5 61.5t25.5 61.5t61.5 25.5t61.5 -25.5t25.5 -61.5t-25.5 -61.5t-61.5 -25.5z" />
    <glyph glyph-name="ellipsis" unicode="&#x2026;" horiz-adv-x="823" 
d="M647 -13q-25 0 -42 17t-17 42t17 42t42 17t42 -17t17 -42t-17 -42t-42 -17zM176 -13q-25 0 -42 17t-17 42t17 42t42 17t42 -17t17 -42t-17 -42t-42 -17zM411 -13q-25 0 -42 17t-17 42t17 42t42 17t42 -17t17 -42t-17 -42t-42 -17z" />
    <glyph glyph-name="perthousand" unicode="&#x2030;" horiz-adv-x="2396" 
d="M473 -4q-7 -11 -19 -15t-23 3t-15 19.5t3 23.5l768 1329q7 11 19 15t23 -3t15 -19.5t-3 -23.5zM459 676q-145 0 -221.5 98t-76.5 250t76.5 250t221.5 98t222 -98t77 -250t-77 -250t-222 -98zM459 736q115 0 175.5 81t60.5 207t-60.5 207t-175.5 81t-175.5 -81t-60.5 -207
t60.5 -207t175.5 -81zM1202 -20q-144 0 -220.5 98t-76.5 250t76.5 250t220.5 98t220.5 -98t76.5 -250t-76.5 -250t-220.5 -98zM1939 -20q-144 0 -220.5 98t-76.5 250t76.5 250t220.5 98t220.5 -98t76.5 -250t-76.5 -250t-220.5 -98zM1202 40q114 0 174.5 81t60.5 207
t-60.5 207t-174.5 81t-174 -81t-60 -207t60 -207t174 -81zM1939 40q114 0 174.5 81t60.5 207t-60.5 207t-174.5 81t-174 -81t-60 -207t60 -207t174 -81z" />
    <glyph glyph-name="guilsinglleft" unicode="&#x2039;" horiz-adv-x="559" 
d="M155 491l319 -374q7 -9 7 -20q0 -13 -9 -21.5t-22 -8.5q-14 0 -23 11l-336 385q-12 13 -12 28t12 28l336 385q9 11 23 11q13 0 22 -9t9 -22q0 -10 -7 -19z" />
    <glyph glyph-name="guilsinglright" unicode="&#x203a;" horiz-adv-x="559" 
d="M404 491l-318 374q-7 9 -7 19q0 13 8.5 22t21.5 9q14 0 23 -11l337 -385q12 -14 12 -28q0 -15 -12 -28l-337 -385q-9 -11 -23 -11q-13 0 -21.5 8.5t-8.5 21.5q0 11 7 20z" />
    <glyph glyph-name="fraction" unicode="&#x2044;" horiz-adv-x="817" 
d="M123 -88q-14 5 -20.5 18.5t-1.5 27.5l547 1501q5 14 18.5 20.5t27.5 1.5t20 -18.5t1 -27.5l-546 -1502q-5 -14 -18.5 -20t-27.5 -1z" />
    <glyph glyph-name="Euro" unicode="&#x20ac;" horiz-adv-x="1388" 
d="M1188 78q17 2 30 -9t13 -28q0 -13 -8 -23t-20 -13q-90 -25 -189 -25q-237 0 -424.5 142.5t-254.5 365.5h-184q-14 0 -24 10t-10 24t10 24.5t24 10.5h167q-13 65 -13 139q0 57 7 105h-161q-14 0 -24 10.5t-10 24.5t10 24t24 10h175q58 237 249.5 390t438.5 153
q96 0 189 -26q12 -3 20 -13t8 -23q0 -17 -13 -28t-30 -8q-91 24 -174 24q-216 0 -384.5 -131.5t-225.5 -337.5h585q14 0 24 -10t10 -24t-10 -24.5t-24 -10.5h-600q-8 -45 -8 -105q0 -72 15 -139h593q14 0 24 -10.5t10 -24.5t-10 -24t-24 -10h-574q65 -192 229 -313t370 -121
q85 0 174 24z" />
    <glyph glyph-name="partialdiff" unicode="&#x2202;" horiz-adv-x="1228" 
 />
    <glyph glyph-name="emptyset" unicode="&#x2205;" horiz-adv-x="1228" 
 />
    <glyph glyph-name="product" unicode="&#x220f;" horiz-adv-x="1417" 
d="M1223 1434q15 0 25 -10.5t10 -25.5v-1797q0 -15 -10 -25.5t-25 -10.5t-25.5 10.5t-10.5 25.5v1763h-958v-1763q0 -15 -10 -25.5t-25 -10.5t-25.5 10.5t-10.5 25.5v1797q0 15 10.5 25.5t25.5 10.5h1029z" />
    <glyph glyph-name="summation" unicode="&#x2211;" horiz-adv-x="1228" 
 />
    <glyph glyph-name="minus" unicode="&#x2212;" horiz-adv-x="1232" 
d="M233 642q-14 0 -24 10t-10 24t10 24t24 10h767q14 0 24 -10t10 -24t-10 -24t-24 -10h-767z" />
    <glyph glyph-name="radical" unicode="&#x221a;" horiz-adv-x="1228" 
 />
    <glyph glyph-name="infinity" unicode="&#x221e;" horiz-adv-x="1228" 
 />
    <glyph glyph-name="integral" unicode="&#x222b;" horiz-adv-x="1228" 
 />
    <glyph glyph-name="approxequal" unicode="&#x2248;" horiz-adv-x="1228" 
 />
    <glyph glyph-name="notequal" unicode="&#x2260;" 
d="M1041 495q14 0 24 -10t10 -24t-10 -24.5t-24 -10.5h-437l-64 -235q-4 -14 -16.5 -21.5t-25.5 -3.5q-14 4 -21 16.5t-3 25.5l59 218h-300q-14 0 -24 10.5t-10 24.5t10 24t24 10h318l83 309h-401q-14 0 -24 10.5t-10 24.5t10 24t24 10h419l77 288q4 14 16.5 21t25.5 3
q14 -4 21.5 -16.5t3.5 -25.5l-73 -270h318q14 0 24 -10t10 -24t-10 -24.5t-24 -10.5h-336l-83 -309h419z" />
    <glyph glyph-name="lessequal" unicode="&#x2264;" horiz-adv-x="1220" 
d="M220 753q-21 8 -21 31t21 31l751 315q17 6 31.5 -3.5t14.5 -27.5q0 -25 -22 -33l-678 -282l678 -282q22 -8 22 -33q0 -18 -14.5 -27.5t-31.5 -3.5zM985 274q14 0 24 -10t10 -24t-10 -24t-24 -10h-749q-14 0 -24.5 10t-10.5 24t10.5 24t24.5 10h749z" />
    <glyph glyph-name="greaterequal" unicode="&#x2265;" horiz-adv-x="1220" 
d="M1000 815q21 -8 21 -31t-21 -31l-751 -315q-17 -6 -32 3.5t-15 27.5q0 24 23 33l678 282l-678 282q-23 9 -23 33q0 18 15 27.5t32 3.5zM984 274q14 0 24 -10t10 -24t-10 -24t-24 -10h-749q-14 0 -24 10t-10 24t10 24t24 10h749z" />
    <glyph glyph-name="i.loclTRK" horiz-adv-x="393" 
d="M197 1146q-20 0 -34.5 14.5t-14.5 34.5t14.5 34.5t34.5 14.5t34 -14.5t14 -34.5t-14 -34.5t-34 -14.5zM197 0q-15 0 -25.5 10.5t-10.5 25.5v916q0 15 10.5 25.5t25.5 10.5t25 -10.5t10 -25.5v-916q0 -15 -10 -25.5t-25 -10.5z" />
    </font>
</defs>
</svg>
